M48
; DRILL file {KiCad (5.1.10-1-10_14)} date Thursday, October 28, 2021 at 04:10:09 PM
; FORMAT={-:-/ absolute / metric / decimal}
; #@! TF.CreationDate,2021-10-28T16:10:09+08:00
; #@! TF.GenerationSoftware,Kicad,Pcbnew,(5.1.10-1-10_14)
; #@! TF.FileFunction,NonPlated,1,2,NPTH
FMAT,2
METRIC
T1C0.991
T2C1.702
T3C3.429
%
G90
G05
T1
X33.24Y-66.28
X33.24Y-83.28
X43.68Y-66.28
X43.68Y-83.28
X51.24Y-66.28
X51.24Y-83.28
X61.68Y-66.28
X61.68Y-83.28
X69.24Y-83.28
X79.68Y-83.28
X87.24Y-83.28
X97.68Y-83.28
T2
X32.96Y-70.48
X32.96Y-87.48
X43.96Y-70.48
X43.96Y-87.48
X50.96Y-70.48
X50.96Y-87.48
X61.96Y-70.48
X61.96Y-87.48
X68.96Y-87.48
X79.96Y-87.48
X86.96Y-87.48
X97.96Y-87.48
T3
X38.46Y-70.48
X38.46Y-87.48
X56.46Y-70.48
X56.46Y-87.48
X74.46Y-87.48
X92.46Y-87.48
T0
M30
