M48
; DRILL file {KiCad (5.1.10-1-10_14)} date Thursday, October 28, 2021 at 04:10:09 PM
; FORMAT={-:-/ absolute / metric / decimal}
; #@! TF.CreationDate,2021-10-28T16:10:09+08:00
; #@! TF.GenerationSoftware,Kicad,Pcbnew,(5.1.10-1-10_14)
; #@! TF.FileFunction,Plated,1,2,PTH
FMAT,2
METRIC
T1C0.813
T2C1.000
T3C1.270
T4C1.500
%
G90
G05
T1
X103.899Y-64.892
X103.899Y-67.432
X103.899Y-69.972
X103.899Y-72.512
X103.899Y-75.052
X103.899Y-77.592
X103.899Y-80.132
X103.899Y-82.672
X103.899Y-85.212
X103.899Y-87.752
X103.899Y-90.292
X103.899Y-92.832
X119.119Y-64.892
X119.119Y-67.432
X119.119Y-69.972
X119.119Y-72.512
X119.119Y-75.052
X119.119Y-77.592
X119.119Y-80.132
X119.119Y-82.672
X119.119Y-85.212
X119.119Y-87.752
X119.119Y-90.292
X119.119Y-92.832
T2
X72.0Y-62.8
X72.0Y-77.3
X74.5Y-62.8
X77.0Y-62.8
X77.0Y-77.3
X90.0Y-62.86
X90.0Y-77.36
X92.5Y-62.86
X95.0Y-62.86
X95.0Y-77.36
T3
X33.46Y-74.28
X33.46Y-91.28
X38.46Y-76.38
X38.46Y-93.38
X43.46Y-74.28
X43.46Y-91.28
X51.46Y-74.28
X51.46Y-91.28
X56.46Y-76.38
X56.46Y-93.38
X61.46Y-74.28
X61.46Y-91.28
X69.46Y-91.28
X74.46Y-93.38
X79.46Y-91.28
X87.46Y-91.28
X92.46Y-93.38
X97.46Y-91.28
T4
X68.9Y-69.65G85X68.9Y-70.95
G05
X80.1Y-69.65G85X80.1Y-70.95
G05
X86.9Y-69.71G85X86.9Y-71.01
G05
X98.1Y-69.71G85X98.1Y-71.01
G05
T0
M30
