%FSLAX45Y45*%
G04 Gerber Fmt 4.5, Leading zero omitted, Abs format (unit mm)*
G04 Created by KiCad (PCBNEW (5.1.10-1-10_14)) date 2021-10-28 16:10:10*
%MOMM*%
%LPD*%
G01*
G04 APERTURE LIST*
%TA.AperFunction,Profile*%
%ADD10C,0.150000*%
%TD*%
%ADD11C,0.200000*%
%ADD12C,0.300000*%
G04 APERTURE END LIST*
D10*
X12167004Y-6032344D02*
G75*
G02*
X12420000Y-6280000I3149J-249836D01*
G01*
X3149945Y-10089262D02*
G75*
G02*
X2860000Y-9820000I-19945J269262D01*
G01*
X2859288Y-6309993D02*
G75*
G02*
X3120000Y-6030000I269974J9993D01*
G01*
X12421000Y-9207000D02*
G75*
G02*
X11532000Y-10096000I-889000J0D01*
G01*
X11532000Y-10096000D02*
X3149945Y-10089262D01*
X2860000Y-9820000D02*
X2859288Y-6309993D01*
X12167000Y-6032000D02*
X3120000Y-6030000D01*
X12420000Y-6280000D02*
X12421000Y-9207000D01*
D11*
X10349220Y-6448560D02*
X10430500Y-6529840D01*
X10430500Y-6448560D02*
X10349220Y-6529840D01*
X10349220Y-6702560D02*
X10430500Y-6783840D01*
X10430500Y-6702560D02*
X10349220Y-6783840D01*
X10349220Y-6956560D02*
X10430500Y-7037840D01*
X10430500Y-6956560D02*
X10349220Y-7037840D01*
X10349220Y-7210560D02*
X10430500Y-7291840D01*
X10430500Y-7210560D02*
X10349220Y-7291840D01*
X10349220Y-7464560D02*
X10430500Y-7545840D01*
X10430500Y-7464560D02*
X10349220Y-7545840D01*
X10349220Y-7718560D02*
X10430500Y-7799840D01*
X10430500Y-7718560D02*
X10349220Y-7799840D01*
X10349220Y-7972560D02*
X10430500Y-8053840D01*
X10430500Y-7972560D02*
X10349220Y-8053840D01*
X10349220Y-8226560D02*
X10430500Y-8307840D01*
X10430500Y-8226560D02*
X10349220Y-8307840D01*
X10349220Y-8480560D02*
X10430500Y-8561840D01*
X10430500Y-8480560D02*
X10349220Y-8561840D01*
X10349220Y-8734560D02*
X10430500Y-8815840D01*
X10430500Y-8734560D02*
X10349220Y-8815840D01*
X10349220Y-8988560D02*
X10430500Y-9069840D01*
X10430500Y-8988560D02*
X10349220Y-9069840D01*
X10349220Y-9242560D02*
X10430500Y-9323840D01*
X10430500Y-9242560D02*
X10349220Y-9323840D01*
X11871220Y-6448560D02*
X11952500Y-6529840D01*
X11952500Y-6448560D02*
X11871220Y-6529840D01*
X11871220Y-6702560D02*
X11952500Y-6783840D01*
X11952500Y-6702560D02*
X11871220Y-6783840D01*
X11871220Y-6956560D02*
X11952500Y-7037840D01*
X11952500Y-6956560D02*
X11871220Y-7037840D01*
X11871220Y-7210560D02*
X11952500Y-7291840D01*
X11952500Y-7210560D02*
X11871220Y-7291840D01*
X11871220Y-7464560D02*
X11952500Y-7545840D01*
X11952500Y-7464560D02*
X11871220Y-7545840D01*
X11871220Y-7718560D02*
X11952500Y-7799840D01*
X11952500Y-7718560D02*
X11871220Y-7799840D01*
X11871220Y-7972560D02*
X11952500Y-8053840D01*
X11952500Y-7972560D02*
X11871220Y-8053840D01*
X11871220Y-8226560D02*
X11952500Y-8307840D01*
X11952500Y-8226560D02*
X11871220Y-8307840D01*
X11871220Y-8480560D02*
X11952500Y-8561840D01*
X11952500Y-8480560D02*
X11871220Y-8561840D01*
X11871220Y-8734560D02*
X11952500Y-8815840D01*
X11952500Y-8734560D02*
X11871220Y-8815840D01*
X11871220Y-8988560D02*
X11952500Y-9069840D01*
X11952500Y-8988560D02*
X11871220Y-9069840D01*
X11871220Y-9242560D02*
X11952500Y-9323840D01*
X11952500Y-9242560D02*
X11871220Y-9323840D01*
X7250000Y-6280000D02*
G75*
G03*
X7250000Y-6280000I-50000J0D01*
G01*
X7250000Y-7730000D02*
G75*
G03*
X7250000Y-7730000I-50000J0D01*
G01*
X7500000Y-6280000D02*
G75*
G03*
X7500000Y-6280000I-50000J0D01*
G01*
X7750000Y-6280000D02*
G75*
G03*
X7750000Y-6280000I-50000J0D01*
G01*
X7750000Y-7730000D02*
G75*
G03*
X7750000Y-7730000I-50000J0D01*
G01*
X9050000Y-6286000D02*
G75*
G03*
X9050000Y-6286000I-50000J0D01*
G01*
X9050000Y-7736000D02*
G75*
G03*
X9050000Y-7736000I-50000J0D01*
G01*
X9300000Y-6286000D02*
G75*
G03*
X9300000Y-6286000I-50000J0D01*
G01*
X9550000Y-6286000D02*
G75*
G03*
X9550000Y-6286000I-50000J0D01*
G01*
X9550000Y-7736000D02*
G75*
G03*
X9550000Y-7736000I-50000J0D01*
G01*
X3346000Y-7364500D02*
X3346000Y-7491500D01*
X3282500Y-7428000D02*
X3409500Y-7428000D01*
X3346000Y-9064500D02*
X3346000Y-9191500D01*
X3282500Y-9128000D02*
X3409500Y-9128000D01*
X3846000Y-7574500D02*
X3846000Y-7701500D01*
X3782500Y-7638000D02*
X3909500Y-7638000D01*
X3846000Y-9274500D02*
X3846000Y-9401500D01*
X3782500Y-9338000D02*
X3909500Y-9338000D01*
X4346000Y-7364500D02*
X4346000Y-7491500D01*
X4282500Y-7428000D02*
X4409500Y-7428000D01*
X4346000Y-9064500D02*
X4346000Y-9191500D01*
X4282500Y-9128000D02*
X4409500Y-9128000D01*
X5146000Y-7364500D02*
X5146000Y-7491500D01*
X5082500Y-7428000D02*
X5209500Y-7428000D01*
X5146000Y-9064500D02*
X5146000Y-9191500D01*
X5082500Y-9128000D02*
X5209500Y-9128000D01*
X5646000Y-7574500D02*
X5646000Y-7701500D01*
X5582500Y-7638000D02*
X5709500Y-7638000D01*
X5646000Y-9274500D02*
X5646000Y-9401500D01*
X5582500Y-9338000D02*
X5709500Y-9338000D01*
X6146000Y-7364500D02*
X6146000Y-7491500D01*
X6082500Y-7428000D02*
X6209500Y-7428000D01*
X6146000Y-9064500D02*
X6146000Y-9191500D01*
X6082500Y-9128000D02*
X6209500Y-9128000D01*
X6946000Y-9064500D02*
X6946000Y-9191500D01*
X6882500Y-9128000D02*
X7009500Y-9128000D01*
X7446000Y-9274500D02*
X7446000Y-9401500D01*
X7382500Y-9338000D02*
X7509500Y-9338000D01*
X7946000Y-9064500D02*
X7946000Y-9191500D01*
X7882500Y-9128000D02*
X8009500Y-9128000D01*
X8746000Y-9064500D02*
X8746000Y-9191500D01*
X8682500Y-9128000D02*
X8809500Y-9128000D01*
X9246000Y-9274500D02*
X9246000Y-9401500D01*
X9182500Y-9338000D02*
X9309500Y-9338000D01*
X9746000Y-9064500D02*
X9746000Y-9191500D01*
X9682500Y-9128000D02*
X9809500Y-9128000D01*
X6943033Y-7083033D02*
X6943033Y-6976966D01*
X6836966Y-6976966D01*
X6836966Y-7083033D01*
X6943033Y-7083033D01*
X6825000Y-6965000D02*
X6825000Y-7095000D01*
X6955000Y-6965000D02*
X6955000Y-7095000D01*
X6825000Y-7095000D02*
G75*
G03*
X6955000Y-7095000I65000J0D01*
G01*
X6955000Y-6965000D02*
G75*
G03*
X6825000Y-6965000I-65000J0D01*
G01*
X8063033Y-7083033D02*
X8063033Y-6976966D01*
X7956966Y-6976966D01*
X7956966Y-7083033D01*
X8063033Y-7083033D01*
X7945000Y-6965000D02*
X7945000Y-7095000D01*
X8075000Y-6965000D02*
X8075000Y-7095000D01*
X7945000Y-7095000D02*
G75*
G03*
X8075000Y-7095000I65000J0D01*
G01*
X8075000Y-6965000D02*
G75*
G03*
X7945000Y-6965000I-65000J0D01*
G01*
X8743034Y-7089033D02*
X8743034Y-6982966D01*
X8636967Y-6982966D01*
X8636967Y-7089033D01*
X8743034Y-7089033D01*
X8625000Y-6971000D02*
X8625000Y-7101000D01*
X8755000Y-6971000D02*
X8755000Y-7101000D01*
X8625000Y-7101000D02*
G75*
G03*
X8755000Y-7101000I65000J0D01*
G01*
X8755000Y-6971000D02*
G75*
G03*
X8625000Y-6971000I-65000J0D01*
G01*
X9863034Y-7089033D02*
X9863034Y-6982966D01*
X9756967Y-6982966D01*
X9756967Y-7089033D01*
X9863034Y-7089033D01*
X9745000Y-6971000D02*
X9745000Y-7101000D01*
X9875000Y-6971000D02*
X9875000Y-7101000D01*
X9745000Y-7101000D02*
G75*
G03*
X9875000Y-7101000I65000J0D01*
G01*
X9875000Y-6971000D02*
G75*
G03*
X9745000Y-6971000I-65000J0D01*
G01*
D12*
X3138032Y-10569214D02*
X3138032Y-10269214D01*
X3209460Y-10269214D01*
X3252318Y-10283500D01*
X3280889Y-10312072D01*
X3295175Y-10340643D01*
X3309460Y-10397786D01*
X3309460Y-10440643D01*
X3295175Y-10497786D01*
X3280889Y-10526357D01*
X3252318Y-10554929D01*
X3209460Y-10569214D01*
X3138032Y-10569214D01*
X3438032Y-10569214D02*
X3438032Y-10369214D01*
X3438032Y-10426357D02*
X3452318Y-10397786D01*
X3466603Y-10383500D01*
X3495175Y-10369214D01*
X3523746Y-10369214D01*
X3623746Y-10569214D02*
X3623746Y-10369214D01*
X3623746Y-10269214D02*
X3609460Y-10283500D01*
X3623746Y-10297786D01*
X3638032Y-10283500D01*
X3623746Y-10269214D01*
X3623746Y-10297786D01*
X3809460Y-10569214D02*
X3780889Y-10554929D01*
X3766603Y-10526357D01*
X3766603Y-10269214D01*
X3966603Y-10569214D02*
X3938032Y-10554929D01*
X3923746Y-10526357D01*
X3923746Y-10269214D01*
X4309461Y-10569214D02*
X4309461Y-10269214D01*
X4409461Y-10483500D01*
X4509461Y-10269214D01*
X4509461Y-10569214D01*
X4780889Y-10569214D02*
X4780889Y-10412072D01*
X4766603Y-10383500D01*
X4738032Y-10369214D01*
X4680889Y-10369214D01*
X4652318Y-10383500D01*
X4780889Y-10554929D02*
X4752318Y-10569214D01*
X4680889Y-10569214D01*
X4652318Y-10554929D01*
X4638032Y-10526357D01*
X4638032Y-10497786D01*
X4652318Y-10469214D01*
X4680889Y-10454929D01*
X4752318Y-10454929D01*
X4780889Y-10440643D01*
X4923746Y-10369214D02*
X4923746Y-10669214D01*
X4923746Y-10383500D02*
X4952318Y-10369214D01*
X5009461Y-10369214D01*
X5038032Y-10383500D01*
X5052318Y-10397786D01*
X5066603Y-10426357D01*
X5066603Y-10512072D01*
X5052318Y-10540643D01*
X5038032Y-10554929D01*
X5009461Y-10569214D01*
X4952318Y-10569214D01*
X4923746Y-10554929D01*
X5195175Y-10540643D02*
X5209461Y-10554929D01*
X5195175Y-10569214D01*
X5180889Y-10554929D01*
X5195175Y-10540643D01*
X5195175Y-10569214D01*
X5195175Y-10383500D02*
X5209461Y-10397786D01*
X5195175Y-10412072D01*
X5180889Y-10397786D01*
X5195175Y-10383500D01*
X5195175Y-10412072D01*
X2770323Y-11022860D02*
X2851603Y-11104140D01*
X2851603Y-11022860D02*
X2770323Y-11104140D01*
X3195175Y-10899214D02*
X3223746Y-10899214D01*
X3252318Y-10913500D01*
X3266603Y-10927786D01*
X3280889Y-10956357D01*
X3295175Y-11013500D01*
X3295175Y-11084929D01*
X3280889Y-11142072D01*
X3266603Y-11170643D01*
X3252318Y-11184929D01*
X3223746Y-11199214D01*
X3195175Y-11199214D01*
X3166603Y-11184929D01*
X3152318Y-11170643D01*
X3138032Y-11142072D01*
X3123746Y-11084929D01*
X3123746Y-11013500D01*
X3138032Y-10956357D01*
X3152318Y-10927786D01*
X3166603Y-10913500D01*
X3195175Y-10899214D01*
X3423746Y-11170643D02*
X3438032Y-11184929D01*
X3423746Y-11199214D01*
X3409460Y-11184929D01*
X3423746Y-11170643D01*
X3423746Y-11199214D01*
X3609460Y-11027786D02*
X3580889Y-11013500D01*
X3566603Y-10999214D01*
X3552318Y-10970643D01*
X3552318Y-10956357D01*
X3566603Y-10927786D01*
X3580889Y-10913500D01*
X3609460Y-10899214D01*
X3666603Y-10899214D01*
X3695175Y-10913500D01*
X3709460Y-10927786D01*
X3723746Y-10956357D01*
X3723746Y-10970643D01*
X3709460Y-10999214D01*
X3695175Y-11013500D01*
X3666603Y-11027786D01*
X3609460Y-11027786D01*
X3580889Y-11042072D01*
X3566603Y-11056357D01*
X3552318Y-11084929D01*
X3552318Y-11142072D01*
X3566603Y-11170643D01*
X3580889Y-11184929D01*
X3609460Y-11199214D01*
X3666603Y-11199214D01*
X3695175Y-11184929D01*
X3709460Y-11170643D01*
X3723746Y-11142072D01*
X3723746Y-11084929D01*
X3709460Y-11056357D01*
X3695175Y-11042072D01*
X3666603Y-11027786D01*
X4009460Y-11199214D02*
X3838032Y-11199214D01*
X3923746Y-11199214D02*
X3923746Y-10899214D01*
X3895175Y-10942072D01*
X3866603Y-10970643D01*
X3838032Y-10984929D01*
X4109460Y-10899214D02*
X4295175Y-10899214D01*
X4195175Y-11013500D01*
X4238032Y-11013500D01*
X4266603Y-11027786D01*
X4280889Y-11042072D01*
X4295175Y-11070643D01*
X4295175Y-11142072D01*
X4280889Y-11170643D01*
X4266603Y-11184929D01*
X4238032Y-11199214D01*
X4152318Y-11199214D01*
X4123746Y-11184929D01*
X4109460Y-11170643D01*
X4423746Y-11199214D02*
X4423746Y-10999214D01*
X4423746Y-11027786D02*
X4438032Y-11013500D01*
X4466603Y-10999214D01*
X4509461Y-10999214D01*
X4538032Y-11013500D01*
X4552318Y-11042072D01*
X4552318Y-11199214D01*
X4552318Y-11042072D02*
X4566603Y-11013500D01*
X4595175Y-10999214D01*
X4638032Y-10999214D01*
X4666603Y-11013500D01*
X4680889Y-11042072D01*
X4680889Y-11199214D01*
X4823746Y-11199214D02*
X4823746Y-10999214D01*
X4823746Y-11027786D02*
X4838032Y-11013500D01*
X4866603Y-10999214D01*
X4909461Y-10999214D01*
X4938032Y-11013500D01*
X4952318Y-11042072D01*
X4952318Y-11199214D01*
X4952318Y-11042072D02*
X4966603Y-11013500D01*
X4995175Y-10999214D01*
X5038032Y-10999214D01*
X5066603Y-11013500D01*
X5080889Y-11042072D01*
X5080889Y-11199214D01*
X5666603Y-10884929D02*
X5409461Y-11270643D01*
X6052318Y-10899214D02*
X6080889Y-10899214D01*
X6109460Y-10913500D01*
X6123746Y-10927786D01*
X6138032Y-10956357D01*
X6152318Y-11013500D01*
X6152318Y-11084929D01*
X6138032Y-11142072D01*
X6123746Y-11170643D01*
X6109460Y-11184929D01*
X6080889Y-11199214D01*
X6052318Y-11199214D01*
X6023746Y-11184929D01*
X6009460Y-11170643D01*
X5995175Y-11142072D01*
X5980889Y-11084929D01*
X5980889Y-11013500D01*
X5995175Y-10956357D01*
X6009460Y-10927786D01*
X6023746Y-10913500D01*
X6052318Y-10899214D01*
X6280889Y-11170643D02*
X6295175Y-11184929D01*
X6280889Y-11199214D01*
X6266603Y-11184929D01*
X6280889Y-11170643D01*
X6280889Y-11199214D01*
X6480889Y-10899214D02*
X6509460Y-10899214D01*
X6538032Y-10913500D01*
X6552318Y-10927786D01*
X6566603Y-10956357D01*
X6580889Y-11013500D01*
X6580889Y-11084929D01*
X6566603Y-11142072D01*
X6552318Y-11170643D01*
X6538032Y-11184929D01*
X6509460Y-11199214D01*
X6480889Y-11199214D01*
X6452318Y-11184929D01*
X6438032Y-11170643D01*
X6423746Y-11142072D01*
X6409460Y-11084929D01*
X6409460Y-11013500D01*
X6423746Y-10956357D01*
X6438032Y-10927786D01*
X6452318Y-10913500D01*
X6480889Y-10899214D01*
X6680889Y-10899214D02*
X6866603Y-10899214D01*
X6766603Y-11013500D01*
X6809460Y-11013500D01*
X6838032Y-11027786D01*
X6852318Y-11042072D01*
X6866603Y-11070643D01*
X6866603Y-11142072D01*
X6852318Y-11170643D01*
X6838032Y-11184929D01*
X6809460Y-11199214D01*
X6723746Y-11199214D01*
X6695175Y-11184929D01*
X6680889Y-11170643D01*
X6980889Y-10927786D02*
X6995175Y-10913500D01*
X7023746Y-10899214D01*
X7095175Y-10899214D01*
X7123746Y-10913500D01*
X7138032Y-10927786D01*
X7152318Y-10956357D01*
X7152318Y-10984929D01*
X7138032Y-11027786D01*
X6966603Y-11199214D01*
X7152318Y-11199214D01*
X7338032Y-10899214D02*
X7366603Y-10899214D01*
X7395175Y-10913500D01*
X7409460Y-10927786D01*
X7423746Y-10956357D01*
X7438032Y-11013500D01*
X7438032Y-11084929D01*
X7423746Y-11142072D01*
X7409460Y-11170643D01*
X7395175Y-11184929D01*
X7366603Y-11199214D01*
X7338032Y-11199214D01*
X7309460Y-11184929D01*
X7295175Y-11170643D01*
X7280889Y-11142072D01*
X7266603Y-11084929D01*
X7266603Y-11013500D01*
X7280889Y-10956357D01*
X7295175Y-10927786D01*
X7309460Y-10913500D01*
X7338032Y-10899214D01*
X7552318Y-10899214D02*
X7552318Y-10956357D01*
X7666603Y-10899214D02*
X7666603Y-10956357D01*
X8109460Y-11313500D02*
X8095175Y-11299214D01*
X8066603Y-11256357D01*
X8052318Y-11227786D01*
X8038032Y-11184929D01*
X8023746Y-11113500D01*
X8023746Y-11056357D01*
X8038032Y-10984929D01*
X8052318Y-10942072D01*
X8066603Y-10913500D01*
X8095175Y-10870643D01*
X8109460Y-10856357D01*
X8209460Y-10927786D02*
X8223746Y-10913500D01*
X8252318Y-10899214D01*
X8323746Y-10899214D01*
X8352318Y-10913500D01*
X8366603Y-10927786D01*
X8380889Y-10956357D01*
X8380889Y-10984929D01*
X8366603Y-11027786D01*
X8195175Y-11199214D01*
X8380889Y-11199214D01*
X8638032Y-10999214D02*
X8638032Y-11199214D01*
X8566603Y-10884929D02*
X8495175Y-11099214D01*
X8680889Y-11099214D01*
X9023746Y-11199214D02*
X9023746Y-10899214D01*
X9152318Y-11199214D02*
X9152318Y-11042072D01*
X9138032Y-11013500D01*
X9109461Y-10999214D01*
X9066603Y-10999214D01*
X9038032Y-11013500D01*
X9023746Y-11027786D01*
X9338032Y-11199214D02*
X9309461Y-11184929D01*
X9295175Y-11170643D01*
X9280889Y-11142072D01*
X9280889Y-11056357D01*
X9295175Y-11027786D01*
X9309461Y-11013500D01*
X9338032Y-10999214D01*
X9380889Y-10999214D01*
X9409461Y-11013500D01*
X9423746Y-11027786D01*
X9438032Y-11056357D01*
X9438032Y-11142072D01*
X9423746Y-11170643D01*
X9409461Y-11184929D01*
X9380889Y-11199214D01*
X9338032Y-11199214D01*
X9609461Y-11199214D02*
X9580889Y-11184929D01*
X9566603Y-11156357D01*
X9566603Y-10899214D01*
X9838032Y-11184929D02*
X9809461Y-11199214D01*
X9752318Y-11199214D01*
X9723746Y-11184929D01*
X9709461Y-11156357D01*
X9709461Y-11042072D01*
X9723746Y-11013500D01*
X9752318Y-10999214D01*
X9809461Y-10999214D01*
X9838032Y-11013500D01*
X9852318Y-11042072D01*
X9852318Y-11070643D01*
X9709461Y-11099214D01*
X9966603Y-11184929D02*
X9995175Y-11199214D01*
X10052318Y-11199214D01*
X10080889Y-11184929D01*
X10095175Y-11156357D01*
X10095175Y-11142072D01*
X10080889Y-11113500D01*
X10052318Y-11099214D01*
X10009461Y-11099214D01*
X9980889Y-11084929D01*
X9966603Y-11056357D01*
X9966603Y-11042072D01*
X9980889Y-11013500D01*
X10009461Y-10999214D01*
X10052318Y-10999214D01*
X10080889Y-11013500D01*
X10195175Y-11313500D02*
X10209461Y-11299214D01*
X10238032Y-11256357D01*
X10252318Y-11227786D01*
X10266603Y-11184929D01*
X10280889Y-11113500D01*
X10280889Y-11056357D01*
X10266603Y-10984929D01*
X10252318Y-10942072D01*
X10238032Y-10913500D01*
X10209461Y-10870643D01*
X10195175Y-10856357D01*
X2851603Y-11459500D02*
G75*
G03*
X2851603Y-11459500I-50000J0D01*
G01*
X3295175Y-11595214D02*
X3123746Y-11595214D01*
X3209460Y-11595214D02*
X3209460Y-11295214D01*
X3180889Y-11338071D01*
X3152318Y-11366643D01*
X3123746Y-11380929D01*
X3423746Y-11566643D02*
X3438032Y-11580929D01*
X3423746Y-11595214D01*
X3409460Y-11580929D01*
X3423746Y-11566643D01*
X3423746Y-11595214D01*
X3623746Y-11295214D02*
X3652318Y-11295214D01*
X3680889Y-11309500D01*
X3695175Y-11323786D01*
X3709460Y-11352357D01*
X3723746Y-11409500D01*
X3723746Y-11480929D01*
X3709460Y-11538071D01*
X3695175Y-11566643D01*
X3680889Y-11580929D01*
X3652318Y-11595214D01*
X3623746Y-11595214D01*
X3595175Y-11580929D01*
X3580889Y-11566643D01*
X3566603Y-11538071D01*
X3552318Y-11480929D01*
X3552318Y-11409500D01*
X3566603Y-11352357D01*
X3580889Y-11323786D01*
X3595175Y-11309500D01*
X3623746Y-11295214D01*
X3909460Y-11295214D02*
X3938032Y-11295214D01*
X3966603Y-11309500D01*
X3980889Y-11323786D01*
X3995175Y-11352357D01*
X4009460Y-11409500D01*
X4009460Y-11480929D01*
X3995175Y-11538071D01*
X3980889Y-11566643D01*
X3966603Y-11580929D01*
X3938032Y-11595214D01*
X3909460Y-11595214D01*
X3880889Y-11580929D01*
X3866603Y-11566643D01*
X3852318Y-11538071D01*
X3838032Y-11480929D01*
X3838032Y-11409500D01*
X3852318Y-11352357D01*
X3866603Y-11323786D01*
X3880889Y-11309500D01*
X3909460Y-11295214D01*
X4195175Y-11295214D02*
X4223746Y-11295214D01*
X4252318Y-11309500D01*
X4266603Y-11323786D01*
X4280889Y-11352357D01*
X4295175Y-11409500D01*
X4295175Y-11480929D01*
X4280889Y-11538071D01*
X4266603Y-11566643D01*
X4252318Y-11580929D01*
X4223746Y-11595214D01*
X4195175Y-11595214D01*
X4166603Y-11580929D01*
X4152318Y-11566643D01*
X4138032Y-11538071D01*
X4123746Y-11480929D01*
X4123746Y-11409500D01*
X4138032Y-11352357D01*
X4152318Y-11323786D01*
X4166603Y-11309500D01*
X4195175Y-11295214D01*
X4423746Y-11595214D02*
X4423746Y-11395214D01*
X4423746Y-11423786D02*
X4438032Y-11409500D01*
X4466603Y-11395214D01*
X4509461Y-11395214D01*
X4538032Y-11409500D01*
X4552318Y-11438071D01*
X4552318Y-11595214D01*
X4552318Y-11438071D02*
X4566603Y-11409500D01*
X4595175Y-11395214D01*
X4638032Y-11395214D01*
X4666603Y-11409500D01*
X4680889Y-11438071D01*
X4680889Y-11595214D01*
X4823746Y-11595214D02*
X4823746Y-11395214D01*
X4823746Y-11423786D02*
X4838032Y-11409500D01*
X4866603Y-11395214D01*
X4909461Y-11395214D01*
X4938032Y-11409500D01*
X4952318Y-11438071D01*
X4952318Y-11595214D01*
X4952318Y-11438071D02*
X4966603Y-11409500D01*
X4995175Y-11395214D01*
X5038032Y-11395214D01*
X5066603Y-11409500D01*
X5080889Y-11438071D01*
X5080889Y-11595214D01*
X5666603Y-11280929D02*
X5409461Y-11666643D01*
X6052318Y-11295214D02*
X6080889Y-11295214D01*
X6109460Y-11309500D01*
X6123746Y-11323786D01*
X6138032Y-11352357D01*
X6152318Y-11409500D01*
X6152318Y-11480929D01*
X6138032Y-11538071D01*
X6123746Y-11566643D01*
X6109460Y-11580929D01*
X6080889Y-11595214D01*
X6052318Y-11595214D01*
X6023746Y-11580929D01*
X6009460Y-11566643D01*
X5995175Y-11538071D01*
X5980889Y-11480929D01*
X5980889Y-11409500D01*
X5995175Y-11352357D01*
X6009460Y-11323786D01*
X6023746Y-11309500D01*
X6052318Y-11295214D01*
X6280889Y-11566643D02*
X6295175Y-11580929D01*
X6280889Y-11595214D01*
X6266603Y-11580929D01*
X6280889Y-11566643D01*
X6280889Y-11595214D01*
X6480889Y-11295214D02*
X6509460Y-11295214D01*
X6538032Y-11309500D01*
X6552318Y-11323786D01*
X6566603Y-11352357D01*
X6580889Y-11409500D01*
X6580889Y-11480929D01*
X6566603Y-11538071D01*
X6552318Y-11566643D01*
X6538032Y-11580929D01*
X6509460Y-11595214D01*
X6480889Y-11595214D01*
X6452318Y-11580929D01*
X6438032Y-11566643D01*
X6423746Y-11538071D01*
X6409460Y-11480929D01*
X6409460Y-11409500D01*
X6423746Y-11352357D01*
X6438032Y-11323786D01*
X6452318Y-11309500D01*
X6480889Y-11295214D01*
X6680889Y-11295214D02*
X6866603Y-11295214D01*
X6766603Y-11409500D01*
X6809460Y-11409500D01*
X6838032Y-11423786D01*
X6852318Y-11438071D01*
X6866603Y-11466643D01*
X6866603Y-11538071D01*
X6852318Y-11566643D01*
X6838032Y-11580929D01*
X6809460Y-11595214D01*
X6723746Y-11595214D01*
X6695175Y-11580929D01*
X6680889Y-11566643D01*
X7009460Y-11595214D02*
X7066603Y-11595214D01*
X7095175Y-11580929D01*
X7109460Y-11566643D01*
X7138032Y-11523786D01*
X7152318Y-11466643D01*
X7152318Y-11352357D01*
X7138032Y-11323786D01*
X7123746Y-11309500D01*
X7095175Y-11295214D01*
X7038032Y-11295214D01*
X7009460Y-11309500D01*
X6995175Y-11323786D01*
X6980889Y-11352357D01*
X6980889Y-11423786D01*
X6995175Y-11452357D01*
X7009460Y-11466643D01*
X7038032Y-11480929D01*
X7095175Y-11480929D01*
X7123746Y-11466643D01*
X7138032Y-11452357D01*
X7152318Y-11423786D01*
X7409460Y-11395214D02*
X7409460Y-11595214D01*
X7338032Y-11280929D02*
X7266603Y-11495214D01*
X7452318Y-11495214D01*
X7552318Y-11295214D02*
X7552318Y-11352357D01*
X7666603Y-11295214D02*
X7666603Y-11352357D01*
X8109460Y-11709500D02*
X8095175Y-11695214D01*
X8066603Y-11652357D01*
X8052318Y-11623786D01*
X8038032Y-11580929D01*
X8023746Y-11509500D01*
X8023746Y-11452357D01*
X8038032Y-11380929D01*
X8052318Y-11338071D01*
X8066603Y-11309500D01*
X8095175Y-11266643D01*
X8109460Y-11252357D01*
X8380889Y-11595214D02*
X8209460Y-11595214D01*
X8295175Y-11595214D02*
X8295175Y-11295214D01*
X8266603Y-11338071D01*
X8238032Y-11366643D01*
X8209460Y-11380929D01*
X8566603Y-11295214D02*
X8595175Y-11295214D01*
X8623746Y-11309500D01*
X8638032Y-11323786D01*
X8652318Y-11352357D01*
X8666603Y-11409500D01*
X8666603Y-11480929D01*
X8652318Y-11538071D01*
X8638032Y-11566643D01*
X8623746Y-11580929D01*
X8595175Y-11595214D01*
X8566603Y-11595214D01*
X8538032Y-11580929D01*
X8523746Y-11566643D01*
X8509461Y-11538071D01*
X8495175Y-11480929D01*
X8495175Y-11409500D01*
X8509461Y-11352357D01*
X8523746Y-11323786D01*
X8538032Y-11309500D01*
X8566603Y-11295214D01*
X9023746Y-11595214D02*
X9023746Y-11295214D01*
X9152318Y-11595214D02*
X9152318Y-11438071D01*
X9138032Y-11409500D01*
X9109461Y-11395214D01*
X9066603Y-11395214D01*
X9038032Y-11409500D01*
X9023746Y-11423786D01*
X9338032Y-11595214D02*
X9309461Y-11580929D01*
X9295175Y-11566643D01*
X9280889Y-11538071D01*
X9280889Y-11452357D01*
X9295175Y-11423786D01*
X9309461Y-11409500D01*
X9338032Y-11395214D01*
X9380889Y-11395214D01*
X9409461Y-11409500D01*
X9423746Y-11423786D01*
X9438032Y-11452357D01*
X9438032Y-11538071D01*
X9423746Y-11566643D01*
X9409461Y-11580929D01*
X9380889Y-11595214D01*
X9338032Y-11595214D01*
X9609461Y-11595214D02*
X9580889Y-11580929D01*
X9566603Y-11552357D01*
X9566603Y-11295214D01*
X9838032Y-11580929D02*
X9809461Y-11595214D01*
X9752318Y-11595214D01*
X9723746Y-11580929D01*
X9709461Y-11552357D01*
X9709461Y-11438071D01*
X9723746Y-11409500D01*
X9752318Y-11395214D01*
X9809461Y-11395214D01*
X9838032Y-11409500D01*
X9852318Y-11438071D01*
X9852318Y-11466643D01*
X9709461Y-11495214D01*
X9966603Y-11580929D02*
X9995175Y-11595214D01*
X10052318Y-11595214D01*
X10080889Y-11580929D01*
X10095175Y-11552357D01*
X10095175Y-11538071D01*
X10080889Y-11509500D01*
X10052318Y-11495214D01*
X10009461Y-11495214D01*
X9980889Y-11480929D01*
X9966603Y-11452357D01*
X9966603Y-11438071D01*
X9980889Y-11409500D01*
X10009461Y-11395214D01*
X10052318Y-11395214D01*
X10080889Y-11409500D01*
X10195175Y-11709500D02*
X10209461Y-11695214D01*
X10238032Y-11652357D01*
X10252318Y-11623786D01*
X10266603Y-11580929D01*
X10280889Y-11509500D01*
X10280889Y-11452357D01*
X10266603Y-11380929D01*
X10252318Y-11338071D01*
X10238032Y-11309500D01*
X10209461Y-11266643D01*
X10195175Y-11252357D01*
X2788103Y-11792000D02*
X2788103Y-11919000D01*
X2724603Y-11855500D02*
X2851603Y-11855500D01*
X3295175Y-11991214D02*
X3123746Y-11991214D01*
X3209460Y-11991214D02*
X3209460Y-11691214D01*
X3180889Y-11734071D01*
X3152318Y-11762643D01*
X3123746Y-11776929D01*
X3423746Y-11962643D02*
X3438032Y-11976929D01*
X3423746Y-11991214D01*
X3409460Y-11976929D01*
X3423746Y-11962643D01*
X3423746Y-11991214D01*
X3552318Y-11719786D02*
X3566603Y-11705500D01*
X3595175Y-11691214D01*
X3666603Y-11691214D01*
X3695175Y-11705500D01*
X3709460Y-11719786D01*
X3723746Y-11748357D01*
X3723746Y-11776929D01*
X3709460Y-11819786D01*
X3538032Y-11991214D01*
X3723746Y-11991214D01*
X3823746Y-11691214D02*
X4023746Y-11691214D01*
X3895175Y-11991214D01*
X4195175Y-11691214D02*
X4223746Y-11691214D01*
X4252318Y-11705500D01*
X4266603Y-11719786D01*
X4280889Y-11748357D01*
X4295175Y-11805500D01*
X4295175Y-11876929D01*
X4280889Y-11934071D01*
X4266603Y-11962643D01*
X4252318Y-11976929D01*
X4223746Y-11991214D01*
X4195175Y-11991214D01*
X4166603Y-11976929D01*
X4152318Y-11962643D01*
X4138032Y-11934071D01*
X4123746Y-11876929D01*
X4123746Y-11805500D01*
X4138032Y-11748357D01*
X4152318Y-11719786D01*
X4166603Y-11705500D01*
X4195175Y-11691214D01*
X4423746Y-11991214D02*
X4423746Y-11791214D01*
X4423746Y-11819786D02*
X4438032Y-11805500D01*
X4466603Y-11791214D01*
X4509461Y-11791214D01*
X4538032Y-11805500D01*
X4552318Y-11834071D01*
X4552318Y-11991214D01*
X4552318Y-11834071D02*
X4566603Y-11805500D01*
X4595175Y-11791214D01*
X4638032Y-11791214D01*
X4666603Y-11805500D01*
X4680889Y-11834071D01*
X4680889Y-11991214D01*
X4823746Y-11991214D02*
X4823746Y-11791214D01*
X4823746Y-11819786D02*
X4838032Y-11805500D01*
X4866603Y-11791214D01*
X4909461Y-11791214D01*
X4938032Y-11805500D01*
X4952318Y-11834071D01*
X4952318Y-11991214D01*
X4952318Y-11834071D02*
X4966603Y-11805500D01*
X4995175Y-11791214D01*
X5038032Y-11791214D01*
X5066603Y-11805500D01*
X5080889Y-11834071D01*
X5080889Y-11991214D01*
X5666603Y-11676929D02*
X5409461Y-12062643D01*
X6052318Y-11691214D02*
X6080889Y-11691214D01*
X6109460Y-11705500D01*
X6123746Y-11719786D01*
X6138032Y-11748357D01*
X6152318Y-11805500D01*
X6152318Y-11876929D01*
X6138032Y-11934071D01*
X6123746Y-11962643D01*
X6109460Y-11976929D01*
X6080889Y-11991214D01*
X6052318Y-11991214D01*
X6023746Y-11976929D01*
X6009460Y-11962643D01*
X5995175Y-11934071D01*
X5980889Y-11876929D01*
X5980889Y-11805500D01*
X5995175Y-11748357D01*
X6009460Y-11719786D01*
X6023746Y-11705500D01*
X6052318Y-11691214D01*
X6280889Y-11962643D02*
X6295175Y-11976929D01*
X6280889Y-11991214D01*
X6266603Y-11976929D01*
X6280889Y-11962643D01*
X6280889Y-11991214D01*
X6480889Y-11691214D02*
X6509460Y-11691214D01*
X6538032Y-11705500D01*
X6552318Y-11719786D01*
X6566603Y-11748357D01*
X6580889Y-11805500D01*
X6580889Y-11876929D01*
X6566603Y-11934071D01*
X6552318Y-11962643D01*
X6538032Y-11976929D01*
X6509460Y-11991214D01*
X6480889Y-11991214D01*
X6452318Y-11976929D01*
X6438032Y-11962643D01*
X6423746Y-11934071D01*
X6409460Y-11876929D01*
X6409460Y-11805500D01*
X6423746Y-11748357D01*
X6438032Y-11719786D01*
X6452318Y-11705500D01*
X6480889Y-11691214D01*
X6852318Y-11691214D02*
X6709460Y-11691214D01*
X6695175Y-11834071D01*
X6709460Y-11819786D01*
X6738032Y-11805500D01*
X6809460Y-11805500D01*
X6838032Y-11819786D01*
X6852318Y-11834071D01*
X6866603Y-11862643D01*
X6866603Y-11934071D01*
X6852318Y-11962643D01*
X6838032Y-11976929D01*
X6809460Y-11991214D01*
X6738032Y-11991214D01*
X6709460Y-11976929D01*
X6695175Y-11962643D01*
X7052318Y-11691214D02*
X7080889Y-11691214D01*
X7109460Y-11705500D01*
X7123746Y-11719786D01*
X7138032Y-11748357D01*
X7152318Y-11805500D01*
X7152318Y-11876929D01*
X7138032Y-11934071D01*
X7123746Y-11962643D01*
X7109460Y-11976929D01*
X7080889Y-11991214D01*
X7052318Y-11991214D01*
X7023746Y-11976929D01*
X7009460Y-11962643D01*
X6995175Y-11934071D01*
X6980889Y-11876929D01*
X6980889Y-11805500D01*
X6995175Y-11748357D01*
X7009460Y-11719786D01*
X7023746Y-11705500D01*
X7052318Y-11691214D01*
X7338032Y-11691214D02*
X7366603Y-11691214D01*
X7395175Y-11705500D01*
X7409460Y-11719786D01*
X7423746Y-11748357D01*
X7438032Y-11805500D01*
X7438032Y-11876929D01*
X7423746Y-11934071D01*
X7409460Y-11962643D01*
X7395175Y-11976929D01*
X7366603Y-11991214D01*
X7338032Y-11991214D01*
X7309460Y-11976929D01*
X7295175Y-11962643D01*
X7280889Y-11934071D01*
X7266603Y-11876929D01*
X7266603Y-11805500D01*
X7280889Y-11748357D01*
X7295175Y-11719786D01*
X7309460Y-11705500D01*
X7338032Y-11691214D01*
X7552318Y-11691214D02*
X7552318Y-11748357D01*
X7666603Y-11691214D02*
X7666603Y-11748357D01*
X8109460Y-12105500D02*
X8095175Y-12091214D01*
X8066603Y-12048357D01*
X8052318Y-12019786D01*
X8038032Y-11976929D01*
X8023746Y-11905500D01*
X8023746Y-11848357D01*
X8038032Y-11776929D01*
X8052318Y-11734071D01*
X8066603Y-11705500D01*
X8095175Y-11662643D01*
X8109460Y-11648357D01*
X8380889Y-11991214D02*
X8209460Y-11991214D01*
X8295175Y-11991214D02*
X8295175Y-11691214D01*
X8266603Y-11734071D01*
X8238032Y-11762643D01*
X8209460Y-11776929D01*
X8552318Y-11819786D02*
X8523746Y-11805500D01*
X8509461Y-11791214D01*
X8495175Y-11762643D01*
X8495175Y-11748357D01*
X8509461Y-11719786D01*
X8523746Y-11705500D01*
X8552318Y-11691214D01*
X8609461Y-11691214D01*
X8638032Y-11705500D01*
X8652318Y-11719786D01*
X8666603Y-11748357D01*
X8666603Y-11762643D01*
X8652318Y-11791214D01*
X8638032Y-11805500D01*
X8609461Y-11819786D01*
X8552318Y-11819786D01*
X8523746Y-11834071D01*
X8509461Y-11848357D01*
X8495175Y-11876929D01*
X8495175Y-11934071D01*
X8509461Y-11962643D01*
X8523746Y-11976929D01*
X8552318Y-11991214D01*
X8609461Y-11991214D01*
X8638032Y-11976929D01*
X8652318Y-11962643D01*
X8666603Y-11934071D01*
X8666603Y-11876929D01*
X8652318Y-11848357D01*
X8638032Y-11834071D01*
X8609461Y-11819786D01*
X9023746Y-11991214D02*
X9023746Y-11691214D01*
X9152318Y-11991214D02*
X9152318Y-11834071D01*
X9138032Y-11805500D01*
X9109461Y-11791214D01*
X9066603Y-11791214D01*
X9038032Y-11805500D01*
X9023746Y-11819786D01*
X9338032Y-11991214D02*
X9309461Y-11976929D01*
X9295175Y-11962643D01*
X9280889Y-11934071D01*
X9280889Y-11848357D01*
X9295175Y-11819786D01*
X9309461Y-11805500D01*
X9338032Y-11791214D01*
X9380889Y-11791214D01*
X9409461Y-11805500D01*
X9423746Y-11819786D01*
X9438032Y-11848357D01*
X9438032Y-11934071D01*
X9423746Y-11962643D01*
X9409461Y-11976929D01*
X9380889Y-11991214D01*
X9338032Y-11991214D01*
X9609461Y-11991214D02*
X9580889Y-11976929D01*
X9566603Y-11948357D01*
X9566603Y-11691214D01*
X9838032Y-11976929D02*
X9809461Y-11991214D01*
X9752318Y-11991214D01*
X9723746Y-11976929D01*
X9709461Y-11948357D01*
X9709461Y-11834071D01*
X9723746Y-11805500D01*
X9752318Y-11791214D01*
X9809461Y-11791214D01*
X9838032Y-11805500D01*
X9852318Y-11834071D01*
X9852318Y-11862643D01*
X9709461Y-11891214D01*
X9966603Y-11976929D02*
X9995175Y-11991214D01*
X10052318Y-11991214D01*
X10080889Y-11976929D01*
X10095175Y-11948357D01*
X10095175Y-11934071D01*
X10080889Y-11905500D01*
X10052318Y-11891214D01*
X10009461Y-11891214D01*
X9980889Y-11876929D01*
X9966603Y-11848357D01*
X9966603Y-11834071D01*
X9980889Y-11805500D01*
X10009461Y-11791214D01*
X10052318Y-11791214D01*
X10080889Y-11805500D01*
X10195175Y-12105500D02*
X10209461Y-12091214D01*
X10238032Y-12048357D01*
X10252318Y-12019786D01*
X10266603Y-11976929D01*
X10280889Y-11905500D01*
X10280889Y-11848357D01*
X10266603Y-11776929D01*
X10252318Y-11734071D01*
X10238032Y-11705500D01*
X10209461Y-11662643D01*
X10195175Y-11648357D01*
X2829637Y-12304534D02*
X2829637Y-12198467D01*
X2723570Y-12198467D01*
X2723570Y-12304534D01*
X2829637Y-12304534D01*
X3295175Y-12387214D02*
X3123746Y-12387214D01*
X3209460Y-12387214D02*
X3209460Y-12087214D01*
X3180889Y-12130071D01*
X3152318Y-12158643D01*
X3123746Y-12172929D01*
X3423746Y-12358643D02*
X3438032Y-12372929D01*
X3423746Y-12387214D01*
X3409460Y-12372929D01*
X3423746Y-12358643D01*
X3423746Y-12387214D01*
X3709460Y-12087214D02*
X3566603Y-12087214D01*
X3552318Y-12230071D01*
X3566603Y-12215786D01*
X3595175Y-12201500D01*
X3666603Y-12201500D01*
X3695175Y-12215786D01*
X3709460Y-12230071D01*
X3723746Y-12258643D01*
X3723746Y-12330071D01*
X3709460Y-12358643D01*
X3695175Y-12372929D01*
X3666603Y-12387214D01*
X3595175Y-12387214D01*
X3566603Y-12372929D01*
X3552318Y-12358643D01*
X3909460Y-12087214D02*
X3938032Y-12087214D01*
X3966603Y-12101500D01*
X3980889Y-12115786D01*
X3995175Y-12144357D01*
X4009460Y-12201500D01*
X4009460Y-12272929D01*
X3995175Y-12330071D01*
X3980889Y-12358643D01*
X3966603Y-12372929D01*
X3938032Y-12387214D01*
X3909460Y-12387214D01*
X3880889Y-12372929D01*
X3866603Y-12358643D01*
X3852318Y-12330071D01*
X3838032Y-12272929D01*
X3838032Y-12201500D01*
X3852318Y-12144357D01*
X3866603Y-12115786D01*
X3880889Y-12101500D01*
X3909460Y-12087214D01*
X4195175Y-12087214D02*
X4223746Y-12087214D01*
X4252318Y-12101500D01*
X4266603Y-12115786D01*
X4280889Y-12144357D01*
X4295175Y-12201500D01*
X4295175Y-12272929D01*
X4280889Y-12330071D01*
X4266603Y-12358643D01*
X4252318Y-12372929D01*
X4223746Y-12387214D01*
X4195175Y-12387214D01*
X4166603Y-12372929D01*
X4152318Y-12358643D01*
X4138032Y-12330071D01*
X4123746Y-12272929D01*
X4123746Y-12201500D01*
X4138032Y-12144357D01*
X4152318Y-12115786D01*
X4166603Y-12101500D01*
X4195175Y-12087214D01*
X4423746Y-12387214D02*
X4423746Y-12187214D01*
X4423746Y-12215786D02*
X4438032Y-12201500D01*
X4466603Y-12187214D01*
X4509461Y-12187214D01*
X4538032Y-12201500D01*
X4552318Y-12230071D01*
X4552318Y-12387214D01*
X4552318Y-12230071D02*
X4566603Y-12201500D01*
X4595175Y-12187214D01*
X4638032Y-12187214D01*
X4666603Y-12201500D01*
X4680889Y-12230071D01*
X4680889Y-12387214D01*
X4823746Y-12387214D02*
X4823746Y-12187214D01*
X4823746Y-12215786D02*
X4838032Y-12201500D01*
X4866603Y-12187214D01*
X4909461Y-12187214D01*
X4938032Y-12201500D01*
X4952318Y-12230071D01*
X4952318Y-12387214D01*
X4952318Y-12230071D02*
X4966603Y-12201500D01*
X4995175Y-12187214D01*
X5038032Y-12187214D01*
X5066603Y-12201500D01*
X5080889Y-12230071D01*
X5080889Y-12387214D01*
X5666603Y-12072929D02*
X5409461Y-12458643D01*
X6052318Y-12087214D02*
X6080889Y-12087214D01*
X6109460Y-12101500D01*
X6123746Y-12115786D01*
X6138032Y-12144357D01*
X6152318Y-12201500D01*
X6152318Y-12272929D01*
X6138032Y-12330071D01*
X6123746Y-12358643D01*
X6109460Y-12372929D01*
X6080889Y-12387214D01*
X6052318Y-12387214D01*
X6023746Y-12372929D01*
X6009460Y-12358643D01*
X5995175Y-12330071D01*
X5980889Y-12272929D01*
X5980889Y-12201500D01*
X5995175Y-12144357D01*
X6009460Y-12115786D01*
X6023746Y-12101500D01*
X6052318Y-12087214D01*
X6280889Y-12358643D02*
X6295175Y-12372929D01*
X6280889Y-12387214D01*
X6266603Y-12372929D01*
X6280889Y-12358643D01*
X6280889Y-12387214D01*
X6480889Y-12087214D02*
X6509460Y-12087214D01*
X6538032Y-12101500D01*
X6552318Y-12115786D01*
X6566603Y-12144357D01*
X6580889Y-12201500D01*
X6580889Y-12272929D01*
X6566603Y-12330071D01*
X6552318Y-12358643D01*
X6538032Y-12372929D01*
X6509460Y-12387214D01*
X6480889Y-12387214D01*
X6452318Y-12372929D01*
X6438032Y-12358643D01*
X6423746Y-12330071D01*
X6409460Y-12272929D01*
X6409460Y-12201500D01*
X6423746Y-12144357D01*
X6438032Y-12115786D01*
X6452318Y-12101500D01*
X6480889Y-12087214D01*
X6852318Y-12087214D02*
X6709460Y-12087214D01*
X6695175Y-12230071D01*
X6709460Y-12215786D01*
X6738032Y-12201500D01*
X6809460Y-12201500D01*
X6838032Y-12215786D01*
X6852318Y-12230071D01*
X6866603Y-12258643D01*
X6866603Y-12330071D01*
X6852318Y-12358643D01*
X6838032Y-12372929D01*
X6809460Y-12387214D01*
X6738032Y-12387214D01*
X6709460Y-12372929D01*
X6695175Y-12358643D01*
X7009460Y-12387214D02*
X7066603Y-12387214D01*
X7095175Y-12372929D01*
X7109460Y-12358643D01*
X7138032Y-12315786D01*
X7152318Y-12258643D01*
X7152318Y-12144357D01*
X7138032Y-12115786D01*
X7123746Y-12101500D01*
X7095175Y-12087214D01*
X7038032Y-12087214D01*
X7009460Y-12101500D01*
X6995175Y-12115786D01*
X6980889Y-12144357D01*
X6980889Y-12215786D01*
X6995175Y-12244357D01*
X7009460Y-12258643D01*
X7038032Y-12272929D01*
X7095175Y-12272929D01*
X7123746Y-12258643D01*
X7138032Y-12244357D01*
X7152318Y-12215786D01*
X7438032Y-12387214D02*
X7266603Y-12387214D01*
X7352318Y-12387214D02*
X7352318Y-12087214D01*
X7323746Y-12130071D01*
X7295175Y-12158643D01*
X7266603Y-12172929D01*
X7552318Y-12087214D02*
X7552318Y-12144357D01*
X7666603Y-12087214D02*
X7666603Y-12144357D01*
X8109460Y-12501500D02*
X8095175Y-12487214D01*
X8066603Y-12444357D01*
X8052318Y-12415786D01*
X8038032Y-12372929D01*
X8023746Y-12301500D01*
X8023746Y-12244357D01*
X8038032Y-12172929D01*
X8052318Y-12130071D01*
X8066603Y-12101500D01*
X8095175Y-12058643D01*
X8109460Y-12044357D01*
X8280889Y-12087214D02*
X8309460Y-12087214D01*
X8338032Y-12101500D01*
X8352318Y-12115786D01*
X8366603Y-12144357D01*
X8380889Y-12201500D01*
X8380889Y-12272929D01*
X8366603Y-12330071D01*
X8352318Y-12358643D01*
X8338032Y-12372929D01*
X8309460Y-12387214D01*
X8280889Y-12387214D01*
X8252318Y-12372929D01*
X8238032Y-12358643D01*
X8223746Y-12330071D01*
X8209460Y-12272929D01*
X8209460Y-12201500D01*
X8223746Y-12144357D01*
X8238032Y-12115786D01*
X8252318Y-12101500D01*
X8280889Y-12087214D01*
X8738032Y-12387214D02*
X8738032Y-12087214D01*
X8866603Y-12387214D02*
X8866603Y-12230071D01*
X8852318Y-12201500D01*
X8823746Y-12187214D01*
X8780889Y-12187214D01*
X8752318Y-12201500D01*
X8738032Y-12215786D01*
X9052318Y-12387214D02*
X9023746Y-12372929D01*
X9009461Y-12358643D01*
X8995175Y-12330071D01*
X8995175Y-12244357D01*
X9009461Y-12215786D01*
X9023746Y-12201500D01*
X9052318Y-12187214D01*
X9095175Y-12187214D01*
X9123746Y-12201500D01*
X9138032Y-12215786D01*
X9152318Y-12244357D01*
X9152318Y-12330071D01*
X9138032Y-12358643D01*
X9123746Y-12372929D01*
X9095175Y-12387214D01*
X9052318Y-12387214D01*
X9323746Y-12387214D02*
X9295175Y-12372929D01*
X9280889Y-12344357D01*
X9280889Y-12087214D01*
X9552318Y-12372929D02*
X9523746Y-12387214D01*
X9466603Y-12387214D01*
X9438032Y-12372929D01*
X9423746Y-12344357D01*
X9423746Y-12230071D01*
X9438032Y-12201500D01*
X9466603Y-12187214D01*
X9523746Y-12187214D01*
X9552318Y-12201500D01*
X9566603Y-12230071D01*
X9566603Y-12258643D01*
X9423746Y-12287214D01*
X9680889Y-12372929D02*
X9709461Y-12387214D01*
X9766603Y-12387214D01*
X9795175Y-12372929D01*
X9809461Y-12344357D01*
X9809461Y-12330071D01*
X9795175Y-12301500D01*
X9766603Y-12287214D01*
X9723746Y-12287214D01*
X9695175Y-12272929D01*
X9680889Y-12244357D01*
X9680889Y-12230071D01*
X9695175Y-12201500D01*
X9723746Y-12187214D01*
X9766603Y-12187214D01*
X9795175Y-12201500D01*
X10166603Y-12272929D02*
X10395175Y-12272929D01*
X10280889Y-12387214D02*
X10280889Y-12158643D01*
X10895175Y-12187214D02*
X10895175Y-12387214D01*
X10823746Y-12072929D02*
X10752318Y-12287214D01*
X10938032Y-12287214D01*
X11266603Y-12372929D02*
X11295175Y-12387214D01*
X11352318Y-12387214D01*
X11380889Y-12372929D01*
X11395175Y-12344357D01*
X11395175Y-12330071D01*
X11380889Y-12301500D01*
X11352318Y-12287214D01*
X11309460Y-12287214D01*
X11280889Y-12272929D01*
X11266603Y-12244357D01*
X11266603Y-12230071D01*
X11280889Y-12201500D01*
X11309460Y-12187214D01*
X11352318Y-12187214D01*
X11380889Y-12201500D01*
X11566603Y-12387214D02*
X11538032Y-12372929D01*
X11523746Y-12344357D01*
X11523746Y-12087214D01*
X11723746Y-12387214D02*
X11695175Y-12372929D01*
X11680889Y-12358643D01*
X11666603Y-12330071D01*
X11666603Y-12244357D01*
X11680889Y-12215786D01*
X11695175Y-12201500D01*
X11723746Y-12187214D01*
X11766603Y-12187214D01*
X11795175Y-12201500D01*
X11809460Y-12215786D01*
X11823746Y-12244357D01*
X11823746Y-12330071D01*
X11809460Y-12358643D01*
X11795175Y-12372929D01*
X11766603Y-12387214D01*
X11723746Y-12387214D01*
X11909460Y-12187214D02*
X12023746Y-12187214D01*
X11952318Y-12087214D02*
X11952318Y-12344357D01*
X11966603Y-12372929D01*
X11995175Y-12387214D01*
X12023746Y-12387214D01*
X12109460Y-12372929D02*
X12138032Y-12387214D01*
X12195175Y-12387214D01*
X12223746Y-12372929D01*
X12238032Y-12344357D01*
X12238032Y-12330071D01*
X12223746Y-12301500D01*
X12195175Y-12287214D01*
X12152318Y-12287214D01*
X12123746Y-12272929D01*
X12109460Y-12244357D01*
X12109460Y-12230071D01*
X12123746Y-12201500D01*
X12152318Y-12187214D01*
X12195175Y-12187214D01*
X12223746Y-12201500D01*
X12338032Y-12501500D02*
X12352318Y-12487214D01*
X12380889Y-12444357D01*
X12395175Y-12415786D01*
X12409460Y-12372929D01*
X12423746Y-12301500D01*
X12423746Y-12244357D01*
X12409460Y-12172929D01*
X12395175Y-12130071D01*
X12380889Y-12101500D01*
X12352318Y-12058643D01*
X12338032Y-12044357D01*
M02*
