G04 #@! TF.GenerationSoftware,KiCad,Pcbnew,(5.1.10-1-10_14)*
G04 #@! TF.CreationDate,2021-10-28T16:09:57+08:00*
G04 #@! TF.ProjectId,macro3,6d616372-6f33-42e6-9b69-6361645f7063,0.1*
G04 #@! TF.SameCoordinates,Original*
G04 #@! TF.FileFunction,Copper,L1,Top*
G04 #@! TF.FilePolarity,Positive*
%FSLAX46Y46*%
G04 Gerber Fmt 4.6, Leading zero omitted, Abs format (unit mm)*
G04 Created by KiCad (PCBNEW (5.1.10-1-10_14)) date 2021-10-28 16:09:57*
%MOMM*%
%LPD*%
G01*
G04 APERTURE LIST*
G04 #@! TA.AperFunction,ComponentPad*
%ADD10C,1.500000*%
G04 #@! TD*
G04 #@! TA.AperFunction,ComponentPad*
%ADD11R,2.000000X3.200000*%
G04 #@! TD*
G04 #@! TA.AperFunction,ComponentPad*
%ADD12C,2.000000*%
G04 #@! TD*
G04 #@! TA.AperFunction,ComponentPad*
%ADD13R,2.000000X2.000000*%
G04 #@! TD*
G04 #@! TA.AperFunction,ComponentPad*
%ADD14C,2.032000*%
G04 #@! TD*
G04 #@! TA.AperFunction,ComponentPad*
%ADD15C,1.524000*%
G04 #@! TD*
G04 #@! TA.AperFunction,Conductor*
%ADD16C,0.250000*%
G04 #@! TD*
G04 #@! TA.AperFunction,Conductor*
%ADD17C,0.254000*%
G04 #@! TD*
G04 #@! TA.AperFunction,Conductor*
%ADD18C,0.100000*%
G04 #@! TD*
G04 APERTURE END LIST*
D10*
X72000000Y-77300000D03*
X77000000Y-77300000D03*
D11*
X68900000Y-70300000D03*
X80100000Y-70300000D03*
D12*
X72000000Y-62800000D03*
X74500000Y-62800000D03*
D13*
X77000000Y-62800000D03*
D14*
X43460000Y-91280000D03*
X33460000Y-91280000D03*
X38460000Y-93380000D03*
X43460000Y-74280000D03*
X33460000Y-74280000D03*
X38460000Y-76380000D03*
D15*
X119118600Y-64892000D03*
X119118600Y-67432000D03*
X119118600Y-69972000D03*
X119118600Y-72512000D03*
X119118600Y-75052000D03*
X119118600Y-77592000D03*
X119118600Y-80132000D03*
X119118600Y-82672000D03*
X119118600Y-85212000D03*
X119118600Y-87752000D03*
X119118600Y-90292000D03*
X119118600Y-92832000D03*
X103898600Y-92832000D03*
X103898600Y-90292000D03*
X103898600Y-87752000D03*
X103898600Y-85212000D03*
X103898600Y-82672000D03*
X103898600Y-80132000D03*
X103898600Y-77592000D03*
X103898600Y-75052000D03*
X103898600Y-72512000D03*
X103898600Y-69972000D03*
X103898600Y-67432000D03*
X103898600Y-64892000D03*
D13*
X95000000Y-62860000D03*
D12*
X92500000Y-62860000D03*
X90000000Y-62860000D03*
D11*
X98100000Y-70360000D03*
X86900000Y-70360000D03*
D10*
X95000000Y-77360000D03*
X90000000Y-77360000D03*
D14*
X56460000Y-76380000D03*
X51460000Y-74280000D03*
X61460000Y-74280000D03*
X92460000Y-93380000D03*
X87460000Y-91280000D03*
X97460000Y-91280000D03*
X74460000Y-93380000D03*
X69460000Y-91280000D03*
X79460000Y-91280000D03*
X56460000Y-93380000D03*
X51460000Y-91280000D03*
X61460000Y-91280000D03*
D16*
X116578600Y-69972000D02*
X103898600Y-69972000D01*
X119118600Y-67432000D02*
X116578600Y-69972000D01*
X103898600Y-69972000D02*
X103898600Y-72512000D01*
X79460000Y-91040000D02*
X79460000Y-91280000D01*
X79460000Y-91280000D02*
X79580000Y-91280000D01*
X103448009Y-82854999D02*
X104420361Y-82854999D01*
X103564999Y-82854999D02*
X104420361Y-82854999D01*
X100338300Y-79111700D02*
X103898600Y-82672000D01*
X99068300Y-79111700D02*
X100338300Y-79111700D01*
X79200000Y-77300000D02*
X81300000Y-79400000D01*
X77000000Y-77300000D02*
X79200000Y-77300000D01*
X99068300Y-79111700D02*
X81300000Y-79400000D01*
X104985601Y-84124999D02*
X104660599Y-84450001D01*
X104985601Y-82150239D02*
X104985601Y-84124999D01*
X104420361Y-81584999D02*
X104985601Y-82150239D01*
X104660599Y-84450001D02*
X103898600Y-85212000D01*
X103564999Y-81584999D02*
X104420361Y-81584999D01*
X99340000Y-77360000D02*
X103564999Y-81584999D01*
X94920000Y-77360000D02*
X99340000Y-77360000D01*
X90475318Y-93380000D02*
X74460000Y-93380000D01*
X94325317Y-89530001D02*
X90475318Y-93380000D01*
X103136601Y-89530001D02*
X94325317Y-89530001D01*
X103898600Y-90292000D02*
X103136601Y-89530001D01*
X103448009Y-92649001D02*
X104420361Y-92649001D01*
X58960000Y-95880000D02*
X56460000Y-93380000D01*
X85780000Y-95880000D02*
X88600000Y-98700000D01*
X85780000Y-95880000D02*
X58960000Y-95880000D01*
X98030600Y-98700000D02*
X103898600Y-92832000D01*
X88600000Y-98700000D02*
X98030600Y-98700000D01*
X118356601Y-85973999D02*
X119118600Y-85212000D01*
X112951599Y-91379001D02*
X118356601Y-85973999D01*
X103720999Y-91379001D02*
X112951599Y-91379001D01*
X93915999Y-94415999D02*
X100784001Y-94415999D01*
X92900000Y-93400000D02*
X93915999Y-94415999D01*
X100900000Y-94300000D02*
X103720999Y-91379001D01*
X100784001Y-94415999D02*
X100900000Y-94300000D01*
X103136601Y-74290001D02*
X103898600Y-75052000D01*
X57916319Y-72938999D02*
X101785599Y-72938999D01*
X101785599Y-72938999D02*
X103136601Y-74290001D01*
X54475318Y-76380000D02*
X57916319Y-72938999D01*
X38560000Y-76380000D02*
X54475318Y-76380000D01*
D17*
X121600113Y-61029984D02*
X121609671Y-61030867D01*
X122026175Y-61066412D01*
X122360951Y-61162899D01*
X122670605Y-61322571D01*
X122943351Y-61539351D01*
X123168796Y-61804979D01*
X123338355Y-62109337D01*
X123445566Y-62440833D01*
X123490007Y-62817879D01*
X123499992Y-92046567D01*
X123426592Y-93151648D01*
X123212324Y-94214302D01*
X122859399Y-95239268D01*
X122374010Y-96208569D01*
X121764700Y-97105143D01*
X121042154Y-97913266D01*
X120219078Y-98618729D01*
X119309931Y-99209135D01*
X118330684Y-99674116D01*
X117298542Y-100005501D01*
X116227968Y-100198128D01*
X115300439Y-100249985D01*
X31508227Y-100182631D01*
X31059147Y-100171941D01*
X30680717Y-100087604D01*
X30325874Y-99931369D01*
X30008135Y-99709187D01*
X29739600Y-99429518D01*
X29530505Y-99103022D01*
X29388806Y-98742124D01*
X29316266Y-98340429D01*
X29309997Y-98185561D01*
X29308991Y-93217391D01*
X36809000Y-93217391D01*
X36809000Y-93542609D01*
X36872447Y-93861579D01*
X36996903Y-94162042D01*
X37177585Y-94432451D01*
X37407549Y-94662415D01*
X37677958Y-94843097D01*
X37978421Y-94967553D01*
X38297391Y-95031000D01*
X38622609Y-95031000D01*
X38941579Y-94967553D01*
X39242042Y-94843097D01*
X39512451Y-94662415D01*
X39742415Y-94432451D01*
X39923097Y-94162042D01*
X40047553Y-93861579D01*
X40111000Y-93542609D01*
X40111000Y-93217391D01*
X40047553Y-92898421D01*
X39923097Y-92597958D01*
X39808748Y-92426823D01*
X42492782Y-92426823D01*
X42590478Y-92692860D01*
X42882821Y-92835348D01*
X43197344Y-92918064D01*
X43521962Y-92937831D01*
X43844198Y-92893888D01*
X44151670Y-92787924D01*
X44329522Y-92692860D01*
X44427218Y-92426823D01*
X50492782Y-92426823D01*
X50590478Y-92692860D01*
X50882821Y-92835348D01*
X51197344Y-92918064D01*
X51521962Y-92937831D01*
X51844198Y-92893888D01*
X52151670Y-92787924D01*
X52329522Y-92692860D01*
X52427218Y-92426823D01*
X51460000Y-91459605D01*
X50492782Y-92426823D01*
X44427218Y-92426823D01*
X43460000Y-91459605D01*
X42492782Y-92426823D01*
X39808748Y-92426823D01*
X39742415Y-92327549D01*
X39512451Y-92097585D01*
X39242042Y-91916903D01*
X38941579Y-91792447D01*
X38622609Y-91729000D01*
X38297391Y-91729000D01*
X37978421Y-91792447D01*
X37677958Y-91916903D01*
X37407549Y-92097585D01*
X37177585Y-92327549D01*
X36996903Y-92597958D01*
X36872447Y-92898421D01*
X36809000Y-93217391D01*
X29308991Y-93217391D01*
X29308830Y-92426823D01*
X32492782Y-92426823D01*
X32590478Y-92692860D01*
X32882821Y-92835348D01*
X33197344Y-92918064D01*
X33521962Y-92937831D01*
X33844198Y-92893888D01*
X34151670Y-92787924D01*
X34329522Y-92692860D01*
X34427218Y-92426823D01*
X33460000Y-91459605D01*
X32492782Y-92426823D01*
X29308830Y-92426823D01*
X29308610Y-91341962D01*
X31802169Y-91341962D01*
X31846112Y-91664198D01*
X31952076Y-91971670D01*
X32047140Y-92149522D01*
X32313177Y-92247218D01*
X33280395Y-91280000D01*
X33639605Y-91280000D01*
X34606823Y-92247218D01*
X34872860Y-92149522D01*
X35015348Y-91857179D01*
X35098064Y-91542656D01*
X35110284Y-91341962D01*
X41802169Y-91341962D01*
X41846112Y-91664198D01*
X41952076Y-91971670D01*
X42047140Y-92149522D01*
X42313177Y-92247218D01*
X43280395Y-91280000D01*
X43639605Y-91280000D01*
X44606823Y-92247218D01*
X44872860Y-92149522D01*
X45015348Y-91857179D01*
X45098064Y-91542656D01*
X45110284Y-91341962D01*
X49802169Y-91341962D01*
X49846112Y-91664198D01*
X49952076Y-91971670D01*
X50047140Y-92149522D01*
X50313177Y-92247218D01*
X51280395Y-91280000D01*
X51639605Y-91280000D01*
X52606823Y-92247218D01*
X52872860Y-92149522D01*
X53015348Y-91857179D01*
X53098064Y-91542656D01*
X53110284Y-91341962D01*
X59802169Y-91341962D01*
X59846112Y-91664198D01*
X59952076Y-91971670D01*
X60047140Y-92149522D01*
X60313177Y-92247218D01*
X61280395Y-91280000D01*
X61639605Y-91280000D01*
X62606823Y-92247218D01*
X62872860Y-92149522D01*
X63015348Y-91857179D01*
X63098064Y-91542656D01*
X63110284Y-91341962D01*
X67802169Y-91341962D01*
X67846112Y-91664198D01*
X67952076Y-91971670D01*
X68047140Y-92149522D01*
X68313177Y-92247218D01*
X69280395Y-91280000D01*
X69639605Y-91280000D01*
X70606823Y-92247218D01*
X70872860Y-92149522D01*
X71015348Y-91857179D01*
X71098064Y-91542656D01*
X71110284Y-91341962D01*
X77802169Y-91341962D01*
X77846112Y-91664198D01*
X77952076Y-91971670D01*
X78047140Y-92149522D01*
X78313177Y-92247218D01*
X79280395Y-91280000D01*
X79639605Y-91280000D01*
X80606823Y-92247218D01*
X80872860Y-92149522D01*
X81015348Y-91857179D01*
X81098064Y-91542656D01*
X81110284Y-91341962D01*
X85802169Y-91341962D01*
X85846112Y-91664198D01*
X85952076Y-91971670D01*
X86047140Y-92149522D01*
X86313177Y-92247218D01*
X87280395Y-91280000D01*
X87639605Y-91280000D01*
X88606823Y-92247218D01*
X88872860Y-92149522D01*
X89015348Y-91857179D01*
X89098064Y-91542656D01*
X89117831Y-91218038D01*
X89073888Y-90895802D01*
X88967924Y-90588330D01*
X88872860Y-90410478D01*
X88606823Y-90312782D01*
X87639605Y-91280000D01*
X87280395Y-91280000D01*
X86313177Y-90312782D01*
X86047140Y-90410478D01*
X85904652Y-90702821D01*
X85821936Y-91017344D01*
X85802169Y-91341962D01*
X81110284Y-91341962D01*
X81117831Y-91218038D01*
X81073888Y-90895802D01*
X80967924Y-90588330D01*
X80872860Y-90410478D01*
X80606823Y-90312782D01*
X79639605Y-91280000D01*
X79280395Y-91280000D01*
X78313177Y-90312782D01*
X78047140Y-90410478D01*
X77904652Y-90702821D01*
X77821936Y-91017344D01*
X77802169Y-91341962D01*
X71110284Y-91341962D01*
X71117831Y-91218038D01*
X71073888Y-90895802D01*
X70967924Y-90588330D01*
X70872860Y-90410478D01*
X70606823Y-90312782D01*
X69639605Y-91280000D01*
X69280395Y-91280000D01*
X68313177Y-90312782D01*
X68047140Y-90410478D01*
X67904652Y-90702821D01*
X67821936Y-91017344D01*
X67802169Y-91341962D01*
X63110284Y-91341962D01*
X63117831Y-91218038D01*
X63073888Y-90895802D01*
X62967924Y-90588330D01*
X62872860Y-90410478D01*
X62606823Y-90312782D01*
X61639605Y-91280000D01*
X61280395Y-91280000D01*
X60313177Y-90312782D01*
X60047140Y-90410478D01*
X59904652Y-90702821D01*
X59821936Y-91017344D01*
X59802169Y-91341962D01*
X53110284Y-91341962D01*
X53117831Y-91218038D01*
X53073888Y-90895802D01*
X52967924Y-90588330D01*
X52872860Y-90410478D01*
X52606823Y-90312782D01*
X51639605Y-91280000D01*
X51280395Y-91280000D01*
X50313177Y-90312782D01*
X50047140Y-90410478D01*
X49904652Y-90702821D01*
X49821936Y-91017344D01*
X49802169Y-91341962D01*
X45110284Y-91341962D01*
X45117831Y-91218038D01*
X45073888Y-90895802D01*
X44967924Y-90588330D01*
X44872860Y-90410478D01*
X44606823Y-90312782D01*
X43639605Y-91280000D01*
X43280395Y-91280000D01*
X42313177Y-90312782D01*
X42047140Y-90410478D01*
X41904652Y-90702821D01*
X41821936Y-91017344D01*
X41802169Y-91341962D01*
X35110284Y-91341962D01*
X35117831Y-91218038D01*
X35073888Y-90895802D01*
X34967924Y-90588330D01*
X34872860Y-90410478D01*
X34606823Y-90312782D01*
X33639605Y-91280000D01*
X33280395Y-91280000D01*
X32313177Y-90312782D01*
X32047140Y-90410478D01*
X31904652Y-90702821D01*
X31821936Y-91017344D01*
X31802169Y-91341962D01*
X29308610Y-91341962D01*
X29308365Y-90133177D01*
X32492782Y-90133177D01*
X33460000Y-91100395D01*
X34427218Y-90133177D01*
X42492782Y-90133177D01*
X43460000Y-91100395D01*
X44427218Y-90133177D01*
X50492782Y-90133177D01*
X51460000Y-91100395D01*
X52427218Y-90133177D01*
X60492782Y-90133177D01*
X61460000Y-91100395D01*
X62427218Y-90133177D01*
X68492782Y-90133177D01*
X69460000Y-91100395D01*
X70427218Y-90133177D01*
X78492782Y-90133177D01*
X79460000Y-91100395D01*
X80427218Y-90133177D01*
X86492782Y-90133177D01*
X87460000Y-91100395D01*
X88427218Y-90133177D01*
X88329522Y-89867140D01*
X88037179Y-89724652D01*
X87722656Y-89641936D01*
X87398038Y-89622169D01*
X87075802Y-89666112D01*
X86768330Y-89772076D01*
X86590478Y-89867140D01*
X86492782Y-90133177D01*
X80427218Y-90133177D01*
X80329522Y-89867140D01*
X80037179Y-89724652D01*
X79722656Y-89641936D01*
X79398038Y-89622169D01*
X79075802Y-89666112D01*
X78768330Y-89772076D01*
X78590478Y-89867140D01*
X78492782Y-90133177D01*
X70427218Y-90133177D01*
X70329522Y-89867140D01*
X70037179Y-89724652D01*
X69722656Y-89641936D01*
X69398038Y-89622169D01*
X69075802Y-89666112D01*
X68768330Y-89772076D01*
X68590478Y-89867140D01*
X68492782Y-90133177D01*
X62427218Y-90133177D01*
X62329522Y-89867140D01*
X62037179Y-89724652D01*
X61722656Y-89641936D01*
X61398038Y-89622169D01*
X61075802Y-89666112D01*
X60768330Y-89772076D01*
X60590478Y-89867140D01*
X60492782Y-90133177D01*
X52427218Y-90133177D01*
X52329522Y-89867140D01*
X52037179Y-89724652D01*
X51722656Y-89641936D01*
X51398038Y-89622169D01*
X51075802Y-89666112D01*
X50768330Y-89772076D01*
X50590478Y-89867140D01*
X50492782Y-90133177D01*
X44427218Y-90133177D01*
X44329522Y-89867140D01*
X44037179Y-89724652D01*
X43722656Y-89641936D01*
X43398038Y-89622169D01*
X43075802Y-89666112D01*
X42768330Y-89772076D01*
X42590478Y-89867140D01*
X42492782Y-90133177D01*
X34427218Y-90133177D01*
X34329522Y-89867140D01*
X34037179Y-89724652D01*
X33722656Y-89641936D01*
X33398038Y-89622169D01*
X33075802Y-89666112D01*
X32768330Y-89772076D01*
X32590478Y-89867140D01*
X32492782Y-90133177D01*
X29308365Y-90133177D01*
X29307797Y-87333652D01*
X31474100Y-87333652D01*
X31474100Y-87626348D01*
X31531202Y-87913421D01*
X31643212Y-88183838D01*
X31805826Y-88427206D01*
X32012794Y-88634174D01*
X32256162Y-88796788D01*
X32526579Y-88908798D01*
X32813652Y-88965900D01*
X33106348Y-88965900D01*
X33393421Y-88908798D01*
X33663838Y-88796788D01*
X33907206Y-88634174D01*
X34114174Y-88427206D01*
X34276788Y-88183838D01*
X34388798Y-87913421D01*
X34445900Y-87626348D01*
X34445900Y-87333652D01*
X34428982Y-87248594D01*
X36110500Y-87248594D01*
X36110500Y-87711406D01*
X36200790Y-88165324D01*
X36377900Y-88592905D01*
X36635024Y-88977719D01*
X36962281Y-89304976D01*
X37347095Y-89562100D01*
X37774676Y-89739210D01*
X38228594Y-89829500D01*
X38691406Y-89829500D01*
X39145324Y-89739210D01*
X39572905Y-89562100D01*
X39957719Y-89304976D01*
X40284976Y-88977719D01*
X40542100Y-88592905D01*
X40719210Y-88165324D01*
X40809500Y-87711406D01*
X40809500Y-87333652D01*
X42474100Y-87333652D01*
X42474100Y-87626348D01*
X42531202Y-87913421D01*
X42643212Y-88183838D01*
X42805826Y-88427206D01*
X43012794Y-88634174D01*
X43256162Y-88796788D01*
X43526579Y-88908798D01*
X43813652Y-88965900D01*
X44106348Y-88965900D01*
X44393421Y-88908798D01*
X44663838Y-88796788D01*
X44907206Y-88634174D01*
X45114174Y-88427206D01*
X45276788Y-88183838D01*
X45388798Y-87913421D01*
X45445900Y-87626348D01*
X45445900Y-87333652D01*
X49474100Y-87333652D01*
X49474100Y-87626348D01*
X49531202Y-87913421D01*
X49643212Y-88183838D01*
X49805826Y-88427206D01*
X50012794Y-88634174D01*
X50256162Y-88796788D01*
X50526579Y-88908798D01*
X50813652Y-88965900D01*
X51106348Y-88965900D01*
X51393421Y-88908798D01*
X51663838Y-88796788D01*
X51907206Y-88634174D01*
X52114174Y-88427206D01*
X52276788Y-88183838D01*
X52388798Y-87913421D01*
X52445900Y-87626348D01*
X52445900Y-87333652D01*
X52428982Y-87248594D01*
X54110500Y-87248594D01*
X54110500Y-87711406D01*
X54200790Y-88165324D01*
X54377900Y-88592905D01*
X54635024Y-88977719D01*
X54962281Y-89304976D01*
X55347095Y-89562100D01*
X55774676Y-89739210D01*
X56228594Y-89829500D01*
X56691406Y-89829500D01*
X57145324Y-89739210D01*
X57572905Y-89562100D01*
X57957719Y-89304976D01*
X58284976Y-88977719D01*
X58542100Y-88592905D01*
X58719210Y-88165324D01*
X58809500Y-87711406D01*
X58809500Y-87333652D01*
X60474100Y-87333652D01*
X60474100Y-87626348D01*
X60531202Y-87913421D01*
X60643212Y-88183838D01*
X60805826Y-88427206D01*
X61012794Y-88634174D01*
X61256162Y-88796788D01*
X61526579Y-88908798D01*
X61813652Y-88965900D01*
X62106348Y-88965900D01*
X62393421Y-88908798D01*
X62663838Y-88796788D01*
X62907206Y-88634174D01*
X63114174Y-88427206D01*
X63276788Y-88183838D01*
X63388798Y-87913421D01*
X63445900Y-87626348D01*
X63445900Y-87333652D01*
X67474100Y-87333652D01*
X67474100Y-87626348D01*
X67531202Y-87913421D01*
X67643212Y-88183838D01*
X67805826Y-88427206D01*
X68012794Y-88634174D01*
X68256162Y-88796788D01*
X68526579Y-88908798D01*
X68813652Y-88965900D01*
X69106348Y-88965900D01*
X69393421Y-88908798D01*
X69663838Y-88796788D01*
X69907206Y-88634174D01*
X70114174Y-88427206D01*
X70276788Y-88183838D01*
X70388798Y-87913421D01*
X70445900Y-87626348D01*
X70445900Y-87333652D01*
X70428982Y-87248594D01*
X72110500Y-87248594D01*
X72110500Y-87711406D01*
X72200790Y-88165324D01*
X72377900Y-88592905D01*
X72635024Y-88977719D01*
X72962281Y-89304976D01*
X73347095Y-89562100D01*
X73774676Y-89739210D01*
X74228594Y-89829500D01*
X74691406Y-89829500D01*
X75145324Y-89739210D01*
X75572905Y-89562100D01*
X75957719Y-89304976D01*
X76284976Y-88977719D01*
X76542100Y-88592905D01*
X76719210Y-88165324D01*
X76809500Y-87711406D01*
X76809500Y-87333652D01*
X78474100Y-87333652D01*
X78474100Y-87626348D01*
X78531202Y-87913421D01*
X78643212Y-88183838D01*
X78805826Y-88427206D01*
X79012794Y-88634174D01*
X79256162Y-88796788D01*
X79526579Y-88908798D01*
X79813652Y-88965900D01*
X80106348Y-88965900D01*
X80393421Y-88908798D01*
X80663838Y-88796788D01*
X80907206Y-88634174D01*
X81114174Y-88427206D01*
X81276788Y-88183838D01*
X81388798Y-87913421D01*
X81445900Y-87626348D01*
X81445900Y-87333652D01*
X85474100Y-87333652D01*
X85474100Y-87626348D01*
X85531202Y-87913421D01*
X85643212Y-88183838D01*
X85805826Y-88427206D01*
X86012794Y-88634174D01*
X86256162Y-88796788D01*
X86526579Y-88908798D01*
X86813652Y-88965900D01*
X87106348Y-88965900D01*
X87393421Y-88908798D01*
X87663838Y-88796788D01*
X87907206Y-88634174D01*
X88114174Y-88427206D01*
X88276788Y-88183838D01*
X88388798Y-87913421D01*
X88445900Y-87626348D01*
X88445900Y-87333652D01*
X88388798Y-87046579D01*
X88276788Y-86776162D01*
X88114174Y-86532794D01*
X87907206Y-86325826D01*
X87663838Y-86163212D01*
X87393421Y-86051202D01*
X87106348Y-85994100D01*
X86813652Y-85994100D01*
X86526579Y-86051202D01*
X86256162Y-86163212D01*
X86012794Y-86325826D01*
X85805826Y-86532794D01*
X85643212Y-86776162D01*
X85531202Y-87046579D01*
X85474100Y-87333652D01*
X81445900Y-87333652D01*
X81388798Y-87046579D01*
X81276788Y-86776162D01*
X81114174Y-86532794D01*
X80907206Y-86325826D01*
X80663838Y-86163212D01*
X80393421Y-86051202D01*
X80106348Y-85994100D01*
X79813652Y-85994100D01*
X79526579Y-86051202D01*
X79256162Y-86163212D01*
X79012794Y-86325826D01*
X78805826Y-86532794D01*
X78643212Y-86776162D01*
X78531202Y-87046579D01*
X78474100Y-87333652D01*
X76809500Y-87333652D01*
X76809500Y-87248594D01*
X76719210Y-86794676D01*
X76542100Y-86367095D01*
X76284976Y-85982281D01*
X75957719Y-85655024D01*
X75572905Y-85397900D01*
X75145324Y-85220790D01*
X74691406Y-85130500D01*
X74228594Y-85130500D01*
X73774676Y-85220790D01*
X73347095Y-85397900D01*
X72962281Y-85655024D01*
X72635024Y-85982281D01*
X72377900Y-86367095D01*
X72200790Y-86794676D01*
X72110500Y-87248594D01*
X70428982Y-87248594D01*
X70388798Y-87046579D01*
X70276788Y-86776162D01*
X70114174Y-86532794D01*
X69907206Y-86325826D01*
X69663838Y-86163212D01*
X69393421Y-86051202D01*
X69106348Y-85994100D01*
X68813652Y-85994100D01*
X68526579Y-86051202D01*
X68256162Y-86163212D01*
X68012794Y-86325826D01*
X67805826Y-86532794D01*
X67643212Y-86776162D01*
X67531202Y-87046579D01*
X67474100Y-87333652D01*
X63445900Y-87333652D01*
X63388798Y-87046579D01*
X63276788Y-86776162D01*
X63114174Y-86532794D01*
X62907206Y-86325826D01*
X62663838Y-86163212D01*
X62393421Y-86051202D01*
X62106348Y-85994100D01*
X61813652Y-85994100D01*
X61526579Y-86051202D01*
X61256162Y-86163212D01*
X61012794Y-86325826D01*
X60805826Y-86532794D01*
X60643212Y-86776162D01*
X60531202Y-87046579D01*
X60474100Y-87333652D01*
X58809500Y-87333652D01*
X58809500Y-87248594D01*
X58719210Y-86794676D01*
X58542100Y-86367095D01*
X58284976Y-85982281D01*
X57957719Y-85655024D01*
X57572905Y-85397900D01*
X57145324Y-85220790D01*
X56691406Y-85130500D01*
X56228594Y-85130500D01*
X55774676Y-85220790D01*
X55347095Y-85397900D01*
X54962281Y-85655024D01*
X54635024Y-85982281D01*
X54377900Y-86367095D01*
X54200790Y-86794676D01*
X54110500Y-87248594D01*
X52428982Y-87248594D01*
X52388798Y-87046579D01*
X52276788Y-86776162D01*
X52114174Y-86532794D01*
X51907206Y-86325826D01*
X51663838Y-86163212D01*
X51393421Y-86051202D01*
X51106348Y-85994100D01*
X50813652Y-85994100D01*
X50526579Y-86051202D01*
X50256162Y-86163212D01*
X50012794Y-86325826D01*
X49805826Y-86532794D01*
X49643212Y-86776162D01*
X49531202Y-87046579D01*
X49474100Y-87333652D01*
X45445900Y-87333652D01*
X45388798Y-87046579D01*
X45276788Y-86776162D01*
X45114174Y-86532794D01*
X44907206Y-86325826D01*
X44663838Y-86163212D01*
X44393421Y-86051202D01*
X44106348Y-85994100D01*
X43813652Y-85994100D01*
X43526579Y-86051202D01*
X43256162Y-86163212D01*
X43012794Y-86325826D01*
X42805826Y-86532794D01*
X42643212Y-86776162D01*
X42531202Y-87046579D01*
X42474100Y-87333652D01*
X40809500Y-87333652D01*
X40809500Y-87248594D01*
X40719210Y-86794676D01*
X40542100Y-86367095D01*
X40284976Y-85982281D01*
X39957719Y-85655024D01*
X39572905Y-85397900D01*
X39145324Y-85220790D01*
X38691406Y-85130500D01*
X38228594Y-85130500D01*
X37774676Y-85220790D01*
X37347095Y-85397900D01*
X36962281Y-85655024D01*
X36635024Y-85982281D01*
X36377900Y-86367095D01*
X36200790Y-86794676D01*
X36110500Y-87248594D01*
X34428982Y-87248594D01*
X34388798Y-87046579D01*
X34276788Y-86776162D01*
X34114174Y-86532794D01*
X33907206Y-86325826D01*
X33663838Y-86163212D01*
X33393421Y-86051202D01*
X33106348Y-85994100D01*
X32813652Y-85994100D01*
X32526579Y-86051202D01*
X32256162Y-86163212D01*
X32012794Y-86325826D01*
X31805826Y-86532794D01*
X31643212Y-86776162D01*
X31531202Y-87046579D01*
X31474100Y-87333652D01*
X29307797Y-87333652D01*
X29306953Y-83168675D01*
X32109700Y-83168675D01*
X32109700Y-83391325D01*
X32153137Y-83609696D01*
X32238341Y-83815398D01*
X32362039Y-84000524D01*
X32519476Y-84157961D01*
X32704602Y-84281659D01*
X32910304Y-84366863D01*
X33128675Y-84410300D01*
X33351325Y-84410300D01*
X33569696Y-84366863D01*
X33775398Y-84281659D01*
X33960524Y-84157961D01*
X34117961Y-84000524D01*
X34241659Y-83815398D01*
X34326863Y-83609696D01*
X34370300Y-83391325D01*
X34370300Y-83168675D01*
X42549700Y-83168675D01*
X42549700Y-83391325D01*
X42593137Y-83609696D01*
X42678341Y-83815398D01*
X42802039Y-84000524D01*
X42959476Y-84157961D01*
X43144602Y-84281659D01*
X43350304Y-84366863D01*
X43568675Y-84410300D01*
X43791325Y-84410300D01*
X44009696Y-84366863D01*
X44215398Y-84281659D01*
X44400524Y-84157961D01*
X44557961Y-84000524D01*
X44681659Y-83815398D01*
X44766863Y-83609696D01*
X44810300Y-83391325D01*
X44810300Y-83168675D01*
X50109700Y-83168675D01*
X50109700Y-83391325D01*
X50153137Y-83609696D01*
X50238341Y-83815398D01*
X50362039Y-84000524D01*
X50519476Y-84157961D01*
X50704602Y-84281659D01*
X50910304Y-84366863D01*
X51128675Y-84410300D01*
X51351325Y-84410300D01*
X51569696Y-84366863D01*
X51775398Y-84281659D01*
X51960524Y-84157961D01*
X52117961Y-84000524D01*
X52241659Y-83815398D01*
X52326863Y-83609696D01*
X52370300Y-83391325D01*
X52370300Y-83168675D01*
X60549700Y-83168675D01*
X60549700Y-83391325D01*
X60593137Y-83609696D01*
X60678341Y-83815398D01*
X60802039Y-84000524D01*
X60959476Y-84157961D01*
X61144602Y-84281659D01*
X61350304Y-84366863D01*
X61568675Y-84410300D01*
X61791325Y-84410300D01*
X62009696Y-84366863D01*
X62215398Y-84281659D01*
X62400524Y-84157961D01*
X62557961Y-84000524D01*
X62681659Y-83815398D01*
X62766863Y-83609696D01*
X62810300Y-83391325D01*
X62810300Y-83168675D01*
X68109700Y-83168675D01*
X68109700Y-83391325D01*
X68153137Y-83609696D01*
X68238341Y-83815398D01*
X68362039Y-84000524D01*
X68519476Y-84157961D01*
X68704602Y-84281659D01*
X68910304Y-84366863D01*
X69128675Y-84410300D01*
X69351325Y-84410300D01*
X69569696Y-84366863D01*
X69775398Y-84281659D01*
X69960524Y-84157961D01*
X70117961Y-84000524D01*
X70241659Y-83815398D01*
X70326863Y-83609696D01*
X70370300Y-83391325D01*
X70370300Y-83168675D01*
X78549700Y-83168675D01*
X78549700Y-83391325D01*
X78593137Y-83609696D01*
X78678341Y-83815398D01*
X78802039Y-84000524D01*
X78959476Y-84157961D01*
X79144602Y-84281659D01*
X79350304Y-84366863D01*
X79568675Y-84410300D01*
X79791325Y-84410300D01*
X80009696Y-84366863D01*
X80215398Y-84281659D01*
X80400524Y-84157961D01*
X80557961Y-84000524D01*
X80681659Y-83815398D01*
X80766863Y-83609696D01*
X80810300Y-83391325D01*
X80810300Y-83168675D01*
X86109700Y-83168675D01*
X86109700Y-83391325D01*
X86153137Y-83609696D01*
X86238341Y-83815398D01*
X86362039Y-84000524D01*
X86519476Y-84157961D01*
X86704602Y-84281659D01*
X86910304Y-84366863D01*
X87128675Y-84410300D01*
X87351325Y-84410300D01*
X87569696Y-84366863D01*
X87775398Y-84281659D01*
X87960524Y-84157961D01*
X88117961Y-84000524D01*
X88241659Y-83815398D01*
X88326863Y-83609696D01*
X88370300Y-83391325D01*
X88370300Y-83168675D01*
X96549700Y-83168675D01*
X96549700Y-83391325D01*
X96593137Y-83609696D01*
X96678341Y-83815398D01*
X96802039Y-84000524D01*
X96959476Y-84157961D01*
X97144602Y-84281659D01*
X97350304Y-84366863D01*
X97568675Y-84410300D01*
X97791325Y-84410300D01*
X98009696Y-84366863D01*
X98215398Y-84281659D01*
X98400524Y-84157961D01*
X98557961Y-84000524D01*
X98681659Y-83815398D01*
X98766863Y-83609696D01*
X98810300Y-83391325D01*
X98810300Y-83168675D01*
X98766863Y-82950304D01*
X98681659Y-82744602D01*
X98557961Y-82559476D01*
X98400524Y-82402039D01*
X98215398Y-82278341D01*
X98009696Y-82193137D01*
X97791325Y-82149700D01*
X97568675Y-82149700D01*
X97350304Y-82193137D01*
X97144602Y-82278341D01*
X96959476Y-82402039D01*
X96802039Y-82559476D01*
X96678341Y-82744602D01*
X96593137Y-82950304D01*
X96549700Y-83168675D01*
X88370300Y-83168675D01*
X88326863Y-82950304D01*
X88241659Y-82744602D01*
X88117961Y-82559476D01*
X87960524Y-82402039D01*
X87775398Y-82278341D01*
X87569696Y-82193137D01*
X87351325Y-82149700D01*
X87128675Y-82149700D01*
X86910304Y-82193137D01*
X86704602Y-82278341D01*
X86519476Y-82402039D01*
X86362039Y-82559476D01*
X86238341Y-82744602D01*
X86153137Y-82950304D01*
X86109700Y-83168675D01*
X80810300Y-83168675D01*
X80766863Y-82950304D01*
X80681659Y-82744602D01*
X80557961Y-82559476D01*
X80400524Y-82402039D01*
X80215398Y-82278341D01*
X80009696Y-82193137D01*
X79791325Y-82149700D01*
X79568675Y-82149700D01*
X79350304Y-82193137D01*
X79144602Y-82278341D01*
X78959476Y-82402039D01*
X78802039Y-82559476D01*
X78678341Y-82744602D01*
X78593137Y-82950304D01*
X78549700Y-83168675D01*
X70370300Y-83168675D01*
X70326863Y-82950304D01*
X70241659Y-82744602D01*
X70117961Y-82559476D01*
X69960524Y-82402039D01*
X69775398Y-82278341D01*
X69569696Y-82193137D01*
X69351325Y-82149700D01*
X69128675Y-82149700D01*
X68910304Y-82193137D01*
X68704602Y-82278341D01*
X68519476Y-82402039D01*
X68362039Y-82559476D01*
X68238341Y-82744602D01*
X68153137Y-82950304D01*
X68109700Y-83168675D01*
X62810300Y-83168675D01*
X62766863Y-82950304D01*
X62681659Y-82744602D01*
X62557961Y-82559476D01*
X62400524Y-82402039D01*
X62215398Y-82278341D01*
X62009696Y-82193137D01*
X61791325Y-82149700D01*
X61568675Y-82149700D01*
X61350304Y-82193137D01*
X61144602Y-82278341D01*
X60959476Y-82402039D01*
X60802039Y-82559476D01*
X60678341Y-82744602D01*
X60593137Y-82950304D01*
X60549700Y-83168675D01*
X52370300Y-83168675D01*
X52326863Y-82950304D01*
X52241659Y-82744602D01*
X52117961Y-82559476D01*
X51960524Y-82402039D01*
X51775398Y-82278341D01*
X51569696Y-82193137D01*
X51351325Y-82149700D01*
X51128675Y-82149700D01*
X50910304Y-82193137D01*
X50704602Y-82278341D01*
X50519476Y-82402039D01*
X50362039Y-82559476D01*
X50238341Y-82744602D01*
X50153137Y-82950304D01*
X50109700Y-83168675D01*
X44810300Y-83168675D01*
X44766863Y-82950304D01*
X44681659Y-82744602D01*
X44557961Y-82559476D01*
X44400524Y-82402039D01*
X44215398Y-82278341D01*
X44009696Y-82193137D01*
X43791325Y-82149700D01*
X43568675Y-82149700D01*
X43350304Y-82193137D01*
X43144602Y-82278341D01*
X42959476Y-82402039D01*
X42802039Y-82559476D01*
X42678341Y-82744602D01*
X42593137Y-82950304D01*
X42549700Y-83168675D01*
X34370300Y-83168675D01*
X34326863Y-82950304D01*
X34241659Y-82744602D01*
X34117961Y-82559476D01*
X33960524Y-82402039D01*
X33775398Y-82278341D01*
X33569696Y-82193137D01*
X33351325Y-82149700D01*
X33128675Y-82149700D01*
X32910304Y-82193137D01*
X32704602Y-82278341D01*
X32519476Y-82402039D01*
X32362039Y-82559476D01*
X32238341Y-82744602D01*
X32153137Y-82950304D01*
X32109700Y-83168675D01*
X29306953Y-83168675D01*
X29305959Y-78256993D01*
X71222612Y-78256993D01*
X71288137Y-78495860D01*
X71535116Y-78611760D01*
X71799960Y-78677250D01*
X72072492Y-78689812D01*
X72342238Y-78648965D01*
X72598832Y-78556277D01*
X72711863Y-78495860D01*
X72777388Y-78256993D01*
X72000000Y-77479605D01*
X71222612Y-78256993D01*
X29305959Y-78256993D01*
X29305545Y-76217391D01*
X36809000Y-76217391D01*
X36809000Y-76542609D01*
X36872447Y-76861579D01*
X36996903Y-77162042D01*
X37177585Y-77432451D01*
X37407549Y-77662415D01*
X37677958Y-77843097D01*
X37978421Y-77967553D01*
X38297391Y-78031000D01*
X38622609Y-78031000D01*
X38941579Y-77967553D01*
X39242042Y-77843097D01*
X39512451Y-77662415D01*
X39742415Y-77432451D01*
X39923097Y-77162042D01*
X39932227Y-77140000D01*
X54437996Y-77140000D01*
X54475318Y-77143676D01*
X54512640Y-77140000D01*
X54512651Y-77140000D01*
X54624304Y-77129003D01*
X54767565Y-77085546D01*
X54899594Y-77014974D01*
X54926753Y-76992685D01*
X54996903Y-77162042D01*
X55177585Y-77432451D01*
X55407549Y-77662415D01*
X55677958Y-77843097D01*
X55978421Y-77967553D01*
X56297391Y-78031000D01*
X56622609Y-78031000D01*
X56941579Y-77967553D01*
X57242042Y-77843097D01*
X57512451Y-77662415D01*
X57742415Y-77432451D01*
X57782478Y-77372492D01*
X70610188Y-77372492D01*
X70651035Y-77642238D01*
X70743723Y-77898832D01*
X70804140Y-78011863D01*
X71043007Y-78077388D01*
X71820395Y-77300000D01*
X72179605Y-77300000D01*
X72956993Y-78077388D01*
X73195860Y-78011863D01*
X73311760Y-77764884D01*
X73377250Y-77500040D01*
X73389812Y-77227508D01*
X73348965Y-76957762D01*
X73256277Y-76701168D01*
X73195860Y-76588137D01*
X72956993Y-76522612D01*
X72179605Y-77300000D01*
X71820395Y-77300000D01*
X71043007Y-76522612D01*
X70804140Y-76588137D01*
X70688240Y-76835116D01*
X70622750Y-77099960D01*
X70610188Y-77372492D01*
X57782478Y-77372492D01*
X57923097Y-77162042D01*
X58047553Y-76861579D01*
X58111000Y-76542609D01*
X58111000Y-76343007D01*
X71222612Y-76343007D01*
X72000000Y-77120395D01*
X72777388Y-76343007D01*
X72711863Y-76104140D01*
X72464884Y-75988240D01*
X72200040Y-75922750D01*
X71927508Y-75910188D01*
X71657762Y-75951035D01*
X71401168Y-76043723D01*
X71288137Y-76104140D01*
X71222612Y-76343007D01*
X58111000Y-76343007D01*
X58111000Y-76217391D01*
X58047553Y-75898421D01*
X57923097Y-75597958D01*
X57808748Y-75426823D01*
X60492782Y-75426823D01*
X60590478Y-75692860D01*
X60882821Y-75835348D01*
X61197344Y-75918064D01*
X61521962Y-75937831D01*
X61844198Y-75893888D01*
X62151670Y-75787924D01*
X62329522Y-75692860D01*
X62427218Y-75426823D01*
X61460000Y-74459605D01*
X60492782Y-75426823D01*
X57808748Y-75426823D01*
X57742415Y-75327549D01*
X57512451Y-75097585D01*
X57242042Y-74916903D01*
X57080238Y-74849882D01*
X58231121Y-73698999D01*
X59906515Y-73698999D01*
X59904652Y-73702821D01*
X59821936Y-74017344D01*
X59802169Y-74341962D01*
X59846112Y-74664198D01*
X59952076Y-74971670D01*
X60047140Y-75149522D01*
X60313177Y-75247218D01*
X61280395Y-74280000D01*
X61266253Y-74265858D01*
X61445858Y-74086253D01*
X61460000Y-74100395D01*
X61474143Y-74086253D01*
X61653748Y-74265858D01*
X61639605Y-74280000D01*
X62606823Y-75247218D01*
X62872860Y-75149522D01*
X63015348Y-74857179D01*
X63098064Y-74542656D01*
X63117831Y-74218038D01*
X63073888Y-73895802D01*
X63006064Y-73698999D01*
X101470798Y-73698999D01*
X102532228Y-74760430D01*
X102501600Y-74914408D01*
X102501600Y-75189592D01*
X102555286Y-75459490D01*
X102660595Y-75713727D01*
X102813480Y-75942535D01*
X103008065Y-76137120D01*
X103236873Y-76290005D01*
X103314115Y-76322000D01*
X103236873Y-76353995D01*
X103008065Y-76506880D01*
X102813480Y-76701465D01*
X102660595Y-76930273D01*
X102555286Y-77184510D01*
X102501600Y-77454408D01*
X102501600Y-77729592D01*
X102555286Y-77999490D01*
X102660595Y-78253727D01*
X102813480Y-78482535D01*
X103008065Y-78677120D01*
X103236873Y-78830005D01*
X103314115Y-78862000D01*
X103236873Y-78893995D01*
X103008065Y-79046880D01*
X102813480Y-79241465D01*
X102660595Y-79470273D01*
X102620902Y-79566100D01*
X99903804Y-76849003D01*
X99880001Y-76819999D01*
X99764276Y-76725026D01*
X99632247Y-76654454D01*
X99488986Y-76610997D01*
X99377333Y-76600000D01*
X99377322Y-76600000D01*
X99340000Y-76596324D01*
X99302678Y-76600000D01*
X96157909Y-76600000D01*
X96075799Y-76477114D01*
X95882886Y-76284201D01*
X95656043Y-76132629D01*
X95403989Y-76028225D01*
X95136411Y-75975000D01*
X94863589Y-75975000D01*
X94596011Y-76028225D01*
X94343957Y-76132629D01*
X94117114Y-76284201D01*
X93924201Y-76477114D01*
X93772629Y-76703957D01*
X93668225Y-76956011D01*
X93615000Y-77223589D01*
X93615000Y-77496411D01*
X93668225Y-77763989D01*
X93772629Y-78016043D01*
X93924201Y-78242886D01*
X94113313Y-78431998D01*
X90730785Y-78486881D01*
X90777388Y-78316993D01*
X90000000Y-77539605D01*
X89222612Y-78316993D01*
X89275691Y-78510491D01*
X81609678Y-78634876D01*
X80407294Y-77432492D01*
X88610188Y-77432492D01*
X88651035Y-77702238D01*
X88743723Y-77958832D01*
X88804140Y-78071863D01*
X89043007Y-78137388D01*
X89820395Y-77360000D01*
X90179605Y-77360000D01*
X90956993Y-78137388D01*
X91195860Y-78071863D01*
X91311760Y-77824884D01*
X91377250Y-77560040D01*
X91389812Y-77287508D01*
X91348965Y-77017762D01*
X91256277Y-76761168D01*
X91195860Y-76648137D01*
X90956993Y-76582612D01*
X90179605Y-77360000D01*
X89820395Y-77360000D01*
X89043007Y-76582612D01*
X88804140Y-76648137D01*
X88688240Y-76895116D01*
X88622750Y-77159960D01*
X88610188Y-77432492D01*
X80407294Y-77432492D01*
X79763804Y-76789002D01*
X79740001Y-76759999D01*
X79624276Y-76665026D01*
X79492247Y-76594454D01*
X79348986Y-76550997D01*
X79237333Y-76540000D01*
X79237322Y-76540000D01*
X79200000Y-76536324D01*
X79162678Y-76540000D01*
X78157909Y-76540000D01*
X78075799Y-76417114D01*
X78061692Y-76403007D01*
X89222612Y-76403007D01*
X90000000Y-77180395D01*
X90777388Y-76403007D01*
X90711863Y-76164140D01*
X90464884Y-76048240D01*
X90200040Y-75982750D01*
X89927508Y-75970188D01*
X89657762Y-76011035D01*
X89401168Y-76103723D01*
X89288137Y-76164140D01*
X89222612Y-76403007D01*
X78061692Y-76403007D01*
X77882886Y-76224201D01*
X77656043Y-76072629D01*
X77403989Y-75968225D01*
X77136411Y-75915000D01*
X76863589Y-75915000D01*
X76596011Y-75968225D01*
X76343957Y-76072629D01*
X76117114Y-76224201D01*
X75924201Y-76417114D01*
X75772629Y-76643957D01*
X75668225Y-76896011D01*
X75615000Y-77163589D01*
X75615000Y-77436411D01*
X75668225Y-77703989D01*
X75772629Y-77956043D01*
X75924201Y-78182886D01*
X76117114Y-78375799D01*
X76343957Y-78527371D01*
X76596011Y-78631775D01*
X76863589Y-78685000D01*
X77136411Y-78685000D01*
X77403989Y-78631775D01*
X77656043Y-78527371D01*
X77882886Y-78375799D01*
X78075799Y-78182886D01*
X78157909Y-78060000D01*
X78885199Y-78060000D01*
X80740580Y-79915383D01*
X80768831Y-79948690D01*
X80822575Y-79991356D01*
X80875723Y-80034973D01*
X80881213Y-80037907D01*
X80886082Y-80041773D01*
X80947171Y-80073163D01*
X81007753Y-80105545D01*
X81013703Y-80107350D01*
X81019238Y-80110194D01*
X81085308Y-80129071D01*
X81151013Y-80149002D01*
X81157202Y-80149612D01*
X81163185Y-80151321D01*
X81231661Y-80156945D01*
X81299999Y-80163676D01*
X81343474Y-80159394D01*
X99074446Y-79871700D01*
X100023499Y-79871700D01*
X102532228Y-82380430D01*
X102501600Y-82534408D01*
X102501600Y-82809592D01*
X102555286Y-83079490D01*
X102660595Y-83333727D01*
X102813480Y-83562535D01*
X103008065Y-83757120D01*
X103236873Y-83910005D01*
X103314115Y-83942000D01*
X103236873Y-83973995D01*
X103008065Y-84126880D01*
X102813480Y-84321465D01*
X102660595Y-84550273D01*
X102555286Y-84804510D01*
X102501600Y-85074408D01*
X102501600Y-85349592D01*
X102555286Y-85619490D01*
X102660595Y-85873727D01*
X102813480Y-86102535D01*
X103008065Y-86297120D01*
X103236873Y-86450005D01*
X103314115Y-86482000D01*
X103236873Y-86513995D01*
X103008065Y-86666880D01*
X102813480Y-86861465D01*
X102660595Y-87090273D01*
X102555286Y-87344510D01*
X102501600Y-87614408D01*
X102501600Y-87889592D01*
X102555286Y-88159490D01*
X102660595Y-88413727D01*
X102813480Y-88642535D01*
X102940946Y-88770001D01*
X98703927Y-88770001D01*
X98907206Y-88634174D01*
X99114174Y-88427206D01*
X99276788Y-88183838D01*
X99388798Y-87913421D01*
X99445900Y-87626348D01*
X99445900Y-87333652D01*
X99388798Y-87046579D01*
X99276788Y-86776162D01*
X99114174Y-86532794D01*
X98907206Y-86325826D01*
X98663838Y-86163212D01*
X98393421Y-86051202D01*
X98106348Y-85994100D01*
X97813652Y-85994100D01*
X97526579Y-86051202D01*
X97256162Y-86163212D01*
X97012794Y-86325826D01*
X96805826Y-86532794D01*
X96643212Y-86776162D01*
X96531202Y-87046579D01*
X96474100Y-87333652D01*
X96474100Y-87626348D01*
X96531202Y-87913421D01*
X96643212Y-88183838D01*
X96805826Y-88427206D01*
X97012794Y-88634174D01*
X97216073Y-88770001D01*
X94423768Y-88770001D01*
X94542100Y-88592905D01*
X94719210Y-88165324D01*
X94809500Y-87711406D01*
X94809500Y-87248594D01*
X94719210Y-86794676D01*
X94542100Y-86367095D01*
X94284976Y-85982281D01*
X93957719Y-85655024D01*
X93572905Y-85397900D01*
X93145324Y-85220790D01*
X92691406Y-85130500D01*
X92228594Y-85130500D01*
X91774676Y-85220790D01*
X91347095Y-85397900D01*
X90962281Y-85655024D01*
X90635024Y-85982281D01*
X90377900Y-86367095D01*
X90200790Y-86794676D01*
X90110500Y-87248594D01*
X90110500Y-87711406D01*
X90200790Y-88165324D01*
X90377900Y-88592905D01*
X90635024Y-88977719D01*
X90962281Y-89304976D01*
X91347095Y-89562100D01*
X91774676Y-89739210D01*
X92228594Y-89829500D01*
X92691406Y-89829500D01*
X93015478Y-89765038D01*
X90160517Y-92620000D01*
X88356278Y-92620000D01*
X88427218Y-92426823D01*
X87460000Y-91459605D01*
X86492782Y-92426823D01*
X86563722Y-92620000D01*
X80356278Y-92620000D01*
X80427218Y-92426823D01*
X79460000Y-91459605D01*
X78492782Y-92426823D01*
X78563722Y-92620000D01*
X75932227Y-92620000D01*
X75923097Y-92597958D01*
X75742415Y-92327549D01*
X75512451Y-92097585D01*
X75242042Y-91916903D01*
X74941579Y-91792447D01*
X74622609Y-91729000D01*
X74297391Y-91729000D01*
X73978421Y-91792447D01*
X73677958Y-91916903D01*
X73407549Y-92097585D01*
X73177585Y-92327549D01*
X72996903Y-92597958D01*
X72872447Y-92898421D01*
X72809000Y-93217391D01*
X72809000Y-93542609D01*
X72872447Y-93861579D01*
X72996903Y-94162042D01*
X73177585Y-94432451D01*
X73407549Y-94662415D01*
X73677958Y-94843097D01*
X73978421Y-94967553D01*
X74297391Y-95031000D01*
X74622609Y-95031000D01*
X74941579Y-94967553D01*
X75242042Y-94843097D01*
X75512451Y-94662415D01*
X75742415Y-94432451D01*
X75923097Y-94162042D01*
X75932227Y-94140000D01*
X90437996Y-94140000D01*
X90475318Y-94143676D01*
X90512640Y-94140000D01*
X90512651Y-94140000D01*
X90624304Y-94129003D01*
X90767565Y-94085546D01*
X90899594Y-94014974D01*
X90926753Y-93992685D01*
X90996903Y-94162042D01*
X91177585Y-94432451D01*
X91407549Y-94662415D01*
X91677958Y-94843097D01*
X91978421Y-94967553D01*
X92297391Y-95031000D01*
X92622609Y-95031000D01*
X92941579Y-94967553D01*
X93242042Y-94843097D01*
X93257780Y-94832581D01*
X93352200Y-94927002D01*
X93375998Y-94956000D01*
X93404996Y-94979798D01*
X93491723Y-95050973D01*
X93623752Y-95121545D01*
X93767013Y-95165002D01*
X93915999Y-95179676D01*
X93953332Y-95175999D01*
X100479799Y-95175999D01*
X97715799Y-97940000D01*
X88914802Y-97940000D01*
X86343804Y-95369003D01*
X86320001Y-95339999D01*
X86204276Y-95245026D01*
X86072247Y-95174454D01*
X85928986Y-95130997D01*
X85817333Y-95120000D01*
X85817322Y-95120000D01*
X85780000Y-95116324D01*
X85742678Y-95120000D01*
X59274802Y-95120000D01*
X58038423Y-93883621D01*
X58047553Y-93861579D01*
X58111000Y-93542609D01*
X58111000Y-93217391D01*
X58047553Y-92898421D01*
X57923097Y-92597958D01*
X57808748Y-92426823D01*
X60492782Y-92426823D01*
X60590478Y-92692860D01*
X60882821Y-92835348D01*
X61197344Y-92918064D01*
X61521962Y-92937831D01*
X61844198Y-92893888D01*
X62151670Y-92787924D01*
X62329522Y-92692860D01*
X62427218Y-92426823D01*
X68492782Y-92426823D01*
X68590478Y-92692860D01*
X68882821Y-92835348D01*
X69197344Y-92918064D01*
X69521962Y-92937831D01*
X69844198Y-92893888D01*
X70151670Y-92787924D01*
X70329522Y-92692860D01*
X70427218Y-92426823D01*
X69460000Y-91459605D01*
X68492782Y-92426823D01*
X62427218Y-92426823D01*
X61460000Y-91459605D01*
X60492782Y-92426823D01*
X57808748Y-92426823D01*
X57742415Y-92327549D01*
X57512451Y-92097585D01*
X57242042Y-91916903D01*
X56941579Y-91792447D01*
X56622609Y-91729000D01*
X56297391Y-91729000D01*
X55978421Y-91792447D01*
X55677958Y-91916903D01*
X55407549Y-92097585D01*
X55177585Y-92327549D01*
X54996903Y-92597958D01*
X54872447Y-92898421D01*
X54809000Y-93217391D01*
X54809000Y-93542609D01*
X54872447Y-93861579D01*
X54996903Y-94162042D01*
X55177585Y-94432451D01*
X55407549Y-94662415D01*
X55677958Y-94843097D01*
X55978421Y-94967553D01*
X56297391Y-95031000D01*
X56622609Y-95031000D01*
X56941579Y-94967553D01*
X56963621Y-94958423D01*
X58396200Y-96391002D01*
X58419999Y-96420001D01*
X58448997Y-96443799D01*
X58535723Y-96514974D01*
X58667753Y-96585546D01*
X58811014Y-96629003D01*
X58922667Y-96640000D01*
X58922677Y-96640000D01*
X58960000Y-96643676D01*
X58997323Y-96640000D01*
X85465199Y-96640000D01*
X88036201Y-99211003D01*
X88059999Y-99240001D01*
X88175724Y-99334974D01*
X88307753Y-99405546D01*
X88451014Y-99449003D01*
X88562667Y-99460000D01*
X88562676Y-99460000D01*
X88599999Y-99463676D01*
X88637322Y-99460000D01*
X97993278Y-99460000D01*
X98030600Y-99463676D01*
X98067922Y-99460000D01*
X98067933Y-99460000D01*
X98179586Y-99449003D01*
X98322847Y-99405546D01*
X98454876Y-99334974D01*
X98570601Y-99240001D01*
X98594404Y-99210997D01*
X103607030Y-94198372D01*
X103761008Y-94229000D01*
X104036192Y-94229000D01*
X104306090Y-94175314D01*
X104560327Y-94070005D01*
X104789135Y-93917120D01*
X104983720Y-93722535D01*
X105136605Y-93493727D01*
X105241914Y-93239490D01*
X105295600Y-92969592D01*
X105295600Y-92694408D01*
X105241914Y-92424510D01*
X105136605Y-92170273D01*
X105115710Y-92139001D01*
X112914277Y-92139001D01*
X112951599Y-92142677D01*
X112988921Y-92139001D01*
X112988932Y-92139001D01*
X113100585Y-92128004D01*
X113243846Y-92084547D01*
X113375875Y-92013975D01*
X113491600Y-91919002D01*
X113515403Y-91889998D01*
X117721600Y-87683802D01*
X117721600Y-87889592D01*
X117775286Y-88159490D01*
X117880595Y-88413727D01*
X118033480Y-88642535D01*
X118228065Y-88837120D01*
X118456873Y-88990005D01*
X118534115Y-89022000D01*
X118456873Y-89053995D01*
X118228065Y-89206880D01*
X118033480Y-89401465D01*
X117880595Y-89630273D01*
X117775286Y-89884510D01*
X117721600Y-90154408D01*
X117721600Y-90429592D01*
X117775286Y-90699490D01*
X117880595Y-90953727D01*
X118033480Y-91182535D01*
X118228065Y-91377120D01*
X118456873Y-91530005D01*
X118534115Y-91562000D01*
X118456873Y-91593995D01*
X118228065Y-91746880D01*
X118033480Y-91941465D01*
X117880595Y-92170273D01*
X117775286Y-92424510D01*
X117721600Y-92694408D01*
X117721600Y-92969592D01*
X117775286Y-93239490D01*
X117880595Y-93493727D01*
X118033480Y-93722535D01*
X118228065Y-93917120D01*
X118456873Y-94070005D01*
X118711110Y-94175314D01*
X118981008Y-94229000D01*
X119256192Y-94229000D01*
X119526090Y-94175314D01*
X119780327Y-94070005D01*
X120009135Y-93917120D01*
X120203720Y-93722535D01*
X120356605Y-93493727D01*
X120461914Y-93239490D01*
X120515600Y-92969592D01*
X120515600Y-92694408D01*
X120461914Y-92424510D01*
X120356605Y-92170273D01*
X120203720Y-91941465D01*
X120009135Y-91746880D01*
X119780327Y-91593995D01*
X119703085Y-91562000D01*
X119780327Y-91530005D01*
X120009135Y-91377120D01*
X120203720Y-91182535D01*
X120356605Y-90953727D01*
X120461914Y-90699490D01*
X120515600Y-90429592D01*
X120515600Y-90154408D01*
X120461914Y-89884510D01*
X120356605Y-89630273D01*
X120203720Y-89401465D01*
X120009135Y-89206880D01*
X119780327Y-89053995D01*
X119703085Y-89022000D01*
X119780327Y-88990005D01*
X120009135Y-88837120D01*
X120203720Y-88642535D01*
X120356605Y-88413727D01*
X120461914Y-88159490D01*
X120515600Y-87889592D01*
X120515600Y-87614408D01*
X120461914Y-87344510D01*
X120356605Y-87090273D01*
X120203720Y-86861465D01*
X120009135Y-86666880D01*
X119780327Y-86513995D01*
X119703085Y-86482000D01*
X119780327Y-86450005D01*
X120009135Y-86297120D01*
X120203720Y-86102535D01*
X120356605Y-85873727D01*
X120461914Y-85619490D01*
X120515600Y-85349592D01*
X120515600Y-85074408D01*
X120461914Y-84804510D01*
X120356605Y-84550273D01*
X120203720Y-84321465D01*
X120009135Y-84126880D01*
X119780327Y-83973995D01*
X119703085Y-83942000D01*
X119780327Y-83910005D01*
X120009135Y-83757120D01*
X120203720Y-83562535D01*
X120356605Y-83333727D01*
X120461914Y-83079490D01*
X120515600Y-82809592D01*
X120515600Y-82534408D01*
X120461914Y-82264510D01*
X120356605Y-82010273D01*
X120203720Y-81781465D01*
X120009135Y-81586880D01*
X119780327Y-81433995D01*
X119703085Y-81402000D01*
X119780327Y-81370005D01*
X120009135Y-81217120D01*
X120203720Y-81022535D01*
X120356605Y-80793727D01*
X120461914Y-80539490D01*
X120515600Y-80269592D01*
X120515600Y-79994408D01*
X120461914Y-79724510D01*
X120356605Y-79470273D01*
X120203720Y-79241465D01*
X120009135Y-79046880D01*
X119780327Y-78893995D01*
X119703085Y-78862000D01*
X119780327Y-78830005D01*
X120009135Y-78677120D01*
X120203720Y-78482535D01*
X120356605Y-78253727D01*
X120461914Y-77999490D01*
X120515600Y-77729592D01*
X120515600Y-77454408D01*
X120461914Y-77184510D01*
X120356605Y-76930273D01*
X120203720Y-76701465D01*
X120009135Y-76506880D01*
X119780327Y-76353995D01*
X119703085Y-76322000D01*
X119780327Y-76290005D01*
X120009135Y-76137120D01*
X120203720Y-75942535D01*
X120356605Y-75713727D01*
X120461914Y-75459490D01*
X120515600Y-75189592D01*
X120515600Y-74914408D01*
X120461914Y-74644510D01*
X120356605Y-74390273D01*
X120203720Y-74161465D01*
X120009135Y-73966880D01*
X119780327Y-73813995D01*
X119703085Y-73782000D01*
X119780327Y-73750005D01*
X120009135Y-73597120D01*
X120203720Y-73402535D01*
X120356605Y-73173727D01*
X120461914Y-72919490D01*
X120515600Y-72649592D01*
X120515600Y-72374408D01*
X120461914Y-72104510D01*
X120356605Y-71850273D01*
X120203720Y-71621465D01*
X120009135Y-71426880D01*
X119780327Y-71273995D01*
X119703085Y-71242000D01*
X119780327Y-71210005D01*
X120009135Y-71057120D01*
X120203720Y-70862535D01*
X120356605Y-70633727D01*
X120461914Y-70379490D01*
X120515600Y-70109592D01*
X120515600Y-69834408D01*
X120461914Y-69564510D01*
X120356605Y-69310273D01*
X120203720Y-69081465D01*
X120009135Y-68886880D01*
X119780327Y-68733995D01*
X119708657Y-68704308D01*
X119721623Y-68699636D01*
X119837580Y-68637656D01*
X119904560Y-68397565D01*
X119118600Y-67611605D01*
X118332640Y-68397565D01*
X118399620Y-68637656D01*
X118535360Y-68701485D01*
X118456873Y-68733995D01*
X118228065Y-68886880D01*
X118033480Y-69081465D01*
X117880595Y-69310273D01*
X117775286Y-69564510D01*
X117721600Y-69834408D01*
X117721600Y-70109592D01*
X117775286Y-70379490D01*
X117880595Y-70633727D01*
X118033480Y-70862535D01*
X118228065Y-71057120D01*
X118456873Y-71210005D01*
X118534115Y-71242000D01*
X118456873Y-71273995D01*
X118228065Y-71426880D01*
X118033480Y-71621465D01*
X117880595Y-71850273D01*
X117775286Y-72104510D01*
X117721600Y-72374408D01*
X117721600Y-72649592D01*
X117775286Y-72919490D01*
X117880595Y-73173727D01*
X118033480Y-73402535D01*
X118228065Y-73597120D01*
X118456873Y-73750005D01*
X118534115Y-73782000D01*
X118456873Y-73813995D01*
X118228065Y-73966880D01*
X118033480Y-74161465D01*
X117880595Y-74390273D01*
X117775286Y-74644510D01*
X117721600Y-74914408D01*
X117721600Y-75189592D01*
X117775286Y-75459490D01*
X117880595Y-75713727D01*
X118033480Y-75942535D01*
X118228065Y-76137120D01*
X118456873Y-76290005D01*
X118534115Y-76322000D01*
X118456873Y-76353995D01*
X118228065Y-76506880D01*
X118033480Y-76701465D01*
X117880595Y-76930273D01*
X117775286Y-77184510D01*
X117721600Y-77454408D01*
X117721600Y-77729592D01*
X117775286Y-77999490D01*
X117880595Y-78253727D01*
X118033480Y-78482535D01*
X118228065Y-78677120D01*
X118456873Y-78830005D01*
X118534115Y-78862000D01*
X118456873Y-78893995D01*
X118228065Y-79046880D01*
X118033480Y-79241465D01*
X117880595Y-79470273D01*
X117775286Y-79724510D01*
X117721600Y-79994408D01*
X117721600Y-80269592D01*
X117775286Y-80539490D01*
X117880595Y-80793727D01*
X118033480Y-81022535D01*
X118228065Y-81217120D01*
X118456873Y-81370005D01*
X118534115Y-81402000D01*
X118456873Y-81433995D01*
X118228065Y-81586880D01*
X118033480Y-81781465D01*
X117880595Y-82010273D01*
X117775286Y-82264510D01*
X117721600Y-82534408D01*
X117721600Y-82809592D01*
X117775286Y-83079490D01*
X117880595Y-83333727D01*
X118033480Y-83562535D01*
X118228065Y-83757120D01*
X118456873Y-83910005D01*
X118534115Y-83942000D01*
X118456873Y-83973995D01*
X118228065Y-84126880D01*
X118033480Y-84321465D01*
X117880595Y-84550273D01*
X117775286Y-84804510D01*
X117721600Y-85074408D01*
X117721600Y-85349592D01*
X117752228Y-85503570D01*
X112636798Y-90619001D01*
X105257924Y-90619001D01*
X105295600Y-90429592D01*
X105295600Y-90154408D01*
X105241914Y-89884510D01*
X105136605Y-89630273D01*
X104983720Y-89401465D01*
X104789135Y-89206880D01*
X104560327Y-89053995D01*
X104483085Y-89022000D01*
X104560327Y-88990005D01*
X104789135Y-88837120D01*
X104983720Y-88642535D01*
X105136605Y-88413727D01*
X105241914Y-88159490D01*
X105295600Y-87889592D01*
X105295600Y-87614408D01*
X105241914Y-87344510D01*
X105136605Y-87090273D01*
X104983720Y-86861465D01*
X104789135Y-86666880D01*
X104560327Y-86513995D01*
X104483085Y-86482000D01*
X104560327Y-86450005D01*
X104789135Y-86297120D01*
X104983720Y-86102535D01*
X105136605Y-85873727D01*
X105241914Y-85619490D01*
X105295600Y-85349592D01*
X105295600Y-85074408D01*
X105264972Y-84920429D01*
X105496598Y-84688803D01*
X105525602Y-84665000D01*
X105620575Y-84549275D01*
X105691147Y-84417246D01*
X105734604Y-84273985D01*
X105745601Y-84162332D01*
X105745601Y-84162323D01*
X105749277Y-84125000D01*
X105745601Y-84087677D01*
X105745601Y-82187561D01*
X105749277Y-82150238D01*
X105745601Y-82112915D01*
X105745601Y-82112906D01*
X105734604Y-82001253D01*
X105691147Y-81857992D01*
X105624863Y-81733985D01*
X105620575Y-81725962D01*
X105549400Y-81639236D01*
X105525602Y-81610238D01*
X105496605Y-81586441D01*
X104984164Y-81074001D01*
X104960765Y-81045490D01*
X104983720Y-81022535D01*
X105136605Y-80793727D01*
X105241914Y-80539490D01*
X105295600Y-80269592D01*
X105295600Y-79994408D01*
X105241914Y-79724510D01*
X105136605Y-79470273D01*
X104983720Y-79241465D01*
X104789135Y-79046880D01*
X104560327Y-78893995D01*
X104483085Y-78862000D01*
X104560327Y-78830005D01*
X104789135Y-78677120D01*
X104983720Y-78482535D01*
X105136605Y-78253727D01*
X105241914Y-77999490D01*
X105295600Y-77729592D01*
X105295600Y-77454408D01*
X105241914Y-77184510D01*
X105136605Y-76930273D01*
X104983720Y-76701465D01*
X104789135Y-76506880D01*
X104560327Y-76353995D01*
X104483085Y-76322000D01*
X104560327Y-76290005D01*
X104789135Y-76137120D01*
X104983720Y-75942535D01*
X105136605Y-75713727D01*
X105241914Y-75459490D01*
X105295600Y-75189592D01*
X105295600Y-74914408D01*
X105241914Y-74644510D01*
X105136605Y-74390273D01*
X104983720Y-74161465D01*
X104789135Y-73966880D01*
X104560327Y-73813995D01*
X104488657Y-73784308D01*
X104501623Y-73779636D01*
X104617580Y-73717656D01*
X104684560Y-73477565D01*
X103898600Y-72691605D01*
X103884458Y-72705748D01*
X103704853Y-72526143D01*
X103718995Y-72512000D01*
X104078205Y-72512000D01*
X104864165Y-73297960D01*
X105104256Y-73230980D01*
X105221356Y-72981952D01*
X105287623Y-72714865D01*
X105300510Y-72439983D01*
X105259522Y-72167867D01*
X105166236Y-71908977D01*
X105104256Y-71793020D01*
X104864165Y-71726040D01*
X104078205Y-72512000D01*
X103718995Y-72512000D01*
X102933035Y-71726040D01*
X102692944Y-71793020D01*
X102575844Y-72042048D01*
X102509577Y-72309135D01*
X102497081Y-72575680D01*
X102349403Y-72428002D01*
X102325600Y-72398998D01*
X102209875Y-72304025D01*
X102077846Y-72233453D01*
X101934585Y-72189996D01*
X101822932Y-72178999D01*
X101822921Y-72178999D01*
X101785599Y-72175323D01*
X101748277Y-72178999D01*
X99697141Y-72178999D01*
X99725812Y-72084482D01*
X99738072Y-71960000D01*
X99738072Y-70937565D01*
X103112640Y-70937565D01*
X103179620Y-71177656D01*
X103310244Y-71239079D01*
X103295577Y-71244364D01*
X103179620Y-71306344D01*
X103112640Y-71546435D01*
X103898600Y-72332395D01*
X104684560Y-71546435D01*
X104617580Y-71306344D01*
X104486956Y-71244921D01*
X104501623Y-71239636D01*
X104617580Y-71177656D01*
X104684560Y-70937565D01*
X103898600Y-70151605D01*
X103112640Y-70937565D01*
X99738072Y-70937565D01*
X99738072Y-70044017D01*
X102496690Y-70044017D01*
X102537678Y-70316133D01*
X102630964Y-70575023D01*
X102692944Y-70690980D01*
X102933035Y-70757960D01*
X103718995Y-69972000D01*
X104078205Y-69972000D01*
X104864165Y-70757960D01*
X105104256Y-70690980D01*
X105221356Y-70441952D01*
X105287623Y-70174865D01*
X105300510Y-69899983D01*
X105259522Y-69627867D01*
X105166236Y-69368977D01*
X105104256Y-69253020D01*
X104864165Y-69186040D01*
X104078205Y-69972000D01*
X103718995Y-69972000D01*
X102933035Y-69186040D01*
X102692944Y-69253020D01*
X102575844Y-69502048D01*
X102509577Y-69769135D01*
X102496690Y-70044017D01*
X99738072Y-70044017D01*
X99738072Y-68760000D01*
X99725812Y-68635518D01*
X99689502Y-68515820D01*
X99630537Y-68405506D01*
X99551185Y-68308815D01*
X99454494Y-68229463D01*
X99344180Y-68170498D01*
X99224482Y-68134188D01*
X99100000Y-68121928D01*
X97100000Y-68121928D01*
X96975518Y-68134188D01*
X96855820Y-68170498D01*
X96745506Y-68229463D01*
X96648815Y-68308815D01*
X96569463Y-68405506D01*
X96510498Y-68515820D01*
X96474188Y-68635518D01*
X96461928Y-68760000D01*
X96461928Y-71960000D01*
X96474188Y-72084482D01*
X96502859Y-72178999D01*
X88497141Y-72178999D01*
X88525812Y-72084482D01*
X88538072Y-71960000D01*
X88538072Y-68760000D01*
X88525812Y-68635518D01*
X88489502Y-68515820D01*
X88430537Y-68405506D01*
X88351185Y-68308815D01*
X88254494Y-68229463D01*
X88144180Y-68170498D01*
X88024482Y-68134188D01*
X87900000Y-68121928D01*
X85900000Y-68121928D01*
X85775518Y-68134188D01*
X85655820Y-68170498D01*
X85545506Y-68229463D01*
X85448815Y-68308815D01*
X85369463Y-68405506D01*
X85310498Y-68515820D01*
X85274188Y-68635518D01*
X85261928Y-68760000D01*
X85261928Y-71960000D01*
X85274188Y-72084482D01*
X85302859Y-72178999D01*
X81670891Y-72178999D01*
X81689502Y-72144180D01*
X81725812Y-72024482D01*
X81738072Y-71900000D01*
X81738072Y-68700000D01*
X81725812Y-68575518D01*
X81689502Y-68455820D01*
X81630537Y-68345506D01*
X81551185Y-68248815D01*
X81454494Y-68169463D01*
X81344180Y-68110498D01*
X81224482Y-68074188D01*
X81100000Y-68061928D01*
X79100000Y-68061928D01*
X78975518Y-68074188D01*
X78855820Y-68110498D01*
X78745506Y-68169463D01*
X78648815Y-68248815D01*
X78569463Y-68345506D01*
X78510498Y-68455820D01*
X78474188Y-68575518D01*
X78461928Y-68700000D01*
X78461928Y-71900000D01*
X78474188Y-72024482D01*
X78510498Y-72144180D01*
X78529109Y-72178999D01*
X70470891Y-72178999D01*
X70489502Y-72144180D01*
X70525812Y-72024482D01*
X70538072Y-71900000D01*
X70538072Y-68700000D01*
X70525812Y-68575518D01*
X70489502Y-68455820D01*
X70430537Y-68345506D01*
X70351185Y-68248815D01*
X70254494Y-68169463D01*
X70144180Y-68110498D01*
X70024482Y-68074188D01*
X69900000Y-68061928D01*
X67900000Y-68061928D01*
X67775518Y-68074188D01*
X67655820Y-68110498D01*
X67545506Y-68169463D01*
X67448815Y-68248815D01*
X67369463Y-68345506D01*
X67310498Y-68455820D01*
X67274188Y-68575518D01*
X67261928Y-68700000D01*
X67261928Y-71900000D01*
X67274188Y-72024482D01*
X67310498Y-72144180D01*
X67329109Y-72178999D01*
X58083696Y-72178999D01*
X58284976Y-71977719D01*
X58542100Y-71592905D01*
X58719210Y-71165324D01*
X58809500Y-70711406D01*
X58809500Y-70333652D01*
X60474100Y-70333652D01*
X60474100Y-70626348D01*
X60531202Y-70913421D01*
X60643212Y-71183838D01*
X60805826Y-71427206D01*
X61012794Y-71634174D01*
X61256162Y-71796788D01*
X61526579Y-71908798D01*
X61813652Y-71965900D01*
X62106348Y-71965900D01*
X62393421Y-71908798D01*
X62663838Y-71796788D01*
X62907206Y-71634174D01*
X63114174Y-71427206D01*
X63276788Y-71183838D01*
X63388798Y-70913421D01*
X63445900Y-70626348D01*
X63445900Y-70333652D01*
X63388798Y-70046579D01*
X63276788Y-69776162D01*
X63114174Y-69532794D01*
X62907206Y-69325826D01*
X62663838Y-69163212D01*
X62393421Y-69051202D01*
X62106348Y-68994100D01*
X61813652Y-68994100D01*
X61526579Y-69051202D01*
X61256162Y-69163212D01*
X61012794Y-69325826D01*
X60805826Y-69532794D01*
X60643212Y-69776162D01*
X60531202Y-70046579D01*
X60474100Y-70333652D01*
X58809500Y-70333652D01*
X58809500Y-70248594D01*
X58719210Y-69794676D01*
X58542100Y-69367095D01*
X58284976Y-68982281D01*
X57957719Y-68655024D01*
X57572905Y-68397900D01*
X57145324Y-68220790D01*
X56691406Y-68130500D01*
X56228594Y-68130500D01*
X55774676Y-68220790D01*
X55347095Y-68397900D01*
X54962281Y-68655024D01*
X54635024Y-68982281D01*
X54377900Y-69367095D01*
X54200790Y-69794676D01*
X54110500Y-70248594D01*
X54110500Y-70711406D01*
X54200790Y-71165324D01*
X54377900Y-71592905D01*
X54635024Y-71977719D01*
X54962281Y-72304976D01*
X55347095Y-72562100D01*
X55774676Y-72739210D01*
X56228594Y-72829500D01*
X56691406Y-72829500D01*
X57015478Y-72765038D01*
X54160517Y-75620000D01*
X52356278Y-75620000D01*
X52427218Y-75426823D01*
X51460000Y-74459605D01*
X50492782Y-75426823D01*
X50563722Y-75620000D01*
X44356278Y-75620000D01*
X44427218Y-75426823D01*
X43460000Y-74459605D01*
X42492782Y-75426823D01*
X42563722Y-75620000D01*
X39932227Y-75620000D01*
X39923097Y-75597958D01*
X39742415Y-75327549D01*
X39512451Y-75097585D01*
X39242042Y-74916903D01*
X38941579Y-74792447D01*
X38622609Y-74729000D01*
X38297391Y-74729000D01*
X37978421Y-74792447D01*
X37677958Y-74916903D01*
X37407549Y-75097585D01*
X37177585Y-75327549D01*
X36996903Y-75597958D01*
X36872447Y-75898421D01*
X36809000Y-76217391D01*
X29305545Y-76217391D01*
X29305384Y-75426823D01*
X32492782Y-75426823D01*
X32590478Y-75692860D01*
X32882821Y-75835348D01*
X33197344Y-75918064D01*
X33521962Y-75937831D01*
X33844198Y-75893888D01*
X34151670Y-75787924D01*
X34329522Y-75692860D01*
X34427218Y-75426823D01*
X33460000Y-74459605D01*
X32492782Y-75426823D01*
X29305384Y-75426823D01*
X29305163Y-74341962D01*
X31802169Y-74341962D01*
X31846112Y-74664198D01*
X31952076Y-74971670D01*
X32047140Y-75149522D01*
X32313177Y-75247218D01*
X33280395Y-74280000D01*
X33639605Y-74280000D01*
X34606823Y-75247218D01*
X34872860Y-75149522D01*
X35015348Y-74857179D01*
X35098064Y-74542656D01*
X35110284Y-74341962D01*
X41802169Y-74341962D01*
X41846112Y-74664198D01*
X41952076Y-74971670D01*
X42047140Y-75149522D01*
X42313177Y-75247218D01*
X43280395Y-74280000D01*
X43639605Y-74280000D01*
X44606823Y-75247218D01*
X44872860Y-75149522D01*
X45015348Y-74857179D01*
X45098064Y-74542656D01*
X45110284Y-74341962D01*
X49802169Y-74341962D01*
X49846112Y-74664198D01*
X49952076Y-74971670D01*
X50047140Y-75149522D01*
X50313177Y-75247218D01*
X51280395Y-74280000D01*
X51639605Y-74280000D01*
X52606823Y-75247218D01*
X52872860Y-75149522D01*
X53015348Y-74857179D01*
X53098064Y-74542656D01*
X53117831Y-74218038D01*
X53073888Y-73895802D01*
X52967924Y-73588330D01*
X52872860Y-73410478D01*
X52606823Y-73312782D01*
X51639605Y-74280000D01*
X51280395Y-74280000D01*
X50313177Y-73312782D01*
X50047140Y-73410478D01*
X49904652Y-73702821D01*
X49821936Y-74017344D01*
X49802169Y-74341962D01*
X45110284Y-74341962D01*
X45117831Y-74218038D01*
X45073888Y-73895802D01*
X44967924Y-73588330D01*
X44872860Y-73410478D01*
X44606823Y-73312782D01*
X43639605Y-74280000D01*
X43280395Y-74280000D01*
X42313177Y-73312782D01*
X42047140Y-73410478D01*
X41904652Y-73702821D01*
X41821936Y-74017344D01*
X41802169Y-74341962D01*
X35110284Y-74341962D01*
X35117831Y-74218038D01*
X35073888Y-73895802D01*
X34967924Y-73588330D01*
X34872860Y-73410478D01*
X34606823Y-73312782D01*
X33639605Y-74280000D01*
X33280395Y-74280000D01*
X32313177Y-73312782D01*
X32047140Y-73410478D01*
X31904652Y-73702821D01*
X31821936Y-74017344D01*
X31802169Y-74341962D01*
X29305163Y-74341962D01*
X29304918Y-73133177D01*
X32492782Y-73133177D01*
X33460000Y-74100395D01*
X34427218Y-73133177D01*
X42492782Y-73133177D01*
X43460000Y-74100395D01*
X44427218Y-73133177D01*
X50492782Y-73133177D01*
X51460000Y-74100395D01*
X52427218Y-73133177D01*
X52329522Y-72867140D01*
X52037179Y-72724652D01*
X51722656Y-72641936D01*
X51398038Y-72622169D01*
X51075802Y-72666112D01*
X50768330Y-72772076D01*
X50590478Y-72867140D01*
X50492782Y-73133177D01*
X44427218Y-73133177D01*
X44329522Y-72867140D01*
X44037179Y-72724652D01*
X43722656Y-72641936D01*
X43398038Y-72622169D01*
X43075802Y-72666112D01*
X42768330Y-72772076D01*
X42590478Y-72867140D01*
X42492782Y-73133177D01*
X34427218Y-73133177D01*
X34329522Y-72867140D01*
X34037179Y-72724652D01*
X33722656Y-72641936D01*
X33398038Y-72622169D01*
X33075802Y-72666112D01*
X32768330Y-72772076D01*
X32590478Y-72867140D01*
X32492782Y-73133177D01*
X29304918Y-73133177D01*
X29304350Y-70333652D01*
X31474100Y-70333652D01*
X31474100Y-70626348D01*
X31531202Y-70913421D01*
X31643212Y-71183838D01*
X31805826Y-71427206D01*
X32012794Y-71634174D01*
X32256162Y-71796788D01*
X32526579Y-71908798D01*
X32813652Y-71965900D01*
X33106348Y-71965900D01*
X33393421Y-71908798D01*
X33663838Y-71796788D01*
X33907206Y-71634174D01*
X34114174Y-71427206D01*
X34276788Y-71183838D01*
X34388798Y-70913421D01*
X34445900Y-70626348D01*
X34445900Y-70333652D01*
X34428982Y-70248594D01*
X36110500Y-70248594D01*
X36110500Y-70711406D01*
X36200790Y-71165324D01*
X36377900Y-71592905D01*
X36635024Y-71977719D01*
X36962281Y-72304976D01*
X37347095Y-72562100D01*
X37774676Y-72739210D01*
X38228594Y-72829500D01*
X38691406Y-72829500D01*
X39145324Y-72739210D01*
X39572905Y-72562100D01*
X39957719Y-72304976D01*
X40284976Y-71977719D01*
X40542100Y-71592905D01*
X40719210Y-71165324D01*
X40809500Y-70711406D01*
X40809500Y-70333652D01*
X42474100Y-70333652D01*
X42474100Y-70626348D01*
X42531202Y-70913421D01*
X42643212Y-71183838D01*
X42805826Y-71427206D01*
X43012794Y-71634174D01*
X43256162Y-71796788D01*
X43526579Y-71908798D01*
X43813652Y-71965900D01*
X44106348Y-71965900D01*
X44393421Y-71908798D01*
X44663838Y-71796788D01*
X44907206Y-71634174D01*
X45114174Y-71427206D01*
X45276788Y-71183838D01*
X45388798Y-70913421D01*
X45445900Y-70626348D01*
X45445900Y-70333652D01*
X49474100Y-70333652D01*
X49474100Y-70626348D01*
X49531202Y-70913421D01*
X49643212Y-71183838D01*
X49805826Y-71427206D01*
X50012794Y-71634174D01*
X50256162Y-71796788D01*
X50526579Y-71908798D01*
X50813652Y-71965900D01*
X51106348Y-71965900D01*
X51393421Y-71908798D01*
X51663838Y-71796788D01*
X51907206Y-71634174D01*
X52114174Y-71427206D01*
X52276788Y-71183838D01*
X52388798Y-70913421D01*
X52445900Y-70626348D01*
X52445900Y-70333652D01*
X52388798Y-70046579D01*
X52276788Y-69776162D01*
X52114174Y-69532794D01*
X51907206Y-69325826D01*
X51663838Y-69163212D01*
X51393421Y-69051202D01*
X51106348Y-68994100D01*
X50813652Y-68994100D01*
X50526579Y-69051202D01*
X50256162Y-69163212D01*
X50012794Y-69325826D01*
X49805826Y-69532794D01*
X49643212Y-69776162D01*
X49531202Y-70046579D01*
X49474100Y-70333652D01*
X45445900Y-70333652D01*
X45388798Y-70046579D01*
X45276788Y-69776162D01*
X45114174Y-69532794D01*
X44907206Y-69325826D01*
X44663838Y-69163212D01*
X44393421Y-69051202D01*
X44106348Y-68994100D01*
X43813652Y-68994100D01*
X43526579Y-69051202D01*
X43256162Y-69163212D01*
X43012794Y-69325826D01*
X42805826Y-69532794D01*
X42643212Y-69776162D01*
X42531202Y-70046579D01*
X42474100Y-70333652D01*
X40809500Y-70333652D01*
X40809500Y-70248594D01*
X40719210Y-69794676D01*
X40542100Y-69367095D01*
X40284976Y-68982281D01*
X39957719Y-68655024D01*
X39572905Y-68397900D01*
X39145324Y-68220790D01*
X38691406Y-68130500D01*
X38228594Y-68130500D01*
X37774676Y-68220790D01*
X37347095Y-68397900D01*
X36962281Y-68655024D01*
X36635024Y-68982281D01*
X36377900Y-69367095D01*
X36200790Y-69794676D01*
X36110500Y-70248594D01*
X34428982Y-70248594D01*
X34388798Y-70046579D01*
X34276788Y-69776162D01*
X34114174Y-69532794D01*
X33907206Y-69325826D01*
X33663838Y-69163212D01*
X33393421Y-69051202D01*
X33106348Y-68994100D01*
X32813652Y-68994100D01*
X32526579Y-69051202D01*
X32256162Y-69163212D01*
X32012794Y-69325826D01*
X31805826Y-69532794D01*
X31643212Y-69776162D01*
X31531202Y-70046579D01*
X31474100Y-70333652D01*
X29304350Y-70333652D01*
X29303506Y-66168675D01*
X32109700Y-66168675D01*
X32109700Y-66391325D01*
X32153137Y-66609696D01*
X32238341Y-66815398D01*
X32362039Y-67000524D01*
X32519476Y-67157961D01*
X32704602Y-67281659D01*
X32910304Y-67366863D01*
X33128675Y-67410300D01*
X33351325Y-67410300D01*
X33569696Y-67366863D01*
X33775398Y-67281659D01*
X33960524Y-67157961D01*
X34117961Y-67000524D01*
X34241659Y-66815398D01*
X34326863Y-66609696D01*
X34370300Y-66391325D01*
X34370300Y-66168675D01*
X42549700Y-66168675D01*
X42549700Y-66391325D01*
X42593137Y-66609696D01*
X42678341Y-66815398D01*
X42802039Y-67000524D01*
X42959476Y-67157961D01*
X43144602Y-67281659D01*
X43350304Y-67366863D01*
X43568675Y-67410300D01*
X43791325Y-67410300D01*
X44009696Y-67366863D01*
X44215398Y-67281659D01*
X44400524Y-67157961D01*
X44557961Y-67000524D01*
X44681659Y-66815398D01*
X44766863Y-66609696D01*
X44810300Y-66391325D01*
X44810300Y-66168675D01*
X50109700Y-66168675D01*
X50109700Y-66391325D01*
X50153137Y-66609696D01*
X50238341Y-66815398D01*
X50362039Y-67000524D01*
X50519476Y-67157961D01*
X50704602Y-67281659D01*
X50910304Y-67366863D01*
X51128675Y-67410300D01*
X51351325Y-67410300D01*
X51569696Y-67366863D01*
X51775398Y-67281659D01*
X51960524Y-67157961D01*
X52117961Y-67000524D01*
X52241659Y-66815398D01*
X52326863Y-66609696D01*
X52370300Y-66391325D01*
X52370300Y-66168675D01*
X60549700Y-66168675D01*
X60549700Y-66391325D01*
X60593137Y-66609696D01*
X60678341Y-66815398D01*
X60802039Y-67000524D01*
X60959476Y-67157961D01*
X61144602Y-67281659D01*
X61350304Y-67366863D01*
X61568675Y-67410300D01*
X61791325Y-67410300D01*
X62009696Y-67366863D01*
X62215398Y-67281659D01*
X62400524Y-67157961D01*
X62557961Y-67000524D01*
X62681659Y-66815398D01*
X62766863Y-66609696D01*
X62810300Y-66391325D01*
X62810300Y-66168675D01*
X62766863Y-65950304D01*
X62681659Y-65744602D01*
X62557961Y-65559476D01*
X62400524Y-65402039D01*
X62215398Y-65278341D01*
X62009696Y-65193137D01*
X61791325Y-65149700D01*
X61568675Y-65149700D01*
X61350304Y-65193137D01*
X61144602Y-65278341D01*
X60959476Y-65402039D01*
X60802039Y-65559476D01*
X60678341Y-65744602D01*
X60593137Y-65950304D01*
X60549700Y-66168675D01*
X52370300Y-66168675D01*
X52326863Y-65950304D01*
X52241659Y-65744602D01*
X52117961Y-65559476D01*
X51960524Y-65402039D01*
X51775398Y-65278341D01*
X51569696Y-65193137D01*
X51351325Y-65149700D01*
X51128675Y-65149700D01*
X50910304Y-65193137D01*
X50704602Y-65278341D01*
X50519476Y-65402039D01*
X50362039Y-65559476D01*
X50238341Y-65744602D01*
X50153137Y-65950304D01*
X50109700Y-66168675D01*
X44810300Y-66168675D01*
X44766863Y-65950304D01*
X44681659Y-65744602D01*
X44557961Y-65559476D01*
X44400524Y-65402039D01*
X44215398Y-65278341D01*
X44009696Y-65193137D01*
X43791325Y-65149700D01*
X43568675Y-65149700D01*
X43350304Y-65193137D01*
X43144602Y-65278341D01*
X42959476Y-65402039D01*
X42802039Y-65559476D01*
X42678341Y-65744602D01*
X42593137Y-65950304D01*
X42549700Y-66168675D01*
X34370300Y-66168675D01*
X34326863Y-65950304D01*
X34241659Y-65744602D01*
X34117961Y-65559476D01*
X33960524Y-65402039D01*
X33775398Y-65278341D01*
X33569696Y-65193137D01*
X33351325Y-65149700D01*
X33128675Y-65149700D01*
X32910304Y-65193137D01*
X32704602Y-65278341D01*
X32519476Y-65402039D01*
X32362039Y-65559476D01*
X32238341Y-65744602D01*
X32153137Y-65950304D01*
X32109700Y-66168675D01*
X29303506Y-66168675D01*
X29303219Y-64754408D01*
X102501600Y-64754408D01*
X102501600Y-65029592D01*
X102555286Y-65299490D01*
X102660595Y-65553727D01*
X102813480Y-65782535D01*
X103008065Y-65977120D01*
X103236873Y-66130005D01*
X103314115Y-66162000D01*
X103236873Y-66193995D01*
X103008065Y-66346880D01*
X102813480Y-66541465D01*
X102660595Y-66770273D01*
X102555286Y-67024510D01*
X102501600Y-67294408D01*
X102501600Y-67569592D01*
X102555286Y-67839490D01*
X102660595Y-68093727D01*
X102813480Y-68322535D01*
X103008065Y-68517120D01*
X103236873Y-68670005D01*
X103308543Y-68699692D01*
X103295577Y-68704364D01*
X103179620Y-68766344D01*
X103112640Y-69006435D01*
X103898600Y-69792395D01*
X104684560Y-69006435D01*
X104617580Y-68766344D01*
X104481840Y-68702515D01*
X104560327Y-68670005D01*
X104789135Y-68517120D01*
X104983720Y-68322535D01*
X105136605Y-68093727D01*
X105241914Y-67839490D01*
X105295600Y-67569592D01*
X105295600Y-67504017D01*
X117716690Y-67504017D01*
X117757678Y-67776133D01*
X117850964Y-68035023D01*
X117912944Y-68150980D01*
X118153035Y-68217960D01*
X118938995Y-67432000D01*
X119298205Y-67432000D01*
X120084165Y-68217960D01*
X120324256Y-68150980D01*
X120441356Y-67901952D01*
X120507623Y-67634865D01*
X120520510Y-67359983D01*
X120479522Y-67087867D01*
X120386236Y-66828977D01*
X120324256Y-66713020D01*
X120084165Y-66646040D01*
X119298205Y-67432000D01*
X118938995Y-67432000D01*
X118153035Y-66646040D01*
X117912944Y-66713020D01*
X117795844Y-66962048D01*
X117729577Y-67229135D01*
X117716690Y-67504017D01*
X105295600Y-67504017D01*
X105295600Y-67294408D01*
X105241914Y-67024510D01*
X105136605Y-66770273D01*
X104983720Y-66541465D01*
X104789135Y-66346880D01*
X104560327Y-66193995D01*
X104483085Y-66162000D01*
X104560327Y-66130005D01*
X104789135Y-65977120D01*
X104983720Y-65782535D01*
X105136605Y-65553727D01*
X105241914Y-65299490D01*
X105295600Y-65029592D01*
X105295600Y-64754408D01*
X117721600Y-64754408D01*
X117721600Y-65029592D01*
X117775286Y-65299490D01*
X117880595Y-65553727D01*
X118033480Y-65782535D01*
X118228065Y-65977120D01*
X118456873Y-66130005D01*
X118528543Y-66159692D01*
X118515577Y-66164364D01*
X118399620Y-66226344D01*
X118332640Y-66466435D01*
X119118600Y-67252395D01*
X119904560Y-66466435D01*
X119837580Y-66226344D01*
X119701840Y-66162515D01*
X119780327Y-66130005D01*
X120009135Y-65977120D01*
X120203720Y-65782535D01*
X120356605Y-65553727D01*
X120461914Y-65299490D01*
X120515600Y-65029592D01*
X120515600Y-64754408D01*
X120461914Y-64484510D01*
X120356605Y-64230273D01*
X120203720Y-64001465D01*
X120009135Y-63806880D01*
X119780327Y-63653995D01*
X119526090Y-63548686D01*
X119256192Y-63495000D01*
X118981008Y-63495000D01*
X118711110Y-63548686D01*
X118456873Y-63653995D01*
X118228065Y-63806880D01*
X118033480Y-64001465D01*
X117880595Y-64230273D01*
X117775286Y-64484510D01*
X117721600Y-64754408D01*
X105295600Y-64754408D01*
X105241914Y-64484510D01*
X105136605Y-64230273D01*
X104983720Y-64001465D01*
X104789135Y-63806880D01*
X104560327Y-63653995D01*
X104306090Y-63548686D01*
X104036192Y-63495000D01*
X103761008Y-63495000D01*
X103491110Y-63548686D01*
X103236873Y-63653995D01*
X103008065Y-63806880D01*
X102813480Y-64001465D01*
X102660595Y-64230273D01*
X102555286Y-64484510D01*
X102501600Y-64754408D01*
X29303219Y-64754408D01*
X29302887Y-63121450D01*
X29329355Y-62686234D01*
X29341737Y-62638967D01*
X70365000Y-62638967D01*
X70365000Y-62961033D01*
X70427832Y-63276912D01*
X70551082Y-63574463D01*
X70730013Y-63842252D01*
X70957748Y-64069987D01*
X71225537Y-64248918D01*
X71523088Y-64372168D01*
X71838967Y-64435000D01*
X72161033Y-64435000D01*
X72476912Y-64372168D01*
X72774463Y-64248918D01*
X73042252Y-64069987D01*
X73269987Y-63842252D01*
X73334925Y-63745065D01*
X73364587Y-63755808D01*
X74320395Y-62800000D01*
X73364587Y-61844192D01*
X73334925Y-61854935D01*
X73269987Y-61757748D01*
X73176826Y-61664587D01*
X73544192Y-61664587D01*
X74500000Y-62620395D01*
X74514143Y-62606253D01*
X74693748Y-62785858D01*
X74679605Y-62800000D01*
X74693748Y-62814143D01*
X74514143Y-62993748D01*
X74500000Y-62979605D01*
X73544192Y-63935413D01*
X73639956Y-64199814D01*
X73929571Y-64340704D01*
X74241108Y-64422384D01*
X74562595Y-64441718D01*
X74881675Y-64397961D01*
X75186088Y-64292795D01*
X75360044Y-64199814D01*
X75414024Y-64050777D01*
X75469463Y-64154494D01*
X75548815Y-64251185D01*
X75645506Y-64330537D01*
X75755820Y-64389502D01*
X75875518Y-64425812D01*
X76000000Y-64438072D01*
X78000000Y-64438072D01*
X78124482Y-64425812D01*
X78244180Y-64389502D01*
X78354494Y-64330537D01*
X78451185Y-64251185D01*
X78530537Y-64154494D01*
X78589502Y-64044180D01*
X78625812Y-63924482D01*
X78638072Y-63800000D01*
X78638072Y-62698967D01*
X88365000Y-62698967D01*
X88365000Y-63021033D01*
X88427832Y-63336912D01*
X88551082Y-63634463D01*
X88730013Y-63902252D01*
X88957748Y-64129987D01*
X89225537Y-64308918D01*
X89523088Y-64432168D01*
X89838967Y-64495000D01*
X90161033Y-64495000D01*
X90476912Y-64432168D01*
X90774463Y-64308918D01*
X91042252Y-64129987D01*
X91269987Y-63902252D01*
X91334925Y-63805065D01*
X91364587Y-63815808D01*
X92320395Y-62860000D01*
X91364587Y-61904192D01*
X91334925Y-61914935D01*
X91269987Y-61817748D01*
X91176826Y-61724587D01*
X91544192Y-61724587D01*
X92500000Y-62680395D01*
X92514143Y-62666253D01*
X92693748Y-62845858D01*
X92679605Y-62860000D01*
X92693748Y-62874143D01*
X92514143Y-63053748D01*
X92500000Y-63039605D01*
X91544192Y-63995413D01*
X91639956Y-64259814D01*
X91929571Y-64400704D01*
X92241108Y-64482384D01*
X92562595Y-64501718D01*
X92881675Y-64457961D01*
X93186088Y-64352795D01*
X93360044Y-64259814D01*
X93414024Y-64110777D01*
X93469463Y-64214494D01*
X93548815Y-64311185D01*
X93645506Y-64390537D01*
X93755820Y-64449502D01*
X93875518Y-64485812D01*
X94000000Y-64498072D01*
X96000000Y-64498072D01*
X96124482Y-64485812D01*
X96244180Y-64449502D01*
X96354494Y-64390537D01*
X96451185Y-64311185D01*
X96530537Y-64214494D01*
X96589502Y-64104180D01*
X96625812Y-63984482D01*
X96638072Y-63860000D01*
X96638072Y-61860000D01*
X96625812Y-61735518D01*
X96589502Y-61615820D01*
X96530537Y-61505506D01*
X96451185Y-61408815D01*
X96354494Y-61329463D01*
X96244180Y-61270498D01*
X96124482Y-61234188D01*
X96000000Y-61221928D01*
X94000000Y-61221928D01*
X93875518Y-61234188D01*
X93755820Y-61270498D01*
X93645506Y-61329463D01*
X93548815Y-61408815D01*
X93469463Y-61505506D01*
X93414024Y-61609223D01*
X93360044Y-61460186D01*
X93070429Y-61319296D01*
X92758892Y-61237616D01*
X92437405Y-61218282D01*
X92118325Y-61262039D01*
X91813912Y-61367205D01*
X91639956Y-61460186D01*
X91544192Y-61724587D01*
X91176826Y-61724587D01*
X91042252Y-61590013D01*
X90774463Y-61411082D01*
X90476912Y-61287832D01*
X90161033Y-61225000D01*
X89838967Y-61225000D01*
X89523088Y-61287832D01*
X89225537Y-61411082D01*
X88957748Y-61590013D01*
X88730013Y-61817748D01*
X88551082Y-62085537D01*
X88427832Y-62383088D01*
X88365000Y-62698967D01*
X78638072Y-62698967D01*
X78638072Y-61800000D01*
X78625812Y-61675518D01*
X78589502Y-61555820D01*
X78530537Y-61445506D01*
X78451185Y-61348815D01*
X78354494Y-61269463D01*
X78244180Y-61210498D01*
X78124482Y-61174188D01*
X78000000Y-61161928D01*
X76000000Y-61161928D01*
X75875518Y-61174188D01*
X75755820Y-61210498D01*
X75645506Y-61269463D01*
X75548815Y-61348815D01*
X75469463Y-61445506D01*
X75414024Y-61549223D01*
X75360044Y-61400186D01*
X75070429Y-61259296D01*
X74758892Y-61177616D01*
X74437405Y-61158282D01*
X74118325Y-61202039D01*
X73813912Y-61307205D01*
X73639956Y-61400186D01*
X73544192Y-61664587D01*
X73176826Y-61664587D01*
X73042252Y-61530013D01*
X72774463Y-61351082D01*
X72476912Y-61227832D01*
X72161033Y-61165000D01*
X71838967Y-61165000D01*
X71523088Y-61227832D01*
X71225537Y-61351082D01*
X70957748Y-61530013D01*
X70730013Y-61757748D01*
X70551082Y-62025537D01*
X70427832Y-62323088D01*
X70365000Y-62638967D01*
X29341737Y-62638967D01*
X29427690Y-62310873D01*
X29597059Y-61961764D01*
X29831012Y-61652200D01*
X30120638Y-61393972D01*
X30454898Y-61196922D01*
X30821073Y-61068547D01*
X31231372Y-61010007D01*
X121600113Y-61029984D01*
G04 #@! TA.AperFunction,Conductor*
D18*
G36*
X121600113Y-61029984D02*
G01*
X121609671Y-61030867D01*
X122026175Y-61066412D01*
X122360951Y-61162899D01*
X122670605Y-61322571D01*
X122943351Y-61539351D01*
X123168796Y-61804979D01*
X123338355Y-62109337D01*
X123445566Y-62440833D01*
X123490007Y-62817879D01*
X123499992Y-92046567D01*
X123426592Y-93151648D01*
X123212324Y-94214302D01*
X122859399Y-95239268D01*
X122374010Y-96208569D01*
X121764700Y-97105143D01*
X121042154Y-97913266D01*
X120219078Y-98618729D01*
X119309931Y-99209135D01*
X118330684Y-99674116D01*
X117298542Y-100005501D01*
X116227968Y-100198128D01*
X115300439Y-100249985D01*
X31508227Y-100182631D01*
X31059147Y-100171941D01*
X30680717Y-100087604D01*
X30325874Y-99931369D01*
X30008135Y-99709187D01*
X29739600Y-99429518D01*
X29530505Y-99103022D01*
X29388806Y-98742124D01*
X29316266Y-98340429D01*
X29309997Y-98185561D01*
X29308991Y-93217391D01*
X36809000Y-93217391D01*
X36809000Y-93542609D01*
X36872447Y-93861579D01*
X36996903Y-94162042D01*
X37177585Y-94432451D01*
X37407549Y-94662415D01*
X37677958Y-94843097D01*
X37978421Y-94967553D01*
X38297391Y-95031000D01*
X38622609Y-95031000D01*
X38941579Y-94967553D01*
X39242042Y-94843097D01*
X39512451Y-94662415D01*
X39742415Y-94432451D01*
X39923097Y-94162042D01*
X40047553Y-93861579D01*
X40111000Y-93542609D01*
X40111000Y-93217391D01*
X40047553Y-92898421D01*
X39923097Y-92597958D01*
X39808748Y-92426823D01*
X42492782Y-92426823D01*
X42590478Y-92692860D01*
X42882821Y-92835348D01*
X43197344Y-92918064D01*
X43521962Y-92937831D01*
X43844198Y-92893888D01*
X44151670Y-92787924D01*
X44329522Y-92692860D01*
X44427218Y-92426823D01*
X50492782Y-92426823D01*
X50590478Y-92692860D01*
X50882821Y-92835348D01*
X51197344Y-92918064D01*
X51521962Y-92937831D01*
X51844198Y-92893888D01*
X52151670Y-92787924D01*
X52329522Y-92692860D01*
X52427218Y-92426823D01*
X51460000Y-91459605D01*
X50492782Y-92426823D01*
X44427218Y-92426823D01*
X43460000Y-91459605D01*
X42492782Y-92426823D01*
X39808748Y-92426823D01*
X39742415Y-92327549D01*
X39512451Y-92097585D01*
X39242042Y-91916903D01*
X38941579Y-91792447D01*
X38622609Y-91729000D01*
X38297391Y-91729000D01*
X37978421Y-91792447D01*
X37677958Y-91916903D01*
X37407549Y-92097585D01*
X37177585Y-92327549D01*
X36996903Y-92597958D01*
X36872447Y-92898421D01*
X36809000Y-93217391D01*
X29308991Y-93217391D01*
X29308830Y-92426823D01*
X32492782Y-92426823D01*
X32590478Y-92692860D01*
X32882821Y-92835348D01*
X33197344Y-92918064D01*
X33521962Y-92937831D01*
X33844198Y-92893888D01*
X34151670Y-92787924D01*
X34329522Y-92692860D01*
X34427218Y-92426823D01*
X33460000Y-91459605D01*
X32492782Y-92426823D01*
X29308830Y-92426823D01*
X29308610Y-91341962D01*
X31802169Y-91341962D01*
X31846112Y-91664198D01*
X31952076Y-91971670D01*
X32047140Y-92149522D01*
X32313177Y-92247218D01*
X33280395Y-91280000D01*
X33639605Y-91280000D01*
X34606823Y-92247218D01*
X34872860Y-92149522D01*
X35015348Y-91857179D01*
X35098064Y-91542656D01*
X35110284Y-91341962D01*
X41802169Y-91341962D01*
X41846112Y-91664198D01*
X41952076Y-91971670D01*
X42047140Y-92149522D01*
X42313177Y-92247218D01*
X43280395Y-91280000D01*
X43639605Y-91280000D01*
X44606823Y-92247218D01*
X44872860Y-92149522D01*
X45015348Y-91857179D01*
X45098064Y-91542656D01*
X45110284Y-91341962D01*
X49802169Y-91341962D01*
X49846112Y-91664198D01*
X49952076Y-91971670D01*
X50047140Y-92149522D01*
X50313177Y-92247218D01*
X51280395Y-91280000D01*
X51639605Y-91280000D01*
X52606823Y-92247218D01*
X52872860Y-92149522D01*
X53015348Y-91857179D01*
X53098064Y-91542656D01*
X53110284Y-91341962D01*
X59802169Y-91341962D01*
X59846112Y-91664198D01*
X59952076Y-91971670D01*
X60047140Y-92149522D01*
X60313177Y-92247218D01*
X61280395Y-91280000D01*
X61639605Y-91280000D01*
X62606823Y-92247218D01*
X62872860Y-92149522D01*
X63015348Y-91857179D01*
X63098064Y-91542656D01*
X63110284Y-91341962D01*
X67802169Y-91341962D01*
X67846112Y-91664198D01*
X67952076Y-91971670D01*
X68047140Y-92149522D01*
X68313177Y-92247218D01*
X69280395Y-91280000D01*
X69639605Y-91280000D01*
X70606823Y-92247218D01*
X70872860Y-92149522D01*
X71015348Y-91857179D01*
X71098064Y-91542656D01*
X71110284Y-91341962D01*
X77802169Y-91341962D01*
X77846112Y-91664198D01*
X77952076Y-91971670D01*
X78047140Y-92149522D01*
X78313177Y-92247218D01*
X79280395Y-91280000D01*
X79639605Y-91280000D01*
X80606823Y-92247218D01*
X80872860Y-92149522D01*
X81015348Y-91857179D01*
X81098064Y-91542656D01*
X81110284Y-91341962D01*
X85802169Y-91341962D01*
X85846112Y-91664198D01*
X85952076Y-91971670D01*
X86047140Y-92149522D01*
X86313177Y-92247218D01*
X87280395Y-91280000D01*
X87639605Y-91280000D01*
X88606823Y-92247218D01*
X88872860Y-92149522D01*
X89015348Y-91857179D01*
X89098064Y-91542656D01*
X89117831Y-91218038D01*
X89073888Y-90895802D01*
X88967924Y-90588330D01*
X88872860Y-90410478D01*
X88606823Y-90312782D01*
X87639605Y-91280000D01*
X87280395Y-91280000D01*
X86313177Y-90312782D01*
X86047140Y-90410478D01*
X85904652Y-90702821D01*
X85821936Y-91017344D01*
X85802169Y-91341962D01*
X81110284Y-91341962D01*
X81117831Y-91218038D01*
X81073888Y-90895802D01*
X80967924Y-90588330D01*
X80872860Y-90410478D01*
X80606823Y-90312782D01*
X79639605Y-91280000D01*
X79280395Y-91280000D01*
X78313177Y-90312782D01*
X78047140Y-90410478D01*
X77904652Y-90702821D01*
X77821936Y-91017344D01*
X77802169Y-91341962D01*
X71110284Y-91341962D01*
X71117831Y-91218038D01*
X71073888Y-90895802D01*
X70967924Y-90588330D01*
X70872860Y-90410478D01*
X70606823Y-90312782D01*
X69639605Y-91280000D01*
X69280395Y-91280000D01*
X68313177Y-90312782D01*
X68047140Y-90410478D01*
X67904652Y-90702821D01*
X67821936Y-91017344D01*
X67802169Y-91341962D01*
X63110284Y-91341962D01*
X63117831Y-91218038D01*
X63073888Y-90895802D01*
X62967924Y-90588330D01*
X62872860Y-90410478D01*
X62606823Y-90312782D01*
X61639605Y-91280000D01*
X61280395Y-91280000D01*
X60313177Y-90312782D01*
X60047140Y-90410478D01*
X59904652Y-90702821D01*
X59821936Y-91017344D01*
X59802169Y-91341962D01*
X53110284Y-91341962D01*
X53117831Y-91218038D01*
X53073888Y-90895802D01*
X52967924Y-90588330D01*
X52872860Y-90410478D01*
X52606823Y-90312782D01*
X51639605Y-91280000D01*
X51280395Y-91280000D01*
X50313177Y-90312782D01*
X50047140Y-90410478D01*
X49904652Y-90702821D01*
X49821936Y-91017344D01*
X49802169Y-91341962D01*
X45110284Y-91341962D01*
X45117831Y-91218038D01*
X45073888Y-90895802D01*
X44967924Y-90588330D01*
X44872860Y-90410478D01*
X44606823Y-90312782D01*
X43639605Y-91280000D01*
X43280395Y-91280000D01*
X42313177Y-90312782D01*
X42047140Y-90410478D01*
X41904652Y-90702821D01*
X41821936Y-91017344D01*
X41802169Y-91341962D01*
X35110284Y-91341962D01*
X35117831Y-91218038D01*
X35073888Y-90895802D01*
X34967924Y-90588330D01*
X34872860Y-90410478D01*
X34606823Y-90312782D01*
X33639605Y-91280000D01*
X33280395Y-91280000D01*
X32313177Y-90312782D01*
X32047140Y-90410478D01*
X31904652Y-90702821D01*
X31821936Y-91017344D01*
X31802169Y-91341962D01*
X29308610Y-91341962D01*
X29308365Y-90133177D01*
X32492782Y-90133177D01*
X33460000Y-91100395D01*
X34427218Y-90133177D01*
X42492782Y-90133177D01*
X43460000Y-91100395D01*
X44427218Y-90133177D01*
X50492782Y-90133177D01*
X51460000Y-91100395D01*
X52427218Y-90133177D01*
X60492782Y-90133177D01*
X61460000Y-91100395D01*
X62427218Y-90133177D01*
X68492782Y-90133177D01*
X69460000Y-91100395D01*
X70427218Y-90133177D01*
X78492782Y-90133177D01*
X79460000Y-91100395D01*
X80427218Y-90133177D01*
X86492782Y-90133177D01*
X87460000Y-91100395D01*
X88427218Y-90133177D01*
X88329522Y-89867140D01*
X88037179Y-89724652D01*
X87722656Y-89641936D01*
X87398038Y-89622169D01*
X87075802Y-89666112D01*
X86768330Y-89772076D01*
X86590478Y-89867140D01*
X86492782Y-90133177D01*
X80427218Y-90133177D01*
X80329522Y-89867140D01*
X80037179Y-89724652D01*
X79722656Y-89641936D01*
X79398038Y-89622169D01*
X79075802Y-89666112D01*
X78768330Y-89772076D01*
X78590478Y-89867140D01*
X78492782Y-90133177D01*
X70427218Y-90133177D01*
X70329522Y-89867140D01*
X70037179Y-89724652D01*
X69722656Y-89641936D01*
X69398038Y-89622169D01*
X69075802Y-89666112D01*
X68768330Y-89772076D01*
X68590478Y-89867140D01*
X68492782Y-90133177D01*
X62427218Y-90133177D01*
X62329522Y-89867140D01*
X62037179Y-89724652D01*
X61722656Y-89641936D01*
X61398038Y-89622169D01*
X61075802Y-89666112D01*
X60768330Y-89772076D01*
X60590478Y-89867140D01*
X60492782Y-90133177D01*
X52427218Y-90133177D01*
X52329522Y-89867140D01*
X52037179Y-89724652D01*
X51722656Y-89641936D01*
X51398038Y-89622169D01*
X51075802Y-89666112D01*
X50768330Y-89772076D01*
X50590478Y-89867140D01*
X50492782Y-90133177D01*
X44427218Y-90133177D01*
X44329522Y-89867140D01*
X44037179Y-89724652D01*
X43722656Y-89641936D01*
X43398038Y-89622169D01*
X43075802Y-89666112D01*
X42768330Y-89772076D01*
X42590478Y-89867140D01*
X42492782Y-90133177D01*
X34427218Y-90133177D01*
X34329522Y-89867140D01*
X34037179Y-89724652D01*
X33722656Y-89641936D01*
X33398038Y-89622169D01*
X33075802Y-89666112D01*
X32768330Y-89772076D01*
X32590478Y-89867140D01*
X32492782Y-90133177D01*
X29308365Y-90133177D01*
X29307797Y-87333652D01*
X31474100Y-87333652D01*
X31474100Y-87626348D01*
X31531202Y-87913421D01*
X31643212Y-88183838D01*
X31805826Y-88427206D01*
X32012794Y-88634174D01*
X32256162Y-88796788D01*
X32526579Y-88908798D01*
X32813652Y-88965900D01*
X33106348Y-88965900D01*
X33393421Y-88908798D01*
X33663838Y-88796788D01*
X33907206Y-88634174D01*
X34114174Y-88427206D01*
X34276788Y-88183838D01*
X34388798Y-87913421D01*
X34445900Y-87626348D01*
X34445900Y-87333652D01*
X34428982Y-87248594D01*
X36110500Y-87248594D01*
X36110500Y-87711406D01*
X36200790Y-88165324D01*
X36377900Y-88592905D01*
X36635024Y-88977719D01*
X36962281Y-89304976D01*
X37347095Y-89562100D01*
X37774676Y-89739210D01*
X38228594Y-89829500D01*
X38691406Y-89829500D01*
X39145324Y-89739210D01*
X39572905Y-89562100D01*
X39957719Y-89304976D01*
X40284976Y-88977719D01*
X40542100Y-88592905D01*
X40719210Y-88165324D01*
X40809500Y-87711406D01*
X40809500Y-87333652D01*
X42474100Y-87333652D01*
X42474100Y-87626348D01*
X42531202Y-87913421D01*
X42643212Y-88183838D01*
X42805826Y-88427206D01*
X43012794Y-88634174D01*
X43256162Y-88796788D01*
X43526579Y-88908798D01*
X43813652Y-88965900D01*
X44106348Y-88965900D01*
X44393421Y-88908798D01*
X44663838Y-88796788D01*
X44907206Y-88634174D01*
X45114174Y-88427206D01*
X45276788Y-88183838D01*
X45388798Y-87913421D01*
X45445900Y-87626348D01*
X45445900Y-87333652D01*
X49474100Y-87333652D01*
X49474100Y-87626348D01*
X49531202Y-87913421D01*
X49643212Y-88183838D01*
X49805826Y-88427206D01*
X50012794Y-88634174D01*
X50256162Y-88796788D01*
X50526579Y-88908798D01*
X50813652Y-88965900D01*
X51106348Y-88965900D01*
X51393421Y-88908798D01*
X51663838Y-88796788D01*
X51907206Y-88634174D01*
X52114174Y-88427206D01*
X52276788Y-88183838D01*
X52388798Y-87913421D01*
X52445900Y-87626348D01*
X52445900Y-87333652D01*
X52428982Y-87248594D01*
X54110500Y-87248594D01*
X54110500Y-87711406D01*
X54200790Y-88165324D01*
X54377900Y-88592905D01*
X54635024Y-88977719D01*
X54962281Y-89304976D01*
X55347095Y-89562100D01*
X55774676Y-89739210D01*
X56228594Y-89829500D01*
X56691406Y-89829500D01*
X57145324Y-89739210D01*
X57572905Y-89562100D01*
X57957719Y-89304976D01*
X58284976Y-88977719D01*
X58542100Y-88592905D01*
X58719210Y-88165324D01*
X58809500Y-87711406D01*
X58809500Y-87333652D01*
X60474100Y-87333652D01*
X60474100Y-87626348D01*
X60531202Y-87913421D01*
X60643212Y-88183838D01*
X60805826Y-88427206D01*
X61012794Y-88634174D01*
X61256162Y-88796788D01*
X61526579Y-88908798D01*
X61813652Y-88965900D01*
X62106348Y-88965900D01*
X62393421Y-88908798D01*
X62663838Y-88796788D01*
X62907206Y-88634174D01*
X63114174Y-88427206D01*
X63276788Y-88183838D01*
X63388798Y-87913421D01*
X63445900Y-87626348D01*
X63445900Y-87333652D01*
X67474100Y-87333652D01*
X67474100Y-87626348D01*
X67531202Y-87913421D01*
X67643212Y-88183838D01*
X67805826Y-88427206D01*
X68012794Y-88634174D01*
X68256162Y-88796788D01*
X68526579Y-88908798D01*
X68813652Y-88965900D01*
X69106348Y-88965900D01*
X69393421Y-88908798D01*
X69663838Y-88796788D01*
X69907206Y-88634174D01*
X70114174Y-88427206D01*
X70276788Y-88183838D01*
X70388798Y-87913421D01*
X70445900Y-87626348D01*
X70445900Y-87333652D01*
X70428982Y-87248594D01*
X72110500Y-87248594D01*
X72110500Y-87711406D01*
X72200790Y-88165324D01*
X72377900Y-88592905D01*
X72635024Y-88977719D01*
X72962281Y-89304976D01*
X73347095Y-89562100D01*
X73774676Y-89739210D01*
X74228594Y-89829500D01*
X74691406Y-89829500D01*
X75145324Y-89739210D01*
X75572905Y-89562100D01*
X75957719Y-89304976D01*
X76284976Y-88977719D01*
X76542100Y-88592905D01*
X76719210Y-88165324D01*
X76809500Y-87711406D01*
X76809500Y-87333652D01*
X78474100Y-87333652D01*
X78474100Y-87626348D01*
X78531202Y-87913421D01*
X78643212Y-88183838D01*
X78805826Y-88427206D01*
X79012794Y-88634174D01*
X79256162Y-88796788D01*
X79526579Y-88908798D01*
X79813652Y-88965900D01*
X80106348Y-88965900D01*
X80393421Y-88908798D01*
X80663838Y-88796788D01*
X80907206Y-88634174D01*
X81114174Y-88427206D01*
X81276788Y-88183838D01*
X81388798Y-87913421D01*
X81445900Y-87626348D01*
X81445900Y-87333652D01*
X85474100Y-87333652D01*
X85474100Y-87626348D01*
X85531202Y-87913421D01*
X85643212Y-88183838D01*
X85805826Y-88427206D01*
X86012794Y-88634174D01*
X86256162Y-88796788D01*
X86526579Y-88908798D01*
X86813652Y-88965900D01*
X87106348Y-88965900D01*
X87393421Y-88908798D01*
X87663838Y-88796788D01*
X87907206Y-88634174D01*
X88114174Y-88427206D01*
X88276788Y-88183838D01*
X88388798Y-87913421D01*
X88445900Y-87626348D01*
X88445900Y-87333652D01*
X88388798Y-87046579D01*
X88276788Y-86776162D01*
X88114174Y-86532794D01*
X87907206Y-86325826D01*
X87663838Y-86163212D01*
X87393421Y-86051202D01*
X87106348Y-85994100D01*
X86813652Y-85994100D01*
X86526579Y-86051202D01*
X86256162Y-86163212D01*
X86012794Y-86325826D01*
X85805826Y-86532794D01*
X85643212Y-86776162D01*
X85531202Y-87046579D01*
X85474100Y-87333652D01*
X81445900Y-87333652D01*
X81388798Y-87046579D01*
X81276788Y-86776162D01*
X81114174Y-86532794D01*
X80907206Y-86325826D01*
X80663838Y-86163212D01*
X80393421Y-86051202D01*
X80106348Y-85994100D01*
X79813652Y-85994100D01*
X79526579Y-86051202D01*
X79256162Y-86163212D01*
X79012794Y-86325826D01*
X78805826Y-86532794D01*
X78643212Y-86776162D01*
X78531202Y-87046579D01*
X78474100Y-87333652D01*
X76809500Y-87333652D01*
X76809500Y-87248594D01*
X76719210Y-86794676D01*
X76542100Y-86367095D01*
X76284976Y-85982281D01*
X75957719Y-85655024D01*
X75572905Y-85397900D01*
X75145324Y-85220790D01*
X74691406Y-85130500D01*
X74228594Y-85130500D01*
X73774676Y-85220790D01*
X73347095Y-85397900D01*
X72962281Y-85655024D01*
X72635024Y-85982281D01*
X72377900Y-86367095D01*
X72200790Y-86794676D01*
X72110500Y-87248594D01*
X70428982Y-87248594D01*
X70388798Y-87046579D01*
X70276788Y-86776162D01*
X70114174Y-86532794D01*
X69907206Y-86325826D01*
X69663838Y-86163212D01*
X69393421Y-86051202D01*
X69106348Y-85994100D01*
X68813652Y-85994100D01*
X68526579Y-86051202D01*
X68256162Y-86163212D01*
X68012794Y-86325826D01*
X67805826Y-86532794D01*
X67643212Y-86776162D01*
X67531202Y-87046579D01*
X67474100Y-87333652D01*
X63445900Y-87333652D01*
X63388798Y-87046579D01*
X63276788Y-86776162D01*
X63114174Y-86532794D01*
X62907206Y-86325826D01*
X62663838Y-86163212D01*
X62393421Y-86051202D01*
X62106348Y-85994100D01*
X61813652Y-85994100D01*
X61526579Y-86051202D01*
X61256162Y-86163212D01*
X61012794Y-86325826D01*
X60805826Y-86532794D01*
X60643212Y-86776162D01*
X60531202Y-87046579D01*
X60474100Y-87333652D01*
X58809500Y-87333652D01*
X58809500Y-87248594D01*
X58719210Y-86794676D01*
X58542100Y-86367095D01*
X58284976Y-85982281D01*
X57957719Y-85655024D01*
X57572905Y-85397900D01*
X57145324Y-85220790D01*
X56691406Y-85130500D01*
X56228594Y-85130500D01*
X55774676Y-85220790D01*
X55347095Y-85397900D01*
X54962281Y-85655024D01*
X54635024Y-85982281D01*
X54377900Y-86367095D01*
X54200790Y-86794676D01*
X54110500Y-87248594D01*
X52428982Y-87248594D01*
X52388798Y-87046579D01*
X52276788Y-86776162D01*
X52114174Y-86532794D01*
X51907206Y-86325826D01*
X51663838Y-86163212D01*
X51393421Y-86051202D01*
X51106348Y-85994100D01*
X50813652Y-85994100D01*
X50526579Y-86051202D01*
X50256162Y-86163212D01*
X50012794Y-86325826D01*
X49805826Y-86532794D01*
X49643212Y-86776162D01*
X49531202Y-87046579D01*
X49474100Y-87333652D01*
X45445900Y-87333652D01*
X45388798Y-87046579D01*
X45276788Y-86776162D01*
X45114174Y-86532794D01*
X44907206Y-86325826D01*
X44663838Y-86163212D01*
X44393421Y-86051202D01*
X44106348Y-85994100D01*
X43813652Y-85994100D01*
X43526579Y-86051202D01*
X43256162Y-86163212D01*
X43012794Y-86325826D01*
X42805826Y-86532794D01*
X42643212Y-86776162D01*
X42531202Y-87046579D01*
X42474100Y-87333652D01*
X40809500Y-87333652D01*
X40809500Y-87248594D01*
X40719210Y-86794676D01*
X40542100Y-86367095D01*
X40284976Y-85982281D01*
X39957719Y-85655024D01*
X39572905Y-85397900D01*
X39145324Y-85220790D01*
X38691406Y-85130500D01*
X38228594Y-85130500D01*
X37774676Y-85220790D01*
X37347095Y-85397900D01*
X36962281Y-85655024D01*
X36635024Y-85982281D01*
X36377900Y-86367095D01*
X36200790Y-86794676D01*
X36110500Y-87248594D01*
X34428982Y-87248594D01*
X34388798Y-87046579D01*
X34276788Y-86776162D01*
X34114174Y-86532794D01*
X33907206Y-86325826D01*
X33663838Y-86163212D01*
X33393421Y-86051202D01*
X33106348Y-85994100D01*
X32813652Y-85994100D01*
X32526579Y-86051202D01*
X32256162Y-86163212D01*
X32012794Y-86325826D01*
X31805826Y-86532794D01*
X31643212Y-86776162D01*
X31531202Y-87046579D01*
X31474100Y-87333652D01*
X29307797Y-87333652D01*
X29306953Y-83168675D01*
X32109700Y-83168675D01*
X32109700Y-83391325D01*
X32153137Y-83609696D01*
X32238341Y-83815398D01*
X32362039Y-84000524D01*
X32519476Y-84157961D01*
X32704602Y-84281659D01*
X32910304Y-84366863D01*
X33128675Y-84410300D01*
X33351325Y-84410300D01*
X33569696Y-84366863D01*
X33775398Y-84281659D01*
X33960524Y-84157961D01*
X34117961Y-84000524D01*
X34241659Y-83815398D01*
X34326863Y-83609696D01*
X34370300Y-83391325D01*
X34370300Y-83168675D01*
X42549700Y-83168675D01*
X42549700Y-83391325D01*
X42593137Y-83609696D01*
X42678341Y-83815398D01*
X42802039Y-84000524D01*
X42959476Y-84157961D01*
X43144602Y-84281659D01*
X43350304Y-84366863D01*
X43568675Y-84410300D01*
X43791325Y-84410300D01*
X44009696Y-84366863D01*
X44215398Y-84281659D01*
X44400524Y-84157961D01*
X44557961Y-84000524D01*
X44681659Y-83815398D01*
X44766863Y-83609696D01*
X44810300Y-83391325D01*
X44810300Y-83168675D01*
X50109700Y-83168675D01*
X50109700Y-83391325D01*
X50153137Y-83609696D01*
X50238341Y-83815398D01*
X50362039Y-84000524D01*
X50519476Y-84157961D01*
X50704602Y-84281659D01*
X50910304Y-84366863D01*
X51128675Y-84410300D01*
X51351325Y-84410300D01*
X51569696Y-84366863D01*
X51775398Y-84281659D01*
X51960524Y-84157961D01*
X52117961Y-84000524D01*
X52241659Y-83815398D01*
X52326863Y-83609696D01*
X52370300Y-83391325D01*
X52370300Y-83168675D01*
X60549700Y-83168675D01*
X60549700Y-83391325D01*
X60593137Y-83609696D01*
X60678341Y-83815398D01*
X60802039Y-84000524D01*
X60959476Y-84157961D01*
X61144602Y-84281659D01*
X61350304Y-84366863D01*
X61568675Y-84410300D01*
X61791325Y-84410300D01*
X62009696Y-84366863D01*
X62215398Y-84281659D01*
X62400524Y-84157961D01*
X62557961Y-84000524D01*
X62681659Y-83815398D01*
X62766863Y-83609696D01*
X62810300Y-83391325D01*
X62810300Y-83168675D01*
X68109700Y-83168675D01*
X68109700Y-83391325D01*
X68153137Y-83609696D01*
X68238341Y-83815398D01*
X68362039Y-84000524D01*
X68519476Y-84157961D01*
X68704602Y-84281659D01*
X68910304Y-84366863D01*
X69128675Y-84410300D01*
X69351325Y-84410300D01*
X69569696Y-84366863D01*
X69775398Y-84281659D01*
X69960524Y-84157961D01*
X70117961Y-84000524D01*
X70241659Y-83815398D01*
X70326863Y-83609696D01*
X70370300Y-83391325D01*
X70370300Y-83168675D01*
X78549700Y-83168675D01*
X78549700Y-83391325D01*
X78593137Y-83609696D01*
X78678341Y-83815398D01*
X78802039Y-84000524D01*
X78959476Y-84157961D01*
X79144602Y-84281659D01*
X79350304Y-84366863D01*
X79568675Y-84410300D01*
X79791325Y-84410300D01*
X80009696Y-84366863D01*
X80215398Y-84281659D01*
X80400524Y-84157961D01*
X80557961Y-84000524D01*
X80681659Y-83815398D01*
X80766863Y-83609696D01*
X80810300Y-83391325D01*
X80810300Y-83168675D01*
X86109700Y-83168675D01*
X86109700Y-83391325D01*
X86153137Y-83609696D01*
X86238341Y-83815398D01*
X86362039Y-84000524D01*
X86519476Y-84157961D01*
X86704602Y-84281659D01*
X86910304Y-84366863D01*
X87128675Y-84410300D01*
X87351325Y-84410300D01*
X87569696Y-84366863D01*
X87775398Y-84281659D01*
X87960524Y-84157961D01*
X88117961Y-84000524D01*
X88241659Y-83815398D01*
X88326863Y-83609696D01*
X88370300Y-83391325D01*
X88370300Y-83168675D01*
X96549700Y-83168675D01*
X96549700Y-83391325D01*
X96593137Y-83609696D01*
X96678341Y-83815398D01*
X96802039Y-84000524D01*
X96959476Y-84157961D01*
X97144602Y-84281659D01*
X97350304Y-84366863D01*
X97568675Y-84410300D01*
X97791325Y-84410300D01*
X98009696Y-84366863D01*
X98215398Y-84281659D01*
X98400524Y-84157961D01*
X98557961Y-84000524D01*
X98681659Y-83815398D01*
X98766863Y-83609696D01*
X98810300Y-83391325D01*
X98810300Y-83168675D01*
X98766863Y-82950304D01*
X98681659Y-82744602D01*
X98557961Y-82559476D01*
X98400524Y-82402039D01*
X98215398Y-82278341D01*
X98009696Y-82193137D01*
X97791325Y-82149700D01*
X97568675Y-82149700D01*
X97350304Y-82193137D01*
X97144602Y-82278341D01*
X96959476Y-82402039D01*
X96802039Y-82559476D01*
X96678341Y-82744602D01*
X96593137Y-82950304D01*
X96549700Y-83168675D01*
X88370300Y-83168675D01*
X88326863Y-82950304D01*
X88241659Y-82744602D01*
X88117961Y-82559476D01*
X87960524Y-82402039D01*
X87775398Y-82278341D01*
X87569696Y-82193137D01*
X87351325Y-82149700D01*
X87128675Y-82149700D01*
X86910304Y-82193137D01*
X86704602Y-82278341D01*
X86519476Y-82402039D01*
X86362039Y-82559476D01*
X86238341Y-82744602D01*
X86153137Y-82950304D01*
X86109700Y-83168675D01*
X80810300Y-83168675D01*
X80766863Y-82950304D01*
X80681659Y-82744602D01*
X80557961Y-82559476D01*
X80400524Y-82402039D01*
X80215398Y-82278341D01*
X80009696Y-82193137D01*
X79791325Y-82149700D01*
X79568675Y-82149700D01*
X79350304Y-82193137D01*
X79144602Y-82278341D01*
X78959476Y-82402039D01*
X78802039Y-82559476D01*
X78678341Y-82744602D01*
X78593137Y-82950304D01*
X78549700Y-83168675D01*
X70370300Y-83168675D01*
X70326863Y-82950304D01*
X70241659Y-82744602D01*
X70117961Y-82559476D01*
X69960524Y-82402039D01*
X69775398Y-82278341D01*
X69569696Y-82193137D01*
X69351325Y-82149700D01*
X69128675Y-82149700D01*
X68910304Y-82193137D01*
X68704602Y-82278341D01*
X68519476Y-82402039D01*
X68362039Y-82559476D01*
X68238341Y-82744602D01*
X68153137Y-82950304D01*
X68109700Y-83168675D01*
X62810300Y-83168675D01*
X62766863Y-82950304D01*
X62681659Y-82744602D01*
X62557961Y-82559476D01*
X62400524Y-82402039D01*
X62215398Y-82278341D01*
X62009696Y-82193137D01*
X61791325Y-82149700D01*
X61568675Y-82149700D01*
X61350304Y-82193137D01*
X61144602Y-82278341D01*
X60959476Y-82402039D01*
X60802039Y-82559476D01*
X60678341Y-82744602D01*
X60593137Y-82950304D01*
X60549700Y-83168675D01*
X52370300Y-83168675D01*
X52326863Y-82950304D01*
X52241659Y-82744602D01*
X52117961Y-82559476D01*
X51960524Y-82402039D01*
X51775398Y-82278341D01*
X51569696Y-82193137D01*
X51351325Y-82149700D01*
X51128675Y-82149700D01*
X50910304Y-82193137D01*
X50704602Y-82278341D01*
X50519476Y-82402039D01*
X50362039Y-82559476D01*
X50238341Y-82744602D01*
X50153137Y-82950304D01*
X50109700Y-83168675D01*
X44810300Y-83168675D01*
X44766863Y-82950304D01*
X44681659Y-82744602D01*
X44557961Y-82559476D01*
X44400524Y-82402039D01*
X44215398Y-82278341D01*
X44009696Y-82193137D01*
X43791325Y-82149700D01*
X43568675Y-82149700D01*
X43350304Y-82193137D01*
X43144602Y-82278341D01*
X42959476Y-82402039D01*
X42802039Y-82559476D01*
X42678341Y-82744602D01*
X42593137Y-82950304D01*
X42549700Y-83168675D01*
X34370300Y-83168675D01*
X34326863Y-82950304D01*
X34241659Y-82744602D01*
X34117961Y-82559476D01*
X33960524Y-82402039D01*
X33775398Y-82278341D01*
X33569696Y-82193137D01*
X33351325Y-82149700D01*
X33128675Y-82149700D01*
X32910304Y-82193137D01*
X32704602Y-82278341D01*
X32519476Y-82402039D01*
X32362039Y-82559476D01*
X32238341Y-82744602D01*
X32153137Y-82950304D01*
X32109700Y-83168675D01*
X29306953Y-83168675D01*
X29305959Y-78256993D01*
X71222612Y-78256993D01*
X71288137Y-78495860D01*
X71535116Y-78611760D01*
X71799960Y-78677250D01*
X72072492Y-78689812D01*
X72342238Y-78648965D01*
X72598832Y-78556277D01*
X72711863Y-78495860D01*
X72777388Y-78256993D01*
X72000000Y-77479605D01*
X71222612Y-78256993D01*
X29305959Y-78256993D01*
X29305545Y-76217391D01*
X36809000Y-76217391D01*
X36809000Y-76542609D01*
X36872447Y-76861579D01*
X36996903Y-77162042D01*
X37177585Y-77432451D01*
X37407549Y-77662415D01*
X37677958Y-77843097D01*
X37978421Y-77967553D01*
X38297391Y-78031000D01*
X38622609Y-78031000D01*
X38941579Y-77967553D01*
X39242042Y-77843097D01*
X39512451Y-77662415D01*
X39742415Y-77432451D01*
X39923097Y-77162042D01*
X39932227Y-77140000D01*
X54437996Y-77140000D01*
X54475318Y-77143676D01*
X54512640Y-77140000D01*
X54512651Y-77140000D01*
X54624304Y-77129003D01*
X54767565Y-77085546D01*
X54899594Y-77014974D01*
X54926753Y-76992685D01*
X54996903Y-77162042D01*
X55177585Y-77432451D01*
X55407549Y-77662415D01*
X55677958Y-77843097D01*
X55978421Y-77967553D01*
X56297391Y-78031000D01*
X56622609Y-78031000D01*
X56941579Y-77967553D01*
X57242042Y-77843097D01*
X57512451Y-77662415D01*
X57742415Y-77432451D01*
X57782478Y-77372492D01*
X70610188Y-77372492D01*
X70651035Y-77642238D01*
X70743723Y-77898832D01*
X70804140Y-78011863D01*
X71043007Y-78077388D01*
X71820395Y-77300000D01*
X72179605Y-77300000D01*
X72956993Y-78077388D01*
X73195860Y-78011863D01*
X73311760Y-77764884D01*
X73377250Y-77500040D01*
X73389812Y-77227508D01*
X73348965Y-76957762D01*
X73256277Y-76701168D01*
X73195860Y-76588137D01*
X72956993Y-76522612D01*
X72179605Y-77300000D01*
X71820395Y-77300000D01*
X71043007Y-76522612D01*
X70804140Y-76588137D01*
X70688240Y-76835116D01*
X70622750Y-77099960D01*
X70610188Y-77372492D01*
X57782478Y-77372492D01*
X57923097Y-77162042D01*
X58047553Y-76861579D01*
X58111000Y-76542609D01*
X58111000Y-76343007D01*
X71222612Y-76343007D01*
X72000000Y-77120395D01*
X72777388Y-76343007D01*
X72711863Y-76104140D01*
X72464884Y-75988240D01*
X72200040Y-75922750D01*
X71927508Y-75910188D01*
X71657762Y-75951035D01*
X71401168Y-76043723D01*
X71288137Y-76104140D01*
X71222612Y-76343007D01*
X58111000Y-76343007D01*
X58111000Y-76217391D01*
X58047553Y-75898421D01*
X57923097Y-75597958D01*
X57808748Y-75426823D01*
X60492782Y-75426823D01*
X60590478Y-75692860D01*
X60882821Y-75835348D01*
X61197344Y-75918064D01*
X61521962Y-75937831D01*
X61844198Y-75893888D01*
X62151670Y-75787924D01*
X62329522Y-75692860D01*
X62427218Y-75426823D01*
X61460000Y-74459605D01*
X60492782Y-75426823D01*
X57808748Y-75426823D01*
X57742415Y-75327549D01*
X57512451Y-75097585D01*
X57242042Y-74916903D01*
X57080238Y-74849882D01*
X58231121Y-73698999D01*
X59906515Y-73698999D01*
X59904652Y-73702821D01*
X59821936Y-74017344D01*
X59802169Y-74341962D01*
X59846112Y-74664198D01*
X59952076Y-74971670D01*
X60047140Y-75149522D01*
X60313177Y-75247218D01*
X61280395Y-74280000D01*
X61266253Y-74265858D01*
X61445858Y-74086253D01*
X61460000Y-74100395D01*
X61474143Y-74086253D01*
X61653748Y-74265858D01*
X61639605Y-74280000D01*
X62606823Y-75247218D01*
X62872860Y-75149522D01*
X63015348Y-74857179D01*
X63098064Y-74542656D01*
X63117831Y-74218038D01*
X63073888Y-73895802D01*
X63006064Y-73698999D01*
X101470798Y-73698999D01*
X102532228Y-74760430D01*
X102501600Y-74914408D01*
X102501600Y-75189592D01*
X102555286Y-75459490D01*
X102660595Y-75713727D01*
X102813480Y-75942535D01*
X103008065Y-76137120D01*
X103236873Y-76290005D01*
X103314115Y-76322000D01*
X103236873Y-76353995D01*
X103008065Y-76506880D01*
X102813480Y-76701465D01*
X102660595Y-76930273D01*
X102555286Y-77184510D01*
X102501600Y-77454408D01*
X102501600Y-77729592D01*
X102555286Y-77999490D01*
X102660595Y-78253727D01*
X102813480Y-78482535D01*
X103008065Y-78677120D01*
X103236873Y-78830005D01*
X103314115Y-78862000D01*
X103236873Y-78893995D01*
X103008065Y-79046880D01*
X102813480Y-79241465D01*
X102660595Y-79470273D01*
X102620902Y-79566100D01*
X99903804Y-76849003D01*
X99880001Y-76819999D01*
X99764276Y-76725026D01*
X99632247Y-76654454D01*
X99488986Y-76610997D01*
X99377333Y-76600000D01*
X99377322Y-76600000D01*
X99340000Y-76596324D01*
X99302678Y-76600000D01*
X96157909Y-76600000D01*
X96075799Y-76477114D01*
X95882886Y-76284201D01*
X95656043Y-76132629D01*
X95403989Y-76028225D01*
X95136411Y-75975000D01*
X94863589Y-75975000D01*
X94596011Y-76028225D01*
X94343957Y-76132629D01*
X94117114Y-76284201D01*
X93924201Y-76477114D01*
X93772629Y-76703957D01*
X93668225Y-76956011D01*
X93615000Y-77223589D01*
X93615000Y-77496411D01*
X93668225Y-77763989D01*
X93772629Y-78016043D01*
X93924201Y-78242886D01*
X94113313Y-78431998D01*
X90730785Y-78486881D01*
X90777388Y-78316993D01*
X90000000Y-77539605D01*
X89222612Y-78316993D01*
X89275691Y-78510491D01*
X81609678Y-78634876D01*
X80407294Y-77432492D01*
X88610188Y-77432492D01*
X88651035Y-77702238D01*
X88743723Y-77958832D01*
X88804140Y-78071863D01*
X89043007Y-78137388D01*
X89820395Y-77360000D01*
X90179605Y-77360000D01*
X90956993Y-78137388D01*
X91195860Y-78071863D01*
X91311760Y-77824884D01*
X91377250Y-77560040D01*
X91389812Y-77287508D01*
X91348965Y-77017762D01*
X91256277Y-76761168D01*
X91195860Y-76648137D01*
X90956993Y-76582612D01*
X90179605Y-77360000D01*
X89820395Y-77360000D01*
X89043007Y-76582612D01*
X88804140Y-76648137D01*
X88688240Y-76895116D01*
X88622750Y-77159960D01*
X88610188Y-77432492D01*
X80407294Y-77432492D01*
X79763804Y-76789002D01*
X79740001Y-76759999D01*
X79624276Y-76665026D01*
X79492247Y-76594454D01*
X79348986Y-76550997D01*
X79237333Y-76540000D01*
X79237322Y-76540000D01*
X79200000Y-76536324D01*
X79162678Y-76540000D01*
X78157909Y-76540000D01*
X78075799Y-76417114D01*
X78061692Y-76403007D01*
X89222612Y-76403007D01*
X90000000Y-77180395D01*
X90777388Y-76403007D01*
X90711863Y-76164140D01*
X90464884Y-76048240D01*
X90200040Y-75982750D01*
X89927508Y-75970188D01*
X89657762Y-76011035D01*
X89401168Y-76103723D01*
X89288137Y-76164140D01*
X89222612Y-76403007D01*
X78061692Y-76403007D01*
X77882886Y-76224201D01*
X77656043Y-76072629D01*
X77403989Y-75968225D01*
X77136411Y-75915000D01*
X76863589Y-75915000D01*
X76596011Y-75968225D01*
X76343957Y-76072629D01*
X76117114Y-76224201D01*
X75924201Y-76417114D01*
X75772629Y-76643957D01*
X75668225Y-76896011D01*
X75615000Y-77163589D01*
X75615000Y-77436411D01*
X75668225Y-77703989D01*
X75772629Y-77956043D01*
X75924201Y-78182886D01*
X76117114Y-78375799D01*
X76343957Y-78527371D01*
X76596011Y-78631775D01*
X76863589Y-78685000D01*
X77136411Y-78685000D01*
X77403989Y-78631775D01*
X77656043Y-78527371D01*
X77882886Y-78375799D01*
X78075799Y-78182886D01*
X78157909Y-78060000D01*
X78885199Y-78060000D01*
X80740580Y-79915383D01*
X80768831Y-79948690D01*
X80822575Y-79991356D01*
X80875723Y-80034973D01*
X80881213Y-80037907D01*
X80886082Y-80041773D01*
X80947171Y-80073163D01*
X81007753Y-80105545D01*
X81013703Y-80107350D01*
X81019238Y-80110194D01*
X81085308Y-80129071D01*
X81151013Y-80149002D01*
X81157202Y-80149612D01*
X81163185Y-80151321D01*
X81231661Y-80156945D01*
X81299999Y-80163676D01*
X81343474Y-80159394D01*
X99074446Y-79871700D01*
X100023499Y-79871700D01*
X102532228Y-82380430D01*
X102501600Y-82534408D01*
X102501600Y-82809592D01*
X102555286Y-83079490D01*
X102660595Y-83333727D01*
X102813480Y-83562535D01*
X103008065Y-83757120D01*
X103236873Y-83910005D01*
X103314115Y-83942000D01*
X103236873Y-83973995D01*
X103008065Y-84126880D01*
X102813480Y-84321465D01*
X102660595Y-84550273D01*
X102555286Y-84804510D01*
X102501600Y-85074408D01*
X102501600Y-85349592D01*
X102555286Y-85619490D01*
X102660595Y-85873727D01*
X102813480Y-86102535D01*
X103008065Y-86297120D01*
X103236873Y-86450005D01*
X103314115Y-86482000D01*
X103236873Y-86513995D01*
X103008065Y-86666880D01*
X102813480Y-86861465D01*
X102660595Y-87090273D01*
X102555286Y-87344510D01*
X102501600Y-87614408D01*
X102501600Y-87889592D01*
X102555286Y-88159490D01*
X102660595Y-88413727D01*
X102813480Y-88642535D01*
X102940946Y-88770001D01*
X98703927Y-88770001D01*
X98907206Y-88634174D01*
X99114174Y-88427206D01*
X99276788Y-88183838D01*
X99388798Y-87913421D01*
X99445900Y-87626348D01*
X99445900Y-87333652D01*
X99388798Y-87046579D01*
X99276788Y-86776162D01*
X99114174Y-86532794D01*
X98907206Y-86325826D01*
X98663838Y-86163212D01*
X98393421Y-86051202D01*
X98106348Y-85994100D01*
X97813652Y-85994100D01*
X97526579Y-86051202D01*
X97256162Y-86163212D01*
X97012794Y-86325826D01*
X96805826Y-86532794D01*
X96643212Y-86776162D01*
X96531202Y-87046579D01*
X96474100Y-87333652D01*
X96474100Y-87626348D01*
X96531202Y-87913421D01*
X96643212Y-88183838D01*
X96805826Y-88427206D01*
X97012794Y-88634174D01*
X97216073Y-88770001D01*
X94423768Y-88770001D01*
X94542100Y-88592905D01*
X94719210Y-88165324D01*
X94809500Y-87711406D01*
X94809500Y-87248594D01*
X94719210Y-86794676D01*
X94542100Y-86367095D01*
X94284976Y-85982281D01*
X93957719Y-85655024D01*
X93572905Y-85397900D01*
X93145324Y-85220790D01*
X92691406Y-85130500D01*
X92228594Y-85130500D01*
X91774676Y-85220790D01*
X91347095Y-85397900D01*
X90962281Y-85655024D01*
X90635024Y-85982281D01*
X90377900Y-86367095D01*
X90200790Y-86794676D01*
X90110500Y-87248594D01*
X90110500Y-87711406D01*
X90200790Y-88165324D01*
X90377900Y-88592905D01*
X90635024Y-88977719D01*
X90962281Y-89304976D01*
X91347095Y-89562100D01*
X91774676Y-89739210D01*
X92228594Y-89829500D01*
X92691406Y-89829500D01*
X93015478Y-89765038D01*
X90160517Y-92620000D01*
X88356278Y-92620000D01*
X88427218Y-92426823D01*
X87460000Y-91459605D01*
X86492782Y-92426823D01*
X86563722Y-92620000D01*
X80356278Y-92620000D01*
X80427218Y-92426823D01*
X79460000Y-91459605D01*
X78492782Y-92426823D01*
X78563722Y-92620000D01*
X75932227Y-92620000D01*
X75923097Y-92597958D01*
X75742415Y-92327549D01*
X75512451Y-92097585D01*
X75242042Y-91916903D01*
X74941579Y-91792447D01*
X74622609Y-91729000D01*
X74297391Y-91729000D01*
X73978421Y-91792447D01*
X73677958Y-91916903D01*
X73407549Y-92097585D01*
X73177585Y-92327549D01*
X72996903Y-92597958D01*
X72872447Y-92898421D01*
X72809000Y-93217391D01*
X72809000Y-93542609D01*
X72872447Y-93861579D01*
X72996903Y-94162042D01*
X73177585Y-94432451D01*
X73407549Y-94662415D01*
X73677958Y-94843097D01*
X73978421Y-94967553D01*
X74297391Y-95031000D01*
X74622609Y-95031000D01*
X74941579Y-94967553D01*
X75242042Y-94843097D01*
X75512451Y-94662415D01*
X75742415Y-94432451D01*
X75923097Y-94162042D01*
X75932227Y-94140000D01*
X90437996Y-94140000D01*
X90475318Y-94143676D01*
X90512640Y-94140000D01*
X90512651Y-94140000D01*
X90624304Y-94129003D01*
X90767565Y-94085546D01*
X90899594Y-94014974D01*
X90926753Y-93992685D01*
X90996903Y-94162042D01*
X91177585Y-94432451D01*
X91407549Y-94662415D01*
X91677958Y-94843097D01*
X91978421Y-94967553D01*
X92297391Y-95031000D01*
X92622609Y-95031000D01*
X92941579Y-94967553D01*
X93242042Y-94843097D01*
X93257780Y-94832581D01*
X93352200Y-94927002D01*
X93375998Y-94956000D01*
X93404996Y-94979798D01*
X93491723Y-95050973D01*
X93623752Y-95121545D01*
X93767013Y-95165002D01*
X93915999Y-95179676D01*
X93953332Y-95175999D01*
X100479799Y-95175999D01*
X97715799Y-97940000D01*
X88914802Y-97940000D01*
X86343804Y-95369003D01*
X86320001Y-95339999D01*
X86204276Y-95245026D01*
X86072247Y-95174454D01*
X85928986Y-95130997D01*
X85817333Y-95120000D01*
X85817322Y-95120000D01*
X85780000Y-95116324D01*
X85742678Y-95120000D01*
X59274802Y-95120000D01*
X58038423Y-93883621D01*
X58047553Y-93861579D01*
X58111000Y-93542609D01*
X58111000Y-93217391D01*
X58047553Y-92898421D01*
X57923097Y-92597958D01*
X57808748Y-92426823D01*
X60492782Y-92426823D01*
X60590478Y-92692860D01*
X60882821Y-92835348D01*
X61197344Y-92918064D01*
X61521962Y-92937831D01*
X61844198Y-92893888D01*
X62151670Y-92787924D01*
X62329522Y-92692860D01*
X62427218Y-92426823D01*
X68492782Y-92426823D01*
X68590478Y-92692860D01*
X68882821Y-92835348D01*
X69197344Y-92918064D01*
X69521962Y-92937831D01*
X69844198Y-92893888D01*
X70151670Y-92787924D01*
X70329522Y-92692860D01*
X70427218Y-92426823D01*
X69460000Y-91459605D01*
X68492782Y-92426823D01*
X62427218Y-92426823D01*
X61460000Y-91459605D01*
X60492782Y-92426823D01*
X57808748Y-92426823D01*
X57742415Y-92327549D01*
X57512451Y-92097585D01*
X57242042Y-91916903D01*
X56941579Y-91792447D01*
X56622609Y-91729000D01*
X56297391Y-91729000D01*
X55978421Y-91792447D01*
X55677958Y-91916903D01*
X55407549Y-92097585D01*
X55177585Y-92327549D01*
X54996903Y-92597958D01*
X54872447Y-92898421D01*
X54809000Y-93217391D01*
X54809000Y-93542609D01*
X54872447Y-93861579D01*
X54996903Y-94162042D01*
X55177585Y-94432451D01*
X55407549Y-94662415D01*
X55677958Y-94843097D01*
X55978421Y-94967553D01*
X56297391Y-95031000D01*
X56622609Y-95031000D01*
X56941579Y-94967553D01*
X56963621Y-94958423D01*
X58396200Y-96391002D01*
X58419999Y-96420001D01*
X58448997Y-96443799D01*
X58535723Y-96514974D01*
X58667753Y-96585546D01*
X58811014Y-96629003D01*
X58922667Y-96640000D01*
X58922677Y-96640000D01*
X58960000Y-96643676D01*
X58997323Y-96640000D01*
X85465199Y-96640000D01*
X88036201Y-99211003D01*
X88059999Y-99240001D01*
X88175724Y-99334974D01*
X88307753Y-99405546D01*
X88451014Y-99449003D01*
X88562667Y-99460000D01*
X88562676Y-99460000D01*
X88599999Y-99463676D01*
X88637322Y-99460000D01*
X97993278Y-99460000D01*
X98030600Y-99463676D01*
X98067922Y-99460000D01*
X98067933Y-99460000D01*
X98179586Y-99449003D01*
X98322847Y-99405546D01*
X98454876Y-99334974D01*
X98570601Y-99240001D01*
X98594404Y-99210997D01*
X103607030Y-94198372D01*
X103761008Y-94229000D01*
X104036192Y-94229000D01*
X104306090Y-94175314D01*
X104560327Y-94070005D01*
X104789135Y-93917120D01*
X104983720Y-93722535D01*
X105136605Y-93493727D01*
X105241914Y-93239490D01*
X105295600Y-92969592D01*
X105295600Y-92694408D01*
X105241914Y-92424510D01*
X105136605Y-92170273D01*
X105115710Y-92139001D01*
X112914277Y-92139001D01*
X112951599Y-92142677D01*
X112988921Y-92139001D01*
X112988932Y-92139001D01*
X113100585Y-92128004D01*
X113243846Y-92084547D01*
X113375875Y-92013975D01*
X113491600Y-91919002D01*
X113515403Y-91889998D01*
X117721600Y-87683802D01*
X117721600Y-87889592D01*
X117775286Y-88159490D01*
X117880595Y-88413727D01*
X118033480Y-88642535D01*
X118228065Y-88837120D01*
X118456873Y-88990005D01*
X118534115Y-89022000D01*
X118456873Y-89053995D01*
X118228065Y-89206880D01*
X118033480Y-89401465D01*
X117880595Y-89630273D01*
X117775286Y-89884510D01*
X117721600Y-90154408D01*
X117721600Y-90429592D01*
X117775286Y-90699490D01*
X117880595Y-90953727D01*
X118033480Y-91182535D01*
X118228065Y-91377120D01*
X118456873Y-91530005D01*
X118534115Y-91562000D01*
X118456873Y-91593995D01*
X118228065Y-91746880D01*
X118033480Y-91941465D01*
X117880595Y-92170273D01*
X117775286Y-92424510D01*
X117721600Y-92694408D01*
X117721600Y-92969592D01*
X117775286Y-93239490D01*
X117880595Y-93493727D01*
X118033480Y-93722535D01*
X118228065Y-93917120D01*
X118456873Y-94070005D01*
X118711110Y-94175314D01*
X118981008Y-94229000D01*
X119256192Y-94229000D01*
X119526090Y-94175314D01*
X119780327Y-94070005D01*
X120009135Y-93917120D01*
X120203720Y-93722535D01*
X120356605Y-93493727D01*
X120461914Y-93239490D01*
X120515600Y-92969592D01*
X120515600Y-92694408D01*
X120461914Y-92424510D01*
X120356605Y-92170273D01*
X120203720Y-91941465D01*
X120009135Y-91746880D01*
X119780327Y-91593995D01*
X119703085Y-91562000D01*
X119780327Y-91530005D01*
X120009135Y-91377120D01*
X120203720Y-91182535D01*
X120356605Y-90953727D01*
X120461914Y-90699490D01*
X120515600Y-90429592D01*
X120515600Y-90154408D01*
X120461914Y-89884510D01*
X120356605Y-89630273D01*
X120203720Y-89401465D01*
X120009135Y-89206880D01*
X119780327Y-89053995D01*
X119703085Y-89022000D01*
X119780327Y-88990005D01*
X120009135Y-88837120D01*
X120203720Y-88642535D01*
X120356605Y-88413727D01*
X120461914Y-88159490D01*
X120515600Y-87889592D01*
X120515600Y-87614408D01*
X120461914Y-87344510D01*
X120356605Y-87090273D01*
X120203720Y-86861465D01*
X120009135Y-86666880D01*
X119780327Y-86513995D01*
X119703085Y-86482000D01*
X119780327Y-86450005D01*
X120009135Y-86297120D01*
X120203720Y-86102535D01*
X120356605Y-85873727D01*
X120461914Y-85619490D01*
X120515600Y-85349592D01*
X120515600Y-85074408D01*
X120461914Y-84804510D01*
X120356605Y-84550273D01*
X120203720Y-84321465D01*
X120009135Y-84126880D01*
X119780327Y-83973995D01*
X119703085Y-83942000D01*
X119780327Y-83910005D01*
X120009135Y-83757120D01*
X120203720Y-83562535D01*
X120356605Y-83333727D01*
X120461914Y-83079490D01*
X120515600Y-82809592D01*
X120515600Y-82534408D01*
X120461914Y-82264510D01*
X120356605Y-82010273D01*
X120203720Y-81781465D01*
X120009135Y-81586880D01*
X119780327Y-81433995D01*
X119703085Y-81402000D01*
X119780327Y-81370005D01*
X120009135Y-81217120D01*
X120203720Y-81022535D01*
X120356605Y-80793727D01*
X120461914Y-80539490D01*
X120515600Y-80269592D01*
X120515600Y-79994408D01*
X120461914Y-79724510D01*
X120356605Y-79470273D01*
X120203720Y-79241465D01*
X120009135Y-79046880D01*
X119780327Y-78893995D01*
X119703085Y-78862000D01*
X119780327Y-78830005D01*
X120009135Y-78677120D01*
X120203720Y-78482535D01*
X120356605Y-78253727D01*
X120461914Y-77999490D01*
X120515600Y-77729592D01*
X120515600Y-77454408D01*
X120461914Y-77184510D01*
X120356605Y-76930273D01*
X120203720Y-76701465D01*
X120009135Y-76506880D01*
X119780327Y-76353995D01*
X119703085Y-76322000D01*
X119780327Y-76290005D01*
X120009135Y-76137120D01*
X120203720Y-75942535D01*
X120356605Y-75713727D01*
X120461914Y-75459490D01*
X120515600Y-75189592D01*
X120515600Y-74914408D01*
X120461914Y-74644510D01*
X120356605Y-74390273D01*
X120203720Y-74161465D01*
X120009135Y-73966880D01*
X119780327Y-73813995D01*
X119703085Y-73782000D01*
X119780327Y-73750005D01*
X120009135Y-73597120D01*
X120203720Y-73402535D01*
X120356605Y-73173727D01*
X120461914Y-72919490D01*
X120515600Y-72649592D01*
X120515600Y-72374408D01*
X120461914Y-72104510D01*
X120356605Y-71850273D01*
X120203720Y-71621465D01*
X120009135Y-71426880D01*
X119780327Y-71273995D01*
X119703085Y-71242000D01*
X119780327Y-71210005D01*
X120009135Y-71057120D01*
X120203720Y-70862535D01*
X120356605Y-70633727D01*
X120461914Y-70379490D01*
X120515600Y-70109592D01*
X120515600Y-69834408D01*
X120461914Y-69564510D01*
X120356605Y-69310273D01*
X120203720Y-69081465D01*
X120009135Y-68886880D01*
X119780327Y-68733995D01*
X119708657Y-68704308D01*
X119721623Y-68699636D01*
X119837580Y-68637656D01*
X119904560Y-68397565D01*
X119118600Y-67611605D01*
X118332640Y-68397565D01*
X118399620Y-68637656D01*
X118535360Y-68701485D01*
X118456873Y-68733995D01*
X118228065Y-68886880D01*
X118033480Y-69081465D01*
X117880595Y-69310273D01*
X117775286Y-69564510D01*
X117721600Y-69834408D01*
X117721600Y-70109592D01*
X117775286Y-70379490D01*
X117880595Y-70633727D01*
X118033480Y-70862535D01*
X118228065Y-71057120D01*
X118456873Y-71210005D01*
X118534115Y-71242000D01*
X118456873Y-71273995D01*
X118228065Y-71426880D01*
X118033480Y-71621465D01*
X117880595Y-71850273D01*
X117775286Y-72104510D01*
X117721600Y-72374408D01*
X117721600Y-72649592D01*
X117775286Y-72919490D01*
X117880595Y-73173727D01*
X118033480Y-73402535D01*
X118228065Y-73597120D01*
X118456873Y-73750005D01*
X118534115Y-73782000D01*
X118456873Y-73813995D01*
X118228065Y-73966880D01*
X118033480Y-74161465D01*
X117880595Y-74390273D01*
X117775286Y-74644510D01*
X117721600Y-74914408D01*
X117721600Y-75189592D01*
X117775286Y-75459490D01*
X117880595Y-75713727D01*
X118033480Y-75942535D01*
X118228065Y-76137120D01*
X118456873Y-76290005D01*
X118534115Y-76322000D01*
X118456873Y-76353995D01*
X118228065Y-76506880D01*
X118033480Y-76701465D01*
X117880595Y-76930273D01*
X117775286Y-77184510D01*
X117721600Y-77454408D01*
X117721600Y-77729592D01*
X117775286Y-77999490D01*
X117880595Y-78253727D01*
X118033480Y-78482535D01*
X118228065Y-78677120D01*
X118456873Y-78830005D01*
X118534115Y-78862000D01*
X118456873Y-78893995D01*
X118228065Y-79046880D01*
X118033480Y-79241465D01*
X117880595Y-79470273D01*
X117775286Y-79724510D01*
X117721600Y-79994408D01*
X117721600Y-80269592D01*
X117775286Y-80539490D01*
X117880595Y-80793727D01*
X118033480Y-81022535D01*
X118228065Y-81217120D01*
X118456873Y-81370005D01*
X118534115Y-81402000D01*
X118456873Y-81433995D01*
X118228065Y-81586880D01*
X118033480Y-81781465D01*
X117880595Y-82010273D01*
X117775286Y-82264510D01*
X117721600Y-82534408D01*
X117721600Y-82809592D01*
X117775286Y-83079490D01*
X117880595Y-83333727D01*
X118033480Y-83562535D01*
X118228065Y-83757120D01*
X118456873Y-83910005D01*
X118534115Y-83942000D01*
X118456873Y-83973995D01*
X118228065Y-84126880D01*
X118033480Y-84321465D01*
X117880595Y-84550273D01*
X117775286Y-84804510D01*
X117721600Y-85074408D01*
X117721600Y-85349592D01*
X117752228Y-85503570D01*
X112636798Y-90619001D01*
X105257924Y-90619001D01*
X105295600Y-90429592D01*
X105295600Y-90154408D01*
X105241914Y-89884510D01*
X105136605Y-89630273D01*
X104983720Y-89401465D01*
X104789135Y-89206880D01*
X104560327Y-89053995D01*
X104483085Y-89022000D01*
X104560327Y-88990005D01*
X104789135Y-88837120D01*
X104983720Y-88642535D01*
X105136605Y-88413727D01*
X105241914Y-88159490D01*
X105295600Y-87889592D01*
X105295600Y-87614408D01*
X105241914Y-87344510D01*
X105136605Y-87090273D01*
X104983720Y-86861465D01*
X104789135Y-86666880D01*
X104560327Y-86513995D01*
X104483085Y-86482000D01*
X104560327Y-86450005D01*
X104789135Y-86297120D01*
X104983720Y-86102535D01*
X105136605Y-85873727D01*
X105241914Y-85619490D01*
X105295600Y-85349592D01*
X105295600Y-85074408D01*
X105264972Y-84920429D01*
X105496598Y-84688803D01*
X105525602Y-84665000D01*
X105620575Y-84549275D01*
X105691147Y-84417246D01*
X105734604Y-84273985D01*
X105745601Y-84162332D01*
X105745601Y-84162323D01*
X105749277Y-84125000D01*
X105745601Y-84087677D01*
X105745601Y-82187561D01*
X105749277Y-82150238D01*
X105745601Y-82112915D01*
X105745601Y-82112906D01*
X105734604Y-82001253D01*
X105691147Y-81857992D01*
X105624863Y-81733985D01*
X105620575Y-81725962D01*
X105549400Y-81639236D01*
X105525602Y-81610238D01*
X105496605Y-81586441D01*
X104984164Y-81074001D01*
X104960765Y-81045490D01*
X104983720Y-81022535D01*
X105136605Y-80793727D01*
X105241914Y-80539490D01*
X105295600Y-80269592D01*
X105295600Y-79994408D01*
X105241914Y-79724510D01*
X105136605Y-79470273D01*
X104983720Y-79241465D01*
X104789135Y-79046880D01*
X104560327Y-78893995D01*
X104483085Y-78862000D01*
X104560327Y-78830005D01*
X104789135Y-78677120D01*
X104983720Y-78482535D01*
X105136605Y-78253727D01*
X105241914Y-77999490D01*
X105295600Y-77729592D01*
X105295600Y-77454408D01*
X105241914Y-77184510D01*
X105136605Y-76930273D01*
X104983720Y-76701465D01*
X104789135Y-76506880D01*
X104560327Y-76353995D01*
X104483085Y-76322000D01*
X104560327Y-76290005D01*
X104789135Y-76137120D01*
X104983720Y-75942535D01*
X105136605Y-75713727D01*
X105241914Y-75459490D01*
X105295600Y-75189592D01*
X105295600Y-74914408D01*
X105241914Y-74644510D01*
X105136605Y-74390273D01*
X104983720Y-74161465D01*
X104789135Y-73966880D01*
X104560327Y-73813995D01*
X104488657Y-73784308D01*
X104501623Y-73779636D01*
X104617580Y-73717656D01*
X104684560Y-73477565D01*
X103898600Y-72691605D01*
X103884458Y-72705748D01*
X103704853Y-72526143D01*
X103718995Y-72512000D01*
X104078205Y-72512000D01*
X104864165Y-73297960D01*
X105104256Y-73230980D01*
X105221356Y-72981952D01*
X105287623Y-72714865D01*
X105300510Y-72439983D01*
X105259522Y-72167867D01*
X105166236Y-71908977D01*
X105104256Y-71793020D01*
X104864165Y-71726040D01*
X104078205Y-72512000D01*
X103718995Y-72512000D01*
X102933035Y-71726040D01*
X102692944Y-71793020D01*
X102575844Y-72042048D01*
X102509577Y-72309135D01*
X102497081Y-72575680D01*
X102349403Y-72428002D01*
X102325600Y-72398998D01*
X102209875Y-72304025D01*
X102077846Y-72233453D01*
X101934585Y-72189996D01*
X101822932Y-72178999D01*
X101822921Y-72178999D01*
X101785599Y-72175323D01*
X101748277Y-72178999D01*
X99697141Y-72178999D01*
X99725812Y-72084482D01*
X99738072Y-71960000D01*
X99738072Y-70937565D01*
X103112640Y-70937565D01*
X103179620Y-71177656D01*
X103310244Y-71239079D01*
X103295577Y-71244364D01*
X103179620Y-71306344D01*
X103112640Y-71546435D01*
X103898600Y-72332395D01*
X104684560Y-71546435D01*
X104617580Y-71306344D01*
X104486956Y-71244921D01*
X104501623Y-71239636D01*
X104617580Y-71177656D01*
X104684560Y-70937565D01*
X103898600Y-70151605D01*
X103112640Y-70937565D01*
X99738072Y-70937565D01*
X99738072Y-70044017D01*
X102496690Y-70044017D01*
X102537678Y-70316133D01*
X102630964Y-70575023D01*
X102692944Y-70690980D01*
X102933035Y-70757960D01*
X103718995Y-69972000D01*
X104078205Y-69972000D01*
X104864165Y-70757960D01*
X105104256Y-70690980D01*
X105221356Y-70441952D01*
X105287623Y-70174865D01*
X105300510Y-69899983D01*
X105259522Y-69627867D01*
X105166236Y-69368977D01*
X105104256Y-69253020D01*
X104864165Y-69186040D01*
X104078205Y-69972000D01*
X103718995Y-69972000D01*
X102933035Y-69186040D01*
X102692944Y-69253020D01*
X102575844Y-69502048D01*
X102509577Y-69769135D01*
X102496690Y-70044017D01*
X99738072Y-70044017D01*
X99738072Y-68760000D01*
X99725812Y-68635518D01*
X99689502Y-68515820D01*
X99630537Y-68405506D01*
X99551185Y-68308815D01*
X99454494Y-68229463D01*
X99344180Y-68170498D01*
X99224482Y-68134188D01*
X99100000Y-68121928D01*
X97100000Y-68121928D01*
X96975518Y-68134188D01*
X96855820Y-68170498D01*
X96745506Y-68229463D01*
X96648815Y-68308815D01*
X96569463Y-68405506D01*
X96510498Y-68515820D01*
X96474188Y-68635518D01*
X96461928Y-68760000D01*
X96461928Y-71960000D01*
X96474188Y-72084482D01*
X96502859Y-72178999D01*
X88497141Y-72178999D01*
X88525812Y-72084482D01*
X88538072Y-71960000D01*
X88538072Y-68760000D01*
X88525812Y-68635518D01*
X88489502Y-68515820D01*
X88430537Y-68405506D01*
X88351185Y-68308815D01*
X88254494Y-68229463D01*
X88144180Y-68170498D01*
X88024482Y-68134188D01*
X87900000Y-68121928D01*
X85900000Y-68121928D01*
X85775518Y-68134188D01*
X85655820Y-68170498D01*
X85545506Y-68229463D01*
X85448815Y-68308815D01*
X85369463Y-68405506D01*
X85310498Y-68515820D01*
X85274188Y-68635518D01*
X85261928Y-68760000D01*
X85261928Y-71960000D01*
X85274188Y-72084482D01*
X85302859Y-72178999D01*
X81670891Y-72178999D01*
X81689502Y-72144180D01*
X81725812Y-72024482D01*
X81738072Y-71900000D01*
X81738072Y-68700000D01*
X81725812Y-68575518D01*
X81689502Y-68455820D01*
X81630537Y-68345506D01*
X81551185Y-68248815D01*
X81454494Y-68169463D01*
X81344180Y-68110498D01*
X81224482Y-68074188D01*
X81100000Y-68061928D01*
X79100000Y-68061928D01*
X78975518Y-68074188D01*
X78855820Y-68110498D01*
X78745506Y-68169463D01*
X78648815Y-68248815D01*
X78569463Y-68345506D01*
X78510498Y-68455820D01*
X78474188Y-68575518D01*
X78461928Y-68700000D01*
X78461928Y-71900000D01*
X78474188Y-72024482D01*
X78510498Y-72144180D01*
X78529109Y-72178999D01*
X70470891Y-72178999D01*
X70489502Y-72144180D01*
X70525812Y-72024482D01*
X70538072Y-71900000D01*
X70538072Y-68700000D01*
X70525812Y-68575518D01*
X70489502Y-68455820D01*
X70430537Y-68345506D01*
X70351185Y-68248815D01*
X70254494Y-68169463D01*
X70144180Y-68110498D01*
X70024482Y-68074188D01*
X69900000Y-68061928D01*
X67900000Y-68061928D01*
X67775518Y-68074188D01*
X67655820Y-68110498D01*
X67545506Y-68169463D01*
X67448815Y-68248815D01*
X67369463Y-68345506D01*
X67310498Y-68455820D01*
X67274188Y-68575518D01*
X67261928Y-68700000D01*
X67261928Y-71900000D01*
X67274188Y-72024482D01*
X67310498Y-72144180D01*
X67329109Y-72178999D01*
X58083696Y-72178999D01*
X58284976Y-71977719D01*
X58542100Y-71592905D01*
X58719210Y-71165324D01*
X58809500Y-70711406D01*
X58809500Y-70333652D01*
X60474100Y-70333652D01*
X60474100Y-70626348D01*
X60531202Y-70913421D01*
X60643212Y-71183838D01*
X60805826Y-71427206D01*
X61012794Y-71634174D01*
X61256162Y-71796788D01*
X61526579Y-71908798D01*
X61813652Y-71965900D01*
X62106348Y-71965900D01*
X62393421Y-71908798D01*
X62663838Y-71796788D01*
X62907206Y-71634174D01*
X63114174Y-71427206D01*
X63276788Y-71183838D01*
X63388798Y-70913421D01*
X63445900Y-70626348D01*
X63445900Y-70333652D01*
X63388798Y-70046579D01*
X63276788Y-69776162D01*
X63114174Y-69532794D01*
X62907206Y-69325826D01*
X62663838Y-69163212D01*
X62393421Y-69051202D01*
X62106348Y-68994100D01*
X61813652Y-68994100D01*
X61526579Y-69051202D01*
X61256162Y-69163212D01*
X61012794Y-69325826D01*
X60805826Y-69532794D01*
X60643212Y-69776162D01*
X60531202Y-70046579D01*
X60474100Y-70333652D01*
X58809500Y-70333652D01*
X58809500Y-70248594D01*
X58719210Y-69794676D01*
X58542100Y-69367095D01*
X58284976Y-68982281D01*
X57957719Y-68655024D01*
X57572905Y-68397900D01*
X57145324Y-68220790D01*
X56691406Y-68130500D01*
X56228594Y-68130500D01*
X55774676Y-68220790D01*
X55347095Y-68397900D01*
X54962281Y-68655024D01*
X54635024Y-68982281D01*
X54377900Y-69367095D01*
X54200790Y-69794676D01*
X54110500Y-70248594D01*
X54110500Y-70711406D01*
X54200790Y-71165324D01*
X54377900Y-71592905D01*
X54635024Y-71977719D01*
X54962281Y-72304976D01*
X55347095Y-72562100D01*
X55774676Y-72739210D01*
X56228594Y-72829500D01*
X56691406Y-72829500D01*
X57015478Y-72765038D01*
X54160517Y-75620000D01*
X52356278Y-75620000D01*
X52427218Y-75426823D01*
X51460000Y-74459605D01*
X50492782Y-75426823D01*
X50563722Y-75620000D01*
X44356278Y-75620000D01*
X44427218Y-75426823D01*
X43460000Y-74459605D01*
X42492782Y-75426823D01*
X42563722Y-75620000D01*
X39932227Y-75620000D01*
X39923097Y-75597958D01*
X39742415Y-75327549D01*
X39512451Y-75097585D01*
X39242042Y-74916903D01*
X38941579Y-74792447D01*
X38622609Y-74729000D01*
X38297391Y-74729000D01*
X37978421Y-74792447D01*
X37677958Y-74916903D01*
X37407549Y-75097585D01*
X37177585Y-75327549D01*
X36996903Y-75597958D01*
X36872447Y-75898421D01*
X36809000Y-76217391D01*
X29305545Y-76217391D01*
X29305384Y-75426823D01*
X32492782Y-75426823D01*
X32590478Y-75692860D01*
X32882821Y-75835348D01*
X33197344Y-75918064D01*
X33521962Y-75937831D01*
X33844198Y-75893888D01*
X34151670Y-75787924D01*
X34329522Y-75692860D01*
X34427218Y-75426823D01*
X33460000Y-74459605D01*
X32492782Y-75426823D01*
X29305384Y-75426823D01*
X29305163Y-74341962D01*
X31802169Y-74341962D01*
X31846112Y-74664198D01*
X31952076Y-74971670D01*
X32047140Y-75149522D01*
X32313177Y-75247218D01*
X33280395Y-74280000D01*
X33639605Y-74280000D01*
X34606823Y-75247218D01*
X34872860Y-75149522D01*
X35015348Y-74857179D01*
X35098064Y-74542656D01*
X35110284Y-74341962D01*
X41802169Y-74341962D01*
X41846112Y-74664198D01*
X41952076Y-74971670D01*
X42047140Y-75149522D01*
X42313177Y-75247218D01*
X43280395Y-74280000D01*
X43639605Y-74280000D01*
X44606823Y-75247218D01*
X44872860Y-75149522D01*
X45015348Y-74857179D01*
X45098064Y-74542656D01*
X45110284Y-74341962D01*
X49802169Y-74341962D01*
X49846112Y-74664198D01*
X49952076Y-74971670D01*
X50047140Y-75149522D01*
X50313177Y-75247218D01*
X51280395Y-74280000D01*
X51639605Y-74280000D01*
X52606823Y-75247218D01*
X52872860Y-75149522D01*
X53015348Y-74857179D01*
X53098064Y-74542656D01*
X53117831Y-74218038D01*
X53073888Y-73895802D01*
X52967924Y-73588330D01*
X52872860Y-73410478D01*
X52606823Y-73312782D01*
X51639605Y-74280000D01*
X51280395Y-74280000D01*
X50313177Y-73312782D01*
X50047140Y-73410478D01*
X49904652Y-73702821D01*
X49821936Y-74017344D01*
X49802169Y-74341962D01*
X45110284Y-74341962D01*
X45117831Y-74218038D01*
X45073888Y-73895802D01*
X44967924Y-73588330D01*
X44872860Y-73410478D01*
X44606823Y-73312782D01*
X43639605Y-74280000D01*
X43280395Y-74280000D01*
X42313177Y-73312782D01*
X42047140Y-73410478D01*
X41904652Y-73702821D01*
X41821936Y-74017344D01*
X41802169Y-74341962D01*
X35110284Y-74341962D01*
X35117831Y-74218038D01*
X35073888Y-73895802D01*
X34967924Y-73588330D01*
X34872860Y-73410478D01*
X34606823Y-73312782D01*
X33639605Y-74280000D01*
X33280395Y-74280000D01*
X32313177Y-73312782D01*
X32047140Y-73410478D01*
X31904652Y-73702821D01*
X31821936Y-74017344D01*
X31802169Y-74341962D01*
X29305163Y-74341962D01*
X29304918Y-73133177D01*
X32492782Y-73133177D01*
X33460000Y-74100395D01*
X34427218Y-73133177D01*
X42492782Y-73133177D01*
X43460000Y-74100395D01*
X44427218Y-73133177D01*
X50492782Y-73133177D01*
X51460000Y-74100395D01*
X52427218Y-73133177D01*
X52329522Y-72867140D01*
X52037179Y-72724652D01*
X51722656Y-72641936D01*
X51398038Y-72622169D01*
X51075802Y-72666112D01*
X50768330Y-72772076D01*
X50590478Y-72867140D01*
X50492782Y-73133177D01*
X44427218Y-73133177D01*
X44329522Y-72867140D01*
X44037179Y-72724652D01*
X43722656Y-72641936D01*
X43398038Y-72622169D01*
X43075802Y-72666112D01*
X42768330Y-72772076D01*
X42590478Y-72867140D01*
X42492782Y-73133177D01*
X34427218Y-73133177D01*
X34329522Y-72867140D01*
X34037179Y-72724652D01*
X33722656Y-72641936D01*
X33398038Y-72622169D01*
X33075802Y-72666112D01*
X32768330Y-72772076D01*
X32590478Y-72867140D01*
X32492782Y-73133177D01*
X29304918Y-73133177D01*
X29304350Y-70333652D01*
X31474100Y-70333652D01*
X31474100Y-70626348D01*
X31531202Y-70913421D01*
X31643212Y-71183838D01*
X31805826Y-71427206D01*
X32012794Y-71634174D01*
X32256162Y-71796788D01*
X32526579Y-71908798D01*
X32813652Y-71965900D01*
X33106348Y-71965900D01*
X33393421Y-71908798D01*
X33663838Y-71796788D01*
X33907206Y-71634174D01*
X34114174Y-71427206D01*
X34276788Y-71183838D01*
X34388798Y-70913421D01*
X34445900Y-70626348D01*
X34445900Y-70333652D01*
X34428982Y-70248594D01*
X36110500Y-70248594D01*
X36110500Y-70711406D01*
X36200790Y-71165324D01*
X36377900Y-71592905D01*
X36635024Y-71977719D01*
X36962281Y-72304976D01*
X37347095Y-72562100D01*
X37774676Y-72739210D01*
X38228594Y-72829500D01*
X38691406Y-72829500D01*
X39145324Y-72739210D01*
X39572905Y-72562100D01*
X39957719Y-72304976D01*
X40284976Y-71977719D01*
X40542100Y-71592905D01*
X40719210Y-71165324D01*
X40809500Y-70711406D01*
X40809500Y-70333652D01*
X42474100Y-70333652D01*
X42474100Y-70626348D01*
X42531202Y-70913421D01*
X42643212Y-71183838D01*
X42805826Y-71427206D01*
X43012794Y-71634174D01*
X43256162Y-71796788D01*
X43526579Y-71908798D01*
X43813652Y-71965900D01*
X44106348Y-71965900D01*
X44393421Y-71908798D01*
X44663838Y-71796788D01*
X44907206Y-71634174D01*
X45114174Y-71427206D01*
X45276788Y-71183838D01*
X45388798Y-70913421D01*
X45445900Y-70626348D01*
X45445900Y-70333652D01*
X49474100Y-70333652D01*
X49474100Y-70626348D01*
X49531202Y-70913421D01*
X49643212Y-71183838D01*
X49805826Y-71427206D01*
X50012794Y-71634174D01*
X50256162Y-71796788D01*
X50526579Y-71908798D01*
X50813652Y-71965900D01*
X51106348Y-71965900D01*
X51393421Y-71908798D01*
X51663838Y-71796788D01*
X51907206Y-71634174D01*
X52114174Y-71427206D01*
X52276788Y-71183838D01*
X52388798Y-70913421D01*
X52445900Y-70626348D01*
X52445900Y-70333652D01*
X52388798Y-70046579D01*
X52276788Y-69776162D01*
X52114174Y-69532794D01*
X51907206Y-69325826D01*
X51663838Y-69163212D01*
X51393421Y-69051202D01*
X51106348Y-68994100D01*
X50813652Y-68994100D01*
X50526579Y-69051202D01*
X50256162Y-69163212D01*
X50012794Y-69325826D01*
X49805826Y-69532794D01*
X49643212Y-69776162D01*
X49531202Y-70046579D01*
X49474100Y-70333652D01*
X45445900Y-70333652D01*
X45388798Y-70046579D01*
X45276788Y-69776162D01*
X45114174Y-69532794D01*
X44907206Y-69325826D01*
X44663838Y-69163212D01*
X44393421Y-69051202D01*
X44106348Y-68994100D01*
X43813652Y-68994100D01*
X43526579Y-69051202D01*
X43256162Y-69163212D01*
X43012794Y-69325826D01*
X42805826Y-69532794D01*
X42643212Y-69776162D01*
X42531202Y-70046579D01*
X42474100Y-70333652D01*
X40809500Y-70333652D01*
X40809500Y-70248594D01*
X40719210Y-69794676D01*
X40542100Y-69367095D01*
X40284976Y-68982281D01*
X39957719Y-68655024D01*
X39572905Y-68397900D01*
X39145324Y-68220790D01*
X38691406Y-68130500D01*
X38228594Y-68130500D01*
X37774676Y-68220790D01*
X37347095Y-68397900D01*
X36962281Y-68655024D01*
X36635024Y-68982281D01*
X36377900Y-69367095D01*
X36200790Y-69794676D01*
X36110500Y-70248594D01*
X34428982Y-70248594D01*
X34388798Y-70046579D01*
X34276788Y-69776162D01*
X34114174Y-69532794D01*
X33907206Y-69325826D01*
X33663838Y-69163212D01*
X33393421Y-69051202D01*
X33106348Y-68994100D01*
X32813652Y-68994100D01*
X32526579Y-69051202D01*
X32256162Y-69163212D01*
X32012794Y-69325826D01*
X31805826Y-69532794D01*
X31643212Y-69776162D01*
X31531202Y-70046579D01*
X31474100Y-70333652D01*
X29304350Y-70333652D01*
X29303506Y-66168675D01*
X32109700Y-66168675D01*
X32109700Y-66391325D01*
X32153137Y-66609696D01*
X32238341Y-66815398D01*
X32362039Y-67000524D01*
X32519476Y-67157961D01*
X32704602Y-67281659D01*
X32910304Y-67366863D01*
X33128675Y-67410300D01*
X33351325Y-67410300D01*
X33569696Y-67366863D01*
X33775398Y-67281659D01*
X33960524Y-67157961D01*
X34117961Y-67000524D01*
X34241659Y-66815398D01*
X34326863Y-66609696D01*
X34370300Y-66391325D01*
X34370300Y-66168675D01*
X42549700Y-66168675D01*
X42549700Y-66391325D01*
X42593137Y-66609696D01*
X42678341Y-66815398D01*
X42802039Y-67000524D01*
X42959476Y-67157961D01*
X43144602Y-67281659D01*
X43350304Y-67366863D01*
X43568675Y-67410300D01*
X43791325Y-67410300D01*
X44009696Y-67366863D01*
X44215398Y-67281659D01*
X44400524Y-67157961D01*
X44557961Y-67000524D01*
X44681659Y-66815398D01*
X44766863Y-66609696D01*
X44810300Y-66391325D01*
X44810300Y-66168675D01*
X50109700Y-66168675D01*
X50109700Y-66391325D01*
X50153137Y-66609696D01*
X50238341Y-66815398D01*
X50362039Y-67000524D01*
X50519476Y-67157961D01*
X50704602Y-67281659D01*
X50910304Y-67366863D01*
X51128675Y-67410300D01*
X51351325Y-67410300D01*
X51569696Y-67366863D01*
X51775398Y-67281659D01*
X51960524Y-67157961D01*
X52117961Y-67000524D01*
X52241659Y-66815398D01*
X52326863Y-66609696D01*
X52370300Y-66391325D01*
X52370300Y-66168675D01*
X60549700Y-66168675D01*
X60549700Y-66391325D01*
X60593137Y-66609696D01*
X60678341Y-66815398D01*
X60802039Y-67000524D01*
X60959476Y-67157961D01*
X61144602Y-67281659D01*
X61350304Y-67366863D01*
X61568675Y-67410300D01*
X61791325Y-67410300D01*
X62009696Y-67366863D01*
X62215398Y-67281659D01*
X62400524Y-67157961D01*
X62557961Y-67000524D01*
X62681659Y-66815398D01*
X62766863Y-66609696D01*
X62810300Y-66391325D01*
X62810300Y-66168675D01*
X62766863Y-65950304D01*
X62681659Y-65744602D01*
X62557961Y-65559476D01*
X62400524Y-65402039D01*
X62215398Y-65278341D01*
X62009696Y-65193137D01*
X61791325Y-65149700D01*
X61568675Y-65149700D01*
X61350304Y-65193137D01*
X61144602Y-65278341D01*
X60959476Y-65402039D01*
X60802039Y-65559476D01*
X60678341Y-65744602D01*
X60593137Y-65950304D01*
X60549700Y-66168675D01*
X52370300Y-66168675D01*
X52326863Y-65950304D01*
X52241659Y-65744602D01*
X52117961Y-65559476D01*
X51960524Y-65402039D01*
X51775398Y-65278341D01*
X51569696Y-65193137D01*
X51351325Y-65149700D01*
X51128675Y-65149700D01*
X50910304Y-65193137D01*
X50704602Y-65278341D01*
X50519476Y-65402039D01*
X50362039Y-65559476D01*
X50238341Y-65744602D01*
X50153137Y-65950304D01*
X50109700Y-66168675D01*
X44810300Y-66168675D01*
X44766863Y-65950304D01*
X44681659Y-65744602D01*
X44557961Y-65559476D01*
X44400524Y-65402039D01*
X44215398Y-65278341D01*
X44009696Y-65193137D01*
X43791325Y-65149700D01*
X43568675Y-65149700D01*
X43350304Y-65193137D01*
X43144602Y-65278341D01*
X42959476Y-65402039D01*
X42802039Y-65559476D01*
X42678341Y-65744602D01*
X42593137Y-65950304D01*
X42549700Y-66168675D01*
X34370300Y-66168675D01*
X34326863Y-65950304D01*
X34241659Y-65744602D01*
X34117961Y-65559476D01*
X33960524Y-65402039D01*
X33775398Y-65278341D01*
X33569696Y-65193137D01*
X33351325Y-65149700D01*
X33128675Y-65149700D01*
X32910304Y-65193137D01*
X32704602Y-65278341D01*
X32519476Y-65402039D01*
X32362039Y-65559476D01*
X32238341Y-65744602D01*
X32153137Y-65950304D01*
X32109700Y-66168675D01*
X29303506Y-66168675D01*
X29303219Y-64754408D01*
X102501600Y-64754408D01*
X102501600Y-65029592D01*
X102555286Y-65299490D01*
X102660595Y-65553727D01*
X102813480Y-65782535D01*
X103008065Y-65977120D01*
X103236873Y-66130005D01*
X103314115Y-66162000D01*
X103236873Y-66193995D01*
X103008065Y-66346880D01*
X102813480Y-66541465D01*
X102660595Y-66770273D01*
X102555286Y-67024510D01*
X102501600Y-67294408D01*
X102501600Y-67569592D01*
X102555286Y-67839490D01*
X102660595Y-68093727D01*
X102813480Y-68322535D01*
X103008065Y-68517120D01*
X103236873Y-68670005D01*
X103308543Y-68699692D01*
X103295577Y-68704364D01*
X103179620Y-68766344D01*
X103112640Y-69006435D01*
X103898600Y-69792395D01*
X104684560Y-69006435D01*
X104617580Y-68766344D01*
X104481840Y-68702515D01*
X104560327Y-68670005D01*
X104789135Y-68517120D01*
X104983720Y-68322535D01*
X105136605Y-68093727D01*
X105241914Y-67839490D01*
X105295600Y-67569592D01*
X105295600Y-67504017D01*
X117716690Y-67504017D01*
X117757678Y-67776133D01*
X117850964Y-68035023D01*
X117912944Y-68150980D01*
X118153035Y-68217960D01*
X118938995Y-67432000D01*
X119298205Y-67432000D01*
X120084165Y-68217960D01*
X120324256Y-68150980D01*
X120441356Y-67901952D01*
X120507623Y-67634865D01*
X120520510Y-67359983D01*
X120479522Y-67087867D01*
X120386236Y-66828977D01*
X120324256Y-66713020D01*
X120084165Y-66646040D01*
X119298205Y-67432000D01*
X118938995Y-67432000D01*
X118153035Y-66646040D01*
X117912944Y-66713020D01*
X117795844Y-66962048D01*
X117729577Y-67229135D01*
X117716690Y-67504017D01*
X105295600Y-67504017D01*
X105295600Y-67294408D01*
X105241914Y-67024510D01*
X105136605Y-66770273D01*
X104983720Y-66541465D01*
X104789135Y-66346880D01*
X104560327Y-66193995D01*
X104483085Y-66162000D01*
X104560327Y-66130005D01*
X104789135Y-65977120D01*
X104983720Y-65782535D01*
X105136605Y-65553727D01*
X105241914Y-65299490D01*
X105295600Y-65029592D01*
X105295600Y-64754408D01*
X117721600Y-64754408D01*
X117721600Y-65029592D01*
X117775286Y-65299490D01*
X117880595Y-65553727D01*
X118033480Y-65782535D01*
X118228065Y-65977120D01*
X118456873Y-66130005D01*
X118528543Y-66159692D01*
X118515577Y-66164364D01*
X118399620Y-66226344D01*
X118332640Y-66466435D01*
X119118600Y-67252395D01*
X119904560Y-66466435D01*
X119837580Y-66226344D01*
X119701840Y-66162515D01*
X119780327Y-66130005D01*
X120009135Y-65977120D01*
X120203720Y-65782535D01*
X120356605Y-65553727D01*
X120461914Y-65299490D01*
X120515600Y-65029592D01*
X120515600Y-64754408D01*
X120461914Y-64484510D01*
X120356605Y-64230273D01*
X120203720Y-64001465D01*
X120009135Y-63806880D01*
X119780327Y-63653995D01*
X119526090Y-63548686D01*
X119256192Y-63495000D01*
X118981008Y-63495000D01*
X118711110Y-63548686D01*
X118456873Y-63653995D01*
X118228065Y-63806880D01*
X118033480Y-64001465D01*
X117880595Y-64230273D01*
X117775286Y-64484510D01*
X117721600Y-64754408D01*
X105295600Y-64754408D01*
X105241914Y-64484510D01*
X105136605Y-64230273D01*
X104983720Y-64001465D01*
X104789135Y-63806880D01*
X104560327Y-63653995D01*
X104306090Y-63548686D01*
X104036192Y-63495000D01*
X103761008Y-63495000D01*
X103491110Y-63548686D01*
X103236873Y-63653995D01*
X103008065Y-63806880D01*
X102813480Y-64001465D01*
X102660595Y-64230273D01*
X102555286Y-64484510D01*
X102501600Y-64754408D01*
X29303219Y-64754408D01*
X29302887Y-63121450D01*
X29329355Y-62686234D01*
X29341737Y-62638967D01*
X70365000Y-62638967D01*
X70365000Y-62961033D01*
X70427832Y-63276912D01*
X70551082Y-63574463D01*
X70730013Y-63842252D01*
X70957748Y-64069987D01*
X71225537Y-64248918D01*
X71523088Y-64372168D01*
X71838967Y-64435000D01*
X72161033Y-64435000D01*
X72476912Y-64372168D01*
X72774463Y-64248918D01*
X73042252Y-64069987D01*
X73269987Y-63842252D01*
X73334925Y-63745065D01*
X73364587Y-63755808D01*
X74320395Y-62800000D01*
X73364587Y-61844192D01*
X73334925Y-61854935D01*
X73269987Y-61757748D01*
X73176826Y-61664587D01*
X73544192Y-61664587D01*
X74500000Y-62620395D01*
X74514143Y-62606253D01*
X74693748Y-62785858D01*
X74679605Y-62800000D01*
X74693748Y-62814143D01*
X74514143Y-62993748D01*
X74500000Y-62979605D01*
X73544192Y-63935413D01*
X73639956Y-64199814D01*
X73929571Y-64340704D01*
X74241108Y-64422384D01*
X74562595Y-64441718D01*
X74881675Y-64397961D01*
X75186088Y-64292795D01*
X75360044Y-64199814D01*
X75414024Y-64050777D01*
X75469463Y-64154494D01*
X75548815Y-64251185D01*
X75645506Y-64330537D01*
X75755820Y-64389502D01*
X75875518Y-64425812D01*
X76000000Y-64438072D01*
X78000000Y-64438072D01*
X78124482Y-64425812D01*
X78244180Y-64389502D01*
X78354494Y-64330537D01*
X78451185Y-64251185D01*
X78530537Y-64154494D01*
X78589502Y-64044180D01*
X78625812Y-63924482D01*
X78638072Y-63800000D01*
X78638072Y-62698967D01*
X88365000Y-62698967D01*
X88365000Y-63021033D01*
X88427832Y-63336912D01*
X88551082Y-63634463D01*
X88730013Y-63902252D01*
X88957748Y-64129987D01*
X89225537Y-64308918D01*
X89523088Y-64432168D01*
X89838967Y-64495000D01*
X90161033Y-64495000D01*
X90476912Y-64432168D01*
X90774463Y-64308918D01*
X91042252Y-64129987D01*
X91269987Y-63902252D01*
X91334925Y-63805065D01*
X91364587Y-63815808D01*
X92320395Y-62860000D01*
X91364587Y-61904192D01*
X91334925Y-61914935D01*
X91269987Y-61817748D01*
X91176826Y-61724587D01*
X91544192Y-61724587D01*
X92500000Y-62680395D01*
X92514143Y-62666253D01*
X92693748Y-62845858D01*
X92679605Y-62860000D01*
X92693748Y-62874143D01*
X92514143Y-63053748D01*
X92500000Y-63039605D01*
X91544192Y-63995413D01*
X91639956Y-64259814D01*
X91929571Y-64400704D01*
X92241108Y-64482384D01*
X92562595Y-64501718D01*
X92881675Y-64457961D01*
X93186088Y-64352795D01*
X93360044Y-64259814D01*
X93414024Y-64110777D01*
X93469463Y-64214494D01*
X93548815Y-64311185D01*
X93645506Y-64390537D01*
X93755820Y-64449502D01*
X93875518Y-64485812D01*
X94000000Y-64498072D01*
X96000000Y-64498072D01*
X96124482Y-64485812D01*
X96244180Y-64449502D01*
X96354494Y-64390537D01*
X96451185Y-64311185D01*
X96530537Y-64214494D01*
X96589502Y-64104180D01*
X96625812Y-63984482D01*
X96638072Y-63860000D01*
X96638072Y-61860000D01*
X96625812Y-61735518D01*
X96589502Y-61615820D01*
X96530537Y-61505506D01*
X96451185Y-61408815D01*
X96354494Y-61329463D01*
X96244180Y-61270498D01*
X96124482Y-61234188D01*
X96000000Y-61221928D01*
X94000000Y-61221928D01*
X93875518Y-61234188D01*
X93755820Y-61270498D01*
X93645506Y-61329463D01*
X93548815Y-61408815D01*
X93469463Y-61505506D01*
X93414024Y-61609223D01*
X93360044Y-61460186D01*
X93070429Y-61319296D01*
X92758892Y-61237616D01*
X92437405Y-61218282D01*
X92118325Y-61262039D01*
X91813912Y-61367205D01*
X91639956Y-61460186D01*
X91544192Y-61724587D01*
X91176826Y-61724587D01*
X91042252Y-61590013D01*
X90774463Y-61411082D01*
X90476912Y-61287832D01*
X90161033Y-61225000D01*
X89838967Y-61225000D01*
X89523088Y-61287832D01*
X89225537Y-61411082D01*
X88957748Y-61590013D01*
X88730013Y-61817748D01*
X88551082Y-62085537D01*
X88427832Y-62383088D01*
X88365000Y-62698967D01*
X78638072Y-62698967D01*
X78638072Y-61800000D01*
X78625812Y-61675518D01*
X78589502Y-61555820D01*
X78530537Y-61445506D01*
X78451185Y-61348815D01*
X78354494Y-61269463D01*
X78244180Y-61210498D01*
X78124482Y-61174188D01*
X78000000Y-61161928D01*
X76000000Y-61161928D01*
X75875518Y-61174188D01*
X75755820Y-61210498D01*
X75645506Y-61269463D01*
X75548815Y-61348815D01*
X75469463Y-61445506D01*
X75414024Y-61549223D01*
X75360044Y-61400186D01*
X75070429Y-61259296D01*
X74758892Y-61177616D01*
X74437405Y-61158282D01*
X74118325Y-61202039D01*
X73813912Y-61307205D01*
X73639956Y-61400186D01*
X73544192Y-61664587D01*
X73176826Y-61664587D01*
X73042252Y-61530013D01*
X72774463Y-61351082D01*
X72476912Y-61227832D01*
X72161033Y-61165000D01*
X71838967Y-61165000D01*
X71523088Y-61227832D01*
X71225537Y-61351082D01*
X70957748Y-61530013D01*
X70730013Y-61757748D01*
X70551082Y-62025537D01*
X70427832Y-62323088D01*
X70365000Y-62638967D01*
X29341737Y-62638967D01*
X29427690Y-62310873D01*
X29597059Y-61961764D01*
X29831012Y-61652200D01*
X30120638Y-61393972D01*
X30454898Y-61196922D01*
X30821073Y-61068547D01*
X31231372Y-61010007D01*
X121600113Y-61029984D01*
G37*
G04 #@! TD.AperFunction*
D17*
X96313175Y-90312783D02*
X96047140Y-90410478D01*
X95904652Y-90702821D01*
X95821936Y-91017344D01*
X95802169Y-91341962D01*
X95846112Y-91664198D01*
X95952076Y-91971670D01*
X96047140Y-92149522D01*
X96313177Y-92247218D01*
X97280395Y-91280000D01*
X97266253Y-91265858D01*
X97445858Y-91086253D01*
X97460000Y-91100395D01*
X97474143Y-91086253D01*
X97653748Y-91265858D01*
X97639605Y-91280000D01*
X98606823Y-92247218D01*
X98872860Y-92149522D01*
X99015348Y-91857179D01*
X99098064Y-91542656D01*
X99117831Y-91218038D01*
X99073888Y-90895802D01*
X98967924Y-90588330D01*
X98872860Y-90410478D01*
X98606825Y-90312783D01*
X98629606Y-90290001D01*
X102501600Y-90290001D01*
X102501600Y-90429592D01*
X102555286Y-90699490D01*
X102660595Y-90953727D01*
X102813480Y-91182535D01*
X102834182Y-91203237D01*
X100465390Y-93655999D01*
X94230801Y-93655999D01*
X94111000Y-93536198D01*
X94111000Y-93217391D01*
X94047553Y-92898421D01*
X93923097Y-92597958D01*
X93808748Y-92426823D01*
X96492782Y-92426823D01*
X96590478Y-92692860D01*
X96882821Y-92835348D01*
X97197344Y-92918064D01*
X97521962Y-92937831D01*
X97844198Y-92893888D01*
X98151670Y-92787924D01*
X98329522Y-92692860D01*
X98427218Y-92426823D01*
X97460000Y-91459605D01*
X96492782Y-92426823D01*
X93808748Y-92426823D01*
X93742415Y-92327549D01*
X93512451Y-92097585D01*
X93242042Y-91916903D01*
X93080238Y-91849882D01*
X94640119Y-90290001D01*
X96290394Y-90290001D01*
X96313175Y-90312783D01*
G04 #@! TA.AperFunction,Conductor*
D18*
G36*
X96313175Y-90312783D02*
G01*
X96047140Y-90410478D01*
X95904652Y-90702821D01*
X95821936Y-91017344D01*
X95802169Y-91341962D01*
X95846112Y-91664198D01*
X95952076Y-91971670D01*
X96047140Y-92149522D01*
X96313177Y-92247218D01*
X97280395Y-91280000D01*
X97266253Y-91265858D01*
X97445858Y-91086253D01*
X97460000Y-91100395D01*
X97474143Y-91086253D01*
X97653748Y-91265858D01*
X97639605Y-91280000D01*
X98606823Y-92247218D01*
X98872860Y-92149522D01*
X99015348Y-91857179D01*
X99098064Y-91542656D01*
X99117831Y-91218038D01*
X99073888Y-90895802D01*
X98967924Y-90588330D01*
X98872860Y-90410478D01*
X98606825Y-90312783D01*
X98629606Y-90290001D01*
X102501600Y-90290001D01*
X102501600Y-90429592D01*
X102555286Y-90699490D01*
X102660595Y-90953727D01*
X102813480Y-91182535D01*
X102834182Y-91203237D01*
X100465390Y-93655999D01*
X94230801Y-93655999D01*
X94111000Y-93536198D01*
X94111000Y-93217391D01*
X94047553Y-92898421D01*
X93923097Y-92597958D01*
X93808748Y-92426823D01*
X96492782Y-92426823D01*
X96590478Y-92692860D01*
X96882821Y-92835348D01*
X97197344Y-92918064D01*
X97521962Y-92937831D01*
X97844198Y-92893888D01*
X98151670Y-92787924D01*
X98329522Y-92692860D01*
X98427218Y-92426823D01*
X97460000Y-91459605D01*
X96492782Y-92426823D01*
X93808748Y-92426823D01*
X93742415Y-92327549D01*
X93512451Y-92097585D01*
X93242042Y-91916903D01*
X93080238Y-91849882D01*
X94640119Y-90290001D01*
X96290394Y-90290001D01*
X96313175Y-90312783D01*
G37*
G04 #@! TD.AperFunction*
M02*
