G04 #@! TF.GenerationSoftware,KiCad,Pcbnew,(5.1.10-1-10_14)*
G04 #@! TF.CreationDate,2021-10-28T16:09:57+08:00*
G04 #@! TF.ProjectId,macro3,6d616372-6f33-42e6-9b69-6361645f7063,0.1*
G04 #@! TF.SameCoordinates,Original*
G04 #@! TF.FileFunction,Legend,Top*
G04 #@! TF.FilePolarity,Positive*
%FSLAX46Y46*%
G04 Gerber Fmt 4.6, Leading zero omitted, Abs format (unit mm)*
G04 Created by KiCad (PCBNEW (5.1.10-1-10_14)) date 2021-10-28 16:09:57*
%MOMM*%
%LPD*%
G01*
G04 APERTURE LIST*
%ADD10C,0.120000*%
%ADD11C,0.150000*%
%ADD12C,1.900000*%
%ADD13C,2.400000*%
%ADD14C,1.390600*%
%ADD15C,2.432000*%
%ADD16C,3.829000*%
%ADD17C,2.101800*%
%ADD18C,1.924000*%
G04 APERTURE END LIST*
D10*
X77500000Y-70300000D02*
G75*
G03*
X77500000Y-70300000I-3000000J0D01*
G01*
X80400000Y-72300000D02*
X80400000Y-76400000D01*
X68600000Y-76400000D02*
X68600000Y-72300000D01*
X68600000Y-68300000D02*
X68600000Y-64200000D01*
X80300000Y-68300000D02*
X80300000Y-64200000D01*
X80300000Y-64200000D02*
X68600000Y-64200000D01*
X78300000Y-62800000D02*
X78600000Y-62500000D01*
X78600000Y-62500000D02*
X78600000Y-63100000D01*
X78600000Y-63100000D02*
X78300000Y-62800000D01*
X80400000Y-76400000D02*
X77800000Y-76400000D01*
X75800000Y-76400000D02*
X73200000Y-76400000D01*
X71200000Y-76400000D02*
X68600000Y-76400000D01*
X75000000Y-70300000D02*
X74000000Y-70300000D01*
X74500000Y-69800000D02*
X74500000Y-70800000D01*
D11*
X31460000Y-80480000D02*
X32460000Y-80480000D01*
X31460000Y-81480000D02*
X31460000Y-80480000D01*
X31460000Y-94480000D02*
X31460000Y-93480000D01*
X32460000Y-94480000D02*
X31460000Y-94480000D01*
X45460000Y-94480000D02*
X44460000Y-94480000D01*
X45460000Y-93480000D02*
X45460000Y-94480000D01*
X45460000Y-80480000D02*
X45460000Y-81480000D01*
X44460000Y-80480000D02*
X45460000Y-80480000D01*
X31460000Y-63480000D02*
X32460000Y-63480000D01*
X31460000Y-64480000D02*
X31460000Y-63480000D01*
X31460000Y-77480000D02*
X31460000Y-76480000D01*
X32460000Y-77480000D02*
X31460000Y-77480000D01*
X45460000Y-77480000D02*
X44460000Y-77480000D01*
X45460000Y-76480000D02*
X45460000Y-77480000D01*
X45460000Y-63480000D02*
X45460000Y-64480000D01*
X44460000Y-63480000D02*
X45460000Y-63480000D01*
D10*
X92500000Y-69860000D02*
X92500000Y-70860000D01*
X93000000Y-70360000D02*
X92000000Y-70360000D01*
X89200000Y-76460000D02*
X86600000Y-76460000D01*
X93800000Y-76460000D02*
X91200000Y-76460000D01*
X98400000Y-76460000D02*
X95800000Y-76460000D01*
X96600000Y-63160000D02*
X96300000Y-62860000D01*
X96600000Y-62560000D02*
X96600000Y-63160000D01*
X96300000Y-62860000D02*
X96600000Y-62560000D01*
X98300000Y-64260000D02*
X86600000Y-64260000D01*
X98300000Y-68360000D02*
X98300000Y-64260000D01*
X86600000Y-68360000D02*
X86600000Y-64260000D01*
X86600000Y-76460000D02*
X86600000Y-72360000D01*
X98400000Y-72360000D02*
X98400000Y-76460000D01*
X95500000Y-70360000D02*
G75*
G03*
X95500000Y-70360000I-3000000J0D01*
G01*
D11*
X62460000Y-63480000D02*
X63460000Y-63480000D01*
X63460000Y-63480000D02*
X63460000Y-64480000D01*
X63460000Y-76480000D02*
X63460000Y-77480000D01*
X63460000Y-77480000D02*
X62460000Y-77480000D01*
X50460000Y-77480000D02*
X49460000Y-77480000D01*
X49460000Y-77480000D02*
X49460000Y-76480000D01*
X49460000Y-64480000D02*
X49460000Y-63480000D01*
X49460000Y-63480000D02*
X50460000Y-63480000D01*
X98460000Y-80480000D02*
X99460000Y-80480000D01*
X99460000Y-80480000D02*
X99460000Y-81480000D01*
X99460000Y-93480000D02*
X99460000Y-94480000D01*
X99460000Y-94480000D02*
X98460000Y-94480000D01*
X86460000Y-94480000D02*
X85460000Y-94480000D01*
X85460000Y-94480000D02*
X85460000Y-93480000D01*
X85460000Y-81480000D02*
X85460000Y-80480000D01*
X85460000Y-80480000D02*
X86460000Y-80480000D01*
X80460000Y-80480000D02*
X81460000Y-80480000D01*
X81460000Y-80480000D02*
X81460000Y-81480000D01*
X81460000Y-93480000D02*
X81460000Y-94480000D01*
X81460000Y-94480000D02*
X80460000Y-94480000D01*
X68460000Y-94480000D02*
X67460000Y-94480000D01*
X67460000Y-94480000D02*
X67460000Y-93480000D01*
X67460000Y-81480000D02*
X67460000Y-80480000D01*
X67460000Y-80480000D02*
X68460000Y-80480000D01*
X62460000Y-80480000D02*
X63460000Y-80480000D01*
X63460000Y-80480000D02*
X63460000Y-81480000D01*
X63460000Y-93480000D02*
X63460000Y-94480000D01*
X63460000Y-94480000D02*
X62460000Y-94480000D01*
X50460000Y-94480000D02*
X49460000Y-94480000D01*
X49460000Y-94480000D02*
X49460000Y-93480000D01*
X49460000Y-81480000D02*
X49460000Y-80480000D01*
X49460000Y-80480000D02*
X50460000Y-80480000D01*
X82104761Y-66933333D02*
X82152380Y-66790476D01*
X82152380Y-66552380D01*
X82104761Y-66457142D01*
X82057142Y-66409523D01*
X81961904Y-66361904D01*
X81866666Y-66361904D01*
X81771428Y-66409523D01*
X81723809Y-66457142D01*
X81676190Y-66552380D01*
X81628571Y-66742857D01*
X81580952Y-66838095D01*
X81533333Y-66885714D01*
X81438095Y-66933333D01*
X81342857Y-66933333D01*
X81247619Y-66885714D01*
X81200000Y-66838095D01*
X81152380Y-66742857D01*
X81152380Y-66504761D01*
X81200000Y-66361904D01*
X81152380Y-66028571D02*
X82152380Y-65790476D01*
X81438095Y-65600000D01*
X82152380Y-65409523D01*
X81152380Y-65171428D01*
X81152380Y-64885714D02*
X81152380Y-64219047D01*
X82152380Y-64647619D01*
X100104761Y-66993333D02*
X100152380Y-66850476D01*
X100152380Y-66612380D01*
X100104761Y-66517142D01*
X100057142Y-66469523D01*
X99961904Y-66421904D01*
X99866666Y-66421904D01*
X99771428Y-66469523D01*
X99723809Y-66517142D01*
X99676190Y-66612380D01*
X99628571Y-66802857D01*
X99580952Y-66898095D01*
X99533333Y-66945714D01*
X99438095Y-66993333D01*
X99342857Y-66993333D01*
X99247619Y-66945714D01*
X99200000Y-66898095D01*
X99152380Y-66802857D01*
X99152380Y-66564761D01*
X99200000Y-66421904D01*
X99152380Y-66088571D02*
X100152380Y-65850476D01*
X99438095Y-65660000D01*
X100152380Y-65469523D01*
X99152380Y-65231428D01*
X99152380Y-64945714D02*
X99152380Y-64279047D01*
X100152380Y-64707619D01*
%LPC*%
D12*
X72000000Y-77300000D03*
X77000000Y-77300000D03*
G36*
G01*
X67900000Y-68500000D02*
X69900000Y-68500000D01*
G75*
G02*
X70100000Y-68700000I0J-200000D01*
G01*
X70100000Y-71900000D01*
G75*
G02*
X69900000Y-72100000I-200000J0D01*
G01*
X67900000Y-72100000D01*
G75*
G02*
X67700000Y-71900000I0J200000D01*
G01*
X67700000Y-68700000D01*
G75*
G02*
X67900000Y-68500000I200000J0D01*
G01*
G37*
G36*
G01*
X79100000Y-68500000D02*
X81100000Y-68500000D01*
G75*
G02*
X81300000Y-68700000I0J-200000D01*
G01*
X81300000Y-71900000D01*
G75*
G02*
X81100000Y-72100000I-200000J0D01*
G01*
X79100000Y-72100000D01*
G75*
G02*
X78900000Y-71900000I0J200000D01*
G01*
X78900000Y-68700000D01*
G75*
G02*
X79100000Y-68500000I200000J0D01*
G01*
G37*
D13*
X72000000Y-62800000D03*
X74500000Y-62800000D03*
G36*
G01*
X76000000Y-61600000D02*
X78000000Y-61600000D01*
G75*
G02*
X78200000Y-61800000I0J-200000D01*
G01*
X78200000Y-63800000D01*
G75*
G02*
X78000000Y-64000000I-200000J0D01*
G01*
X76000000Y-64000000D01*
G75*
G02*
X75800000Y-63800000I0J200000D01*
G01*
X75800000Y-61800000D01*
G75*
G02*
X76000000Y-61600000I200000J0D01*
G01*
G37*
D14*
X33240000Y-83280000D03*
D15*
X43460000Y-91280000D03*
D16*
X38460000Y-87480000D03*
D15*
X33460000Y-91280000D03*
X38460000Y-93380000D03*
D14*
X43680000Y-83280000D03*
D17*
X43960000Y-87480000D03*
X32960000Y-87480000D03*
D14*
X33240000Y-66280000D03*
D15*
X43460000Y-74280000D03*
D16*
X38460000Y-70480000D03*
D15*
X33460000Y-74280000D03*
X38460000Y-76380000D03*
D14*
X43680000Y-66280000D03*
D17*
X43960000Y-70480000D03*
X32960000Y-70480000D03*
D18*
X119118600Y-64892000D03*
X119118600Y-67432000D03*
X119118600Y-69972000D03*
X119118600Y-72512000D03*
X119118600Y-75052000D03*
X119118600Y-77592000D03*
X119118600Y-80132000D03*
X119118600Y-82672000D03*
X119118600Y-85212000D03*
X119118600Y-87752000D03*
X119118600Y-90292000D03*
X119118600Y-92832000D03*
X103898600Y-92832000D03*
X103898600Y-90292000D03*
X103898600Y-87752000D03*
X103898600Y-85212000D03*
X103898600Y-82672000D03*
X103898600Y-80132000D03*
X103898600Y-77592000D03*
X103898600Y-75052000D03*
X103898600Y-72512000D03*
X103898600Y-69972000D03*
X103898600Y-67432000D03*
X103898600Y-64892000D03*
G36*
G01*
X94000000Y-61660000D02*
X96000000Y-61660000D01*
G75*
G02*
X96200000Y-61860000I0J-200000D01*
G01*
X96200000Y-63860000D01*
G75*
G02*
X96000000Y-64060000I-200000J0D01*
G01*
X94000000Y-64060000D01*
G75*
G02*
X93800000Y-63860000I0J200000D01*
G01*
X93800000Y-61860000D01*
G75*
G02*
X94000000Y-61660000I200000J0D01*
G01*
G37*
D13*
X92500000Y-62860000D03*
X90000000Y-62860000D03*
G36*
G01*
X97100000Y-68560000D02*
X99100000Y-68560000D01*
G75*
G02*
X99300000Y-68760000I0J-200000D01*
G01*
X99300000Y-71960000D01*
G75*
G02*
X99100000Y-72160000I-200000J0D01*
G01*
X97100000Y-72160000D01*
G75*
G02*
X96900000Y-71960000I0J200000D01*
G01*
X96900000Y-68760000D01*
G75*
G02*
X97100000Y-68560000I200000J0D01*
G01*
G37*
G36*
G01*
X85900000Y-68560000D02*
X87900000Y-68560000D01*
G75*
G02*
X88100000Y-68760000I0J-200000D01*
G01*
X88100000Y-71960000D01*
G75*
G02*
X87900000Y-72160000I-200000J0D01*
G01*
X85900000Y-72160000D01*
G75*
G02*
X85700000Y-71960000I0J200000D01*
G01*
X85700000Y-68760000D01*
G75*
G02*
X85900000Y-68560000I200000J0D01*
G01*
G37*
D12*
X95000000Y-77360000D03*
X90000000Y-77360000D03*
D17*
X50960000Y-70480000D03*
X61960000Y-70480000D03*
D14*
X61680000Y-66280000D03*
D15*
X56460000Y-76380000D03*
X51460000Y-74280000D03*
D16*
X56460000Y-70480000D03*
D15*
X61460000Y-74280000D03*
D14*
X51240000Y-66280000D03*
D17*
X86960000Y-87480000D03*
X97960000Y-87480000D03*
D14*
X97680000Y-83280000D03*
D15*
X92460000Y-93380000D03*
X87460000Y-91280000D03*
D16*
X92460000Y-87480000D03*
D15*
X97460000Y-91280000D03*
D14*
X87240000Y-83280000D03*
D17*
X68960000Y-87480000D03*
X79960000Y-87480000D03*
D14*
X79680000Y-83280000D03*
D15*
X74460000Y-93380000D03*
X69460000Y-91280000D03*
D16*
X74460000Y-87480000D03*
D15*
X79460000Y-91280000D03*
D14*
X69240000Y-83280000D03*
D17*
X50960000Y-87480000D03*
X61960000Y-87480000D03*
D14*
X61680000Y-83280000D03*
D15*
X56460000Y-93380000D03*
X51460000Y-91280000D03*
D16*
X56460000Y-87480000D03*
D15*
X61460000Y-91280000D03*
D14*
X51240000Y-83280000D03*
M02*
