<?xml version="1.0" standalone="no"?>
<!DOCTYPE svg PUBLIC "-//W3C//DTD SVG 20010904//EN"
 "http://www.w3.org/TR/2001/REC-SVG-20010904/DTD/svg10.dtd">
<svg version="1.0" xmlns="http://www.w3.org/2000/svg"
 width="993.000000pt" height="812.000000pt" viewBox="0 0 993.000000 812.000000"
 preserveAspectRatio="xMidYMid meet">

<g transform="translate(0.000000,812.000000) scale(0.100000,-0.100000)"
fill="#000000" stroke="none">
<path d="M0 4060 l0 -4060 874 0 875 0 45 56 c26 31 46 60 46 64 0 5 -57 38
-127 75 -71 37 -136 73 -146 80 -20 14 -25 12 71 30 21 4 39 -2 73 -27 24 -18
78 -54 119 -81 84 -55 90 -61 83 -88 -5 -17 -8 -17 -33 -4 l-28 14 17 -57 17
-57 82 -3 c85 -3 103 7 52 28 -36 15 -30 30 11 30 41 0 36 14 -16 50 l-45 31
48 77 c26 42 51 85 55 95 4 10 10 16 15 13 8 -5 9 -1 15 77 2 26 0 43 -3 36
-9 -14 -24 18 -21 46 1 17 -17 87 -74 289 -10 36 -11 53 -3 63 8 10 7 13 -5
13 -9 0 -18 15 -24 39 l-10 39 63 27 c35 15 64 30 64 34 0 3 -20 17 -44 29
l-44 24 15 36 c8 21 21 48 28 63 8 14 15 60 16 103 3 72 18 116 38 116 10 0
42 -74 67 -154 18 -56 21 -60 72 -84 61 -27 61 -26 2 -112 l-41 -60 44 0 c35
0 49 6 71 29 20 20 35 28 51 25 13 -2 26 -1 29 4 2 4 -7 8 -21 8 -21 -1 -28 5
-34 28 -5 17 -7 32 -5 34 5 4 106 -48 106 -55 0 -2 -5 -1 -12 3 -7 5 -8 3 -3
-5 5 -9 10 -10 18 -2 5 5 22 7 38 4 24 -5 30 -1 48 36 20 38 26 42 114 69 123
37 126 53 24 104 -55 27 -77 34 -86 25 -8 -8 -11 0 -11 30 0 23 -3 48 -6 57
-4 11 -1 16 10 16 17 0 15 4 -42 80 -2 3 -8 -3 -13 -12 -5 -10 -16 -15 -24
-12 -17 7 -21 25 -4 22 5 -2 20 22 33 52 l22 55 95 6 c52 4 97 5 102 2 4 -2 4
-50 0 -105 -7 -111 -10 -108 55 -60 47 35 55 19 32 -57 -27 -84 -26 -88 11
-83 39 6 71 -23 94 -86 10 -26 21 -50 24 -55 4 -4 13 26 20 67 11 70 14 75 39
78 l27 3 -21 18 c-20 18 -20 22 -8 75 8 32 14 61 14 66 0 4 -40 5 -90 1 -91
-7 -105 -3 -72 21 16 12 12 18 -38 68 -37 38 -49 56 -37 56 9 0 17 3 17 7 0 4
-41 49 -91 99 l-92 92 10 39 c6 21 14 46 18 55 5 14 0 20 -21 28 -16 6 -78 32
-137 57 -115 49 -114 48 -91 107 5 13 -3 16 -49 16 -31 0 -68 -5 -82 -10 -21
-8 -37 -6 -72 10 -55 24 -50 24 -56 0 -5 -18 -15 -20 -133 -22 l-128 -3 105
-57 c57 -32 108 -59 112 -61 8 -2 87 -398 82 -405 -1 -1 -30 2 -63 6 -43 6
-62 5 -62 -2 0 -15 -223 -116 -255 -116 -30 0 -31 9 -4 61 11 23 19 42 17 44
-2 2 -34 -14 -72 -36 -37 -21 -71 -39 -76 -39 -8 0 -16 23 -36 104 -6 27 -5
28 22 22 32 -7 276 -27 279 -24 1 2 27 64 57 138 56 134 58 142 42 218 -4 18
-26 34 -99 68 -52 25 -95 49 -95 55 0 5 -3 8 -7 7 -5 -1 -21 5 -36 12 -25 12
-26 15 -10 21 10 3 54 7 98 8 87 2 145 10 145 20 -1 3 -11 80 -24 171 -13 91
-22 167 -20 169 1 1 8 -17 14 -40 41 -161 65 -237 71 -226 3 6 9 56 12 110 l7
99 -39 66 c-21 37 -48 77 -60 90 -25 27 -28 54 -6 46 19 -8 19 -8 -10 192 -14
93 -26 194 -28 224 -2 30 -12 98 -22 150 -26 140 -27 134 23 138 35 3 42 6 38
19 -4 8 -1 22 5 29 6 8 9 25 7 39 -8 38 6 30 51 -30 l42 -56 -35 -58 c-20 -32
-36 -64 -36 -70 0 -14 119 -235 204 -379 35 -59 69 -118 76 -131 l12 -23 -118
7 -117 8 5 -24 c3 -13 25 -125 49 -247 l44 -224 75 7 c47 4 79 12 86 21 7 8
19 12 28 8 15 -6 17 -2 11 30 -5 24 -2 52 8 79 84 230 111 303 117 310 4 4 15
-4 24 -18 14 -21 20 -24 32 -14 8 6 14 9 14 7 0 -7 -115 -305 -139 -362 -12
-27 -20 -51 -17 -53 2 -2 41 1 87 7 62 9 109 9 179 1 52 -6 148 -14 213 -17
88 -4 117 -9 117 -19 0 -16 -35 -21 -303 -36 -108 -7 -196 -13 -194 -15 8 -8
312 -216 318 -217 7 -2 309 252 309 260 0 3 -18 3 -39 1 -22 -2 -37 1 -34 6 3
5 50 6 103 3 89 -5 106 -10 178 -46 84 -42 92 -52 92 -107 0 -28 -5 -37 -27
-46 l-28 -11 28 -10 c25 -10 27 -15 27 -70 0 -51 2 -58 18 -54 54 15 124 29
128 25 2 -3 -16 -19 -41 -37 -49 -35 -56 -50 -24 -58 11 -3 18 -11 16 -17 -3
-6 -8 -18 -11 -26 -4 -9 0 -24 7 -34 14 -18 15 -18 55 4 24 14 49 21 62 17 19
-5 21 -2 16 18 -4 14 -1 25 7 28 8 3 3 16 -16 43 -27 38 -27 39 -7 48 11 5 20
15 20 23 0 7 4 13 9 13 13 0 21 -27 14 -46 -8 -21 23 -45 100 -80 31 -15 57
-28 57 -29 0 -1 -7 -20 -16 -41 -13 -32 -17 -35 -25 -21 -15 25 -24 21 -52
-22 l-27 -40 41 14 c38 14 41 14 34 -3 -18 -45 -13 -43 39 12 30 33 53 63 50
68 -9 15 10 8 65 -22 67 -37 78 -37 86 -1 5 24 -10 53 -106 200 -101 154 -114
171 -140 171 -33 0 -52 -23 -75 -93 -11 -35 -19 -46 -27 -38 -7 7 -7 21 1 48
9 28 9 39 0 45 -14 8 -38 -9 -38 -28 0 -28 -21 -23 -89 21 -66 43 -96 69 -52
45 17 -8 23 -4 43 33 32 55 58 112 58 126 0 6 -12 11 -27 11 -27 0 -25 3 31
54 l60 53 -115 86 -114 86 -155 6 -155 6 -32 -28 c-21 -19 -33 -41 -38 -68
l-6 -41 126 -69 126 -70 -51 -3 c-50 -3 -51 -2 -204 110 -108 80 -152 118
-149 129 4 14 11 15 51 6 50 -10 43 -15 109 71 l22 30 -59 16 c-52 15 -60 20
-60 41 0 13 -7 25 -15 27 -12 2 -10 12 11 47 l27 43 31 -58 31 -59 80 -9 c53
-6 84 -14 92 -25 10 -14 14 -14 47 2 39 18 86 21 186 10 l62 -6 -23 -19 -24
-20 82 6 83 6 35 -54 36 -54 -25 -61 c-14 -33 -26 -63 -26 -66 0 -3 22 -5 48
-5 l49 0 66 96 c37 53 64 100 62 104 -2 4 -37 12 -77 19 -106 19 -116 30 -28
32 41 0 97 4 124 7 l49 7 18 64 c20 71 21 67 -34 134 -26 30 -48 47 -62 47
-74 0 -118 37 -74 60 27 15 24 28 -11 48 -16 9 -32 28 -35 42 l-7 25 -19 -23
-18 -23 -108 21 c-59 12 -121 25 -138 30 -16 4 -47 11 -67 15 -33 5 -38 10
-38 33 0 62 -7 68 -82 82 -38 7 -66 16 -61 20 4 4 34 18 66 30 31 13 57 27 57
31 0 5 -27 27 -60 49 -33 22 -60 43 -60 45 0 3 34 23 76 46 l77 42 -45 43
c-35 33 -57 44 -104 54 -75 16 -77 17 -59 43 25 36 17 39 -34 12 -62 -31 -78
-26 -74 23 7 76 26 182 33 182 5 0 76 -66 160 -147 118 -114 154 -143 161
-132 5 8 33 53 61 101 47 77 55 87 87 92 60 10 81 7 81 -10 0 -13 -7 -15 -41
-9 l-41 7 7 -83 c4 -46 8 -85 9 -85 6 -7 212 -106 216 -105 3 1 4 9 2 17 -6
28 14 13 35 -28 14 -27 27 -79 34 -135 6 -51 16 -93 21 -93 5 0 21 13 36 28
15 16 64 57 110 91 81 61 92 74 72 86 -18 11 -10 36 25 80 l35 42 -107 7 c-60
4 -138 7 -176 8 l-67 1 7 36 c16 84 17 84 -74 100 -83 14 -101 24 -62 34 22 6
19 18 -20 67 -18 21 -21 22 -21 7 0 -10 -4 -17 -9 -15 -16 5 -151 180 -146
188 5 8 -25 24 -32 16 -5 -5 -10 -49 -12 -101 l-1 -39 -40 39 c-22 21 -36 41
-31 44 10 7 11 42 1 36 -9 -5 -52 40 -45 46 3 3 -8 4 -23 1 -20 -2 -34 4 -52
23 -21 23 -22 25 -5 19 12 -4 17 -3 12 2 -5 5 20 13 60 19 60 10 71 9 96 -8
15 -10 27 -15 27 -11 0 3 8 0 18 -7 9 -7 6 -1 -7 13 -14 16 -29 24 -39 21 -10
-5 -13 -2 -8 6 5 8 1 14 -13 18 -11 3 -18 10 -14 16 4 6 1 7 -8 2 -21 -14
-112 -12 -127 3 -7 6 -25 12 -39 12 -17 0 -27 7 -30 21 -5 18 -11 20 -39 16
-40 -7 -42 -2 -12 30 l21 23 -36 0 c-34 0 -38 -4 -68 -60 -17 -33 -35 -60 -39
-60 -4 0 -13 -13 -20 -30 -14 -33 -16 -34 -123 -51 -86 -13 -91 -17 -102 -92
-4 -26 -14 -54 -21 -62 -8 -8 -14 -32 -13 -57 1 -50 -24 -215 -57 -365 -4 -20
-11 -23 -49 -23 -29 0 -45 4 -45 13 0 6 20 131 45 277 24 145 43 265 42 266
-1 1 -21 -1 -44 -6 -26 -4 -43 -4 -43 2 0 5 -15 8 -32 6 -26 -2 -32 -7 -30
-23 1 -12 -34 -75 -83 -150 -47 -71 -85 -136 -85 -145 0 -8 11 -75 25 -149 14
-74 25 -136 25 -139 0 -2 18 -2 39 2 l39 6 11 -62 c6 -34 9 -63 7 -65 -1 -2
-19 3 -38 11 l-36 15 -60 -63 -61 -63 -35 36 c-19 20 -44 61 -56 91 -12 30
-28 65 -35 77 -8 12 -10 23 -5 25 5 2 5 21 0 48 -45 234 -44 229 -22 268 20
37 20 38 2 127 -9 50 -20 104 -23 122 l-6 31 92 17 c51 9 100 18 109 21 13 4
16 1 12 -9 -5 -13 3 -13 56 -2 34 7 63 14 65 16 2 3 12 38 23 79 17 68 21 75
42 72 13 -1 25 -4 27 -6 2 -1 -3 -35 -10 -74 -10 -51 -11 -72 -3 -72 6 0 81
12 168 27 l156 26 36 68 36 67 -68 7 c-85 8 -162 16 -162 18 0 1 7 24 15 51
20 64 20 63 -17 70 -18 3 -113 24 -210 47 l-178 42 -40 -27 c-22 -14 -42 -26
-45 -26 -4 0 -35 55 -35 64 0 2 16 14 35 26 19 12 35 25 35 29 0 5 -27 14 -60
21 -33 7 -60 16 -60 20 0 4 -12 7 -27 7 -16 0 -48 6 -72 12 l-44 13 44 39 c24
21 53 44 63 50 18 10 19 8 14 -28 l-5 -38 129 -31 130 -31 101 62 c197 120
196 119 272 223 40 55 77 102 83 105 12 8 54 -22 46 -34 -3 -5 -13 -8 -21 -7
-10 2 -47 -35 -97 -97 -78 -97 -87 -104 -228 -190 -80 -50 -143 -93 -140 -96
4 -3 92 -28 195 -54 l189 -48 -6 -31 c-11 -51 -19 -116 -15 -116 185 -8 434
-31 441 -42 6 -10 18 -3 46 28 20 22 54 51 75 64 21 12 36 24 35 26 -2 2 -85
22 -183 44 -99 23 -185 43 -192 45 -7 2 7 58 42 167 29 90 55 171 57 181 2 14
-8 23 -44 37 -46 17 -46 17 -52 -4 -3 -11 -19 -86 -36 -166 -16 -80 -32 -155
-35 -167 -4 -19 -12 -23 -41 -23 -19 0 -37 6 -40 13 -3 8 6 45 19 83 13 38 37
111 52 162 16 50 34 92 40 92 6 0 19 23 29 50 16 44 36 67 36 41 0 -5 13 -11
29 -14 16 -3 40 -9 54 -12 22 -6 26 -3 32 24 3 17 18 47 32 67 13 21 26 54 28
73 3 32 -1 39 -26 54 -38 21 -35 26 65 127 77 77 79 78 166 101 49 12 87 26
84 30 -2 4 -22 10 -44 14 -22 4 -40 11 -40 16 0 6 -4 8 -8 5 -10 -6 -83 12
-96 24 -4 5 0 31 9 60 l17 52 42 -5 c22 -4 55 -9 72 -12 l30 -7 11 74 c5 40 9
74 8 76 -1 1 -52 -22 -112 -51 -98 -48 -108 -55 -87 -63 24 -9 23 -9 -17 -43
l-40 -33 -145 -6 c-101 -3 -147 -9 -155 -18 -16 -20 33 -79 83 -99 l42 -16
-43 -25 c-52 -29 -53 -29 -119 -4 -29 11 -59 17 -65 13 -7 -3 -92 -68 -190
-142 l-179 -135 167 -33 c92 -17 170 -35 174 -39 3 -3 -7 -4 -24 0 -90 18
-400 55 -405 49 -45 -56 -79 -116 -48 -85 7 7 16 12 20 12 5 0 -13 -22 -39
-49 l-48 -49 -22 21 -23 20 0 -63 0 -62 -31 6 c-17 3 -42 6 -56 6 -13 0 -22 4
-19 8 3 5 -8 6 -25 4 -24 -4 -29 -1 -29 17 0 19 10 26 33 22 5 -1 6 3 2 9 -3
5 6 22 20 36 27 27 27 47 1 25 -8 -7 -21 -9 -27 -5 -8 4 -9 3 -5 -4 4 -7 4
-12 -1 -13 -4 0 -16 -2 -25 -4 -25 -5 -22 5 12 47 l31 37 -23 5 c-13 3 -57 7
-98 11 -152 11 -152 13 -2 88 72 37 135 67 139 67 5 0 8 -8 8 -18 0 -9 10 -32
23 -49 13 -18 20 -38 16 -44 -5 -8 -3 -9 5 -5 8 5 14 1 18 -12 8 -32 28 -33
47 -1 9 16 25 29 36 29 10 0 84 48 164 108 80 59 163 120 186 135 22 16 40 31
40 35 0 4 -58 26 -128 50 -116 38 -138 42 -226 42 -68 0 -101 4 -111 14 -11
11 -8 16 21 30 44 21 47 20 34 -4 -10 -20 -8 -20 141 -20 84 0 150 2 148 4 -2
1 -40 16 -84 31 -44 15 -91 32 -105 37 -22 8 -12 16 110 80 74 38 137 72 139
74 3 2 -10 25 -27 49 -30 43 -51 104 -52 150 0 20 4 20 83 14 197 -17 295 -24
344 -22 l52 1 72 -114 c39 -63 73 -114 75 -114 2 0 31 14 64 32 61 32 70 44
48 67 -11 10 -4 12 32 7 25 -3 97 -8 162 -12 l116 -6 89 72 88 72 9 -26 c6
-14 13 -25 16 -24 181 77 231 102 214 108 -11 4 -60 16 -111 26 -84 16 -91 20
-78 34 20 22 10 30 -36 30 -33 0 -41 5 -55 31 -20 40 -19 41 115 73 57 14 106
27 108 30 2 2 -12 17 -32 33 -20 15 -58 45 -83 66 -26 20 -50 37 -54 37 -4 0
-30 -42 -59 -93 -56 -101 -38 -85 -264 -228 -38 -24 -106 -72 -150 -105 l-81
-62 -23 33 c-18 27 -20 37 -11 54 10 20 8 21 -52 22 -53 0 -59 2 -40 11 12 6
22 15 22 20 0 5 5 6 12 2 6 -4 8 -3 5 3 -4 6 0 16 8 23 12 10 19 10 33 -1 15
-13 16 -12 4 2 -11 14 -8 21 20 44 l32 27 -33 60 -33 59 34 -6 c30 -6 36 -3
46 20 16 34 -1 41 -51 20 -20 -8 -38 -15 -41 -15 -3 0 -30 44 -62 98 -31 53
-74 125 -96 160 -29 47 -36 67 -29 79 10 20 -24 78 -40 68 -5 -4 -41 -51 -80
-106 -50 -70 -76 -98 -87 -94 -20 8 -44 -14 -37 -36 8 -23 -10 -33 -35 -19
-21 11 -30 -3 -10 -15 8 -5 7 -11 -1 -21 -13 -16 -9 -29 81 -222 34 -74 60
-136 58 -138 -6 -5 -174 84 -185 98 -6 7 -48 86 -94 175 l-84 162 -102 -107
c-56 -59 -102 -110 -102 -114 -1 -4 44 -30 99 -58 55 -28 100 -54 100 -58 0
-4 -21 -28 -47 -54 -47 -45 -49 -46 -126 -50 -75 -5 -79 -4 -98 21 l-21 26
-21 -27 c-21 -26 -27 -27 -145 -34 -123 -7 -123 -7 -147 -38 -22 -29 -23 -36
-15 -111 5 -44 9 -89 10 -100 0 -15 24 -32 93 -68 158 -81 265 -147 239 -147
-13 0 -20 -4 -17 -10 3 -5 0 -10 -8 -10 -8 0 -21 -10 -30 -22 -14 -23 -15 -22
-56 43 -36 57 -49 70 -93 88 -28 11 -65 21 -82 21 -18 0 -41 7 -52 15 -26 20
-34 19 -34 -5 0 -16 -7 -20 -35 -20 -32 0 -35 2 -25 20 10 19 -2 28 -144 108
-4 2 -6 -8 -3 -24 3 -16 9 -48 12 -71 7 -42 6 -43 -21 -43 -15 0 -35 6 -43 14
-13 11 -30 12 -79 5 -72 -10 -82 -7 -82 25 0 18 14 28 80 56 43 18 77 37 74
41 -3 5 -34 25 -69 45 -36 19 -67 40 -70 44 -5 9 36 39 92 69 21 11 22 10 17
-17 -6 -27 -3 -30 28 -35 18 -4 79 -9 134 -13 l101 -7 8 118 c7 109 6 120 -11
133 -47 34 -49 34 -142 -27 l-90 -59 -33 35 -34 36 41 -23 41 -22 36 23 c35
23 37 26 37 84 0 33 3 77 6 98 6 30 10 36 25 32 10 -3 32 1 49 10 31 16 31 16
20 -5 -6 -12 -10 -23 -8 -24 7 -6 150 -47 153 -44 2 2 -14 27 -37 57 -24 31
-37 56 -31 62 5 5 70 40 145 78 122 62 196 111 168 111 -5 0 -7 6 -4 14 3 8 1
17 -4 20 -5 3 -8 -6 -6 -19 3 -35 -7 -31 -39 17 l-29 40 24 44 c20 39 24 42
36 27 15 -21 16 -9 1 16 -10 15 -2 36 44 122 l56 105 -23 35 c-24 34 -25 35
-127 46 -57 7 -105 17 -107 23 -3 7 -8 8 -16 1 -7 -6 -29 -8 -49 -4 -31 5 -35
8 -25 20 7 9 26 13 52 11 l41 -3 37 105 c20 58 38 113 41 122 4 16 17 12 102
-27 53 -25 102 -45 108 -45 6 0 100 59 208 131 199 132 209 141 209 201 0 25
-3 27 -75 39 -70 11 -92 23 -62 34 7 3 72 -4 146 -15 166 -25 161 -25 161 3 0
22 -9 26 -122 51 -68 16 -126 31 -130 35 -5 4 14 53 42 109 30 62 47 108 43
118 -4 12 3 25 23 40 18 15 25 27 19 33 -8 7 -148 61 -159 61 -2 0 -6 -28 -10
-62 -4 -35 -13 -99 -21 -143 -8 -44 -17 -117 -20 -162 -7 -80 -8 -83 -32 -83
-24 0 -25 1 -19 58 14 140 18 193 19 276 l2 88 -102 36 c-78 28 -103 41 -103
54 0 15 14 13 111 -22 61 -22 115 -40 120 -40 5 0 9 14 9 30 0 36 8 37 84 10
l56 -19 37 72 c31 62 37 69 45 52 8 -18 8 -18 4 3 -2 13 2 35 10 50 8 15 14
32 14 37 0 6 -34 26 -75 44 -42 19 -70 38 -64 41 6 4 -136 8 -315 9 -179 1
-326 0 -326 -3 0 -2 17 -42 39 -88 l38 -84 97 -33 c83 -29 95 -36 84 -48 -12
-11 -28 -8 -111 21 l-97 35 25 -54 24 -55 -38 0 c-37 0 -38 0 -71 78 -41 95
-44 99 -81 107 -34 8 -35 16 -9 74 11 24 20 45 20 47 0 2 -144 4 -321 4 l-321
-1 -24 -27 c-19 -22 -23 -24 -24 -9 0 9 -3 17 -7 17 -5 0 -37 -43 -73 -95 -36
-52 -70 -95 -76 -95 -6 0 -29 6 -50 14 -36 12 -46 11 -124 -13 -65 -20 -86
-31 -88 -46 -2 -11 -9 -24 -14 -30 -8 -7 -9 -4 -4 8 3 10 6 27 6 37 0 15 17
24 77 43 l78 24 -122 38 c-68 21 -121 40 -119 42 2 3 78 -16 168 -41 90 -25
169 -46 174 -46 8 0 64 79 117 167 7 11 -88 13 -533 13 l-540 0 0 -4060z
m1511 3981 c-25 -48 -59 -60 -39 -13 22 50 41 73 50 64 6 -6 2 -25 -11 -51z
m106 -93 c35 -11 66 -25 70 -31 4 -6 1 -8 -8 -5 -8 3 -45 15 -84 28 -38 12
-74 27 -80 32 -11 11 0 9 102 -24z m-408 -37 c10 -7 11 -13 2 -30 -7 -11 -17
-21 -23 -21 -6 0 -9 3 -5 6 3 3 2 17 -3 30 -10 26 2 32 29 15z m521 -128 c-1
-26 -48 -157 -58 -161 -8 -2 -7 9 3 38 8 24 15 44 15 46 0 1 -15 4 -32 6 l-33
4 32 19 c18 11 34 28 37 37 4 17 36 26 36 11z m-217 -52 c7 -28 1 -31 -74 -31
-68 0 -86 8 -75 35 4 11 23 15 75 15 60 0 69 -3 74 -19z m566 -107 c12 -25 18
-50 15 -55 -3 -5 -1 -9 4 -9 13 0 75 -148 66 -161 -4 -7 -3 -9 4 -5 6 3 14 2
17 -4 4 -7 -11 -10 -46 -8 l-52 3 -23 -70 c-40 -119 -55 -155 -63 -151 -4 3
-6 -8 -3 -23 2 -15 -3 -44 -12 -64 -14 -34 -19 -37 -53 -37 -54 0 -63 13 -63
93 l0 69 34 -6 c22 -4 37 -2 42 5 4 8 3 9 -4 5 -7 -4 -12 -3 -12 2 0 5 -10 24
-23 43 -20 30 -22 42 -17 104 4 39 6 71 4 73 -1 2 -20 -1 -42 -7 -28 -8 -48
-8 -72 1 -30 10 -31 12 -14 19 11 4 78 12 148 18 152 14 160 17 150 45 -3 11
-7 34 -7 49 0 16 -3 24 -6 18 -7 -10 -51 68 -51 89 0 6 13 10 30 10 25 0 32
-6 49 -46z m-917 -46 c-7 -7 -12 -8 -12 -2 0 14 12 26 19 19 2 -3 -1 -11 -7
-17z m-73 -44 l-34 -37 37 6 c36 5 37 5 27 -19 -13 -35 -12 -37 15 -30 19 5
29 0 40 -16 21 -30 20 -36 -6 -40 -17 -3 -39 11 -83 53 l-60 58 -105 -51
c-120 -57 -159 -73 -145 -60 15 14 325 172 338 172 6 0 -5 -16 -24 -36z m176
-18 c-25 -38 -37 -32 -18 9 10 21 20 32 26 26 5 -5 2 -19 -8 -35z m284 -262
c24 -53 40 -98 37 -101 -8 -9 -135 8 -142 18 -6 10 47 179 57 179 3 0 25 -43
48 -96z m-355 -285 c4 -44 6 -82 4 -84 -10 -9 -148 -9 -148 0 0 5 -7 18 -14
28 -12 16 -22 11 -121 -66 -107 -83 -108 -84 -146 -74 -21 5 -63 6 -94 2 -52
-6 -56 -9 -81 -51 -36 -61 -41 -55 -7 9 24 44 33 53 63 58 l35 6 -48 13 c-82
22 -43 23 51 1 49 -12 92 -21 95 -21 3 0 70 54 149 120 78 66 151 120 162 120
17 0 17 -2 4 -22 -43 -66 -43 -64 -21 -91 l20 -25 23 71 c12 40 28 75 34 79
27 18 34 5 40 -73z m26 -269 c0 -5 -2 -10 -4 -10 -3 0 -8 5 -11 10 -3 6 -1 10
4 10 6 0 11 -4 11 -10z m-167 -312 c-9 -15 -10 -20 -12 -54 0 -14 -5 -22 -11
-19 -15 10 -12 46 7 67 19 21 28 24 16 6z m151 -124 c5 -14 4 -15 -9 -4 -17
14 -19 20 -6 20 5 0 12 -7 15 -16z m-59 -324 c4 -17 10 -28 15 -25 4 3 15 -14
24 -38 9 -23 31 -74 48 -114 20 -46 28 -78 23 -90 -6 -15 -8 -15 -12 -3 -14
44 -57 147 -88 211 -35 73 -44 106 -26 94 5 -3 12 -19 16 -35z m85 5 c15 -8
19 -14 10 -15 -26 0 -60 12 -60 21 0 13 21 10 50 -6z m1685 -225 c18 -8 18 -9
-5 -9 -14 0 -32 4 -40 9 -12 8 -12 10 5 9 11 0 29 -4 40 -9z m-2224 -119 l64
-29 34 -103 34 -104 23 50 c13 28 40 84 59 125 19 41 32 66 29 55 -3 -11 -8
-28 -11 -37 -4 -13 7 -23 41 -40 26 -12 46 -29 46 -37 0 -13 -2 -13 -9 -2 -5
7 -27 21 -49 31 l-40 18 -41 -101 -41 -101 96 -289 c63 -188 99 -285 105 -276
6 10 27 -7 81 -65 40 -43 75 -83 76 -87 2 -5 -16 -9 -40 -9 -39 0 -49 5 -90
48 -44 45 -49 57 -151 358 -58 172 -103 314 -100 317 2 3 -10 57 -28 120 l-33
115 -60 29 c-32 15 -66 27 -75 25 -14 -2 -14 -2 -1 7 8 6 16 11 16 11 1 0 30
-13 65 -29z m2464 -364 c11 -7 21 -22 22 -34 4 -33 -33 -38 -92 -15 l-49 19
39 21 c47 25 53 25 80 9z m-1689 -527 c-1 -16 1 -27 5 -24 4 2 9 -2 12 -10 4
-10 0 -12 -14 -9 -18 5 -69 88 -69 113 0 6 15 -1 34 -15 26 -20 33 -32 32 -55z
m-471 -115 c102 -12 134 -20 150 -35 11 -11 15 -20 9 -20 -22 0 -358 70 -363
76 -3 4 12 4 34 0 22 -3 99 -13 170 -21z m717 -101 c5 -3 6 -33 2 -67 -6 -59
-9 -65 -67 -124 -34 -34 -59 -64 -56 -66 2 -2 59 -12 127 -22 67 -10 122 -22
122 -27 0 -4 -6 -8 -12 -8 -10 0 -9 -3 1 -9 30 -19 -27 -27 -158 -22 l-133 6
-24 -28 c-28 -33 -30 -50 -9 -67 8 -7 15 -17 15 -22 0 -6 -39 -55 -87 -110
-66 -76 -100 -106 -143 -128 -64 -32 -67 -38 -90 -195 -7 -44 -14 -87 -17 -95
-2 -8 -21 24 -42 70 -29 66 -35 89 -27 102 10 17 11 17 20 0 14 -27 15 -27 31
-6 8 10 15 35 15 55 0 24 7 42 21 55 12 10 35 36 51 57 l31 38 -32 33 c-17 17
-31 42 -31 54 0 28 4 28 41 -5 17 -16 34 -26 37 -23 12 9 194 214 219 247 l25
32 -21 35 c-25 40 -59 49 -188 50 -55 1 -73 4 -73 15 0 8 -7 19 -16 25 -13 10
-8 16 35 36 l51 23 127 -30 c71 -16 129 -29 131 -28 1 1 -9 28 -24 59 -14 32
-24 59 -23 60 2 2 22 13 44 25 38 20 99 22 127 5z m-922 -190 c96 -146 136
-223 98 -184 -9 8 -59 84 -113 168 l-97 152 -62 1 c-53 1 -56 3 -26 9 95 20
88 26 200 -146z m1182 81 l38 -35 -38 -35 c-20 -19 -41 -35 -45 -35 -5 0 -26
15 -48 32 l-41 33 44 37 c24 21 45 37 48 37 3 0 22 -15 42 -34z m-823 -64 c23
-27 41 -51 41 -54 0 -3 -14 -15 -30 -27 l-30 -22 11 26 c11 23 9 30 -18 64
-42 53 -46 62 -30 62 9 0 34 -22 56 -49z m1002 -132 c16 -11 29 -24 29 -29 0
-12 -60 -1 -85 17 -11 7 -29 13 -40 13 -16 0 -17 2 -5 10 25 16 70 11 101 -11z
m-1018 -130 c-5 -19 -6 -19 -32 3 -14 13 -28 24 -30 25 -2 2 2 10 9 18 12 14
15 13 35 -5 15 -14 21 -29 18 -41z m708 -75 c16 -71 28 -135 27 -143 -2 -10
-11 -7 -34 12 -26 22 -34 40 -53 128 l-23 103 22 18 c13 10 25 17 27 14 2 -2
17 -62 34 -132z m-802 -64 c-2 -49 -6 -90 -10 -90 -3 0 -14 20 -23 45 -17 42
-17 46 3 90 11 25 23 45 26 45 4 0 5 -40 4 -90z m518 -323 l-12 -38 -70 6
c-38 4 -72 9 -75 12 -3 3 -6 57 -8 121 l-3 117 90 -90 90 -90 -12 -38z m464
-113 c20 -32 20 -36 5 -59 -24 -37 -33 -31 -41 28 -3 28 -9 61 -12 72 -5 17
-4 18 10 6 9 -7 26 -29 38 -47z m-561 15 c32 -7 50 -15 47 -22 -32 -81 -41
-97 -48 -90 -9 10 -59 123 -54 123 2 0 27 -5 55 -11z m-183 -103 c2 -2 -5 -59
-15 -127 l-17 -124 -3 115 c-1 63 -7 119 -12 124 -18 18 -10 28 17 21 16 -4
29 -8 30 -9z m-361 -34 c-3 -4 -39 -61 -80 -126 -42 -65 -76 -123 -76 -128 0
-12 233 -408 240 -408 3 0 25 34 48 75 29 49 50 75 62 75 36 0 110 -40 114
-63 16 -80 15 -85 -39 -209 l-54 -123 36 -65 c139 -252 181 -345 188 -412 5
-47 12 -68 21 -68 7 0 50 13 94 29 94 35 90 42 60 -102 -17 -86 -18 -100 -5
-131 14 -33 14 -35 -7 -38 -18 -3 -29 -25 -68 -148 -26 -80 -57 -179 -70 -220
-26 -87 -21 -90 -101 57 l-50 93 17 55 18 56 41 -3 40 -3 18 86 18 86 -59 159
-58 159 -48 3 c-40 3 -47 6 -41 20 4 9 9 24 12 33 3 11 20 19 45 22 22 3 42 8
45 10 2 3 -8 24 -23 46 -15 23 -24 44 -20 48 3 4 -7 20 -22 37 -16 17 -73 102
-127 189 -53 86 -99 157 -100 157 -2 0 -15 -34 -30 -75 -15 -41 -32 -75 -37
-75 -22 0 -17 33 17 100 20 39 35 78 33 85 -8 36 -234 422 -240 411 -12 -20
-178 -473 -178 -484 0 -5 18 -49 40 -96 22 -47 58 -124 80 -171 21 -47 37 -85
35 -85 -2 0 -44 78 -94 173 l-90 172 98 270 98 270 97 133 c54 72 100 132 103
132 2 0 2 -4 -1 -8z m1904 4 c0 -3 -4 -8 -10 -11 -5 -3 -10 -1 -10 4 0 6 5 11
10 11 6 0 10 -2 10 -4z m183 -64 c-4 -27 -1 -42 11 -51 14 -12 14 -17 1 -49
l-15 -37 24 29 c22 27 24 27 48 12 21 -14 27 -14 44 -1 29 22 36 18 20 -12
-34 -65 -38 -67 -94 -53 -49 11 -52 14 -52 45 0 17 -3 60 -6 94 -6 51 -4 61 9
61 12 0 14 -8 10 -38z m-1243 13 c0 -11 11 -15 40 -15 57 0 52 -21 -25 -107
-37 -41 -63 -77 -60 -85 10 -25 -50 -56 -175 -93 -140 -40 -141 -41 -133 -19
5 14 1 16 -28 10 -32 -6 -39 -2 -82 42 l-48 49 77 6 c42 4 111 7 154 7 42 0
81 5 87 11 7 7 21 6 48 -5 21 -9 39 -15 41 -13 2 1 -10 23 -26 49 l-29 46 70
66 c71 67 89 78 89 51z m-220 -71 c0 -8 -4 -14 -10 -14 -5 0 -10 4 -10 9 0 5
-3 18 -7 28 -6 16 -5 16 10 4 9 -7 17 -20 17 -27z m1174 -170 c98 -26 94 -23
69 -44 l-22 -18 23 -4 c19 -4 23 -1 19 11 -7 21 31 -37 57 -89 l21 -40 -28
-25 c-25 -22 -26 -24 -8 -26 11 -1 29 -1 40 0 12 1 29 -10 41 -26 21 -28 54
-88 54 -97 0 -6 -33 -12 -143 -26 -83 -11 -87 -13 -82 -34 4 -11 9 -28 11 -37
4 -14 -8 -17 -80 -18 -46 -1 -87 2 -90 7 -3 6 27 18 67 27 39 10 74 19 76 21
3 3 -62 65 -134 127 -27 23 -29 28 -17 47 17 27 10 35 -16 19 -22 -14 -35 -5
-157 104 l-50 45 39 16 c53 22 59 20 41 -14 -8 -16 -15 -31 -15 -33 0 -4 172
33 178 38 2 2 -4 19 -12 38 -11 27 -11 37 -3 41 23 9 61 6 121 -10z m952 -385
c30 -17 54 -32 54 -34 0 -1 -12 -10 -26 -20 -24 -16 -27 -16 -45 1 -15 13 -16
20 -8 31 7 7 10 15 8 17 -2 1 -15 10 -29 19 -41 28 -11 19 46 -14z m-2000 -87
l41 -3 -15 -75 c-12 -60 -17 -72 -28 -63 -8 7 -14 31 -14 60 l0 49 -52 0 c-52
0 -53 -1 -72 -40 -21 -43 -36 -52 -36 -20 0 11 5 20 10 20 6 0 -1 18 -15 40
l-25 40 42 26 c24 14 52 32 63 39 18 11 22 9 40 -29 18 -37 24 -41 61 -44z
m1944 -11 c0 -11 -50 -44 -57 -38 -2 3 0 15 7 26 10 20 50 30 50 12z m-780
-181 c0 -5 -10 -15 -22 -21 -23 -12 -23 -12 -4 10 21 23 26 26 26 11z m-1194
-153 c-17 -82 -9 -143 20 -164 16 -11 13 -13 -19 -13 -39 0 -45 8 -24 29 10
10 9 12 -3 9 -10 -2 -22 25 -44 99 -16 57 -27 105 -24 109 4 3 28 11 55 18 59
15 60 13 39 -87z m-542 -483 c9 -3 16 -10 16 -15 0 -5 -32 -76 -71 -158 -48
-101 -76 -148 -84 -144 -18 6 -42 -37 -25 -47 8 -5 -7 -46 -53 -138 -59 -119
-66 -141 -78 -234 l-14 -103 -3 134 c-2 122 -1 136 19 170 78 129 162 282 157
286 -2 2 -96 -48 -210 -111 l-206 -116 -83 -158 c-46 -87 -85 -158 -86 -156
-2 2 30 74 71 162 l74 159 105 65 c57 36 168 103 245 150 l141 85 32 88 c17
48 33 87 34 87 2 0 10 -3 19 -6z m993 -329 c9 -29 9 -35 -3 -35 -8 0 -14 9
-14 19 0 11 -3 26 -6 35 -3 9 -2 16 3 16 5 0 14 -16 20 -35z m-750 -268 c2 -3
-5 -30 -15 -61 l-19 -57 89 -82 c49 -45 93 -83 98 -85 5 -2 48 14 97 34 73 31
101 37 160 38 l72 1 -52 -22 c-29 -13 -69 -31 -90 -41 l-38 -17 140 -124 c77
-68 143 -133 147 -143 3 -11 8 -17 11 -14 3 3 27 -15 53 -40 26 -25 56 -51 65
-58 13 -9 14 -15 7 -20 -7 -4 -32 12 -59 36 -27 24 -79 70 -118 103 -38 33
-107 95 -152 138 l-81 78 -37 -19 c-35 -18 -40 -27 -92 -168 -71 -194 -73
-203 -62 -210 5 -3 6 -10 3 -16 -4 -7 -2 -8 5 -4 6 4 25 -3 42 -15 l31 -22
-23 -19 c-13 -10 -32 -23 -42 -29 -17 -10 -18 -8 -12 19 5 25 3 31 -15 37 -11
3 -18 11 -15 16 3 5 -1 6 -9 3 -9 -3 -16 -2 -16 4 0 5 -9 12 -20 15 -11 3 -20
10 -20 17 0 6 5 8 12 4 7 -4 8 -3 4 4 -9 14 4 63 14 57 5 -3 12 0 16 6 4 8 3
9 -4 5 -16 -9 -7 37 26 143 25 76 30 85 65 102 l38 20 -87 82 c-48 45 -89 83
-93 84 -3 2 -38 -100 -77 -226 l-71 -230 44 -36 c38 -32 43 -41 38 -65 -5 -22
-1 -33 22 -54 26 -24 26 -26 10 -39 -17 -12 -17 -13 2 -13 11 0 17 5 14 11 -3
5 5 0 18 -13 l24 -23 -40 -34 c-47 -41 -58 -42 -78 -13 l-16 23 0 -27 c-1 -25
-5 -28 -34 -28 -31 0 -36 -4 -51 -43 l-17 -42 -67 71 -67 72 -204 20 c-112 12
-207 24 -212 29 -12 13 -110 185 -107 189 3 2 62 -66 119 -139 15 -18 42 -23
240 -42 l224 -22 44 23 c40 22 46 23 61 9 16 -15 19 -14 28 14 6 17 16 31 21
31 17 0 13 30 -4 36 -12 5 -13 9 -4 20 9 12 15 12 28 2 14 -12 14 -11 2 4 -11
14 -11 18 -1 18 8 0 10 3 7 7 -4 3 -18 -4 -32 -17 -25 -23 -26 -23 -62 -6
l-36 17 40 25 41 24 -10 42 c-6 24 -13 57 -17 73 -5 22 7 74 46 195 l52 165
-45 42 -45 43 10 57 c11 54 10 58 -14 83 -14 14 -25 29 -25 32 0 7 168 -37
177 -45z m173 -907 c0 -5 -4 -10 -10 -10 -5 0 -10 5 -10 10 0 6 5 10 10 10 6
0 10 -4 10 -10z"/>
<path d="M1915 7390 c-3 -5 -1 -10 4 -10 6 0 11 5 11 10 0 6 -2 10 -4 10 -3 0
-8 -4 -11 -10z"/>
<path d="M1435 4730 c-3 -6 1 -7 9 -4 18 7 21 14 7 14 -6 0 -13 -4 -16 -10z"/>
<path d="M1510 3606 c0 -2 7 -7 16 -10 8 -3 12 -2 9 4 -6 10 -25 14 -25 6z"/>
<path d="M2770 2990 c0 -5 5 -10 11 -10 5 0 7 5 4 10 -3 6 -8 10 -11 10 -2 0
-4 -4 -4 -10z"/>
<path d="M2704 2978 c-26 -8 -64 -51 -64 -72 0 -7 98 62 106 75 6 11 -1 10
-42 -3z"/>
<path d="M1271 394 c0 -11 3 -14 6 -6 3 7 2 16 -1 19 -3 4 -6 -2 -5 -13z"/>
<path d="M1221 282 c-8 -15 -8 -23 0 -28 17 -10 33 11 21 32 -9 16 -10 16 -21
-4z"/>
<path d="M1320 256 c7 -7 13 -7 20 0 6 6 3 10 -10 10 -13 0 -16 -4 -10 -10z"/>
<path d="M2752 8068 l3 -53 62 -31 c35 -17 60 -33 57 -36 -3 -4 0 -9 7 -14 8
-4 10 -3 5 4 -10 17 -1 15 40 -7 l35 -19 -47 -33 c-26 -17 -58 -33 -71 -35
-14 -1 -28 -6 -31 -10 -4 -4 1 -4 11 -1 9 4 17 3 17 -1 0 -8 -54 -43 -61 -39
-2 1 -3 0 -2 -2 1 -2 -9 -13 -23 -23 -23 -18 -23 -21 -8 -32 15 -12 15 -15 0
-45 l-17 -32 86 -100 c47 -56 85 -107 85 -114 0 -7 -14 -25 -31 -39 -22 -19
-26 -26 -14 -26 15 0 15 -3 5 -15 -11 -13 -10 -18 4 -28 15 -11 10 -17 -48
-54 -60 -39 -84 -45 -54 -15 14 14 10 19 -17 24 -16 2 -21 -4 -25 -38 -5 -37
-4 -42 14 -42 12 0 39 -7 61 -17 l40 -17 -76 -38 c-55 -28 -83 -49 -99 -75
-18 -29 -27 -35 -56 -35 l-35 0 20 29 c12 16 21 32 21 35 0 4 -39 -14 -86 -39
-67 -35 -96 -45 -134 -45 l-48 0 -42 -120 c-24 -66 -41 -123 -38 -125 2 -2 75
-13 162 -24 87 -11 160 -21 162 -24 12 -12 -122 -211 -210 -313 -54 -63 -97
-116 -95 -118 7 -7 184 -23 198 -18 9 3 11 15 7 40 l-5 35 32 -30 c62 -59 64
-58 171 90 53 74 96 138 96 143 0 5 -23 36 -50 69 -28 33 -50 63 -50 66 0 13
153 290 157 285 2 -2 0 -20 -5 -39 -10 -36 -10 -36 34 -54 24 -10 44 -22 44
-26 0 -19 -32 -67 -44 -67 -12 0 -56 -132 -56 -169 0 -16 90 -131 102 -131 5
0 27 9 49 21 22 11 46 18 52 16 7 -2 19 1 27 8 8 7 56 29 105 50 50 20 109 46
132 56 l43 18 -1 86 -1 86 -21 -18 c-12 -9 -6 0 13 22 19 22 35 41 36 42 0 2
15 -2 32 -8 31 -11 31 -11 16 -41 -20 -39 -11 -47 26 -20 16 12 33 22 39 22 5
0 61 -20 125 -44 l116 -44 0 31 c2 101 -1 332 -5 335 -2 2 -17 -4 -35 -13 -18
-9 -34 -14 -37 -11 -3 3 -8 38 -10 78 -7 130 -9 131 -55 55 -22 -37 -44 -67
-48 -67 -4 0 -15 27 -25 60 -10 33 -21 60 -25 60 -4 0 -48 -31 -99 -70 -50
-38 -93 -70 -96 -70 -3 0 -5 18 -5 40 0 22 -5 40 -11 40 -6 0 -8 8 -4 19 4 15
-1 20 -27 25 -25 4 -58 31 -125 99 l-92 92 17 63 c16 62 16 64 -2 78 -28 20
-41 18 -55 -8 -11 -23 -11 -23 -7 2 20 103 20 107 -7 114 -24 6 -25 8 -16 43
6 21 14 47 19 58 4 11 14 41 21 67 l13 48 17 -48 c39 -113 50 -131 91 -144
l39 -11 -40 -26 c-23 -14 -41 -29 -41 -32 0 -3 35 -27 77 -54 131 -83 140
-103 63 -131 -27 -10 -50 -21 -50 -24 0 -3 33 -14 73 -26 l72 -20 35 -66 35
-65 50 23 c151 71 175 82 175 76 0 -4 -4 -24 -9 -44 -5 -21 -6 -38 -3 -38 8 0
263 173 259 176 -1 1 -46 25 -99 53 l-97 50 -7 -35 c-3 -19 -10 -37 -15 -40
-5 -3 -37 4 -72 15 -34 11 -108 34 -164 51 l-103 31 0 49 c0 58 -7 56 114 34
l89 -15 31 34 c17 18 46 42 64 52 30 18 32 22 32 77 0 56 3 63 56 133 31 41
61 75 67 75 7 0 8 3 1 10 -5 5 -50 17 -99 26 -169 30 -200 39 -199 57 2 16
-26 17 -338 17 l-339 0 3 -52z m375 28 c-3 -8 -2 -16 2 -18 5 -2 12 -14 16
-27 6 -20 4 -23 -9 -18 -10 4 -15 3 -12 -2 3 -5 -10 -18 -29 -30 -19 -11 -35
-18 -35 -15 0 10 61 124 66 124 3 0 4 -6 1 -14z m-167 -822 c-28 -44 -56 -71
-65 -62 -2 2 1 25 7 51 9 42 12 46 33 41 18 -4 26 0 36 18 7 12 14 18 16 12 2
-7 -10 -34 -27 -60z m-66 -173 c-13 -9 -27 -32 -33 -58 -12 -48 -19 -51 -50
-25 -20 17 -20 17 32 77 49 57 53 60 63 40 9 -16 7 -22 -12 -34z m486 -151
c-19 -11 -42 -19 -50 -19 -8 0 3 9 25 19 53 24 70 24 25 0z"/>
<path d="M3100 8050 c0 -5 0 -13 1 -16 0 -4 -5 -11 -13 -16 -11 -8 -10 -9 1
-6 13 4 28 48 16 48 -3 0 -5 -4 -5 -10z"/>
<path d="M4147 8043 c-55 -76 -61 -93 -30 -93 13 0 15 -10 9 -71 -4 -39 -9
-76 -12 -83 -2 -6 -31 -28 -63 -49 -96 -61 -95 -60 -88 -187 3 -60 2 -110 -1
-109 -4 0 -24 23 -45 51 l-39 50 -24 -35 c-28 -41 -29 -47 -11 -47 21 0 115
-144 119 -181 3 -19 8 -33 12 -32 4 0 61 54 127 118 112 110 119 119 114 149
-5 26 3 46 49 118 30 48 66 107 81 132 l27 46 -25 44 c-22 40 -23 46 -9 59 14
14 12 16 -11 22 -19 5 -35 23 -57 67 -30 56 -30 61 -15 84 15 24 15 24 -19 24
-31 0 -39 -7 -89 -77z m-197 -604 c27 -15 -11 -10 -45 6 l-30 14 30 -6 c17 -3
37 -9 45 -14z"/>
<path d="M4385 8090 c-9 -16 -13 -30 -11 -30 3 0 14 14 26 30 12 17 17 30 11
30 -6 0 -17 -13 -26 -30z"/>
<path d="M3970 8069 c-23 -20 -51 -21 -111 -3 -11 3 -36 -22 -78 -77 -60 -79
-62 -82 -59 -136 l3 -54 92 65 92 66 71 0 72 0 -7 28 c-4 15 -8 36 -9 47 -1
11 -7 26 -13 33 -7 7 -13 22 -13 33 0 24 -9 24 -40 -2z"/>
<path d="M4980 8033 c-21 -58 -43 -103 -51 -103 -4 0 -42 27 -83 60 l-76 60 0
-66 0 -66 -75 -84 c-41 -46 -77 -79 -80 -74 -12 20 -32 8 -140 -81 -60 -50
-121 -99 -134 -108 l-23 -17 11 -125 c7 -68 14 -140 15 -159 2 -19 4 -47 5
-61 1 -24 8 -28 84 -49 69 -19 88 -29 120 -62 l37 -41 0 122 c0 100 3 123 15
128 13 4 15 17 11 62 -3 31 -8 86 -12 124 l-6 67 -31 -26 c-48 -41 -44 -10 6
42 l45 46 15 -23 c8 -13 31 -55 51 -92 l37 -68 94 88 c98 92 110 116 84 165
-11 20 4 37 79 94 13 9 11 17 -12 50 -14 21 -26 42 -26 47 0 4 23 5 51 1 48
-6 52 -5 75 22 13 16 23 34 24 39 0 6 -18 29 -40 50 -22 21 -40 45 -40 52 0
23 -20 14 -30 -14z"/>
<path d="M5577 7963 c3 -21 8 -51 12 -66 l6 -29 48 61 c26 34 47 63 47 64 0 2
-27 5 -59 6 l-60 2 6 -38z"/>
<path d="M2680 7826 c0 -8 4 -17 9 -20 5 -4 7 3 4 14 -6 23 -13 26 -13 6z"/>
<path d="M5123 7650 c-61 -29 -88 -48 -103 -72 l-20 -33 24 -3 24 -3 -38 -82
c-30 -64 -36 -83 -26 -92 7 -5 28 -32 46 -60 18 -27 25 -43 16 -36 -9 7 -16 9
-16 3 0 -21 31 -21 50 1 l21 22 -21 17 -21 17 40 44 c38 41 41 48 41 103 0 33
4 65 9 73 5 7 30 17 56 22 27 5 50 11 52 12 5 6 -39 107 -46 106 -3 0 -43 -18
-88 -39z"/>
<path d="M7182 7538 c-37 -23 -36 -28 34 -78 29 -20 45 -28 42 -18 -4 9 -12
36 -19 59 -17 59 -19 61 -57 37z"/>
<path d="M5834 7453 c14 -144 13 -143 57 -52 21 44 39 84 39 89 0 6 -74 30
-96 30 -4 0 -4 -30 0 -67z"/>
<path d="M5550 7428 l-64 -52 70 -64 69 -65 3 102 c1 56 -1 108 -5 116 -7 12
-22 4 -73 -37z"/>
<path d="M2400 7460 c-8 -5 -12 -12 -9 -15 4 -3 12 1 19 10 14 17 11 19 -10 5z"/>
<path d="M4825 7400 c-3 -6 1 -7 9 -4 18 7 21 14 7 14 -6 0 -13 -4 -16 -10z"/>
<path d="M4790 7370 c0 -5 7 -7 15 -4 8 4 15 8 15 10 0 2 -7 4 -15 4 -8 0 -15
-4 -15 -10z"/>
<path d="M4620 7300 c-24 -15 -7 -18 20 -3 14 7 18 13 10 13 -8 0 -22 -4 -30
-10z"/>
<path d="M4074 7237 c-72 -81 -68 -71 -39 -106 l27 -31 113 0 c62 0 126 3 144
6 l31 6 -23 18 c-47 36 -206 140 -215 140 -5 0 -22 -15 -38 -33z"/>
<path d="M5486 7156 l-49 -57 49 -72 49 -71 3 61 c2 34 2 92 0 129 l-3 67 -49
-57z"/>
<path d="M2650 7170 c0 -23 -2 -23 39 -9 24 9 29 14 19 20 -25 17 -58 10 -58
-11z"/>
<path d="M4397 7120 c-45 -105 -66 -164 -62 -168 5 -6 195 61 195 69 0 4 -27
35 -59 70 l-59 64 -15 -35z"/>
<path d="M4920 7030 c-14 -5 -51 -14 -84 -20 l-59 -12 7 -81 c6 -78 19 -107
48 -107 5 0 27 39 48 88 22 48 46 99 54 115 8 15 14 27 13 26 -1 0 -13 -4 -27
-9z"/>
<path d="M4592 6985 c0 -16 2 -22 5 -12 2 9 2 23 0 30 -3 6 -5 -1 -5 -18z"/>
<path d="M3900 6888 c-28 -57 -50 -105 -50 -109 0 -3 38 -21 85 -39 96 -37 81
-14 125 -200 12 -52 24 -103 27 -112 4 -17 7 -16 46 3 l42 21 -43 -44 c-23
-24 -39 -48 -35 -52 4 -4 1 -11 -6 -16 -12 -7 -12 -13 -1 -40 13 -32 13 -32
25 -10 12 22 16 18 89 -73 42 -53 76 -100 76 -105 0 -4 -16 -23 -35 -42 -19
-19 -35 -38 -35 -42 0 -4 27 -8 59 -8 46 0 60 -4 65 -17 6 -14 8 -14 22 5 12
17 25 22 60 22 44 0 44 0 44 35 0 20 7 51 14 70 10 24 11 35 4 35 -8 0 -9 40
-5 138 l7 137 -50 28 c-27 16 -50 32 -50 36 0 26 50 62 139 100 56 24 101 47
101 51 0 13 -33 21 -44 10 -5 -5 -25 -10 -44 -10 -27 0 -32 3 -24 13 6 7 14
31 17 53 l7 39 -90 48 c-50 26 -93 47 -96 47 -3 0 -6 -33 -6 -73 0 -41 -3 -76
-6 -80 -4 -3 -59 20 -123 53 -111 56 -119 62 -186 144 -38 47 -71 86 -72 86
-2 0 -26 -46 -53 -102z"/>
<path d="M4626 6982 c-2 -4 11 -6 30 -4 19 2 34 6 34 8 0 8 -59 4 -64 -4z"/>
<path d="M6695 6891 c-3 -6 11 -15 32 -20 56 -16 62 -13 25 9 -36 22 -48 24
-57 11z"/>
<path d="M7367 6846 c-14 -25 -23 -46 -19 -46 13 0 92 35 92 41 0 3 -11 16
-24 28 l-24 22 -25 -45z"/>
<path d="M5080 6860 c-9 -6 -10 -10 -3 -10 6 0 15 5 18 10 8 12 4 12 -15 0z"/>
<path d="M5193 6809 c-5 -29 -7 -30 -19 -15 -11 16 -15 12 -40 -31 -15 -26
-33 -58 -41 -70 -11 -18 -11 -23 -1 -23 7 -1 -6 -11 -30 -24 l-43 -22 75 -72
c42 -40 80 -72 86 -72 5 0 50 38 100 86 50 47 94 83 99 80 5 -3 14 -19 21 -36
14 -34 23 -34 95 3 l40 20 -57 21 c-70 27 -73 29 -49 50 19 17 15 19 -97 77
-64 32 -120 59 -124 59 -5 0 -11 -14 -15 -31z"/>
<path d="M5080 6820 c-9 -6 -10 -10 -3 -10 6 0 15 5 18 10 8 12 4 12 -15 0z"/>
<path d="M5770 6823 c1 -25 17 -34 43 -22 37 17 34 29 -8 29 -19 0 -35 -3 -35
-7z"/>
<path d="M4665 6719 c-14 -27 -15 -44 -4 -145 7 -63 16 -114 21 -114 36 0 175
44 183 58 8 14 11 11 15 -18 l5 -35 90 -13 c155 -22 154 -28 34 131 -115 152
-113 151 -120 32 l-2 -50 -6 65 -6 64 -85 27 c-47 15 -91 28 -97 28 -7 1 -20
-13 -28 -30z"/>
<path d="M3845 6645 c-39 -48 -38 -53 7 -72 l26 -12 4 62 c2 34 3 63 2 65 -1
1 -18 -18 -39 -43z"/>
<path d="M2176 6571 c-3 -4 -6 -68 -8 -144 -1 -75 -6 -137 -9 -137 -3 0 -34
-18 -67 -40 -34 -22 -68 -37 -76 -34 -8 3 -17 0 -22 -7 -4 -8 -3 -10 4 -5 7 4
12 3 12 -2 0 -12 -51 -36 -70 -33 -12 1 -12 0 -2 -7 9 -6 13 -24 10 -52 l-3
-43 90 -48 90 -48 48 47 c27 26 75 77 108 114 54 60 58 68 48 91 -6 14 -38 38
-75 58 -35 19 -64 36 -64 39 1 5 104 70 130 82 8 3 30 19 49 35 l34 29 -112
55 c-61 31 -113 53 -115 50z"/>
<path d="M3324 6573 c-22 -3 -52 -26 -113 -87 l-83 -83 72 -57 c44 -34 82 -56
97 -56 15 0 47 19 81 47 32 26 59 49 61 50 6 4 -72 193 -78 191 -3 0 -20 -3
-37 -5z"/>
<path d="M3631 6453 c-42 -47 -57 -70 -50 -79 6 -8 4 -15 -6 -24 -8 -7 -15
-16 -15 -21 0 -7 157 -117 217 -153 8 -4 32 11 62 39 l50 47 -76 101 c-43 56
-87 114 -99 129 l-23 28 -60 -67z"/>
<path d="M3500 6463 c1 -27 1 -27 15 -9 19 25 19 36 0 36 -10 0 -15 -10 -15
-27z"/>
<path d="M5816 6369 c-86 -61 -156 -113 -154 -114 5 -5 281 -55 301 -55 13 0
16 21 16 140 0 77 -1 140 -3 140 -1 0 -73 -50 -160 -111z"/>
<path d="M2738 6378 c2 -24 4 -50 5 -58 1 -8 17 8 34 37 34 54 31 63 -21 63
-19 0 -21 -4 -18 -42z"/>
<path d="M2096 6308 c3 -5 10 -6 15 -3 13 9 11 12 -6 12 -8 0 -12 -4 -9 -9z"/>
<path d="M4644 6147 l-131 -112 118 -3 c66 -1 119 -6 119 -11 0 -5 32 -25 71
-46 l72 -38 -7 29 c-4 16 -17 60 -28 98 l-21 70 -33 -40 -33 -39 6 103 c3 56
4 102 2 102 -2 -1 -63 -51 -135 -113z"/>
<path d="M5500 6249 c0 -10 -48 -55 -76 -72 -8 -4 -22 -3 -33 2 -20 11 -20 7
15 -139 5 -21 14 -8 64 90 33 63 59 118 59 123 1 4 -6 7 -14 7 -8 0 -15 -5
-15 -11z"/>
<path d="M4082 6184 c-13 -20 -20 -40 -15 -44 8 -7 135 -41 139 -37 2 1 -21
28 -49 60 l-52 58 -23 -37z"/>
<path d="M3111 6157 l-43 -45 51 -11 c29 -6 65 -11 81 -11 29 0 30 1 30 50 0
41 -3 50 -17 50 -10 0 -27 3 -38 6 -14 3 -32 -7 -64 -39z"/>
<path d="M5155 6144 c-93 -19 -175 -36 -180 -38 -7 -3 -6 -60 5 -180 14 -154
14 -176 1 -176 -10 0 -6 -9 12 -28 23 -24 29 -44 43 -142 9 -63 18 -117 20
-118 1 -2 39 18 84 45 79 47 81 49 75 81 -5 29 -4 32 18 32 35 0 44 -48 14
-72 -27 -21 -22 -26 63 -69 80 -41 102 -44 116 -16 113 224 124 250 124 287 0
40 0 40 -40 40 l-40 0 0 98 -1 97 -39 -45 c-22 -25 -40 -50 -40 -56 0 -5 11
-25 25 -44 32 -44 31 -50 -5 -50 -26 0 -36 -8 -63 -52 l-32 -52 -9 36 c-8 32
-15 38 -61 54 l-53 17 -8 70 -9 70 -64 -94 c-35 -52 -66 -96 -68 -98 -2 -2 -6
-2 -9 1 -7 8 158 244 299 426 12 15 22 17 -178 -24z"/>
<path d="M6314 6142 l-91 -36 60 -99 c33 -54 63 -95 68 -90 15 15 76 263 65
262 -6 0 -52 -17 -102 -37z"/>
<path d="M3335 6024 c-77 -80 -141 -149 -142 -152 -2 -4 6 -18 16 -31 l18 -23
161 153 c89 84 162 154 162 155 0 3 -66 44 -71 44 -2 0 -67 -66 -144 -146z"/>
<path d="M1862 6076 l-33 -23 25 -17 c38 -24 46 -20 46 24 0 22 -1 40 -2 40
-2 -1 -18 -11 -36 -24z"/>
<path d="M6608 6067 l-57 -32 76 -87 c42 -48 78 -87 79 -85 3 4 -33 227 -37
232 -3 2 -30 -10 -61 -28z"/>
<path d="M1918 5925 c-1 -58 -2 -113 -2 -122 -1 -12 8 -19 25 -21 21 -2 38 11
92 71 37 41 67 77 67 80 0 5 -167 97 -176 97 -2 0 -5 -47 -6 -105z"/>
<path d="M5686 6011 c-18 -7 -16 -9 14 -19 18 -7 34 -12 35 -12 2 0 5 9 8 20
4 16 0 20 -16 19 -12 0 -31 -4 -41 -8z"/>
<path d="M5840 5967 c0 -54 15 -63 23 -14 3 20 0 37 -9 47 -12 12 -14 8 -14
-33z"/>
<path d="M4509 5877 c-74 -67 -156 -140 -181 -163 l-47 -40 70 -125 69 -124
-22 -15 c-67 -46 -66 -37 -13 -138 45 -85 79 -131 89 -121 7 7 28 300 23 306
-3 2 -15 0 -26 -7 -31 -16 -26 -2 17 49 20 25 43 54 50 63 10 12 121 411 122
436 0 11 -33 -16 -151 -121z"/>
<path d="M3203 5965 c-3 -9 -3 -18 -1 -21 3 -3 8 4 11 16 6 23 -1 27 -10 5z"/>
<path d="M4087 5889 c-53 -44 -97 -85 -97 -91 0 -5 25 -55 56 -110 l57 -99 26
24 c19 18 340 290 370 314 2 2 2 5 0 7 -5 5 -258 36 -291 36 -15 0 -61 -31
-121 -81z"/>
<path d="M3185 5920 c-3 -5 -1 -10 4 -10 6 0 11 5 11 10 0 6 -2 10 -4 10 -3 0
-8 -4 -11 -10z"/>
<path d="M7250 5802 c0 -75 2 -83 18 -78 9 3 29 8 45 12 15 3 27 8 27 10 0 3
-20 35 -45 72 l-45 67 0 -83z"/>
<path d="M3155 5819 c-4 -6 -5 -12 -2 -15 2 -3 7 2 10 11 7 17 1 20 -8 4z"/>
<path d="M5901 5729 c-66 -83 -55 -130 40 -170 l64 -27 3 72 c2 62 -1 78 -23
119 -15 26 -30 49 -35 52 -4 3 -27 -18 -49 -46z"/>
<path d="M4644 5670 l7 -82 71 -84 c40 -47 76 -81 82 -77 6 4 37 27 69 51 l57
45 0 82 0 81 -127 28 c-71 15 -137 30 -147 33 -18 5 -19 1 -12 -77z"/>
<path d="M2653 5682 c-51 -1 -93 -6 -93 -10 1 -6 126 -89 150 -100 4 -1 14 23
23 55 8 32 15 58 14 58 -1 0 -44 -1 -94 -3z"/>
<path d="M2850 5608 c-58 -33 -144 -80 -192 -106 -47 -26 -87 -51 -89 -57 -2
-10 166 -114 186 -114 18 -1 307 117 321 131 11 11 2 29 -49 110 -34 54 -64
97 -67 97 -3 -1 -52 -28 -110 -61z"/>
<path d="M3960 5575 l-1 -80 -38 43 -38 43 -42 -73 c-35 -60 -40 -76 -32 -95
12 -27 27 -23 92 24 56 40 61 41 53 7 -6 -22 -4 -25 12 -21 11 4 40 11 67 18
26 6 49 14 51 18 2 3 -25 49 -60 101 l-64 95 0 -80z"/>
<path d="M4107 5474 c-65 -91 -117 -167 -115 -169 8 -7 382 -185 390 -185 19
0 3 66 -68 279 -42 124 -79 229 -83 233 -3 4 -59 -68 -124 -158z"/>
<path d="M5800 5495 l-74 -74 44 -19 c78 -33 88 -35 93 -15 3 10 8 47 12 83 4
36 9 73 11 83 9 30 -9 18 -86 -58z"/>
<path d="M3604 5475 c-10 -8 -14 -15 -8 -15 5 0 19 7 30 15 10 8 14 15 8 15
-5 0 -19 -7 -30 -15z"/>
<path d="M4568 5473 c-3 -10 -6 -48 -7 -84 -2 -65 -2 -67 25 -73 14 -4 28 -6
29 -4 5 6 -29 178 -36 178 -3 0 -9 -8 -11 -17z"/>
<path d="M5006 5387 c-2 -7 -9 -43 -15 -82 -6 -38 -13 -85 -17 -102 -6 -33 -6
-33 34 -33 32 0 43 -5 57 -26 9 -14 15 -27 13 -28 -2 -2 -21 -15 -43 -30 -22
-15 -31 -25 -20 -22 11 3 50 13 87 22 60 15 68 19 73 45 4 16 14 33 23 38 13
7 14 12 3 25 -10 11 -10 27 -3 68 23 120 23 122 7 108 -13 -10 -15 -9 -15 11
-1 24 -1 24 -24 -5 -14 -16 -22 -34 -20 -40 2 -6 -6 -17 -18 -25 -20 -13 -25
-10 -70 37 -27 29 -50 46 -52 39z"/>
<path d="M3905 5361 l-15 -30 30 10 c25 9 28 14 20 30 -14 25 -17 24 -35 -10z"/>
<path d="M4722 5342 c-40 -36 -50 -50 -42 -62 10 -16 11 -16 57 45 32 43 46
65 41 65 -2 0 -27 -22 -56 -48z"/>
<path d="M8262 5312 c-73 -41 -130 -77 -128 -79 5 -6 229 -32 270 -33 28 0 28
1 22 43 -4 23 -12 65 -19 93 l-12 51 -133 -75z"/>
<path d="M5522 5340 c-49 -46 -51 -40 33 -138 l60 -71 3 97 c2 81 0 100 -16
121 -10 14 -22 26 -28 28 -5 1 -28 -15 -52 -37z"/>
<path d="M3724 5303 c-58 -24 -60 -27 -50 -49 7 -16 37 -35 93 -59 45 -19 88
-35 96 -35 11 0 5 22 -26 85 -22 47 -43 84 -46 84 -3 -1 -33 -13 -67 -26z"/>
<path d="M6476 5253 c-11 -95 -18 -198 -13 -193 2 3 32 44 66 92 l60 88 -27
17 c-59 36 -71 43 -76 43 -2 0 -7 -21 -10 -47z"/>
<path d="M3551 5243 c-29 -36 -18 -41 24 -9 40 31 42 36 16 36 -11 0 -29 -12
-40 -27z"/>
<path d="M2849 5232 c14 -27 26 -33 45 -26 21 8 20 20 -1 27 -10 2 -26 8 -37
12 -16 7 -17 6 -7 -13z"/>
<path d="M3479 5079 c12 -19 27 -45 34 -59 6 -14 14 -27 18 -30 3 -3 17 -24
31 -48 l25 -42 59 51 c127 111 137 121 124 129 -6 4 -53 10 -103 14 -51 3
-119 9 -151 13 l-60 6 23 -34z"/>
<path d="M3881 5067 c-38 -40 -42 -49 -36 -76 7 -32 36 -50 130 -81 37 -12 40
-12 62 14 13 15 23 30 23 34 -1 4 -31 40 -68 80 l-67 73 -44 -44z"/>
<path d="M5580 5058 c-30 -22 -62 -43 -70 -48 -13 -7 -12 -13 3 -46 l18 -37
56 54 c56 55 74 84 66 107 -7 17 -11 15 -73 -30z"/>
<path d="M4148 4938 l-76 -132 20 -25 20 -26 -34 -30 c-18 -17 -49 -42 -67
-57 l-35 -27 18 -34 c47 -87 72 -112 170 -169 54 -32 100 -58 102 -58 2 0 4
15 4 33 0 32 1 33 125 82 l125 50 0 63 c0 67 6 72 50 47 14 -8 28 -14 32 -15
3 0 23 23 43 51 l37 51 -12 85 -12 84 -34 -26 c-19 -14 -50 -37 -69 -51 -19
-14 -38 -23 -44 -20 -5 3 -21 41 -37 83 -15 43 -32 83 -38 90 -10 10 -190 83
-205 83 -3 0 -40 -60 -83 -132z"/>
<path d="M4935 4980 c11 -123 17 -163 25 -150 8 13 14 -14 26 -113 6 -58 7
-59 26 -40 17 17 18 28 12 96 -6 67 -9 77 -26 77 -15 0 -17 4 -9 18 7 13 0 39
-25 97 l-34 80 5 -65z"/>
<path d="M5273 4975 c-57 -60 -64 -79 -33 -95 13 -7 20 -21 20 -38 0 -16 9
-48 21 -71 l21 -44 19 29 c16 25 19 48 19 152 0 67 -3 122 -7 122 -5 0 -32
-25 -60 -55z"/>
<path d="M4792 4984 l-52 -34 6 -57 c11 -113 8 -112 71 -31 30 40 60 78 64 84
5 6 0 23 -14 41 l-22 30 -53 -33z"/>
<path d="M6750 4991 c0 -26 32 -151 38 -150 4 0 63 29 132 64 139 70 139 69
-5 80 -44 3 -99 8 -122 12 -29 3 -43 2 -43 -6z"/>
<path d="M3385 4925 c-66 -35 -119 -70 -117 -76 4 -18 54 -80 62 -77 10 4 190
205 190 212 0 12 -17 5 -135 -59z"/>
<path d="M3675 4910 l-49 -49 42 -50 41 -49 -20 -26 c-11 -14 -17 -30 -14 -36
3 -5 -8 -37 -26 -70 -27 -51 -35 -59 -54 -54 -19 5 -30 -5 -71 -62 l-48 -67
-9 34 c-8 29 -6 36 12 48 19 12 19 15 6 25 -13 10 -13 17 5 65 12 29 19 56 16
58 -2 2 -48 6 -103 9 -54 2 -134 6 -178 8 l-80 4 38 -22 c59 -36 55 -38 -21
-12 -40 14 -72 21 -72 15 0 -11 38 -151 42 -154 2 -1 64 -50 138 -110 74 -60
140 -113 147 -117 7 -6 23 6 47 38 40 53 39 54 67 -53 7 -29 16 -53 21 -53 4
0 31 16 58 36 l51 36 113 -31 c137 -37 140 -38 132 -8 -3 12 -16 58 -27 102
-12 44 -23 82 -25 84 -1 2 -37 -22 -80 -53 -42 -31 -80 -56 -84 -56 -7 0 -12
32 -26 156 l-6 61 32 13 c31 13 32 15 28 62 -4 42 -3 48 13 48 14 0 19 7 19
29 0 15 13 60 29 99 l29 70 -42 41 -42 41 -49 -50z m-220 -338 c-4 -4 -11 1
-16 11 -6 9 -20 17 -32 17 -20 1 -19 3 13 32 l35 32 3 -43 c2 -24 0 -46 -3
-49z"/>
<path d="M5824 4740 c-22 -30 -52 -73 -67 -95 l-26 -40 16 -137 16 -137 41 25
c23 13 47 28 54 32 9 6 12 54 10 208 l-3 199 -41 -55z"/>
<path d="M5267 4726 c-19 -50 16 -106 75 -120 14 -3 34 -9 44 -13 16 -6 15 -3
-4 23 -12 16 -41 51 -65 78 -36 41 -45 47 -50 32z"/>
<path d="M5151 4696 c-11 -19 -10 -28 3 -52 l15 -29 1 53 c0 28 -1 52 -3 52
-2 0 -9 -11 -16 -24z"/>
<path d="M2108 4673 c7 -3 16 -2 19 1 4 3 -2 6 -13 5 -11 0 -14 -3 -6 -6z"/>
<path d="M5050 4556 c0 -3 9 -21 21 -40 17 -30 24 -34 39 -26 27 15 32 27 20
50 -8 14 -21 20 -45 20 -19 0 -35 -2 -35 -4z"/>
<path d="M3917 4457 l-15 -45 30 -4 c29 -5 30 -4 23 31 -12 63 -21 67 -38 18z"/>
<path d="M4542 4373 l-132 -45 37 -51 c20 -29 38 -53 39 -55 4 -7 274 153 274
162 0 2 -19 11 -42 18 -42 14 -47 14 -176 -29z"/>
<path d="M5550 4386 c0 -2 7 -9 15 -16 12 -10 15 -10 15 4 0 9 -7 16 -15 16
-8 0 -15 -2 -15 -4z"/>
<path d="M5142 4350 c-10 -17 -10 -20 3 -20 8 0 15 9 15 20 0 11 -1 20 -3 20
-1 0 -8 -9 -15 -20z"/>
<path d="M5981 4328 c-5 -13 -18 -47 -30 -76 l-21 -52 38 16 c20 8 61 25 89
37 29 12 53 24 53 27 0 6 -105 70 -114 70 -4 0 -10 -10 -15 -22z"/>
<path d="M3930 4304 c1 -5 6 -19 14 -32 l12 -23 25 20 c13 10 21 22 18 25 -10
10 -69 19 -69 10z"/>
<path d="M4317 4258 c-21 -8 -26 -14 -21 -27 4 -9 8 -32 8 -51 l1 -35 -44 3
c-27 2 -41 0 -37 -6 4 -6 -24 -15 -66 -22 -40 -6 -80 -14 -89 -16 -17 -5 -89
74 -89 98 0 7 -12 22 -27 32 -23 17 -27 17 -37 4 -6 -8 -50 -57 -98 -109 -123
-133 -134 -149 -117 -160 8 -5 37 -7 64 -5 28 3 93 7 145 8 l94 3 92 -110 c50
-60 95 -110 100 -112 5 -2 56 74 112 169 97 160 103 173 91 197 -7 14 -11 32
-10 39 1 6 -2 12 -6 12 -4 0 -19 9 -32 19 -23 17 -23 19 -7 42 28 40 22 45
-27 27z"/>
<path d="M3488 4125 c-32 -28 -55 -55 -51 -58 3 -4 19 -7 35 -7 16 0 42 -10
59 -22 30 -22 31 -22 44 -4 12 16 23 18 75 13 33 -4 60 -3 60 1 0 7 -127 108
-155 124 -5 3 -36 -18 -67 -47z"/>
<path d="M5330 4145 c-7 -8 -15 -13 -19 -10 -13 7 -166 -154 -156 -164 6 -5
43 -18 83 -29 l72 -19 0 58 c0 69 -2 68 107 40 l73 -19 -37 45 c-20 24 -51 50
-69 58 -26 10 -31 18 -27 34 6 24 -9 28 -27 6z"/>
<path d="M2945 4120 c4 -6 11 -8 16 -5 14 9 11 15 -7 15 -8 0 -12 -5 -9 -10z"/>
<path d="M4579 4062 c-6 -15 -119 -161 -151 -195 -16 -16 -28 -33 -28 -38 0
-5 -10 -23 -22 -39 l-21 -29 39 -100 38 -100 46 -5 c96 -12 411 -38 414 -35 2
2 -3 32 -11 67 -12 48 -23 68 -45 83 -24 18 -27 23 -16 37 10 14 10 15 -2 5
-17 -15 -34 -17 -25 -3 3 5 0 8 -7 5 -7 -2 -33 6 -58 18 -63 31 -63 54 -4 106
l48 42 15 -26 c9 -14 19 -25 23 -25 8 0 52 70 47 74 -2 2 -44 -2 -94 -10 -49
-7 -97 -14 -105 -14 -11 0 -23 25 -39 84 -25 90 -36 115 -42 98z"/>
<path d="M3324 4048 c-4 -6 -3 -8 3 -5 13 8 36 -17 25 -28 -4 -5 -1 -5 6 -1
11 6 10 12 -4 27 -20 22 -21 22 -30 7z"/>
<path d="M4987 3988 c27 -117 39 -127 88 -71 18 21 33 42 34 47 2 8 -98 45
-121 46 -3 0 -4 -10 -1 -22z"/>
<path d="M6228 3913 c-49 -19 -88 -39 -88 -44 0 -18 113 -190 120 -182 15 16
77 263 66 263 -6 -1 -50 -17 -98 -37z"/>
<path d="M6368 3921 c5 -36 2 -35 47 -14 40 19 45 33 13 33 -13 0 -32 3 -44 6
-18 5 -20 2 -16 -25z"/>
<path d="M3575 3903 c12 -66 17 -67 70 -13 l49 50 -63 0 -63 0 7 -37z"/>
<path d="M5110 3900 l-54 -27 108 -72 107 -72 14 35 c8 20 15 41 15 48 0 8
-31 36 -68 64 l-68 51 -54 -27z"/>
<path d="M7076 3893 c4 -16 8 -29 9 -31 2 -2 23 7 47 19 38 19 41 23 23 30
-11 4 -35 8 -53 8 -30 1 -32 -1 -26 -26z"/>
<path d="M3363 3887 c0 -8 6 -14 14 -14 9 0 10 4 2 14 -6 7 -12 13 -14 13 -1
0 -2 -6 -2 -13z"/>
<path d="M4756 3852 c-2 -4 4 -8 14 -8 10 0 16 4 14 8 -3 4 -9 8 -14 8 -5 0
-11 -4 -14 -8z"/>
<path d="M2255 3827 c-55 -11 -101 -21 -103 -22 -6 -5 41 -234 48 -230 11 7
163 265 159 269 -2 1 -49 -6 -104 -17z"/>
<path d="M4913 3808 c15 -71 43 -168 47 -167 3 0 26 33 52 72 l48 72 -67 22
c-83 28 -87 28 -80 1z"/>
<path d="M3676 3811 c-3 -4 32 -38 78 -74 l84 -65 92 -8 91 -7 -16 39 c-9 22
-21 51 -27 67 -5 15 -15 27 -21 27 -7 0 -57 7 -112 15 -116 17 -162 18 -169 6z"/>
<path d="M5367 3699 l-38 -48 38 -51 38 -51 3 50 c2 28 2 73 0 100 l-3 48 -38
-48z"/>
<path d="M7609 3668 c15 -40 31 -81 34 -91 6 -16 12 -14 52 18 25 21 45 40 45
44 0 6 -144 101 -153 101 -3 0 7 -33 22 -72z"/>
<path d="M3110 3670 c0 -5 5 -10 11 -10 5 0 7 5 4 10 -3 6 -8 10 -11 10 -2 0
-4 -4 -4 -10z"/>
<path d="M5250 3575 c-35 -50 -32 -50 -113 -19 -54 21 -45 25 -93 -41 -14 -18
-16 -18 -27 -4 -27 36 -78 91 -82 87 -6 -6 -35 -181 -35 -211 0 -19 -22 -59
-65 -119 -36 -50 -64 -93 -62 -95 7 -6 227 60 227 69 0 5 -8 25 -19 46 -41 83
-42 82 43 82 42 0 76 -3 76 -7 0 -3 -7 -14 -15 -23 -15 -16 -13 -20 15 -44 17
-14 41 -26 52 -26 15 0 176 93 215 124 3 2 -77 219 -82 224 -2 2 -17 -18 -35
-43z"/>
<path d="M4250 3576 c0 -2 8 -10 18 -17 15 -13 16 -12 3 4 -13 16 -21 21 -21
13z"/>
<path d="M5862 3496 c-36 -48 -40 -57 -35 -95 5 -40 9 -44 58 -66 97 -42 91
-46 85 48 -4 63 -11 92 -30 124 -14 24 -28 43 -31 43 -4 0 -25 -24 -47 -54z"/>
<path d="M4703 3494 c-9 -4 -8 -15 5 -41 16 -34 17 -34 23 -12 15 54 8 67 -28
53z"/>
<path d="M6350 3399 c-12 -33 -20 -63 -17 -65 2 -3 42 -4 88 -2 l84 3 -66 62
-66 63 -23 -61z"/>
<path d="M4347 3354 l-48 -96 113 6 c62 4 114 9 116 11 4 4 -120 174 -128 175
-3 0 -27 -43 -53 -96z"/>
<path d="M2263 3403 c-18 -9 -33 -20 -33 -24 0 -4 18 -47 40 -95 l40 -89 0
113 c0 61 -3 112 -7 111 -5 0 -23 -8 -40 -16z"/>
<path d="M4773 3393 c-25 -5 -27 -11 -13 -33 7 -12 12 -12 29 4 21 19 28 37
14 35 -5 -1 -18 -4 -30 -6z"/>
<path d="M3631 3300 c-29 -38 -57 -70 -61 -70 -3 0 -35 25 -69 56 -34 31 -64
54 -66 52 -3 -3 -17 -58 -32 -122 -21 -91 -24 -119 -15 -125 7 -4 56 -18 108
-31 90 -23 98 -27 140 -73 l44 -49 95 71 94 71 -74 122 c-41 68 -83 133 -93
146 l-18 23 -53 -71z"/>
<path d="M6172 3284 c-37 -45 -30 -50 46 -37 l43 8 -29 34 -28 34 -32 -39z"/>
<path d="M5861 3130 c-6 -28 -11 -58 -11 -65 0 -23 32 -18 107 16 l68 31 -65
33 c-36 19 -70 34 -77 35 -6 0 -16 -23 -22 -50z"/>
<path d="M4080 3016 c-63 -73 -115 -137 -117 -143 -4 -10 192 -203 207 -203 4
0 20 25 36 55 l30 54 -17 181 c-10 100 -19 183 -21 185 -2 2 -55 -56 -118
-129z"/>
<path d="M4528 3054 c-43 -36 -78 -69 -77 -72 0 -4 42 -72 93 -152 l92 -145
140 -16 c76 -9 142 -14 147 -12 12 7 44 74 102 219 31 75 63 149 72 165 9 16
14 31 11 35 -4 3 -77 -33 -163 -80 -113 -63 -160 -84 -169 -77 -9 7 -16 7 -23
0 -8 -8 -27 14 -70 79 -32 50 -62 98 -68 106 -8 12 -24 3 -87 -50z"/>
<path d="M5200 3070 c-30 -27 -65 -49 -77 -50 -13 0 -23 -2 -23 -5 0 -2 5 -27
11 -55 10 -48 21 -61 34 -40 3 6 12 10 19 10 11 0 10 -13 -2 -66 -8 -36 -12
-68 -9 -71 3 -3 27 -8 52 -11 l46 -5 -27 69 c-36 93 -36 106 1 119 17 5 35 16
40 23 11 13 8 132 -3 132 -4 0 -32 -22 -62 -50z"/>
<path d="M6441 3021 c0 -47 4 -108 7 -135 l7 -50 120 -33 c66 -18 123 -32 128
-30 12 4 118 269 113 283 -6 17 -86 36 -171 40 -44 3 -108 6 -142 8 l-63 4 1
-87z"/>
<path d="M5450 3035 c0 -11 72 -115 79 -115 4 0 8 20 10 45 2 39 -1 46 -21 54
-46 17 -68 22 -68 16z"/>
<path d="M5631 2902 c-24 -75 -46 -143 -48 -149 -3 -9 10 -13 46 -13 50 0 50
0 107 -70 53 -64 61 -70 95 -70 37 0 38 1 45 48 5 26 7 51 6 55 -1 5 4 47 13
95 8 48 15 90 15 94 0 4 -32 -4 -72 -18 -39 -13 -77 -24 -84 -24 -7 0 -27 43
-44 95 -17 52 -32 95 -33 95 -1 0 -22 -62 -46 -138z"/>
<path d="M4325 2928 c-11 -52 -56 -390 -53 -394 6 -5 165 101 193 128 20 19
20 19 -49 153 -37 74 -72 135 -77 135 -5 0 -11 -10 -14 -22z"/>
<path d="M4275 2900 c-3 -5 1 -10 9 -10 9 0 16 5 16 10 0 6 -4 10 -9 10 -6 0
-13 -4 -16 -10z"/>
<path d="M2030 2743 c1 -5 7 -19 14 -31 l13 -24 16 26 c23 34 22 36 -13 36
-16 0 -30 -3 -30 -7z"/>
<path d="M4997 2660 c-3 -8 -8 -32 -12 -52 -4 -28 -11 -38 -24 -38 -23 0 -32
-12 -59 -79 l-22 -54 46 7 46 6 -7 -50 c-4 -28 -5 -50 -2 -50 3 0 46 25 97 56
83 51 98 57 161 62 41 3 69 9 69 16 0 6 -3 28 -6 49 l-7 37 -91 0 -91 0 -47
52 c-33 38 -48 49 -51 38z"/>
<path d="M5677 2574 c-4 -22 -2 -25 17 -20 11 3 35 6 51 6 l30 1 -25 13 c-53
28 -67 29 -73 0z"/>
<path d="M8151 2443 c16 -48 32 -94 34 -101 3 -9 21 -1 60 25 30 21 54 40 54
43 0 5 -154 112 -171 118 -4 2 6 -36 23 -85z"/>
<path d="M5884 2459 c3 -17 6 -35 6 -39 0 -10 67 -50 83 -49 11 0 97 101 97
113 0 3 -43 6 -96 6 l-96 0 6 -31z"/>
<path d="M3523 2464 c-5 -14 31 -64 48 -64 6 0 39 61 39 74 0 3 -18 6 -40 6
-28 0 -43 -5 -47 -16z"/>
<path d="M4536 2456 c-13 -20 -46 -150 -46 -181 0 -1 12 -6 28 -9 15 -4 35 -9
44 -12 16 -5 17 3 11 93 -3 54 -9 106 -13 117 -6 16 -8 16 -24 -8z"/>
<path d="M6742 2349 l-73 -50 103 -66 c57 -35 123 -78 147 -94 24 -16 46 -27
48 -25 7 7 -131 286 -141 285 -6 0 -44 -23 -84 -50z"/>
<path d="M4042 2352 c-42 -22 -50 -30 -40 -40 11 -11 4 -20 -32 -50 -25 -20
-62 -53 -83 -72 l-38 -35 74 -53 c69 -48 80 -52 131 -52 31 0 56 -5 56 -10 0
-8 -65 -183 -105 -282 -11 -27 19 -23 114 17 45 19 84 35 86 35 1 0 6 -38 10
-85 l7 -86 46 -23 c89 -45 87 -46 105 36 31 139 31 167 6 195 -20 20 -21 26
-9 33 17 11 23 5 -75 66 -44 27 -95 59 -114 71 l-34 23 54 1 c30 1 86 0 125
-1 l71 -2 21 99 c11 53 19 99 17 102 -2 2 -34 -1 -70 -6 l-65 -10 -98 68 c-53
37 -96 72 -94 78 3 16 -7 13 -66 -17z"/>
<path d="M4415 2310 c-10 -16 4 -30 32 -30 25 0 26 0 8 20 -20 22 -31 25 -40
10z"/>
<path d="M4918 2284 c-57 -6 -140 -15 -184 -19 l-82 -7 -60 -101 -61 -102 30
-3 c31 -4 42 -17 182 -232 63 -96 68 -108 63 -145 -4 -33 -1 -43 15 -53 11 -7
17 -17 14 -22 -3 -5 0 -12 6 -16 8 -5 9 -3 4 6 -5 8 -3 11 6 8 8 -3 14 -11 14
-18 0 -7 7 -15 15 -17 13 -4 13 -3 0 6 -19 14 -5 14 21 0 11 -5 16 -15 13 -21
-4 -6 -3 -8 3 -5 10 6 126 -66 119 -74 -3 -3 6 -6 19 -7 15 -1 25 4 27 16 2
12 12 2 31 -31 15 -26 30 -47 33 -47 6 0 -31 63 -58 99 -11 15 -18 41 -18 68
0 29 -8 56 -25 83 -22 34 -23 40 -9 48 13 7 9 13 -20 36 -20 15 -45 45 -56 66
-17 33 -18 43 -8 60 16 25 24 25 31 0 5 -19 6 -19 61 5 30 13 92 43 136 65
l80 40 0 85 0 85 -34 0 c-18 0 -61 3 -95 6 l-61 7 0 72 c0 84 18 77 -152 59z"/>
<path d="M5862 2196 c-51 -122 -51 -113 8 -121 28 -4 53 -5 55 -3 4 4 -20 196
-26 202 -2 2 -19 -33 -37 -78z"/>
<path d="M5595 2233 c14 -87 14 -87 34 -69 10 9 32 36 50 61 l32 45 -61 0 -61
0 6 -37z"/>
<path d="M7490 2233 c0 -5 9 -19 20 -33 20 -26 18 -28 35 25 3 11 -4 15 -25
15 -17 0 -30 -3 -30 -7z"/>
<path d="M5563 2090 l-22 -50 27 -14 c15 -7 37 -16 48 -20 l22 -7 -22 71 c-11
38 -23 70 -26 70 -3 0 -15 -23 -27 -50z"/>
<path d="M1800 2046 c0 -2 7 -7 16 -10 8 -3 12 -2 9 4 -6 10 -25 14 -25 6z"/>
<path d="M3051 1968 c-24 -30 -24 -30 -3 -24 12 3 31 9 42 12 17 4 18 8 7 25
-15 24 -17 24 -46 -13z"/>
<path d="M2953 1888 l-42 -43 20 -24 19 -23 101 37 101 38 -54 23 c-95 40 -98
40 -145 -8z"/>
<path d="M5911 1856 l-53 -54 39 -4 c21 -3 97 -6 168 -7 l130 -1 -112 60 c-62
33 -114 60 -116 60 -1 0 -27 -24 -56 -54z"/>
<path d="M3230 1779 c-27 -5 -51 -18 -62 -31 -9 -13 -15 -24 -14 -25 3 -4 117
41 142 55 18 11 18 11 -1 11 -11 -1 -40 -5 -65 -10z"/>
<path d="M5579 1722 c-19 -15 -48 -38 -65 -51 l-29 -23 70 -64 70 -64 3 107
c1 58 -1 110 -5 114 -4 4 -24 -4 -44 -19z"/>
<path d="M3190 1658 l0 -41 -138 6 -138 6 -22 -61 c-12 -34 -21 -62 -19 -64 6
-6 203 -102 223 -108 17 -5 25 2 50 46 l29 53 3 -51 3 -51 144 41 c80 23 144
44 142 47 -3 10 -266 219 -274 219 -2 0 -3 -19 -3 -42z"/>
<path d="M4144 1670 c14 -78 16 -134 5 -140 -9 -6 -9 -16 1 -41 7 -19 18 -76
25 -126 l11 -93 -55 -20 c-157 -58 -193 -73 -196 -84 -2 -6 -5 -53 -8 -103
l-4 -93 113 -127 c63 -69 114 -131 114 -136 0 -5 7 -4 15 3 17 14 42 11 136
-18 l67 -20 16 107 c9 58 16 112 16 119 0 17 -18 11 -68 -22 -60 -39 -43 -11
43 74 54 53 62 66 47 70 -18 5 -178 178 -171 184 12 12 139 77 139 72 0 -4 -9
-25 -21 -47 -11 -23 -19 -42 -17 -43 2 -1 56 -40 121 -85 l118 -83 -7 -70 -7
-71 43 47 c33 35 46 44 56 35 10 -8 16 -3 28 20 9 16 16 36 16 43 0 7 14 30
30 50 17 20 28 43 25 50 -3 8 -30 26 -61 41 -30 15 -56 33 -58 40 -21 76 -31
106 -42 127 -7 14 -30 77 -51 140 -25 74 -39 105 -41 90 -4 -30 -102 -240
-113 -240 -8 0 -49 159 -49 190 0 17 -6 20 -50 20 l-50 0 -48 66 c-74 104 -73
103 -68 74z"/>
<path d="M3630 1481 c-41 -32 -78 -54 -81 -50 -3 5 -27 0 -52 -11 l-47 -21 31
-46 c32 -46 48 -46 49 2 0 17 5 15 29 -14 l28 -34 67 112 c36 62 66 115 66
117 0 11 -21 -2 -90 -55z"/>
<path d="M5487 1430 c-46 -58 -47 -61 -33 -88 14 -28 6 -65 -11 -49 -4 5 -1
12 7 17 9 6 10 10 3 10 -18 0 -27 -20 -15 -32 8 -8 15 -8 26 1 11 10 17 8 30
-10 8 -12 12 -27 9 -33 -3 -6 -3 -8 2 -4 4 4 14 3 22 -3 11 -10 13 11 13 120
0 72 -1 131 -2 131 -2 0 -24 -27 -51 -60z"/>
<path d="M5410 1400 c-9 -16 -8 -20 5 -20 8 0 15 9 15 20 0 11 -2 20 -5 20 -2
0 -9 -9 -15 -20z"/>
<path d="M6175 1378 c11 -8 46 -29 78 -46 l57 -32 0 34 c0 19 -3 37 -7 39 -5
3 -39 8 -78 12 -62 6 -68 5 -50 -7z"/>
<path d="M5850 1302 c-19 -37 -36 -70 -38 -73 -2 -5 74 -39 89 -39 5 0 -8 170
-14 176 -2 2 -18 -27 -37 -64z"/>
<path d="M6105 1305 c14 -174 17 -195 24 -195 8 0 134 50 140 56 2 2 -29 43
-69 91 -110 133 -102 129 -95 48z"/>
<path d="M7225 1338 c14 -46 20 -50 39 -29 17 19 17 20 -14 36 -32 16 -32 16
-25 -7z"/>
<path d="M5335 1331 c-3 -5 -2 -12 3 -15 5 -3 9 1 9 9 0 17 -3 19 -12 6z"/>
<path d="M4877 1313 c-3 -5 -8 -24 -11 -43 -3 -19 -15 -68 -25 -109 -11 -41
-18 -78 -16 -82 3 -3 38 -26 80 -50 41 -23 75 -45 75 -48 0 -3 -5 -13 -10 -21
-9 -13 -13 -11 -30 10 -11 14 -20 23 -21 20 0 -3 -6 -60 -13 -127 l-11 -121
28 -9 28 -8 -110 -159 c-61 -87 -111 -162 -111 -166 0 -5 21 -29 46 -55 25
-26 43 -49 41 -51 -3 -3 -64 8 -137 24 l-133 29 6 -79 c6 -85 6 -87 114 -208
l40 -44 66 53 c55 43 67 58 67 82 0 16 5 29 10 29 8 0 160 118 160 125 0 1
-13 26 -30 56 -16 30 -30 59 -30 65 0 9 204 104 223 104 3 0 0 -21 -5 -46 -6
-25 -8 -48 -5 -51 3 -2 35 19 71 48 l66 53 0 152 0 152 47 41 47 42 20 -33
c11 -18 21 -34 22 -36 1 -2 28 10 60 26 l58 29 -55 18 c-74 24 -73 24 -48 51
12 13 21 25 18 27 -2 2 -15 8 -29 14 -14 6 -69 31 -122 56 l-97 46 -17 -76
c-17 -69 -21 -77 -51 -89 -43 -18 -41 -19 -48 20 -5 23 0 49 16 85 12 28 20
53 18 54 -28 19 -165 132 -199 164 -45 44 -55 49 -63 36z m263 -524 c0 -6 -4
-7 -10 -4 -5 3 -10 11 -10 16 0 6 5 7 10 4 6 -3 10 -11 10 -16z"/>
<path d="M4985 1300 c3 -5 8 -10 11 -10 2 0 4 5 4 10 0 6 -5 10 -11 10 -5 0
-7 -4 -4 -10z"/>
<path d="M5098 1303 c6 -2 18 -2 25 0 6 3 1 5 -13 5 -14 0 -19 -2 -12 -5z"/>
<path d="M3380 1212 l0 -70 -70 -10 c-60 -9 -80 -8 -136 8 l-65 19 6 -28 6
-28 -108 -17 c-59 -9 -116 -16 -125 -16 -21 0 -24 -12 -85 -300 -37 -178 -37
-179 -14 -257 27 -89 27 -97 1 -83 -11 6 -20 7 -20 2 0 -12 34 -42 47 -42 15
0 26 -50 14 -64 -7 -9 0 -28 23 -67 18 -30 31 -60 28 -68 -3 -8 0 -11 6 -7 6
4 18 -7 28 -25 15 -30 15 -33 -4 -58 -10 -14 -23 -26 -28 -26 -5 0 -19 19 -32
43 -13 23 -27 42 -31 42 -5 0 -47 -35 -95 -77 l-88 -78 193 -3 193 -2 42 41
42 41 27 -41 28 -41 273 0 c250 0 274 2 283 17 9 17 10 17 16 1 10 -27 41 -22
93 15 25 17 50 35 55 38 5 4 -9 30 -31 58 l-41 51 -37 -67 c-22 -38 -40 -61
-42 -52 -2 8 -20 31 -40 51 -35 37 -37 37 -60 22 -28 -18 -27 -18 -64 50 l-20
40 33 27 c19 15 36 26 38 23 2 -2 9 6 15 18 16 32 34 33 47 4 10 -21 19 -26
50 -26 28 0 41 -5 49 -20 9 -17 21 -20 78 -20 l67 0 15 37 15 37 32 -48 c18
-26 34 -53 36 -59 2 -7 19 1 41 21 20 17 42 32 47 32 6 0 20 11 31 25 11 14
24 25 29 25 6 0 22 14 36 30 16 20 34 30 51 30 l27 -1 -24 -19 c-12 -11 -27
-17 -32 -14 -5 3 -9 -1 -9 -9 0 -8 -7 -20 -16 -28 -8 -7 -13 -21 -11 -31 3
-10 0 -18 -6 -19 -7 0 -2 -4 9 -9 12 -5 38 -39 59 -77 21 -37 47 -83 57 -102
16 -27 17 -36 6 -43 -8 -5 6 -7 37 -6 46 3 50 5 53 31 4 31 -4 34 -38 10 -24
-17 -24 -16 4 22 16 22 39 51 51 65 32 35 39 53 65 157 23 91 24 93 53 93 l30
0 -9 53 c-10 68 -11 106 -1 141 7 25 6 28 -6 18 -16 -14 -27 -6 -27 20 0 10 7
18 18 18 13 1 10 6 -13 25 l-29 24 -12 -27 c-6 -15 -33 -45 -60 -68 l-49 -41
-95 13 c-112 14 -139 17 -161 15 -10 -1 -49 -25 -87 -55 -39 -30 -74 -51 -78
-48 -4 4 -4 2 -1 -4 3 -6 -7 -21 -23 -33 -34 -24 -36 -34 -16 -73 l15 -28 -37
19 c-20 10 -78 38 -129 62 l-92 45 14 27 c7 15 12 27 11 27 -2 0 -23 -7 -46
-15 -42 -15 -60 -13 -60 6 0 6 5 7 12 3 7 -4 8 -3 4 5 -4 6 -11 9 -16 6 -10
-6 -22 23 -15 35 3 5 -5 6 -17 3 -13 -3 -31 -6 -40 -6 -9 -1 -16 -6 -15 -12 1
-5 -6 -9 -15 -7 -10 1 -28 -4 -41 -13 -23 -15 -24 -14 -36 26 -9 28 -17 39
-27 35 -17 -7 -18 10 0 92 15 74 9 77 -68 38 -26 -13 -45 -19 -43 -12 2 6 12
35 21 64 10 28 21 50 24 48 4 -2 8 7 8 20 1 15 -5 25 -18 30 -23 7 -21 16 29
91 36 55 38 57 41 31 4 -32 12 -35 119 -41 65 -4 71 -2 70 14 -2 24 -23 32
-49 18 -14 -7 -4 11 27 50 57 72 63 58 -82 183 l-93 79 0 -69z m-364 -567 c1
0 4 -12 8 -27 5 -23 3 -27 -25 -33 -17 -4 -32 -5 -35 -3 -2 3 -7 26 -10 52
l-7 47 34 -18 c19 -10 34 -18 35 -18z m154 -4 c18 -7 20 -10 8 -10 -32 -2 -19
-19 20 -26 20 -3 68 -13 105 -22 l69 -15 -79 -39 c-43 -21 -87 -39 -98 -39
-20 0 -59 -20 -41 -20 6 0 -5 -16 -24 -35 -30 -31 -32 -37 -22 -60 6 -14 16
-25 22 -25 6 0 8 -5 4 -12 -4 -6 3 -4 17 5 26 19 54 23 44 7 -3 -6 1 -7 9 -4
9 3 13 10 10 15 -3 5 -2 9 3 9 4 0 19 3 33 7 14 3 -19 -28 -77 -71 -56 -43
-107 -75 -113 -71 -6 4 -10 3 -9 -2 4 -22 -3 -23 -20 -2 l-20 24 50 47 c50 48
58 61 37 56 -15 -2 -128 30 -128 37 0 3 21 16 48 29 26 13 67 45 92 71 l45 47
-63 -4 c-34 -2 -62 0 -62 3 0 3 11 16 25 29 13 12 36 40 51 62 15 21 30 34 33
29 4 -6 18 -14 31 -20z m-225 -237 c13 -5 10 -10 -15 -25 -40 -25 -44 -24 -24
6 18 28 17 27 39 19z"/>
<path d="M3135 511 c-3 -5 0 -13 6 -17 8 -5 9 -3 4 6 -6 10 -4 12 9 7 10 -4
15 -3 11 3 -8 13 -22 13 -30 1z"/>
<path d="M5418 1233 c12 -2 30 -2 40 0 9 3 -1 5 -23 4 -22 0 -30 -2 -17 -4z"/>
<path d="M6131 1043 c5 -27 14 -73 20 -103 l11 -54 29 79 c16 43 29 80 29 82
0 5 -79 43 -88 43 -6 0 -6 -19 -1 -47z"/>
<path d="M6975 1023 c-27 -14 -52 -27 -54 -29 -2 -2 29 -42 69 -89 40 -47 75
-84 77 -81 3 2 0 40 -6 83 -18 127 -22 143 -29 143 -4 -1 -29 -13 -57 -27z"/>
<path d="M3610 1005 c-37 -20 -32 -49 16 -86 46 -36 48 -43 35 -100 -10 -45
-7 -51 44 -76 79 -40 82 -39 93 14 6 26 14 70 17 96 6 47 5 49 -45 107 -29 33
-55 58 -60 55 -4 -3 -11 -29 -15 -60 -7 -62 -14 -71 -41 -49 -18 15 -18 15 0
10 17 -6 18 -2 12 31 -3 21 -6 43 -6 49 0 19 -24 23 -50 9z"/>
<path d="M5754 948 c-4 -7 -14 -23 -22 -35 -14 -22 -14 -23 19 -11 44 14 43
13 26 38 -11 17 -17 18 -23 8z"/>
<path d="M2269 933 c-1 -5 -1 -11 0 -15 0 -5 -3 -9 -9 -9 -21 -3 -26 -6 -83
-42 -31 -21 -63 -40 -71 -43 -8 -3 -16 -18 -18 -34 -2 -16 -1 -27 2 -25 10 6
32 -74 24 -88 -4 -6 -3 -8 2 -4 7 7 137 -354 135 -378 -1 -5 -3 -35 -5 -65 -2
-30 -18 -93 -36 -139 -17 -46 -29 -85 -27 -88 3 -2 54 -2 115 -1 l111 3 -40
84 c-22 46 -38 85 -37 86 2 2 50 -34 108 -80 58 -46 108 -81 112 -79 3 2 12
21 19 42 6 20 22 60 34 87 12 28 25 58 28 68 4 10 17 17 34 17 l27 0 -21 21
-21 21 24 59 c33 80 33 136 1 252 -15 55 -24 104 -20 110 3 5 1 7 -5 3 -6 -3
-13 6 -17 25 -4 19 -16 34 -30 39 -30 11 -39 28 -26 44 13 16 4 27 -15 19 -8
-3 -14 0 -14 7 0 6 -5 8 -11 5 -11 -7 -91 22 -181 67 -34 16 -64 25 -74 21
-12 -4 -15 -3 -10 5 4 7 5 12 2 12 -3 0 -7 -3 -7 -7z"/>
<path d="M3345 909 c-4 -6 -5 -12 -2 -15 2 -3 7 2 10 11 7 17 1 20 -8 4z"/>
<path d="M2516 892 c-3 -5 1 -9 9 -9 8 0 12 4 9 9 -3 4 -7 8 -9 8 -2 0 -6 -4
-9 -8z"/>
<path d="M3545 890 c27 -12 43 -12 25 0 -8 5 -22 9 -30 9 -10 0 -8 -3 5 -9z"/>
<path d="M3495 820 c-3 -5 3 -10 14 -10 12 0 21 5 21 10 0 6 -6 10 -14 10 -8
0 -18 -4 -21 -10z"/>
<path d="M3968 773 c7 -3 16 -2 19 1 4 3 -2 6 -13 5 -11 0 -14 -3 -6 -6z"/>
<path d="M3619 741 l-22 -30 -46 25 -46 24 -17 -37 c-24 -54 -23 -55 31 -51
48 3 48 3 34 -19 -9 -13 -20 -20 -27 -16 -6 3 -8 3 -4 -2 4 -4 3 -14 -4 -22
-6 -7 -8 -16 -4 -20 7 -7 258 -44 263 -39 2 2 -2 27 -9 57 -12 57 -30 82 -90
130 l-37 30 -22 -30z"/>
<path d="M5763 661 c-84 -58 -153 -108 -153 -112 0 -6 301 -61 307 -56 2 3 2
65 1 139 l-3 135 -152 -106z"/>
<path d="M4036 752 c-2 -4 4 -8 14 -8 10 0 16 4 14 8 -3 4 -9 8 -14 8 -5 0
-11 -4 -14 -8z"/>
<path d="M2673 666 c0 -7 9 -19 19 -25 18 -11 18 -11 2 14 -19 29 -21 30 -21
11z"/>
<path d="M4208 593 c7 -3 16 -2 19 1 4 3 -2 6 -13 5 -11 0 -14 -3 -6 -6z"/>
<path d="M6250 526 c0 -7 -3 -29 -6 -47 l-7 -34 36 34 c33 31 35 35 19 47 -22
17 -42 17 -42 0z"/>
<path d="M5467 516 c-5 -13 91 -106 110 -106 4 0 18 24 29 53 l22 52 -47 7
c-76 11 -108 9 -114 -6z"/>
<path d="M6233 419 l-102 -40 61 -100 c34 -55 65 -96 69 -92 5 6 80 277 75
272 -1 0 -47 -18 -103 -40z"/>
<path d="M3605 250 c-3 -5 -1 -10 4 -10 6 0 11 5 11 10 0 6 -2 10 -4 10 -3 0
-8 -4 -11 -10z"/>
<path d="M5349 203 l-36 -49 21 -30 c46 -65 56 -78 58 -73 2 2 1 48 -2 102
l-5 98 -36 -48z"/>
<path d="M4070 147 c-36 -50 -73 -104 -83 -119 l-19 -28 125 0 126 0 -39 116
c-22 65 -41 118 -42 119 -2 2 -32 -38 -68 -88z"/>
<path d="M3568 223 c7 -3 16 -2 19 1 4 3 -2 6 -13 5 -11 0 -14 -3 -6 -6z"/>
<path d="M5046 45 c-14 -18 -26 -36 -26 -39 0 -3 43 -6 95 -6 74 0 95 3 95 14
0 7 -8 16 -17 19 -10 2 -41 14 -70 25 l-51 21 -26 -34z"/>
<path d="M5832 30 l-23 -30 41 0 c36 0 40 2 31 18 -25 42 -27 43 -49 12z"/>
</g>
</svg>
