<?xml version="1.0" standalone="no"?>
<!DOCTYPE svg PUBLIC "-//W3C//DTD SVG 20010904//EN"
 "http://www.w3.org/TR/2001/REC-SVG-20010904/DTD/svg10.dtd">
<svg version="1.0" xmlns="http://www.w3.org/2000/svg"
 width="993.000000pt" height="812.000000pt" viewBox="0 0 993.000000 812.000000"
 preserveAspectRatio="xMidYMid meet">

<g transform="translate(0.000000,812.000000) scale(0.100000,-0.100000)"
fill="#000000" stroke="none">
<path d="M4049 8103 c25 -43 27 -44 49 -13 l23 30 -41 0 c-36 0 -40 -2 -31
-17z"/>
<path d="M4720 8107 c0 -6 30 -24 68 -39 l67 -26 27 31 c15 18 28 35 28 40 0
4 -43 7 -95 7 -70 0 -95 -3 -95 -13z"/>
<path d="M5527 8113 c-10 -9 -9 -53 1 -53 4 0 19 8 32 17 24 17 24 16 -4 -22
-16 -22 -39 -51 -51 -65 -32 -35 -39 -53 -65 -157 -23 -91 -24 -93 -53 -93
l-30 0 9 -52 c10 -69 11 -107 1 -142 -7 -25 -6 -28 6 -18 16 14 27 6 27 -20 0
-10 -7 -18 -17 -18 -14 -1 -11 -6 12 -25 l29 -24 12 27 c6 15 33 45 60 68 l49
41 95 -13 c112 -14 139 -17 161 -15 10 1 49 25 87 55 39 30 74 51 78 48 4 -4
4 -2 1 4 -3 6 7 21 23 33 34 24 36 34 16 73 l-15 28 37 -19 c20 -10 78 -38
129 -62 l92 -45 -14 -27 c-7 -15 -12 -27 -11 -27 2 0 23 7 46 15 42 15 60 13
60 -6 0 -6 -5 -7 -12 -3 -7 4 -8 3 -4 -5 4 -6 11 -9 16 -6 10 6 22 -23 15 -35
-3 -5 5 -6 17 -3 13 3 31 6 40 6 9 1 16 6 15 12 -1 5 6 9 15 7 10 -1 28 4 41
13 23 15 24 14 36 -26 9 -28 17 -39 27 -35 17 7 18 -10 0 -91 -15 -75 -9 -78
68 -39 26 13 45 19 43 12 -2 -6 -12 -35 -21 -64 -10 -28 -21 -50 -24 -48 -4 2
-8 -7 -8 -20 -1 -15 5 -25 18 -30 23 -7 21 -16 -29 -91 -36 -55 -38 -57 -41
-31 -4 32 -12 35 -119 41 -65 4 -71 2 -70 -14 2 -24 23 -32 49 -18 14 7 4 -11
-27 -50 -57 -72 -63 -58 83 -183 l92 -79 0 69 0 70 70 10 c60 9 80 8 136 -8
l65 -19 -6 28 -6 28 108 17 c59 9 116 16 125 16 21 0 24 12 85 300 37 178 37
179 14 257 -27 89 -27 97 -1 83 11 -6 20 -7 20 -2 0 12 -34 42 -47 42 -15 0
-26 50 -14 64 7 9 0 28 -23 67 -18 30 -31 60 -28 68 3 8 0 11 -6 7 -6 -4 -18
7 -28 25 -15 30 -15 33 4 58 10 14 23 26 28 25 5 0 19 -20 32 -42 13 -23 27
-42 31 -42 5 0 47 35 95 78 l88 77 -193 3 -193 2 -42 -41 -42 -41 -27 41 -28
41 -273 0 c-250 0 -274 -2 -283 -17 -9 -17 -10 -17 -16 0 -10 26 -41 21 -93
-15 -25 -18 -50 -36 -55 -39 -5 -4 9 -30 31 -58 l41 -51 37 67 c22 38 40 61
42 52 2 -8 20 -31 40 -51 35 -37 37 -37 60 -22 28 18 27 18 64 -50 l20 -40
-33 -27 c-19 -15 -36 -26 -38 -23 -2 2 -9 -6 -15 -18 -16 -32 -34 -33 -47 -4
-10 21 -19 26 -50 26 -28 0 -41 5 -49 20 -9 17 -21 20 -78 20 l-67 0 -15 -37
-15 -37 -32 48 c-18 26 -34 53 -36 59 -2 7 -19 -1 -41 -21 -20 -17 -42 -32
-47 -32 -6 0 -20 -11 -31 -25 -11 -14 -24 -25 -29 -25 -6 0 -22 -13 -36 -30
-16 -20 -34 -30 -51 -30 l-27 1 24 19 c12 11 27 17 32 14 5 -3 9 1 9 9 0 8 7
20 16 28 8 7 13 21 11 31 -3 10 0 18 6 19 7 0 2 4 -9 9 -12 5 -38 39 -59 77
-21 37 -47 83 -57 102 -16 27 -17 36 -6 42 8 6 -4 9 -33 9 -25 0 -49 -3 -52
-7z m1342 -295 c-50 -48 -58 -61 -36 -56 14 2 127 -30 127 -37 0 -3 -21 -16
-47 -29 -27 -13 -68 -45 -93 -71 l-45 -47 63 4 c34 2 62 0 62 -3 0 -3 -11 -16
-25 -29 -13 -12 -36 -40 -51 -62 -15 -21 -30 -34 -33 -29 -4 6 -18 14 -31 20
-18 7 -20 10 -7 10 31 2 18 19 -20 26 -21 3 -69 13 -106 22 l-69 15 79 39 c43
21 87 39 98 39 20 0 59 20 41 20 -6 0 5 16 24 35 30 31 32 37 22 60 -6 14 -16
25 -22 25 -6 0 -8 5 -4 12 4 6 -3 4 -17 -5 -26 -19 -54 -23 -44 -7 3 6 -1 7
-9 4 -9 -3 -13 -10 -10 -15 3 -5 2 -9 -3 -9 -4 0 -19 -3 -33 -7 -14 -3 19 28
77 71 56 43 107 75 113 71 6 -4 10 -3 9 2 -4 22 3 23 20 2 l20 -24 -50 -47z
m155 -83 c-18 -28 -17 -27 -39 -19 -13 5 -11 10 12 25 39 25 46 23 27 -6z
m-50 -226 c3 -17 6 -40 6 -50 0 -17 -1 -17 -32 -1 -18 9 -33 17 -34 17 -1 0
-4 12 -8 27 -5 20 -2 28 11 31 41 11 51 7 57 -24z"/>
<path d="M6785 7620 c6 -10 4 -12 -11 -6 -15 6 -17 5 -6 -5 9 -9 15 -10 23 -2
8 8 7 13 -2 18 -8 6 -10 4 -4 -5z"/>
<path d="M5752 8000 l40 -120 70 97 c38 53 77 107 85 120 l15 23 -125 0 -126
0 41 -120z"/>
<path d="M7527 8103 c4 -10 22 -49 40 -87 19 -37 33 -70 31 -71 -2 -2 -50 34
-108 80 -58 46 -108 81 -112 79 -3 -2 -12 -21 -19 -42 -6 -20 -22 -59 -34 -87
-12 -27 -25 -58 -28 -67 -4 -11 -17 -18 -34 -18 l-27 0 21 -21 21 -21 -24 -59
c-33 -80 -33 -136 -1 -252 15 -55 24 -104 20 -110 -3 -5 -1 -7 5 -3 6 3 13 -6
17 -25 4 -19 16 -34 30 -39 30 -11 39 -28 26 -44 -13 -16 -4 -27 15 -19 8 3
14 0 14 -7 0 -6 5 -8 11 -5 11 7 91 -22 181 -67 34 -16 64 -25 74 -21 13 5 15
3 9 -7 -5 -9 -4 -11 4 -6 6 4 9 12 6 17 -4 5 -1 10 4 10 22 3 27 5 84 42 31
21 63 40 71 43 8 3 16 18 18 34 2 16 1 27 -2 25 -10 -6 -32 74 -24 88 4 6 3 8
-2 4 -7 -7 -137 354 -135 378 1 6 3 35 5 65 2 30 18 92 35 138 17 45 31 85 31
87 0 3 -52 5 -115 5 -105 0 -114 -1 -108 -17z"/>
<path d="M7880 8112 c0 -5 13 -15 30 -22 36 -15 30 -30 -11 -30 -41 0 -36 -14
16 -50 l45 -31 -48 -77 c-26 -42 -51 -85 -55 -95 -4 -10 -10 -16 -15 -13 -8 5
-9 1 -15 -77 -2 -26 0 -43 3 -36 9 14 24 -18 21 -46 -1 -17 17 -87 74 -289 10
-36 11 -53 3 -63 -8 -10 -7 -13 5 -13 9 0 18 -15 24 -39 l10 -39 -63 -27 c-35
-15 -64 -30 -64 -34 0 -3 20 -17 44 -29 l44 -24 -15 -36 c-8 -21 -21 -48 -28
-63 -8 -14 -15 -60 -16 -103 -3 -72 -18 -116 -38 -116 -10 0 -42 74 -67 154
-18 56 -21 60 -72 84 -61 27 -61 26 -2 112 l41 60 -44 0 c-35 0 -49 -6 -71
-29 -20 -20 -35 -28 -51 -25 -13 2 -26 1 -29 -4 -2 -4 7 -8 21 -8 21 1 28 -5
34 -28 5 -17 7 -32 5 -34 -5 -4 -106 48 -106 55 0 2 5 1 12 -3 7 -5 8 -3 3 5
-5 9 -10 10 -18 2 -5 -5 -22 -7 -38 -4 -24 5 -30 1 -48 -36 -20 -38 -26 -42
-114 -69 -123 -37 -126 -53 -24 -104 55 -27 77 -34 86 -25 8 8 11 0 11 -30 0
-23 3 -48 6 -57 4 -11 1 -16 -10 -16 -17 0 -15 -4 42 -80 2 -3 8 3 13 12 5 10
16 15 24 12 17 -7 21 -25 4 -21 -5 1 -20 -23 -33 -53 l-22 -55 -95 -6 c-52 -4
-97 -5 -102 -2 -4 2 -4 50 0 105 7 111 10 108 -55 60 -47 -35 -55 -19 -32 57
27 84 26 88 -11 83 -39 -6 -71 23 -94 86 -10 26 -21 50 -24 55 -4 4 -13 -26
-20 -67 -11 -70 -14 -75 -39 -78 l-27 -3 21 -18 c20 -18 20 -22 8 -75 -8 -32
-14 -61 -14 -66 0 -4 41 -5 90 -1 91 7 105 3 73 -21 -17 -12 -13 -18 37 -68
37 -38 49 -56 37 -56 -9 0 -17 -3 -17 -7 0 -4 41 -49 91 -99 l92 -92 -10 -39
c-6 -21 -14 -46 -18 -55 -5 -14 0 -20 21 -28 16 -6 78 -32 137 -57 115 -49
114 -48 91 -107 -5 -13 3 -16 49 -16 31 0 68 5 82 10 21 8 37 6 72 -10 55 -24
50 -24 56 0 5 18 15 20 133 22 l128 3 -105 57 c-57 32 -108 59 -112 61 -8 2
-87 398 -82 405 1 1 30 -2 63 -6 43 -6 62 -5 62 2 0 15 223 116 255 116 30 0
31 -9 4 -61 -11 -23 -19 -42 -17 -44 2 -2 34 14 72 36 37 21 71 39 76 39 8 0
16 -23 36 -104 6 -27 5 -28 -22 -22 -32 7 -276 27 -279 24 -1 -2 -27 -64 -57
-138 -56 -134 -58 -142 -42 -218 4 -18 26 -34 99 -68 52 -25 95 -49 95 -55 0
-5 3 -8 8 -7 4 1 20 -5 35 -12 25 -12 26 -15 10 -21 -10 -3 -54 -7 -98 -8 -87
-2 -145 -10 -145 -20 1 -3 11 -80 24 -171 13 -91 22 -167 20 -169 -1 -1 -8 17
-14 40 -41 161 -65 237 -71 226 -3 -6 -9 -56 -12 -110 l-7 -99 39 -66 c21 -37
48 -77 60 -90 25 -27 28 -54 6 -46 -19 8 -19 8 10 -192 14 -93 26 -194 28
-224 2 -30 12 -98 22 -150 26 -140 27 -134 -23 -138 -35 -3 -42 -6 -38 -19 4
-8 1 -22 -5 -29 -6 -8 -9 -25 -7 -39 8 -38 -6 -30 -51 30 l-42 56 35 58 c20
32 36 64 36 70 0 14 -119 235 -204 379 -35 59 -69 118 -76 131 l-12 23 118 -7
117 -8 -5 24 c-3 13 -25 125 -49 247 l-44 224 -75 -7 c-47 -4 -79 -12 -86 -21
-7 -8 -19 -12 -28 -8 -15 6 -17 2 -11 -30 5 -24 2 -52 -8 -79 -84 -230 -111
-303 -117 -310 -4 -4 -15 4 -24 18 -14 21 -20 24 -32 14 -8 -6 -14 -9 -14 -7
0 7 115 305 139 362 12 27 20 51 17 53 -2 2 -41 -1 -87 -7 -62 -9 -109 -9
-179 -1 -52 6 -148 14 -212 17 -89 4 -118 9 -118 19 0 16 35 21 303 36 108 7
196 13 194 15 -8 8 -312 216 -318 217 -7 2 -309 -252 -309 -260 0 -3 18 -3 39
-1 22 2 37 -1 34 -6 -3 -5 -50 -6 -103 -3 -89 5 -106 10 -178 46 -84 42 -92
52 -92 107 0 28 5 37 28 46 l27 11 -27 10 c-26 10 -28 15 -28 70 0 51 -2 58
-17 54 -55 -15 -125 -29 -129 -25 -2 3 16 19 41 37 49 35 56 50 24 58 -11 3
-18 11 -16 17 3 6 8 18 11 26 4 9 0 24 -7 34 -14 18 -15 18 -55 -4 -24 -14
-49 -21 -62 -17 -19 5 -21 2 -16 -18 4 -14 1 -25 -7 -28 -8 -3 -3 -16 16 -43
27 -38 27 -39 7 -48 -11 -5 -20 -15 -20 -23 0 -7 -4 -13 -9 -13 -13 0 -21 27
-14 46 8 21 -23 45 -99 80 -32 15 -58 28 -58 29 0 1 7 20 16 41 13 32 17 35
25 21 15 -25 24 -21 52 22 l27 40 -41 -14 c-36 -13 -40 -13 -35 0 19 46 12 44
-38 -9 -30 -33 -53 -63 -50 -68 9 -15 -10 -8 -65 22 -67 37 -78 37 -86 1 -5
-24 10 -53 106 -200 101 -154 114 -171 140 -171 33 0 52 23 75 93 11 35 19 46
27 38 7 -7 7 -21 -1 -48 -9 -28 -9 -39 0 -45 14 -8 38 9 38 28 0 28 21 23 89
-21 66 -43 96 -69 52 -45 -17 8 -23 4 -43 -33 -32 -55 -58 -112 -58 -126 0 -6
12 -11 28 -11 26 0 24 -3 -32 -54 l-60 -53 115 -86 114 -86 155 -6 155 -6 32
28 c21 19 33 41 38 68 l6 41 -126 69 -126 70 51 3 c50 3 51 2 204 -110 108
-80 152 -118 149 -129 -4 -14 -11 -15 -51 -6 -50 10 -43 15 -109 -71 l-22 -30
59 -16 c52 -15 60 -20 60 -41 0 -13 7 -25 15 -27 12 -2 10 -12 -11 -47 l-27
-43 -31 58 -31 59 -80 9 c-53 6 -84 14 -92 25 -10 14 -14 14 -47 -2 -39 -18
-86 -21 -186 -10 l-62 6 23 19 24 20 -82 -6 -83 -6 -35 54 -36 54 25 61 c14
33 26 63 26 66 0 3 -22 5 -48 5 l-49 0 -66 -96 c-37 -53 -64 -100 -62 -104 2
-4 37 -12 77 -19 106 -19 116 -30 28 -32 -41 0 -97 -4 -124 -7 l-49 -7 -18
-64 c-20 -71 -21 -67 34 -133 26 -31 48 -48 62 -48 74 0 118 -37 74 -60 -27
-15 -24 -28 11 -48 16 -9 32 -28 35 -42 l7 -25 19 23 18 23 108 -21 c59 -12
122 -25 138 -30 17 -4 47 -11 68 -15 32 -5 37 -10 37 -33 0 -62 7 -68 82 -82
38 -7 66 -16 61 -20 -4 -4 -34 -18 -65 -30 -32 -13 -58 -27 -58 -31 0 -5 27
-27 60 -49 33 -22 60 -43 60 -45 0 -3 -34 -23 -76 -46 l-77 -42 45 -43 c35
-33 57 -44 104 -54 75 -16 77 -17 59 -43 -25 -36 -17 -39 34 -12 62 31 78 26
74 -23 -7 -76 -26 -182 -33 -182 -5 0 -76 66 -160 147 -118 114 -154 143 -161
132 -5 -8 -33 -53 -61 -101 -47 -77 -55 -87 -87 -92 -60 -10 -81 -7 -81 10 0
13 7 15 41 9 l41 -7 -7 83 c-4 46 -8 85 -9 85 -9 9 -212 106 -216 103 -3 -2
-4 -10 -2 -16 6 -28 -14 -10 -35 30 -14 26 -27 78 -34 135 -6 50 -16 92 -21
92 -5 0 -21 -13 -36 -28 -15 -16 -64 -57 -109 -91 -82 -61 -93 -74 -73 -86 18
-11 10 -36 -25 -80 l-35 -42 107 -7 c60 -4 138 -7 176 -8 l67 -1 -7 -36 c-16
-84 -17 -84 75 -100 82 -14 100 -24 61 -34 -22 -6 -19 -18 20 -67 18 -21 21
-22 21 -7 0 10 4 17 9 15 16 -5 151 -180 146 -188 -5 -8 25 -24 32 -16 5 5 10
49 12 101 l1 39 40 -39 c22 -21 36 -41 31 -44 -10 -7 -11 -42 -1 -36 9 5 52
-40 45 -46 -3 -3 8 -4 23 -1 20 2 34 -4 52 -23 21 -23 22 -25 5 -19 -12 4 -17
3 -12 -2 5 -5 -20 -13 -60 -19 -60 -10 -71 -9 -95 8 -16 10 -28 15 -28 11 0
-3 -8 0 -17 7 -10 7 -7 1 6 -13 14 -16 29 -24 39 -21 10 5 13 2 8 -6 -5 -8 -1
-14 13 -18 11 -3 18 -10 14 -16 -4 -6 -1 -7 8 -2 21 14 112 12 127 -3 7 -6 25
-12 39 -12 17 0 27 -7 30 -21 5 -18 11 -20 39 -16 40 7 42 2 12 -30 l-21 -23
36 0 c34 0 38 4 68 60 17 33 35 60 39 60 4 0 13 13 20 30 14 33 16 34 123 51
86 13 91 17 102 92 4 26 14 54 21 62 8 8 14 32 13 57 -1 50 24 215 57 366 4
19 11 22 49 22 29 0 45 -4 45 -12 0 -7 -20 -132 -45 -278 -24 -145 -43 -265
-42 -266 1 -1 21 1 45 6 25 4 42 4 42 -2 0 -5 15 -8 33 -6 25 2 31 7 29 23 -1
12 34 75 83 150 47 71 85 136 85 145 0 8 -11 75 -25 149 -14 74 -25 136 -25
139 0 2 -18 2 -39 -2 l-39 -6 -11 62 c-6 34 -9 63 -7 65 1 2 19 -3 38 -11 l36
-15 60 63 61 63 35 -36 c19 -20 44 -61 56 -91 12 -30 28 -65 35 -77 8 -12 10
-23 5 -25 -5 -2 -5 -21 0 -48 45 -234 44 -229 22 -268 -20 -37 -20 -38 -2
-127 9 -49 20 -104 23 -122 l6 -31 -92 -17 c-51 -9 -100 -18 -109 -21 -13 -4
-16 -1 -12 9 5 13 -3 13 -56 2 -34 -7 -63 -14 -65 -16 -2 -3 -12 -38 -23 -79
-17 -68 -21 -75 -42 -72 -13 1 -25 4 -27 6 -2 1 3 35 10 74 10 51 11 72 3 72
-6 0 -81 -12 -168 -27 l-156 -26 -36 -68 -36 -67 68 -7 c85 -8 162 -16 162
-18 0 -1 -7 -24 -15 -51 -20 -64 -20 -63 18 -70 17 -3 112 -24 209 -47 l178
-42 40 27 c22 14 42 26 45 26 4 0 35 -55 35 -64 0 -2 -16 -14 -35 -26 -19 -12
-35 -25 -35 -29 0 -5 27 -14 60 -21 33 -7 60 -16 60 -20 0 -4 12 -7 28 -7 15
0 47 -6 71 -12 l44 -13 -44 -39 c-24 -21 -53 -44 -63 -50 -18 -10 -19 -8 -14
28 l5 38 -129 31 -130 31 -101 -62 c-197 -120 -196 -119 -272 -223 -40 -55
-77 -102 -83 -105 -12 -8 -54 22 -46 34 3 5 13 8 21 7 10 -2 47 35 97 97 78
97 87 104 228 190 80 50 143 93 140 96 -4 3 -92 28 -195 54 l-189 48 6 31 c11
51 19 116 15 116 -185 8 -434 31 -441 42 -6 10 -18 3 -46 -28 -20 -22 -54 -51
-75 -64 -21 -12 -36 -24 -35 -26 2 -2 85 -22 183 -44 99 -23 185 -43 192 -45
7 -2 -7 -58 -42 -167 -29 -90 -55 -171 -57 -181 -2 -14 8 -23 44 -37 46 -17
46 -17 52 4 3 11 19 86 36 166 16 80 32 155 35 168 4 18 12 22 41 22 19 0 37
-6 40 -13 3 -8 -6 -45 -19 -83 -13 -38 -37 -111 -52 -161 -16 -51 -34 -93 -40
-93 -6 0 -19 -23 -29 -50 -16 -44 -36 -67 -36 -41 0 5 -13 11 -29 14 -16 3
-40 9 -54 12 -22 6 -26 3 -32 -24 -3 -17 -18 -47 -32 -67 -13 -21 -26 -54 -28
-73 -3 -32 1 -39 26 -54 38 -21 35 -26 -65 -127 -77 -77 -79 -78 -166 -101
-49 -12 -87 -26 -84 -30 2 -4 22 -10 44 -14 22 -4 40 -11 40 -16 0 -6 4 -8 8
-5 10 6 83 -12 96 -24 4 -5 0 -31 -9 -60 l-17 -52 -42 5 c-22 4 -55 9 -72 12
l-30 7 -11 -74 c-5 -40 -9 -74 -8 -76 1 -1 52 22 112 51 98 48 108 55 87 63
-24 9 -23 9 17 43 l40 33 145 6 c101 3 147 9 155 18 16 20 -33 79 -83 99 l-42
16 43 25 c52 29 53 29 119 4 29 -11 59 -17 65 -13 7 3 92 68 190 142 l179 135
-167 33 c-92 17 -170 35 -174 39 -3 3 8 4 24 0 90 -18 400 -55 405 -49 45 56
79 116 48 85 -7 -7 -16 -12 -20 -12 -5 0 13 22 39 49 l48 49 23 -21 22 -20 0
63 0 63 31 -7 c17 -3 42 -6 56 -6 13 0 22 -4 19 -8 -3 -5 8 -6 25 -4 24 4 29
1 29 -17 0 -19 -10 -26 -33 -22 -5 1 -6 -3 -2 -9 3 -5 -6 -22 -20 -36 -27 -27
-27 -47 -1 -25 8 7 21 9 27 5 8 -4 9 -3 5 4 -4 7 -4 12 1 13 4 0 16 2 26 4 24
5 21 -5 -13 -47 l-31 -37 23 -5 c13 -3 57 -7 98 -11 152 -11 152 -13 2 -88
-72 -37 -135 -67 -139 -67 -5 0 -8 8 -8 18 0 9 -10 32 -23 49 -13 18 -20 38
-16 44 5 8 3 9 -5 5 -8 -5 -14 -1 -18 12 -8 32 -28 33 -47 1 -9 -16 -25 -29
-36 -29 -10 0 -84 -48 -164 -107 -80 -60 -163 -121 -186 -136 -22 -16 -40 -31
-40 -35 0 -4 58 -26 128 -50 116 -38 138 -42 226 -42 68 0 101 -4 111 -14 11
-11 8 -16 -21 -30 -44 -21 -47 -20 -34 4 10 20 8 20 -141 20 -84 0 -150 -2
-148 -4 2 -1 40 -16 84 -31 44 -15 91 -32 105 -37 22 -8 12 -16 -110 -80 -74
-38 -137 -72 -139 -74 -3 -2 10 -25 27 -49 30 -43 51 -104 52 -150 0 -20 -4
-20 -82 -14 -198 17 -296 24 -345 22 l-52 -1 -72 114 c-39 63 -73 114 -75 114
-2 0 -31 -14 -64 -32 -61 -32 -70 -44 -47 -67 10 -10 3 -12 -33 -7 -25 3 -97
8 -162 12 l-116 6 -89 -72 -88 -72 -9 26 c-6 14 -13 25 -16 24 -181 -77 -231
-102 -214 -108 11 -4 60 -16 111 -26 84 -16 91 -20 78 -34 -20 -22 -10 -30 36
-30 33 0 41 -5 55 -31 20 -40 19 -41 -115 -73 -57 -14 -106 -27 -108 -30 -2
-2 12 -17 32 -33 20 -15 58 -45 83 -65 26 -21 50 -38 54 -38 4 0 30 42 59 93
56 101 38 85 264 228 38 24 106 72 150 105 l81 62 23 -33 c18 -27 20 -37 11
-54 -10 -20 -8 -21 52 -22 53 0 59 -2 41 -11 -13 -6 -23 -15 -23 -20 0 -5 -5
-6 -12 -2 -6 4 -8 3 -5 -3 4 -6 0 -16 -8 -23 -12 -10 -19 -10 -32 1 -16 13
-17 12 -5 -2 11 -14 8 -21 -20 -44 l-32 -27 33 -60 33 -59 -34 6 c-30 6 -36 3
-46 -20 -16 -34 1 -41 51 -20 20 8 38 15 41 15 3 0 30 -44 62 -97 31 -54 74
-126 96 -161 29 -47 36 -67 29 -79 -10 -20 24 -78 40 -68 5 4 41 51 80 106 54
76 75 98 89 94 21 -7 43 17 34 38 -8 21 11 30 36 17 21 -11 30 3 10 15 -8 5
-7 11 1 21 13 16 9 29 -81 222 -34 74 -60 136 -58 138 6 5 174 -84 185 -98 6
-7 48 -86 94 -175 l84 -162 102 107 c56 59 102 110 102 114 1 4 -44 30 -99 58
-55 28 -100 54 -100 58 0 4 21 28 48 54 46 45 48 46 125 50 75 5 79 4 98 -21
l21 -26 21 27 c21 26 27 27 145 34 123 7 123 7 147 38 22 29 23 36 15 111 -5
44 -9 89 -10 100 0 15 -24 32 -93 68 -158 81 -265 147 -239 147 13 0 20 4 17
10 -3 6 0 10 8 10 8 0 21 10 30 22 14 23 15 22 56 -43 36 -57 49 -70 93 -88
28 -11 65 -21 82 -21 18 0 41 -7 52 -15 26 -20 34 -19 34 5 0 16 7 20 35 20
32 0 35 -2 25 -20 -10 -19 2 -28 144 -108 4 -2 6 8 3 24 -3 16 -9 48 -12 72
-7 41 -6 42 21 42 15 0 35 -6 43 -14 13 -11 30 -12 79 -5 72 10 82 7 82 -25 0
-18 -14 -28 -80 -56 -43 -18 -77 -37 -74 -41 3 -5 34 -25 69 -45 36 -19 67
-40 70 -44 5 -9 -36 -39 -92 -69 -21 -11 -22 -10 -17 17 6 27 3 30 -28 35 -18
4 -79 9 -134 13 l-101 7 -8 -118 c-7 -109 -6 -120 11 -133 47 -34 49 -34 142
27 l90 59 33 -35 34 -36 -41 23 -41 22 -36 -23 c-35 -23 -37 -26 -37 -84 0
-33 -3 -77 -6 -98 -6 -30 -10 -36 -25 -32 -10 3 -32 -1 -49 -10 -31 -16 -31
-16 -20 5 6 12 10 23 8 24 -7 6 -150 47 -153 44 -2 -2 14 -27 37 -57 24 -31
37 -56 31 -62 -5 -5 -70 -40 -145 -78 -122 -62 -196 -111 -168 -111 5 0 7 -6
4 -14 -3 -8 -1 -17 4 -20 5 -3 8 6 6 19 -3 35 7 31 39 -17 l29 -40 -24 -44
c-20 -39 -24 -42 -35 -27 -16 21 -17 9 -2 -16 10 -15 2 -36 -44 -122 l-56
-105 23 -35 c24 -34 25 -35 127 -46 57 -7 105 -17 107 -23 3 -7 8 -8 16 -1 7
6 29 8 49 4 31 -5 35 -8 25 -20 -7 -9 -26 -13 -52 -11 l-41 3 -37 -105 c-20
-58 -38 -113 -41 -122 -4 -16 -17 -12 -102 27 -53 25 -102 45 -108 45 -6 0
-100 -59 -208 -131 -199 -132 -209 -141 -209 -201 0 -25 3 -27 75 -39 70 -11
92 -23 62 -34 -7 -3 -72 4 -146 15 -166 25 -161 25 -161 -3 0 -22 9 -26 123
-51 67 -16 125 -31 129 -35 5 -4 -14 -53 -42 -109 -30 -62 -47 -108 -43 -118
4 -12 -3 -25 -23 -40 -18 -15 -25 -27 -19 -33 8 -7 148 -61 159 -61 2 0 6 28
10 62 4 35 13 99 21 143 8 44 17 117 20 163 7 79 8 82 32 82 24 0 25 -1 19
-57 -14 -141 -18 -194 -19 -277 l-2 -88 103 -36 c77 -28 102 -41 102 -54 0
-15 -14 -13 -111 22 -61 22 -115 40 -120 40 -5 0 -9 -13 -9 -30 0 -36 -8 -37
-84 -10 l-56 19 -37 -72 c-31 -62 -37 -69 -45 -52 -8 18 -8 18 -4 -3 2 -13 -2
-35 -10 -50 -8 -15 -14 -32 -14 -37 0 -6 34 -26 75 -44 42 -19 70 -38 64 -41
-6 -4 136 -8 315 -9 179 -1 326 0 326 3 0 2 -17 42 -39 88 l-38 84 -97 33
c-83 29 -95 36 -84 48 12 11 28 8 111 -21 l97 -35 -25 54 -24 55 38 0 c37 0
38 0 71 -78 41 -95 44 -99 81 -107 34 -8 35 -16 9 -74 -11 -24 -20 -45 -20
-47 0 -2 144 -4 321 -4 l321 1 24 27 c19 22 23 24 24 10 0 -10 3 -18 8 -18 4
0 36 43 72 95 36 52 70 95 76 95 6 0 29 -6 50 -14 36 -12 46 -11 124 13 65 20
86 31 88 46 2 11 9 25 14 30 8 7 9 4 4 -8 -3 -10 -6 -27 -6 -37 0 -15 -17 -24
-77 -43 l-78 -24 122 -38 c68 -21 121 -40 119 -42 -2 -3 -78 16 -168 41 -90
25 -169 46 -174 46 -8 0 -64 -79 -117 -167 -7 -11 88 -13 533 -13 l540 0 0
4060 0 4060 -874 0 -875 0 -45 -56 c-26 -31 -46 -60 -46 -64 0 -5 57 -38 128
-75 70 -37 135 -73 145 -80 20 -14 25 -12 -71 -30 -21 -4 -39 2 -73 27 -24 18
-78 54 -119 81 -84 55 -90 61 -83 88 5 17 8 17 33 4 l28 -14 -17 57 -17 57
-82 3 c-45 2 -82 -1 -82 -6z m1239 -260 c112 -12 207 -24 212 -29 12 -13 110
-185 107 -189 -3 -2 -62 66 -119 139 -15 18 -42 23 -240 42 l-224 22 -44 -23
c-40 -22 -46 -23 -61 -9 -16 15 -19 14 -28 -14 -6 -17 -16 -31 -21 -31 -17 0
-13 -30 4 -36 12 -5 13 -9 4 -20 -9 -12 -15 -12 -28 -2 -14 12 -14 11 -2 -4
11 -14 11 -18 1 -18 -8 0 -10 -3 -7 -7 4 -3 18 4 32 17 25 23 26 23 62 6 l36
-17 -40 -25 -41 -24 10 -42 c6 -24 13 -56 17 -73 5 -22 -7 -74 -46 -195 l-52
-165 45 -42 45 -43 -10 -57 c-11 -54 -10 -58 14 -83 14 -14 25 -29 25 -32 0
-7 -168 37 -177 45 -2 3 5 30 15 61 l19 57 -89 82 c-49 45 -93 83 -98 85 -5 2
-48 -14 -97 -34 -73 -31 -101 -37 -160 -38 l-72 -1 52 22 c29 13 69 31 90 41
l38 17 -140 124 c-77 68 -143 133 -147 143 -3 11 -8 17 -11 14 -3 -3 -27 15
-53 40 -26 25 -56 51 -65 58 -13 9 -14 15 -7 20 7 4 32 -12 59 -36 27 -24 79
-70 118 -103 38 -33 107 -95 152 -138 l81 -78 37 19 c35 18 40 27 92 168 71
194 73 203 62 210 -5 3 -6 10 -3 16 4 7 2 8 -5 4 -6 -4 -25 3 -42 15 l-31 22
23 19 c13 10 32 23 42 29 17 10 18 8 12 -19 -5 -25 -3 -31 15 -37 11 -3 18
-11 15 -16 -3 -5 1 -6 9 -3 9 3 16 2 16 -4 0 -5 9 -12 20 -15 11 -3 20 -10 20
-17 0 -6 -5 -8 -12 -4 -7 4 -8 3 -4 -4 9 -14 -4 -63 -14 -57 -5 3 -12 0 -16
-6 -4 -8 -3 -9 4 -5 16 9 7 -37 -26 -143 -25 -76 -30 -85 -65 -102 l-38 -20
87 -82 c48 -45 89 -83 93 -84 3 -2 38 100 77 226 l71 230 -44 36 c-38 32 -43
41 -38 65 5 22 1 33 -22 54 -26 24 -26 26 -10 39 17 12 17 13 -2 13 -11 0 -17
-5 -14 -11 3 -5 -5 0 -18 13 l-24 23 40 34 c47 41 58 42 78 13 l16 -23 0 28
c1 24 5 27 34 27 31 0 36 4 51 43 l17 42 67 -71 67 -72 204 -20z m-679 -2 c0
-5 -4 -10 -10 -10 -5 0 -10 5 -10 10 0 6 5 10 10 10 6 0 10 -4 10 -10z m689
-969 c-78 -129 -162 -282 -157 -286 2 -2 96 48 210 111 l206 116 83 158 c46
87 85 158 86 156 2 -2 -30 -74 -71 -162 l-74 -159 -105 -65 c-57 -36 -168
-103 -245 -150 l-141 -85 -32 -87 c-17 -49 -33 -88 -34 -88 -12 0 -35 14 -35
21 0 5 32 76 71 158 48 101 76 148 84 144 18 -6 42 37 25 47 -8 5 7 46 53 138
59 119 66 141 78 234 l14 103 3 -134 c2 -122 1 -136 -19 -170z m-478 -118 l50
-93 -17 -55 -18 -56 -41 3 -40 3 -18 -86 -18 -86 59 -159 58 -159 48 -3 c40
-3 47 -6 41 -20 -4 -9 -9 -24 -12 -33 -3 -11 -20 -19 -45 -22 -22 -3 -42 -8
-45 -10 -2 -3 8 -24 23 -46 15 -23 24 -44 20 -48 -3 -4 7 -20 22 -37 16 -17
73 -102 127 -188 53 -87 99 -158 100 -158 2 0 15 34 30 75 15 41 32 75 37 75
22 0 17 -33 -17 -100 -20 -39 -35 -78 -33 -85 8 -36 234 -422 240 -411 12 20
178 473 178 484 0 5 -18 49 -40 96 -22 47 -58 124 -80 171 -21 47 -37 85 -35
85 2 0 44 -78 94 -173 l90 -172 -98 -270 -98 -270 -97 -133 c-54 -72 -100
-132 -103 -132 -2 0 -2 4 1 8 3 4 39 61 80 126 42 65 76 123 76 128 0 12 -233
408 -240 408 -3 0 -25 -34 -48 -75 -29 -49 -50 -75 -62 -75 -36 0 -110 40
-114 63 -16 80 -15 85 39 209 l54 123 -36 65 c-139 252 -181 345 -188 413 -5
46 -12 67 -21 67 -7 0 -50 -13 -94 -29 -94 -35 -90 -42 -60 102 17 86 18 100
5 131 -14 33 -14 35 7 38 18 3 29 25 68 148 26 80 57 179 70 220 26 87 21 90
101 -57z m-791 -72 c0 -11 3 -26 6 -35 3 -9 2 -16 -3 -16 -5 0 -14 16 -20 35
-9 29 -9 35 3 35 8 0 14 -9 14 -19z m470 -659 c0 -4 -6 -14 -12 -21 -11 -10
-10 -12 2 -9 10 2 22 -25 44 -99 16 -57 27 -105 24 -108 -3 -4 -29 -12 -57
-20 -60 -16 -60 -17 -37 92 17 77 9 139 -20 160 -16 11 -13 13 19 13 20 0 37
-4 37 -8z m-1205 -312 c-10 -11 -21 -17 -24 -14 -3 3 3 12 13 20 28 20 32 17
11 -6z m1155 -121 l0 -49 53 0 c51 0 52 1 71 40 21 43 36 52 36 20 0 -11 -5
-20 -10 -20 -6 0 1 -18 15 -40 l25 -40 -42 -26 c-24 -14 -52 -32 -63 -39 -18
-11 -22 -9 -40 29 -18 37 -24 41 -61 44 l-41 3 15 75 c12 60 17 72 28 63 8 -7
14 -31 14 -60z m-1900 -35 c0 -18 -24 -44 -40 -44 -26 0 -25 14 3 33 23 17 37
21 37 11z m954 -52 c3 -6 -27 -18 -67 -27 -39 -10 -74 -19 -76 -21 -3 -3 62
-65 134 -127 27 -23 29 -28 17 -47 -17 -27 -10 -35 16 -19 22 14 35 5 157
-104 l50 -45 -39 -16 c-53 -22 -59 -20 -41 14 8 16 15 31 15 33 0 4 -172 -33
-178 -38 -2 -2 4 -19 12 -39 15 -36 15 -36 -11 -42 -26 -7 -169 22 -186 37 -5
3 1 13 13 22 l21 15 -25 4 c-19 4 -23 1 -19 -11 7 -21 -31 37 -57 89 l-21 40
28 25 c25 22 26 24 8 26 -11 1 -29 1 -40 0 -12 -1 -29 10 -41 26 -21 28 -54
88 -54 97 0 6 33 12 143 26 83 11 87 13 82 34 -4 11 -9 28 -11 37 -4 14 8 17
80 18 46 1 87 -2 90 -7z m-1050 -31 c11 -12 14 -21 7 -26 -17 -10 -13 -21 14
-35 14 -7 23 -15 21 -18 -3 -2 -30 11 -62 28 l-57 33 24 18 c30 23 32 23 53 0z
m2239 -357 c-5 -14 -1 -16 28 -10 32 6 39 2 82 -42 l48 -49 -77 -6 c-42 -4
-111 -7 -154 -7 -42 0 -81 -5 -87 -11 -7 -7 -21 -6 -48 5 -21 9 -39 15 -41 13
-2 -1 10 -23 26 -49 l29 -46 -70 -66 c-71 -67 -89 -78 -89 -51 0 11 -11 15
-40 15 -57 0 -52 21 25 107 37 41 63 77 60 85 -10 24 50 56 172 92 137 41 145
42 136 20z m-1627 -145 c41 -11 44 -14 44 -44 0 -18 3 -60 6 -94 6 -51 4 -61
-9 -61 -12 0 -14 8 -10 38 4 27 1 42 -11 51 -14 12 -14 17 -1 49 l15 37 -24
-29 c-23 -27 -25 -28 -47 -12 -21 14 -25 14 -47 0 -33 -22 -35 -14 -6 34 28
47 27 46 90 31z m1806 -246 c15 -19 5 -25 -27 -17 -23 6 -26 10 -21 38 2 17
11 74 18 126 l13 95 3 -114 c1 -65 8 -121 14 -128z m-292 148 c0 -5 3 -18 7
-28 6 -16 5 -16 -10 -4 -19 15 -23 41 -7 41 6 0 10 -4 10 -9z m-1280 -121 c0
-5 -5 -10 -11 -10 -5 0 -7 5 -4 10 3 6 8 10 11 10 2 0 4 -4 4 -10z m1374 -92
c14 -32 23 -58 21 -58 -31 0 -105 25 -102 33 32 81 41 97 48 90 4 -4 19 -34
33 -65z m-559 0 c3 -29 9 -62 12 -73 5 -17 4 -18 -10 -6 -9 7 -26 29 -38 47
-20 32 -20 36 -5 59 24 37 33 31 41 -27z m871 -230 c-10 -17 -11 -17 -20 0
-14 27 -15 27 -31 6 -8 -10 -15 -35 -15 -55 0 -24 -7 -42 -21 -55 -12 -10 -35
-36 -51 -57 l-31 -38 32 -33 c17 -17 31 -42 31 -54 0 -28 -4 -28 -41 6 -17 15
-34 25 -37 22 -12 -9 -194 -214 -219 -247 l-25 -32 21 -35 c25 -40 59 -49 188
-50 55 -1 73 -4 73 -15 0 -8 7 -19 16 -25 13 -10 8 -16 -35 -36 l-51 -23 -127
30 c-71 16 -129 29 -131 27 -2 -1 5 -19 16 -41 38 -74 37 -77 -17 -102 -41
-20 -56 -22 -87 -14 l-39 9 3 65 c3 64 4 64 65 126 33 34 59 64 56 66 -2 2
-59 12 -126 22 -68 10 -123 22 -123 27 0 4 6 8 13 8 9 0 8 3 -2 9 -30 19 27
27 158 22 l133 -6 24 28 c28 33 30 50 9 67 -8 7 -15 17 -15 22 0 6 39 55 87
110 66 76 100 106 143 128 64 32 67 38 90 195 7 44 14 87 17 95 2 8 21 -24 42
-70 29 -66 35 -89 27 -102z m-286 105 c3 -3 6 -57 8 -121 l3 -117 -90 90 -90
90 12 38 12 38 70 -6 c39 -4 72 -9 75 -12z m-419 -290 c9 -10 27 -63 39 -117
l23 -100 -23 -18 c-13 -10 -25 -17 -27 -14 -5 5 -63 255 -63 273 0 17 27 4 51
-24z m813 -8 c17 -42 17 -46 -3 -90 -11 -25 -23 -45 -26 -45 -4 0 -5 41 -4 90
2 50 6 90 10 90 3 0 14 -20 23 -45z m-65 -212 c2 -2 -2 -10 -9 -18 -12 -14
-15 -13 -35 5 -15 14 -21 29 -18 41 5 19 6 19 32 -3 14 -13 28 -24 30 -25z
m296 -200 l97 -153 62 -1 c59 -1 59 -2 21 -10 -90 -18 -83 -24 -195 147 -96
146 -136 223 -98 184 9 -8 59 -84 113 -167z m-1320 110 c11 -7 29 -13 40 -13
16 0 17 -2 5 -10 -25 -16 -70 -11 -101 11 -16 11 -29 24 -29 29 0 12 60 1 85
-17z m953 -68 c-10 -22 -8 -30 19 -63 42 -53 46 -62 30 -62 -9 0 -34 23 -58
51 l-43 52 29 23 c37 30 37 30 23 -1z m-735 -69 l39 -32 -47 -38 -46 -39 -37
34 c-20 19 -38 35 -40 36 -7 3 73 72 83 72 6 0 27 -15 48 -33z m907 -261 c95
-19 176 -38 179 -41 3 -4 -12 -4 -34 0 -22 3 -98 13 -170 21 -102 12 -134 20
-150 35 -11 11 -15 20 -9 20 6 0 89 -16 184 -35z m-88 -72 c44 -46 49 -58 151
-359 58 -172 103 -314 100 -317 -2 -3 10 -57 28 -120 l33 -115 60 -29 c32 -15
66 -27 75 -25 14 2 14 1 0 -8 -13 -7 -33 -2 -80 19 l-64 29 -34 103 -34 104
-23 -50 c-13 -28 -40 -84 -59 -125 -19 -41 -32 -66 -29 -55 3 11 8 28 11 37 4
13 -7 23 -41 40 -26 12 -46 29 -46 37 0 13 2 13 9 2 5 -7 27 -21 49 -31 l40
-18 41 101 41 101 -96 289 c-63 188 -99 285 -105 276 -6 -10 -27 7 -81 65 -40
43 -74 83 -76 87 -2 5 16 9 40 9 39 0 49 -5 90 -47z m-367 -74 c33 -65 31 -75
-9 -44 -26 20 -33 32 -32 55 1 16 -1 27 -5 24 -4 -2 -9 2 -12 10 -4 10 0 12
14 9 11 -3 31 -27 44 -54z m-1655 -468 l44 -18 -43 -22 c-36 -19 -48 -21 -70
-11 -17 7 -27 18 -27 33 0 41 26 46 96 18z m1866 -558 c13 -33 40 -94 59 -134
35 -73 44 -106 26 -94 -5 3 -12 19 -16 35 -4 17 -10 28 -15 25 -4 -3 -15 14
-24 38 -9 23 -31 74 -48 114 -20 46 -28 78 -23 90 6 15 8 15 12 3 3 -8 16 -43
29 -77z m-1656 27 c12 -8 12 -10 -5 -9 -11 0 -29 4 -40 9 -18 8 -18 9 5 9 14
0 32 -4 40 -9z m1688 -225 c3 -3 2 -8 -1 -12 -4 -3 -22 1 -40 11 l-32 17 34
-6 c19 -3 37 -7 39 -10z m-8 -320 c7 -9 8 -15 2 -15 -5 0 -12 7 -16 15 -3 8
-4 15 -2 15 2 0 9 -7 16 -15z m170 -79 c0 -13 -10 -31 -22 -42 -13 -10 -17
-12 -11 -4 12 17 13 19 13 56 0 14 4 23 10 19 6 -3 10 -16 10 -29z m433 -388
c-24 -45 -33 -54 -63 -59 l-35 -6 48 -13 c82 -22 43 -23 -51 -1 -49 12 -92 21
-95 21 -3 0 -70 -54 -149 -120 -78 -66 -151 -120 -162 -120 -17 0 -17 2 -4 23
43 65 43 63 21 90 l-20 26 -23 -75 c-16 -51 -29 -76 -42 -80 -11 -3 -21 -4
-23 -2 -1 1 -6 40 -10 86 l-7 82 60 0 c33 0 67 3 76 6 10 4 16 1 16 -7 0 -8 7
-22 14 -32 12 -16 22 -11 121 66 107 83 108 84 146 74 21 -5 63 -6 94 -2 52 6
56 9 81 51 36 61 41 55 7 -8z m-618 32 c3 -5 1 -10 -4 -10 -6 0 -11 5 -11 10
0 6 2 10 4 10 3 0 8 -4 11 -10z m-677 -352 c7 -7 12 -41 12 -81 l0 -69 -34 6
c-22 4 -37 2 -42 -5 -4 -8 -3 -9 4 -5 7 4 12 3 12 -2 0 -5 10 -24 23 -43 20
-30 22 -42 17 -104 -4 -38 -6 -71 -4 -73 1 -2 20 1 42 7 28 8 48 8 72 -1 30
-10 31 -12 14 -19 -11 -4 -78 -12 -148 -18 -152 -14 -160 -17 -150 -45 3 -11
7 -34 7 -49 0 -16 3 -24 6 -18 7 10 51 -68 51 -89 0 -6 -13 -10 -30 -10 -25 0
-32 6 -49 46 -12 25 -18 50 -15 55 3 5 1 9 -4 9 -13 0 -75 148 -66 161 4 7 3
9 -4 5 -6 -3 -14 -2 -17 4 -4 7 11 10 46 8 l52 -3 23 70 c40 119 55 155 63
151 4 -3 6 8 3 23 -2 15 3 44 12 64 14 34 19 37 53 37 22 0 44 -5 51 -12z
m435 -117 c9 -9 -42 -181 -54 -181 -6 0 -89 181 -89 195 0 10 133 -4 143 -14z
m527 -289 c116 55 150 69 150 64 0 -6 -302 -162 -330 -171 -23 -7 -23 -5 10
30 l35 38 -37 -6 c-36 -5 -37 -5 -27 19 13 35 12 37 -15 30 -19 -5 -29 0 -40
16 -21 30 -20 36 7 40 16 3 38 -11 82 -53 l60 -58 105 51z m-327 -67 c-10 -21
-20 -32 -26 -26 -5 5 -2 19 8 35 25 38 37 32 18 -9z m89 -67 c-7 -7 -12 -8
-12 -2 0 14 12 26 19 19 2 -3 -1 -11 -7 -17z m-517 -69 c-8 -23 -15 -43 -15
-45 0 -1 15 -4 33 -6 l32 -4 -32 -19 c-18 -11 -34 -28 -37 -37 -4 -17 -36 -26
-36 -10 0 6 34 118 45 150 2 6 9 12 14 12 6 0 4 -17 -4 -41z m310 -64 c0 -18
-8 -20 -71 -23 -64 -3 -72 -1 -77 17 -2 11 -2 23 1 26 3 3 38 4 77 3 62 -3 70
-5 70 -23z m182 -141 c-3 -3 -2 -17 3 -30 10 -26 -2 -32 -29 -15 -10 7 -11 13
-2 30 7 11 17 21 23 21 6 0 9 -3 5 -6z m-426 -69 c101 -34 102 -35 97 -40 -7
-7 -166 44 -173 56 -8 12 -9 12 76 -16z m137 -92 c-22 -51 -41 -74 -50 -65
-13 13 28 92 47 92 12 0 13 -5 3 -27z"/>
<path d="M8586 7862 c-2 -4 4 -8 14 -8 10 0 16 4 14 8 -3 4 -9 8 -14 8 -5 0
-11 -4 -14 -8z"/>
<path d="M8685 7860 c-3 -5 -2 -17 3 -27 9 -15 11 -14 20 4 15 27 -7 49 -23
23z"/>
<path d="M8651 7724 c0 -11 3 -14 6 -6 3 7 2 16 -1 19 -3 4 -6 -2 -5 -13z"/>
<path d="M7232 5178 c-30 -22 -52 -42 -50 -44 12 -11 77 22 93 48 9 16 15 31
13 33 -1 1 -27 -15 -56 -37z"/>
<path d="M7145 5130 c3 -5 8 -10 11 -10 2 0 4 5 4 10 0 6 -5 10 -11 10 -5 0
-7 -4 -4 -10z"/>
<path d="M8397 4519 c7 -7 15 -10 18 -7 3 3 -2 9 -12 12 -14 6 -15 5 -6 -5z"/>
<path d="M8480 3390 c-9 -6 -10 -10 -3 -10 6 0 15 5 18 10 8 12 4 12 -15 0z"/>
<path d="M8000 729 c0 -5 5 -7 10 -4 6 3 10 8 10 11 0 2 -4 4 -10 4 -5 0 -10
-5 -10 -11z"/>
<path d="M5153 8049 c-51 -41 -63 -56 -63 -80 0 -16 -5 -29 -10 -29 -8 0 -160
-118 -160 -125 0 -1 13 -26 30 -56 16 -30 30 -59 30 -65 0 -9 -204 -104 -223
-104 -3 0 0 21 5 46 6 25 8 48 5 51 -3 2 -35 -19 -71 -48 l-66 -53 0 -152 0
-152 -47 -41 -47 -42 -20 33 c-11 18 -21 34 -22 36 -1 2 -28 -10 -60 -26 l-58
-29 55 -18 c74 -24 73 -24 48 -51 -12 -13 -21 -25 -18 -27 2 -2 15 -8 29 -14
14 -6 69 -31 122 -56 l97 -46 17 76 c17 69 21 77 51 89 43 18 41 19 48 -20 5
-23 0 -49 -16 -85 -12 -28 -20 -53 -18 -54 28 -19 165 -132 199 -164 59 -57
63 -56 74 7 3 19 15 68 25 109 11 41 18 78 16 82 -3 3 -38 26 -80 50 -41 23
-75 45 -75 48 0 3 5 13 10 21 9 13 13 11 30 -10 11 -14 20 -23 21 -20 0 3 6
60 13 127 l11 121 -28 9 -28 8 110 159 c61 87 111 162 111 166 0 5 -21 29 -46
55 -25 26 -43 49 -41 51 3 3 64 -8 136 -24 l131 -29 -1 56 c-1 31 -4 68 -8 84
-6 26 -135 187 -149 187 -4 -1 -35 -23 -69 -51z m-343 -730 c0 -6 -4 -7 -10
-4 -5 3 -10 11 -10 16 0 6 5 7 10 4 6 -3 10 -11 10 -16z"/>
<path d="M4538 7969 c2 -56 5 -99 7 -97 2 1 19 23 38 48 l35 45 -37 52 c-20
29 -38 53 -41 53 -3 0 -4 -45 -2 -101z"/>
<path d="M3665 7928 c-3 -8 -21 -71 -38 -140 -31 -121 -32 -126 -12 -118 11 4
57 22 102 39 l82 32 -56 92 c-68 111 -71 114 -78 95z"/>
<path d="M6348 7893 c7 -3 16 -2 19 1 4 3 -2 6 -13 5 -11 0 -14 -3 -6 -6z"/>
<path d="M6310 7869 c0 -5 5 -7 10 -4 6 3 10 8 10 11 0 2 -4 4 -10 4 -5 0 -10
-5 -10 -11z"/>
<path d="M4324 7657 l-22 -52 75 -9 c103 -12 111 2 40 66 -28 26 -56 47 -62
48 -5 0 -20 -24 -31 -53z"/>
<path d="M3652 7637 c-30 -31 -31 -33 -12 -45 11 -6 24 -12 29 -12 8 0 25 79
18 86 -2 2 -18 -11 -35 -29z"/>
<path d="M4010 7491 l0 -141 88 61 c48 33 117 82 154 107 38 26 68 50 68 53 0
3 -56 15 -124 27 -69 12 -138 25 -155 28 l-31 7 0 -142z"/>
<path d="M6154 7549 c3 -13 9 -41 12 -62 5 -29 19 -49 63 -88 l56 -50 25 29
25 30 45 -24 45 -24 17 37 c24 54 23 55 -31 51 -48 -3 -48 -3 -34 19 9 13 20
20 27 16 6 -3 8 -3 4 2 -4 4 -3 15 4 22 18 22 1 28 -110 42 -53 6 -110 14
-126 18 -27 5 -28 3 -22 -18z"/>
<path d="M5708 7523 c7 -3 16 -2 19 1 4 3 -2 6 -13 5 -11 0 -14 -3 -6 -6z"/>
<path d="M7236 7465 c19 -29 21 -30 21 -11 0 7 -9 19 -19 25 -18 11 -18 11 -2
-14z"/>
<path d="M5546 7341 c-9 -58 -16 -112 -16 -118 0 -18 18 -12 68 21 60 39 43
11 -43 -74 -54 -53 -62 -66 -47 -70 18 -5 178 -178 171 -184 -12 -12 -139 -77
-139 -72 0 4 9 25 21 47 11 23 19 42 17 43 -2 1 -56 40 -121 85 l-118 83 7 70
7 71 -43 -47 c-33 -35 -46 -44 -56 -35 -10 8 -16 3 -28 -20 -9 -16 -16 -36
-16 -43 0 -7 -14 -30 -30 -50 -17 -20 -28 -43 -25 -50 3 -8 30 -26 61 -41 30
-15 56 -33 58 -40 21 -76 31 -106 42 -127 7 -14 30 -77 51 -140 25 -74 39
-105 41 -90 4 30 102 240 113 240 7 0 49 -159 49 -189 0 -17 8 -20 52 -23 l52
-3 55 -77 c30 -43 56 -76 57 -75 1 1 -3 35 -8 76 -6 55 -6 76 3 82 9 5 9 15
-1 40 -7 19 -18 76 -25 126 l-11 93 55 20 c157 58 193 73 196 84 2 6 5 53 8
103 l4 93 -113 127 c-63 69 -114 131 -114 136 0 5 -7 4 -15 -3 -17 -14 -42
-11 -136 18 l-67 20 -16 -107z"/>
<path d="M6132 7363 c-6 -26 -14 -70 -17 -96 -6 -47 -5 -49 45 -107 29 -33 55
-58 60 -55 4 3 11 29 15 60 7 62 14 71 41 49 18 -15 18 -15 0 -10 -17 6 -18 2
-11 -41 8 -57 20 -66 55 -48 37 19 32 47 -18 87 -44 35 -46 43 -33 99 10 45 7
51 -44 76 -79 40 -82 39 -93 -14z"/>
<path d="M5870 7366 c7 -7 13 -7 20 0 6 6 3 10 -10 10 -13 0 -16 -4 -10 -10z"/>
<path d="M5948 7343 c7 -3 16 -2 19 1 4 3 -2 6 -13 5 -11 0 -14 -3 -6 -6z"/>
<path d="M6400 7300 c0 -5 6 -10 14 -10 8 0 18 5 21 10 3 6 -3 10 -14 10 -12
0 -21 -4 -21 -10z"/>
<path d="M2860 7288 c1 -28 29 -210 33 -215 4 -4 103 42 116 53 4 3 -138 174
-145 174 -2 0 -4 -6 -4 -12z"/>
<path d="M6360 7230 c8 -5 22 -9 30 -9 10 0 8 3 -5 9 -27 12 -43 12 -25 0z"/>
<path d="M7396 7228 c3 -5 10 -6 15 -3 13 9 11 12 -6 12 -8 0 -12 -4 -9 -9z"/>
<path d="M3743 7168 c-12 -35 -25 -71 -28 -80 -5 -13 3 -22 34 -37 22 -12 44
-21 49 -21 6 0 3 34 -5 78 -23 129 -25 131 -50 60z"/>
<path d="M4175 7218 c-40 -14 -39 -14 -22 -38 l14 -21 15 23 c22 36 29 48 26
47 -2 0 -16 -5 -33 -11z"/>
<path d="M6576 7213 c-6 -14 -5 -15 5 -6 7 7 10 15 7 18 -3 3 -9 -2 -12 -12z"/>
<path d="M3725 6983 c-33 -14 -62 -27 -64 -29 -2 -2 29 -43 69 -91 110 -133
102 -129 95 -48 -15 183 -17 195 -28 194 -7 0 -39 -12 -72 -26z"/>
<path d="M4032 6853 c3 -43 7 -85 8 -93 0 -8 18 18 40 59 22 41 38 76 37 77
-5 4 -80 34 -86 34 -4 0 -3 -35 1 -77z"/>
<path d="M4390 6759 c0 -73 4 -129 8 -123 88 103 94 112 78 142 -14 28 -6 65
11 49 4 -5 1 -12 -7 -17 -9 -6 -10 -10 -3 -10 18 0 27 20 15 32 -8 8 -15 8
-26 -1 -11 -10 -17 -8 -30 10 -8 12 -12 27 -9 33 3 6 3 8 -2 4 -4 -4 -14 -3
-22 3 -11 10 -13 -11 -13 -122z"/>
<path d="M4478 6883 c12 -2 30 -2 40 0 9 3 -1 5 -23 4 -22 0 -30 -2 -17 -4z"/>
<path d="M2666 6811 c-17 -19 -17 -20 14 -36 32 -16 32 -16 25 7 -14 46 -20
50 -39 29z"/>
<path d="M4930 6820 c0 -5 5 -10 11 -10 5 0 7 5 4 10 -3 6 -8 10 -11 10 -2 0
-4 -4 -4 -10z"/>
<path d="M3620 6786 c0 -19 3 -37 8 -39 4 -3 39 -8 77 -12 79 -8 78 -5 -27 53
l-58 32 0 -34z"/>
<path d="M4808 6813 c6 -2 18 -2 25 0 6 3 1 5 -13 5 -14 0 -19 -2 -12 -5z"/>
<path d="M4583 6795 c0 -8 4 -12 9 -9 5 3 6 10 3 15 -9 13 -12 11 -12 -6z"/>
<path d="M6276 6700 c-37 -62 -65 -115 -62 -117 3 -3 41 22 85 56 43 33 81 56
83 50 2 -6 22 -2 51 11 l47 21 -31 46 c-32 46 -48 46 -49 -2 0 -17 -5 -15 -29
14 l-28 34 -67 -113z"/>
<path d="M4500 6720 c0 -11 2 -20 5 -20 2 0 9 9 15 20 9 16 8 20 -5 20 -8 0
-15 -9 -15 -20z"/>
<path d="M6603 6685 c-79 -22 -142 -43 -140 -46 2 -7 122 -105 216 -177 l56
-42 3 41 3 42 138 -6 137 -6 22 61 c12 34 21 62 19 64 -6 6 -203 102 -223 108
-17 5 -25 -2 -50 -46 l-29 -53 -5 50 -5 51 -142 -41z"/>
<path d="M4801 6683 c12 -21 31 -49 41 -62 11 -15 18 -41 18 -68 0 -29 8 -56
25 -83 22 -34 23 -40 9 -48 -13 -7 -9 -13 20 -36 20 -15 45 -45 56 -66 17 -33
18 -43 8 -60 -16 -25 -24 -25 -31 0 -5 19 -6 19 -61 -5 -30 -13 -92 -43 -136
-65 l-80 -40 0 -85 0 -85 34 0 c18 0 61 -3 95 -6 l61 -7 0 -73 0 -72 53 4 c28
3 88 9 132 14 44 5 114 12 156 16 l77 6 60 102 61 101 -30 3 c-31 4 -42 17
-182 232 -63 96 -68 108 -63 145 4 33 1 43 -15 53 -11 7 -17 17 -14 22 3 5 0
12 -6 16 -8 5 -9 3 -4 -6 5 -8 3 -11 -6 -8 -8 3 -14 11 -14 18 0 7 -7 15 -15
17 -13 4 -13 3 0 -6 19 -14 5 -14 -21 0 -11 5 -16 15 -13 21 4 6 3 8 -3 5 -10
-6 -126 66 -119 74 3 3 -6 6 -19 7 -15 1 -25 -4 -27 -16 -2 -12 -12 -2 -31 31
-15 26 -30 47 -33 47 -3 0 5 -17 17 -37z"/>
<path d="M4300 6493 c0 -60 3 -113 6 -116 6 -6 39 15 109 71 l29 23 -45 42
c-24 23 -57 53 -72 66 l-27 24 0 -110z"/>
<path d="M5557 6468 c-31 -139 -31 -167 -6 -195 20 -20 21 -26 9 -33 -17 -11
-23 -5 75 -66 44 -27 95 -59 114 -71 l34 -23 -54 -1 c-30 -1 -86 0 -125 1
l-71 2 -21 -99 c-11 -53 -19 -99 -17 -102 2 -2 34 1 70 6 l65 10 98 -68 c53
-37 96 -72 94 -78 -3 -15 1 -14 62 16 45 22 53 29 44 41 -10 11 -3 21 32 50
25 20 62 53 83 72 l38 35 -74 53 c-69 48 -80 52 -131 52 -31 0 -56 5 -56 10 0
8 65 183 105 283 11 26 -19 22 -114 -18 -45 -19 -84 -35 -86 -35 -1 0 -6 38
-10 85 l-7 86 -46 23 c-89 45 -87 46 -105 -36z"/>
<path d="M6697 6370 c-83 -34 -95 -45 -42 -36 83 14 94 18 109 42 20 30 17 29
-67 -6z"/>
<path d="M3849 6269 l114 -61 54 54 54 53 -38 6 c-21 4 -96 7 -168 8 l-130 1
114 -61z"/>
<path d="M6872 6283 l-93 -36 38 -17 c21 -9 55 -23 77 -30 38 -12 38 -12 81
30 43 42 43 43 27 66 -9 13 -21 23 -27 23 -5 0 -52 -16 -103 -36z"/>
<path d="M6853 6169 c-30 -9 -32 -12 -21 -29 16 -25 18 -25 46 11 25 31 24 32
-25 18z"/>
<path d="M4314 6050 c11 -38 23 -70 26 -70 3 0 15 23 27 50 l22 50 -27 14
c-15 7 -37 16 -48 20 l-22 7 22 -71z"/>
<path d="M8107 6079 c7 -7 15 -10 18 -7 3 3 -2 9 -12 12 -14 6 -15 5 -6 -5z"/>
<path d="M4004 6023 c3 -16 8 -55 11 -88 11 -103 14 -104 52 -14 51 122 50
115 6 122 -69 12 -75 10 -69 -20z"/>
<path d="M2962 5999 c28 -69 133 -279 140 -279 5 0 43 23 84 51 l75 50 -123
80 c-160 102 -182 115 -176 98z"/>
<path d="M4274 5924 c-21 -27 -42 -55 -47 -61 -7 -10 5 -13 52 -13 l61 0 -7
48 c-10 77 -16 80 -59 26z"/>
<path d="M2396 5927 c-3 -9 -8 -24 -11 -32 -3 -11 4 -15 25 -15 35 0 36 6 10
40 -16 22 -19 23 -24 7z"/>
<path d="M5355 5788 c3 -46 8 -99 11 -118 l6 -34 19 24 c16 22 23 47 45 161 4
23 1 28 -23 33 -15 4 -36 9 -46 12 -16 5 -17 -1 -12 -78z"/>
<path d="M5478 5818 c16 -16 25 -19 33 -11 16 16 2 33 -29 33 l-26 0 22 -22z"/>
<path d="M1683 5751 c-29 -20 -52 -38 -52 -41 0 -5 154 -111 170 -118 8 -3
-52 183 -62 192 -2 2 -27 -13 -56 -33z"/>
<path d="M4867 5713 c-81 -51 -95 -56 -159 -61 l-70 -5 6 -36 c3 -20 6 -42 6
-48 0 -10 25 -13 93 -13 l92 0 47 -52 c49 -56 51 -56 63 15 4 27 11 37 24 37
23 0 32 12 59 79 l22 54 -46 -7 -46 -6 7 50 c4 28 3 50 -2 49 -4 0 -48 -26
-96 -56z"/>
<path d="M3903 5695 c-24 -30 -43 -56 -43 -59 0 -3 43 -6 96 -6 l97 0 -7 31
c-3 17 -6 35 -6 39 0 10 -67 50 -83 49 -7 0 -31 -24 -54 -54z"/>
<path d="M6336 5686 c-9 -19 -16 -37 -16 -40 0 -3 18 -6 40 -6 51 0 62 21 30
56 -30 31 -35 31 -54 -10z"/>
<path d="M5569 5534 c-141 -94 -135 -73 -55 -229 37 -74 72 -135 77 -135 5 0
11 10 14 23 11 51 56 389 53 393 -3 2 -42 -21 -89 -52z"/>
<path d="M4195 5561 l-40 -6 43 -18 c53 -21 49 -22 54 8 3 15 1 24 -6 24 -6
-1 -29 -5 -51 -8z"/>
<path d="M4054 5473 c-5 -27 -7 -52 -6 -56 1 -5 -4 -47 -13 -95 -8 -48 -15
-90 -15 -94 0 -4 32 4 72 18 39 13 77 24 84 24 7 0 27 -43 44 -96 l32 -96 49
149 c27 81 49 149 49 151 0 1 -22 2 -49 2 -49 0 -50 1 -107 70 -53 64 -61 70
-95 70 -37 0 -38 -1 -45 -47z"/>
<path d="M5002 5456 c-17 -21 -41 -73 -97 -211 -30 -76 -63 -150 -72 -166 -9
-16 -14 -31 -11 -35 4 -3 77 33 164 81 109 60 160 83 167 76 7 -7 14 -7 23 0
10 8 26 -10 67 -74 30 -47 60 -94 67 -106 11 -21 13 -20 86 40 41 35 77 66 80
70 3 5 -37 75 -89 156 l-93 148 -105 12 c-57 6 -121 14 -141 16 -22 3 -41 0
-46 -7z"/>
<path d="M5724 5395 l-30 -54 17 -181 c10 -100 19 -183 21 -185 4 -5 230 257
235 272 4 10 -192 203 -207 203 -4 0 -20 -25 -36 -55z"/>
<path d="M7857 5406 c-23 -34 -22 -36 13 -36 33 0 35 4 16 38 l-13 24 -16 -26z"/>
<path d="M3209 5323 c-5 -15 -31 -79 -56 -141 -25 -63 -41 -117 -37 -122 21
-18 85 -32 169 -36 50 -2 116 -6 148 -8 l57 -4 -1 86 c0 48 -4 109 -7 136 l-7
49 -97 28 c-160 45 -156 45 -169 12z"/>
<path d="M4706 5274 c36 -93 36 -106 -1 -118 -16 -6 -34 -17 -39 -26 -9 -14
-9 -120 0 -129 2 -2 31 19 63 47 33 29 69 52 80 52 25 0 24 -4 10 60 -10 48
-21 61 -34 40 -3 -5 -12 -10 -19 -10 -11 0 -10 13 2 66 8 36 12 68 9 71 -3 3
-27 8 -52 11 l-46 5 27 -69z"/>
<path d="M5630 5220 c0 -5 4 -10 9 -10 6 0 13 5 16 10 3 6 -1 10 -9 10 -9 0
-16 -4 -16 -10z"/>
<path d="M4394 5154 c1 -45 2 -47 40 -61 22 -7 41 -11 44 -9 5 6 -68 116 -78
116 -4 0 -7 -21 -6 -46z"/>
<path d="M6153 5110 l-92 -70 74 -123 c41 -67 83 -132 93 -145 l18 -23 53 71
c29 38 57 70 61 70 3 0 35 -25 69 -56 34 -31 64 -54 66 -52 3 3 17 58 32 122
21 91 24 119 15 125 -7 4 -56 18 -108 31 -90 23 -98 27 -139 72 -24 26 -45 48
-47 48 -1 0 -44 -32 -95 -70z"/>
<path d="M3970 5038 l-65 -30 65 -33 c36 -19 70 -34 77 -35 10 0 33 79 33 115
0 23 -38 17 -110 -17z"/>
<path d="M5040 4919 c-57 -17 -106 -32 -109 -34 -2 -3 8 -31 23 -64 14 -32 26
-61 26 -65 0 -3 -34 -6 -75 -6 -41 0 -75 3 -75 7 0 3 7 14 15 23 15 16 13 20
-15 44 -17 14 -41 26 -52 26 -15 0 -175 -92 -215 -124 -1 -1 17 -53 39 -116
l42 -113 21 28 c11 15 27 37 36 48 l16 21 53 -22 c29 -12 58 -22 65 -22 7 0
23 16 36 35 13 19 26 35 29 35 3 0 23 -22 45 -50 22 -27 43 -49 46 -50 8 0 28
106 36 190 5 46 15 68 63 135 68 96 74 105 63 104 -4 0 -55 -14 -113 -30z"/>
<path d="M7620 4813 c0 -62 2 -113 5 -113 11 0 75 34 75 41 0 4 -18 47 -40 95
l-40 89 0 -112z"/>
<path d="M3703 4871 l-33 -6 26 -33 c29 -36 37 -34 75 20 l20 28 -28 -1 c-15
-1 -43 -4 -60 -8z"/>
<path d="M5447 4852 c-27 -2 -47 -7 -45 -11 6 -14 123 -170 128 -171 3 0 27
43 53 95 l47 95 -67 -2 c-38 -2 -90 -4 -116 -6z"/>
<path d="M3960 4737 c4 -63 11 -92 30 -124 14 -24 28 -43 31 -43 4 0 25 24 47
54 36 48 40 57 35 95 -5 40 -9 44 -58 66 -97 42 -91 46 -85 -48z"/>
<path d="M3421 4787 c2 -2 34 -31 70 -65 l66 -62 22 58 c11 33 21 62 21 66 0
3 -41 6 -92 6 -50 0 -89 -1 -87 -3z"/>
<path d="M5137 4752 c-24 -26 -21 -33 11 -26 34 9 34 8 26 28 -8 21 -17 20
-37 -2z"/>
<path d="M5196 4666 c-8 -44 -4 -53 23 -40 19 9 19 10 2 43 l-18 34 -7 -37z"/>
<path d="M5035 4583 c3 -10 11 -39 16 -65 8 -35 19 -54 40 -69 25 -18 28 -23
17 -37 -10 -14 -10 -15 2 -4 17 14 34 16 25 2 -3 -5 0 -8 7 -5 7 2 33 -6 58
-18 63 -31 63 -54 4 -106 l-48 -42 -15 26 c-9 14 -19 25 -23 25 -8 0 -52 -70
-47 -74 2 -2 45 2 94 10 110 17 125 17 125 3 0 -6 12 -49 26 -96 l26 -84 44
58 c25 32 63 82 85 111 22 28 44 52 49 52 6 0 10 7 10 15 0 9 10 29 22 45 l22
30 -39 97 c-21 54 -39 99 -40 101 -3 3 -409 42 -444 42 -18 0 -22 -4 -16 -17z"/>
<path d="M4520 4471 l0 -104 41 52 41 51 -33 42 c-18 24 -36 47 -41 53 -4 5
-8 -37 -8 -94z"/>
<path d="M5650 4566 c0 -2 8 -10 18 -17 15 -13 16 -12 3 4 -13 16 -21 21 -21
13z"/>
<path d="M2230 4520 c-25 -21 -43 -40 -40 -43 12 -11 148 -97 153 -97 5 0 -55
165 -63 174 -3 2 -25 -13 -50 -34z"/>
<path d="M7723 4538 c-15 -20 -142 -233 -148 -250 -5 -13 8 -12 97 5 57 11
104 21 106 22 3 3 -38 228 -43 233 -1 1 -7 -3 -12 -10z"/>
<path d="M4918 4407 l-48 -72 71 -24 c39 -12 73 -20 76 -17 3 3 -4 39 -15 80
-12 41 -22 81 -22 90 0 29 -14 16 -62 -57z"/>
<path d="M5925 4424 c9 -22 21 -51 27 -65 10 -29 8 -29 186 -50 70 -9 105 -10
112 -3 7 7 -16 31 -74 76 l-84 66 -92 8 -91 7 16 -39z"/>
<path d="M6805 4450 c3 -5 8 -10 11 -10 2 0 4 5 4 10 0 6 -5 10 -11 10 -5 0
-7 -4 -4 -10z"/>
<path d="M3665 4428 c-20 -53 -70 -258 -63 -258 18 0 188 73 188 81 0 10 -110
189 -116 189 -3 0 -7 -6 -9 -12z"/>
<path d="M4645 4356 c-8 -20 -15 -41 -15 -48 0 -8 31 -36 68 -64 l68 -51 54
27 54 27 -108 72 -107 72 -14 -35z"/>
<path d="M5622 4198 c-97 -160 -103 -173 -91 -197 7 -14 11 -32 10 -38 -1 -7
2 -13 6 -13 4 0 19 -9 32 -19 23 -18 23 -19 6 -45 -22 -33 -17 -39 24 -25 24
9 30 15 25 28 -4 9 -8 32 -8 51 l-1 35 44 -3 c27 -2 41 0 37 6 -4 6 24 15 66
22 40 6 80 14 89 16 17 5 89 -74 89 -98 0 -7 12 -22 27 -32 23 -17 27 -17 37
-4 6 8 50 57 98 109 123 133 134 149 117 160 -8 5 -36 7 -64 5 -27 -3 -93 -7
-145 -8 l-94 -3 -92 110 c-50 60 -95 110 -100 112 -5 2 -56 -74 -112 -169z"/>
<path d="M5150 4266 c7 -7 13 -7 20 0 6 6 3 10 -10 10 -13 0 -16 -4 -10 -10z"/>
<path d="M6285 4230 l-49 -50 63 0 63 0 -7 38 c-12 65 -17 66 -70 12z"/>
<path d="M2795 4238 c-35 -19 -38 -22 -20 -29 11 -4 35 -8 54 -8 26 -1 32 2
27 15 -3 9 -6 22 -6 30 0 18 -7 17 -55 -8z"/>
<path d="M6540 4245 c0 -2 6 -8 13 -14 10 -8 14 -7 14 2 0 8 -6 14 -14 14 -7
0 -13 -1 -13 -2z"/>
<path d="M4847 4195 c-26 -31 -34 -46 -25 -49 7 -2 35 -11 62 -20 27 -9 53
-16 57 -16 12 0 -18 112 -32 121 -20 13 -21 12 -62 -36z"/>
<path d="M3513 4213 c-38 -19 -43 -33 -10 -33 12 0 31 -3 43 -6 18 -5 20 -2
16 25 -5 35 -5 35 -49 14z"/>
<path d="M4620 4139 c0 -69 2 -68 -107 -40 l-73 19 37 -45 c20 -24 51 -50 69
-58 26 -10 31 -18 27 -34 -6 -24 9 -28 27 -6 7 8 15 13 19 10 13 -7 166 154
156 164 -6 5 -43 18 -82 29 l-73 19 0 -58z"/>
<path d="M6566 4101 c-3 -4 3 -16 13 -25 15 -14 21 -15 27 -4 4 7 4 10 -1 6
-10 -10 -37 11 -29 23 3 5 3 9 0 9 -3 0 -7 -4 -10 -9z"/>
<path d="M6352 4083 c-8 -13 -20 -15 -72 -10 -38 4 -60 3 -58 -3 2 -5 38 -36
81 -70 l79 -60 58 53 c32 28 56 55 54 59 -3 5 -19 8 -36 8 -16 0 -41 9 -55 20
-31 24 -39 25 -51 3z"/>
<path d="M6965 4000 c-3 -5 1 -10 10 -10 9 0 13 5 10 10 -3 6 -8 10 -10 10 -2
0 -7 -4 -10 -10z"/>
<path d="M3908 3882 c-48 -20 -88 -39 -88 -42 0 -6 105 -70 114 -70 4 0 10 10
15 23 5 12 18 46 30 75 11 28 20 52 18 52 -1 -1 -41 -18 -89 -38z"/>
<path d="M5405 3881 c-16 -10 -74 -44 -128 -76 -53 -31 -99 -61 -102 -65 -3
-5 14 -15 37 -23 42 -13 47 -12 175 30 l133 45 -38 53 c-20 30 -39 54 -42 54
-3 1 -18 -8 -35 -18z"/>
<path d="M6317 3853 l-48 -35 -113 31 c-137 37 -140 38 -132 9 3 -13 16 -59
27 -103 12 -44 23 -82 25 -84 1 -2 37 22 80 53 42 31 80 56 84 56 7 0 12 -32
26 -156 l6 -61 -32 -13 c-31 -13 -32 -15 -28 -62 4 -42 3 -48 -13 -48 -14 0
-19 -7 -19 -29 0 -15 -13 -60 -29 -99 l-29 -70 42 -41 42 -41 49 50 49 49 -42
50 -41 49 20 26 c11 14 17 30 14 36 -3 5 8 37 26 70 27 51 35 59 54 54 19 -5
30 5 71 62 l48 67 9 -34 c8 -29 6 -36 -12 -48 -19 -12 -19 -15 -6 -25 13 -10
13 -17 -5 -65 -12 -29 -19 -56 -16 -58 2 -2 48 -6 103 -9 54 -2 134 -6 178 -8
l80 -4 -38 22 c-59 36 -55 38 21 12 40 -14 72 -21 72 -15 0 11 -38 151 -42
154 -2 1 -64 50 -138 110 -74 60 -140 113 -147 117 -7 6 -23 -6 -47 -38 -40
-53 -39 -54 -67 54 -7 28 -18 52 -23 51 -6 0 -33 -16 -59 -36z m177 -318 c3
-8 15 -15 27 -15 22 0 22 0 3 -21 -10 -11 -27 -25 -36 -30 -16 -9 -18 -5 -18
36 0 44 12 60 24 30z"/>
<path d="M5952 3854 c-30 -21 -28 -31 9 -39 39 -9 44 -3 27 29 -13 25 -15 25
-36 10z"/>
<path d="M4113 3757 l-53 -32 0 -199 c0 -165 2 -197 13 -187 8 6 39 48 70 93
l57 83 -15 125 c-9 69 -16 130 -18 137 -1 7 -22 -1 -54 -20z"/>
<path d="M4770 3768 c0 -12 1 -19 3 -17 1 2 9 12 16 22 12 14 11 17 -3 17 -10
0 -16 -8 -16 -22z"/>
<path d="M4350 3745 c0 -8 7 -15 16 -15 14 0 14 3 4 15 -7 8 -14 15 -16 15 -2
0 -4 -7 -4 -15z"/>
<path d="M5660 3707 c0 -32 -1 -33 -125 -82 l-125 -50 0 -62 c0 -68 -6 -73
-50 -48 -14 8 -28 14 -32 15 -3 0 -23 -23 -43 -51 l-37 -51 12 -85 12 -84 37
28 c20 15 50 38 68 51 18 13 36 21 42 18 5 -3 21 -41 37 -83 15 -43 31 -83 35
-89 9 -11 208 -89 213 -83 1 2 37 62 79 133 l75 130 -20 25 -20 26 34 30 c18
17 49 42 67 57 l35 27 -18 34 c-47 87 -72 112 -170 169 -54 32 -100 58 -102
58 -2 0 -4 -15 -4 -33z"/>
<path d="M5975 3681 c12 -63 21 -67 38 -18 l15 45 -30 4 c-29 5 -30 4 -23 -31z"/>
<path d="M4810 3622 c-19 -16 -21 -22 -11 -40 9 -16 21 -22 46 -22 19 0 35 2
35 4 0 7 -41 76 -45 76 -1 0 -13 -8 -25 -18z"/>
<path d="M4540 3514 c64 -83 114 -133 122 -122 26 41 -15 108 -74 122 -14 3
-34 9 -45 13 -16 6 -17 5 -3 -13z"/>
<path d="M4761 3450 c-1 -53 -1 -54 15 -31 15 21 15 26 1 55 l-16 31 0 -55z"/>
<path d="M4917 3442 c-16 -17 -17 -30 -11 -96 6 -66 9 -76 26 -76 15 0 17 -4
9 -18 -7 -13 0 -39 25 -97 l34 -80 -5 65 c-11 126 -17 163 -25 150 -5 -9 -11
5 -15 36 -19 142 -18 138 -38 116z"/>
<path d="M7808 3443 c7 -3 16 -2 19 1 4 3 -2 6 -13 5 -11 0 -14 -3 -6 -6z"/>
<path d="M4607 3361 c-14 -23 -17 -54 -17 -150 0 -67 3 -121 6 -121 13 0 114
111 114 125 0 8 -9 19 -20 25 -13 7 -20 21 -20 38 0 23 -34 112 -43 112 -2 0
-10 -13 -20 -29z"/>
<path d="M6501 3244 c-51 -58 -91 -107 -88 -111 11 -10 258 128 250 140 -16
28 -56 77 -62 76 -3 0 -48 -47 -100 -105z"/>
<path d="M5120 3268 c-25 -33 -53 -70 -62 -83 -17 -21 -16 -23 5 -52 l22 -30
52 33 52 33 -6 68 c-3 37 -8 73 -12 80 -3 6 -25 -14 -51 -49z"/>
<path d="M3010 3215 c-104 -53 -121 -64 -100 -68 39 -9 263 -27 268 -22 6 6
-28 155 -36 154 -4 0 -63 -29 -132 -64z"/>
<path d="M5898 3203 c-32 -37 -30 -43 38 -119 l68 -75 44 45 c42 41 45 47 36
77 -8 27 -19 36 -79 60 -83 34 -87 34 -107 12z"/>
<path d="M6284 3169 c-127 -111 -137 -121 -124 -129 6 -4 53 -10 103 -14 51
-3 119 -9 151 -13 l60 -6 -23 34 c-12 19 -27 45 -34 59 -6 14 -14 27 -18 30
-3 3 -17 24 -31 48 l-25 42 -59 -51z"/>
<path d="M4338 3132 c-59 -61 -71 -81 -59 -101 7 -10 70 26 150 85 5 4 -20 63
-29 69 -3 2 -31 -22 -62 -53z"/>
<path d="M3403 2969 c-62 -89 -62 -89 -40 -102 12 -8 35 -22 50 -31 16 -10 31
-16 33 -13 5 5 27 228 22 232 -2 2 -31 -37 -65 -86z"/>
<path d="M4838 3038 c-70 -18 -77 -22 -83 -49 -4 -16 -14 -33 -23 -38 -13 -7
-14 -12 -3 -25 10 -11 10 -27 3 -68 -23 -120 -23 -122 -7 -108 13 10 15 9 15
-11 1 -24 1 -24 24 5 14 16 22 34 20 40 -2 6 6 17 18 25 20 13 25 10 70 -37
27 -29 50 -46 52 -39 2 7 9 44 15 82 6 39 13 85 17 103 6 32 6 32 -34 32 -32
0 -43 5 -57 26 -9 14 -15 27 -13 28 2 2 21 15 43 29 46 31 45 31 -57 5z"/>
<path d="M5540 2974 c0 -25 146 -472 159 -486 3 -4 59 68 124 158 65 91 117
167 115 169 -8 7 -382 185 -390 185 -4 0 -8 -12 -8 -26z"/>
<path d="M4310 2892 c0 -92 2 -103 24 -129 l24 -27 38 33 c65 56 66 51 -43
176 l-43 48 0 -101z"/>
<path d="M5450 2958 c0 -6 -5 -74 -11 -151 -6 -76 -9 -141 -6 -144 3 -2 15 0
26 7 31 16 26 2 -17 -49 -20 -25 -43 -54 -50 -63 -14 -18 -124 -429 -117 -436
2 -2 84 67 182 154 98 86 181 160 185 163 4 4 -24 63 -62 131 l-70 125 22 15
c66 45 65 38 18 128 -45 88 -76 132 -91 132 -5 0 -9 -5 -9 -12z"/>
<path d="M6092 2878 c22 -46 41 -84 42 -85 1 -1 31 10 67 24 63 24 65 27 55
49 -7 16 -37 35 -93 59 -45 19 -88 35 -96 35 -12 0 -6 -20 25 -82z"/>
<path d="M1504 2878 c4 -24 12 -66 19 -94 l12 -51 133 75 c73 41 130 77 128
79 -5 6 -229 32 -270 33 -28 0 -28 -1 -22 -42z"/>
<path d="M7030 2910 c-16 -10 -15 -11 24 -28 35 -16 40 -12 20 16 -17 24 -22
26 -44 12z"/>
<path d="M6350 2880 c-31 -25 -32 -29 -14 -30 19 0 41 18 58 48 12 21 -8 13
-44 -18z"/>
<path d="M5199 2803 c-56 -76 -55 -80 4 -30 35 31 54 54 50 63 -8 22 -17 17
-54 -33z"/>
<path d="M5313 2797 c3 -7 11 -48 17 -90 18 -112 35 -102 39 24 2 62 1 67 -21
73 -34 9 -41 7 -35 -7z"/>
<path d="M6007 2777 c-25 -11 -27 -14 -14 -31 14 -19 15 -19 31 12 9 18 15 32
14 32 -2 -1 -16 -6 -31 -13z"/>
<path d="M7011 2730 c-79 -32 -149 -64 -157 -72 -11 -11 -3 -28 48 -108 33
-52 62 -96 63 -98 1 -1 58 29 126 67 68 38 156 86 195 107 40 22 73 44 74 49
3 12 -168 114 -190 114 -8 -1 -80 -27 -159 -59z"/>
<path d="M4069 2748 c-5 -23 -25 -194 -23 -197 2 -2 39 30 81 72 l77 76 -44
19 c-52 22 -90 35 -91 30z"/>
<path d="M6090 2722 c-8 -2 -36 -20 -61 -38 -56 -41 -61 -42 -53 -8 6 22 4 25
-12 21 -11 -4 -40 -11 -67 -18 -26 -6 -49 -14 -51 -18 -2 -3 25 -49 60 -101
l64 -95 0 80 1 80 38 -43 38 -43 41 72 c23 39 42 75 42 78 0 17 -26 38 -40 33z"/>
<path d="M5066 2649 l-66 -51 0 -82 0 -82 128 -28 c70 -15 136 -30 146 -33 18
-5 19 -1 12 77 l-7 82 -71 84 c-39 46 -72 84 -73 84 -2 0 -32 -23 -69 -51z"/>
<path d="M4504 2657 c-113 -224 -124 -250 -124 -287 0 -40 0 -40 40 -40 l40 0
0 -97 1 -98 39 45 c22 25 40 50 40 56 0 5 -11 25 -25 44 -32 44 -31 50 5 50
26 0 36 8 63 52 l32 52 9 -36 c8 -32 15 -38 61 -54 l53 -17 8 -70 9 -70 64 94
c78 113 70 104 77 97 6 -7 -87 -143 -214 -313 -50 -66 -90 -121 -88 -122 2 -2
344 65 361 71 7 3 6 60 -5 180 -14 154 -14 176 -1 176 10 0 6 9 -12 28 -23 24
-29 44 -43 142 -9 63 -18 117 -20 118 -1 2 -39 -18 -84 -45 -79 -47 -81 -49
-75 -80 5 -30 4 -33 -18 -33 -35 0 -44 48 -14 72 27 21 22 26 -63 69 -80 41
-102 44 -116 16z"/>
<path d="M6304 2645 c-10 -8 -14 -15 -8 -15 5 0 19 7 30 15 10 8 14 15 8 15
-5 0 -19 -7 -30 -15z"/>
<path d="M3920 2516 c0 -60 5 -82 26 -120 14 -25 29 -48 34 -51 13 -8 90 95
90 121 0 40 -18 71 -47 82 -15 5 -45 17 -65 26 l-38 16 0 -74z"/>
<path d="M7201 2507 c-6 -25 -13 -51 -16 -58 -4 -11 12 -13 90 -11 52 2 95 6
95 10 -1 6 -128 90 -151 100 -3 2 -11 -17 -18 -41z"/>
<path d="M5655 2383 c-93 -80 -183 -156 -199 -169 -16 -14 -27 -26 -25 -28 5
-5 260 -36 291 -36 25 0 218 153 218 172 0 9 -110 209 -114 207 0 0 -77 -66
-171 -146z"/>
<path d="M2630 2388 c-19 -5 -36 -11 -38 -13 -2 -2 17 -34 42 -72 l46 -68 0
83 c0 45 -3 82 -7 81 -5 0 -24 -5 -43 -11z"/>
<path d="M7897 2267 c-37 -41 -67 -77 -67 -80 0 -6 172 -99 176 -95 1 2 4 57
5 123 l4 120 -26 3 c-21 2 -38 -11 -92 -71z"/>
<path d="M6766 2303 c-6 -14 -5 -15 5 -6 7 7 10 15 7 18 -3 3 -9 -2 -12 -12z"/>
<path d="M6542 2149 c-89 -84 -162 -154 -162 -155 0 -1 16 -12 36 -24 l35 -22
144 148 c80 82 145 151 145 154 0 3 -9 16 -19 29 l-18 23 -161 -153z"/>
<path d="M3224 2245 c3 -11 10 -56 16 -100 6 -44 13 -90 16 -103 l5 -23 59 32
59 33 -40 45 c-89 105 -120 136 -115 116z"/>
<path d="M3576 2201 c-11 -17 -73 -261 -67 -261 3 0 49 16 102 37 l96 37 -59
98 c-33 54 -61 98 -63 98 -2 0 -6 -4 -9 -9z"/>
<path d="M6730 2199 c0 -5 5 -7 10 -4 6 3 10 8 10 11 0 2 -4 4 -10 4 -5 0 -10
-5 -10 -11z"/>
<path d="M4067 2168 c-3 -21 0 -38 9 -48 12 -12 14 -8 14 33 0 54 -15 63 -23
15z"/>
<path d="M5044 2154 c4 -16 17 -60 28 -98 l21 -70 33 40 33 39 -6 -105 -6
-104 35 29 c19 17 80 68 136 115 l100 85 -119 3 c-65 1 -119 6 -119 11 0 5
-32 25 -71 46 l-72 38 7 -29z"/>
<path d="M6717 2161 c-4 -17 -3 -21 5 -13 5 5 8 16 6 23 -3 8 -7 3 -11 -10z"/>
<path d="M7729 2072 c-142 -147 -141 -146 -129 -174 7 -15 38 -39 76 -59 35
-19 64 -36 64 -39 -1 -5 -104 -70 -130 -82 -8 -3 -30 -19 -49 -35 l-34 -29
112 -55 c61 -31 113 -53 115 -50 3 4 6 68 8 144 1 75 6 137 9 137 3 0 34 18
67 40 34 22 68 37 76 34 8 -3 17 0 22 7 4 8 3 10 -4 5 -7 -4 -12 -3 -12 2 0
12 51 36 70 33 12 -1 12 0 2 7 -9 6 -13 24 -10 52 l3 43 -90 48 -91 49 -75
-78z"/>
<path d="M4187 2120 c-4 -16 0 -20 16 -19 12 0 31 4 41 8 18 7 16 9 -14 19
-18 7 -34 12 -35 12 -2 0 -5 -9 -8 -20z"/>
<path d="M5572 2110 c-9 -15 -23 -20 -57 -20 -45 0 -45 0 -45 -35 0 -20 -7
-51 -14 -70 -10 -24 -11 -35 -4 -35 8 0 9 -40 5 -137 l-7 -138 50 -28 c27 -16
50 -32 50 -36 0 -26 -50 -62 -139 -100 -56 -24 -101 -47 -101 -51 0 -13 33
-21 44 -10 5 5 25 10 44 10 27 0 32 -3 24 -13 -6 -7 -14 -31 -17 -53 l-7 -39
90 -48 c50 -26 93 -47 96 -47 3 0 6 33 6 73 0 41 3 76 6 80 4 3 59 -20 123
-53 111 -56 119 -62 186 -144 38 -47 71 -86 72 -86 4 0 103 203 103 211 0 3
-38 21 -85 39 -96 37 -81 14 -125 200 -12 52 -24 103 -27 112 -4 17 -7 16 -46
-3 l-42 -21 43 44 c23 24 39 48 35 52 -4 4 -1 11 6 16 12 7 12 13 1 40 -13 32
-13 32 -25 10 -12 -22 -16 -18 -89 73 -42 53 -76 100 -76 105 0 4 16 23 35 42
19 19 35 38 35 42 0 4 -25 8 -56 8 -39 0 -60 5 -68 15 -10 13 -13 13 -24 -5z"/>
<path d="M4457 1984 c-31 -63 -57 -116 -57 -119 0 -3 7 -5 15 -5 8 0 15 5 15
11 0 10 48 55 76 72 8 4 22 3 33 -2 18 -10 18 -9 1 70 -10 44 -20 82 -22 84
-2 2 -30 -47 -61 -111z"/>
<path d="M8030 2060 l0 -40 35 22 34 23 -22 17 c-35 28 -47 22 -47 -22z"/>
<path d="M6700 1981 c0 -48 0 -48 38 -54 34 -6 41 -3 81 37 l44 44 -52 11
c-29 6 -65 11 -81 11 -29 0 -30 -1 -30 -49z"/>
<path d="M5769 1961 l54 -62 24 37 c14 20 21 39 17 44 -5 4 -31 13 -59 19 -27
7 -59 15 -70 18 -13 4 -2 -15 34 -56z"/>
<path d="M6091 1905 l-50 -47 97 -129 97 -130 62 68 c44 47 60 70 53 78 -7 9
-5 16 5 25 8 7 15 16 15 21 0 7 -157 117 -217 153 -8 4 -32 -11 -62 -39z"/>
<path d="M3951 1780 c0 -107 3 -139 12 -134 36 22 308 217 305 220 -5 4 -282
54 -301 54 -13 0 -16 -21 -16 -140z"/>
<path d="M7451 1851 c-10 -6 -12 -19 -7 -42 l6 -33 -32 31 c-63 60 -65 59
-172 -90 -53 -74 -96 -138 -96 -143 0 -5 23 -36 50 -69 28 -33 50 -63 50 -66
0 -13 -153 -290 -157 -285 -2 2 0 20 5 39 10 36 10 36 -34 54 -24 10 -44 22
-44 26 0 19 32 67 44 67 12 0 56 132 56 169 0 16 -90 131 -102 131 -5 0 -27
-9 -49 -21 -22 -11 -46 -18 -52 -16 -7 2 -19 -1 -27 -8 -8 -7 -55 -29 -105
-50 -49 -20 -109 -46 -132 -56 l-43 -18 1 -86 1 -86 21 18 c12 9 6 0 -13 -22
-19 -22 -35 -41 -36 -42 0 -2 -15 2 -32 8 -31 11 -31 11 -16 41 20 39 11 47
-26 20 -16 -12 -33 -22 -39 -22 -5 0 -61 20 -125 44 l-116 44 0 -31 c-2 -101
1 -332 5 -335 2 -2 17 4 35 13 18 9 34 14 37 11 3 -3 8 -38 10 -78 7 -130 9
-131 55 -55 22 37 44 67 48 67 4 0 15 -27 25 -60 10 -33 21 -60 25 -60 4 0 48
32 99 70 50 39 93 70 96 70 3 0 5 -18 5 -40 0 -22 5 -40 11 -40 6 0 8 -8 4
-19 -4 -15 1 -20 27 -25 25 -4 58 -31 125 -99 l92 -92 -17 -63 c-16 -62 -16
-64 2 -78 28 -20 41 -18 55 9 11 22 11 22 7 -3 -20 -103 -20 -107 7 -114 24
-6 25 -8 16 -43 -6 -21 -14 -47 -19 -58 -4 -11 -14 -41 -21 -67 l-13 -48 -17
48 c-39 113 -50 131 -91 144 l-39 11 40 26 c23 14 41 29 41 32 0 3 -35 27 -77
54 -131 83 -140 103 -63 131 28 10 50 21 50 24 0 3 -33 14 -72 26 l-73 20 -35
66 -35 65 -50 -23 c-151 -71 -175 -82 -175 -76 0 4 4 24 9 45 5 20 6 37 3 37
-8 0 -263 -173 -259 -176 1 -1 46 -25 99 -53 l97 -50 7 35 c3 19 10 37 15 40
5 3 37 -4 72 -15 34 -11 108 -34 165 -51 l102 -31 0 -49 c0 -58 7 -56 -114
-34 l-89 15 -31 -34 c-17 -18 -46 -42 -63 -52 -31 -18 -33 -22 -33 -77 0 -56
-3 -63 -56 -133 -31 -41 -61 -75 -67 -75 -7 0 -8 -3 -1 -10 5 -5 50 -17 99
-26 169 -30 200 -39 199 -57 -2 -16 26 -17 338 -17 l339 0 -3 52 -3 53 -60 30
c-34 16 -62 35 -64 40 -1 6 -5 12 -8 15 -4 3 -3 -1 1 -8 10 -17 2 -15 -40 7
l-35 19 47 33 c26 17 58 33 71 35 14 1 28 6 31 10 4 4 -1 4 -10 1 -10 -4 -18
-3 -18 1 0 11 56 43 64 37 3 -3 4 -2 1 1 -2 4 7 16 21 26 23 18 23 21 8 32
-15 12 -15 15 0 45 l17 32 -86 100 c-47 56 -85 107 -85 114 0 7 14 25 31 39
22 19 26 26 14 26 -15 0 -15 3 -5 15 11 13 10 18 -4 28 -15 11 -10 17 48 54
60 39 84 45 54 15 -14 -14 -10 -19 17 -24 16 -2 21 4 25 38 5 37 4 42 -14 42
-12 0 -39 7 -61 17 l-40 17 76 38 c55 28 83 49 99 75 18 29 27 35 56 35 l35 0
-20 -29 c-12 -16 -21 -32 -21 -35 0 -4 39 14 86 39 67 35 96 45 134 45 l48 0
42 120 c24 66 41 123 38 125 -2 2 -75 13 -162 24 -87 11 -160 21 -162 24 -12
12 121 211 209 312 53 62 97 115 97 118 0 3 -35 8 -77 12 -43 4 -85 8 -93 11
-8 2 -21 0 -29 -5z m-876 -681 c-53 -24 -70 -24 -25 0 19 11 42 19 50 19 8 0
-3 -9 -25 -19z m544 -67 c20 -18 20 -18 -32 -79 -51 -58 -53 -60 -64 -38 -9
19 -7 24 13 34 14 8 26 28 33 56 12 49 19 52 50 27z m-83 -210 c-2 -10 -7 -33
-11 -51 -6 -28 -10 -32 -27 -26 -15 5 -26 0 -39 -17 -29 -37 -22 -4 8 44 39
61 81 91 69 50z m-195 -822 c-17 -34 -34 -61 -37 -61 -3 0 -4 6 -1 14 3 8 2
16 -2 18 -5 2 -12 14 -16 27 -6 20 -4 23 9 18 9 -4 15 -2 13 3 -2 9 54 50 61
45 2 -2 -11 -30 -27 -64z"/>
<path d="M6829 108 c-4 -15 -6 -50 -3 -41 3 7 5 15 4 19 -1 4 4 11 12 15 10 7
10 9 1 9 -7 0 -13 -1 -14 -2z"/>
<path d="M6575 1802 c-17 -15 -43 -37 -59 -50 l-29 -22 38 -94 38 -94 36 5
c28 4 54 23 120 88 l83 82 -72 57 c-82 64 -110 69 -155 28z"/>
<path d="M7816 1812 c-3 -5 1 -9 9 -9 8 0 12 4 9 9 -3 4 -7 8 -9 8 -2 0 -6 -4
-9 -8z"/>
<path d="M7153 1763 l-33 -53 24 -6 c45 -11 51 -3 46 56 l-5 55 -32 -52z"/>
<path d="M4826 1668 c4 -7 50 -70 103 -140 106 -142 105 -141 112 -23 l2 50 6
-65 6 -64 85 -27 c47 -15 91 -28 97 -28 7 -1 20 13 28 30 14 27 15 44 4 145
-7 63 -16 114 -21 114 -36 0 -175 -44 -183 -58 -8 -14 -11 -11 -15 18 l-5 35
-80 12 c-110 16 -148 16 -139 1z"/>
<path d="M6410 1661 c-13 -26 -13 -31 5 -31 9 0 15 9 15 25 0 30 -6 32 -20 6z"/>
<path d="M4650 1554 c-50 -47 -94 -83 -99 -80 -5 3 -14 19 -21 36 -14 34 -23
34 -95 -3 l-40 -20 57 -21 c70 -27 73 -29 49 -50 -19 -17 -15 -20 101 -78 125
-64 137 -65 138 -13 1 19 1 19 14 2 13 -17 16 -15 42 30 15 26 33 58 41 71 11
17 11 22 1 22 -7 1 6 11 30 24 l43 22 -75 72 c-42 40 -80 72 -86 72 -5 0 -50
-38 -100 -86z"/>
<path d="M6050 1510 c0 -26 -3 -57 -6 -67 -3 -10 12 2 35 27 22 25 39 49 38
53 -2 5 -17 15 -35 23 l-32 13 0 -49z"/>
<path d="M4113 1318 c-33 -16 -28 -28 12 -28 38 0 38 0 29 24 -7 18 -11 19
-41 4z"/>
<path d="M2528 1302 c-21 -10 -38 -20 -38 -23 0 -3 11 -16 24 -28 l24 -22 25
45 c28 50 23 53 -35 28z"/>
<path d="M4835 1300 c-3 -6 1 -7 9 -4 18 7 21 14 7 14 -6 0 -13 -4 -16 -10z"/>
<path d="M5050 1223 c-22 -49 -46 -100 -54 -115 -14 -26 -14 -26 12 -18 15 5
53 14 86 20 l59 12 -7 81 c-6 78 -19 107 -48 107 -5 0 -27 -39 -48 -87z"/>
<path d="M4835 1260 c-3 -6 1 -7 9 -4 18 7 21 14 7 14 -6 0 -13 -4 -16 -10z"/>
<path d="M3179 1240 c19 -12 41 -18 50 -15 14 6 14 7 1 15 -8 4 -31 11 -50 15
l-35 6 34 -21z"/>
<path d="M5488 1137 c-49 -18 -88 -35 -88 -38 0 -14 114 -129 121 -122 6 7 79
181 79 190 0 8 -31 -1 -112 -30z"/>
<path d="M4390 1035 c0 -69 2 -125 4 -125 2 0 25 25 51 56 l48 55 -48 70 c-26
38 -49 69 -51 69 -2 0 -4 -56 -4 -125z"/>
<path d="M5332 1135 c0 -16 2 -22 5 -12 2 9 2 23 0 30 -3 6 -5 -1 -5 -18z"/>
<path d="M5270 1140 l-35 -7 32 -2 c17 0 35 4 38 9 3 6 5 9 3 9 -2 -1 -19 -5
-38 -9z"/>
<path d="M5340 941 c0 -100 -3 -123 -15 -128 -13 -4 -15 -17 -11 -62 3 -31 8
-86 12 -124 l6 -67 31 26 c48 41 44 10 -6 -42 l-45 -46 -15 23 c-8 13 -31 55
-51 92 l-37 68 -94 -88 c-98 -92 -110 -116 -84 -165 11 -20 -4 -37 -79 -94
-13 -9 -11 -17 12 -50 14 -21 26 -42 26 -47 0 -4 -23 -5 -51 -1 -48 6 -52 5
-75 -22 -13 -16 -23 -34 -24 -39 0 -6 18 -29 40 -50 22 -21 40 -45 40 -52 0
-23 20 -14 30 15 21 57 43 102 51 102 4 0 42 -27 83 -60 l76 -60 0 66 0 66 75
84 c41 46 77 79 80 74 12 -20 32 -8 140 81 61 50 121 99 134 108 l23 17 -11
125 c-7 68 -14 140 -15 159 -2 19 -4 47 -5 61 -1 24 -8 28 -83 49 -70 19 -89
29 -120 62 l-38 41 0 -122z"/>
<path d="M5602 1013 l-23 -4 23 -18 c48 -37 207 -141 216 -141 8 0 27 19 85
87 17 20 17 21 -8 52 l-27 31 -121 -1 c-67 -1 -132 -4 -145 -6z"/>
<path d="M7236 958 c-21 -8 -25 -13 -15 -19 26 -17 59 -10 59 11 0 22 -3 23
-44 8z"/>
<path d="M4300 768 c0 -56 4 -109 8 -115 6 -9 26 2 71 38 l63 51 -34 35 c-18
19 -50 48 -70 65 l-38 30 0 -104z"/>
<path d="M4850 847 l-21 -22 21 -17 21 -17 -40 -44 c-38 -41 -41 -48 -41 -103
0 -33 -4 -65 -9 -73 -5 -7 -30 -17 -56 -22 -27 -5 -50 -11 -52 -13 -3 -3 34
-96 41 -104 2 -1 42 15 89 37 65 30 92 48 107 73 l20 33 -24 3 -24 3 38 82
c30 64 36 83 26 92 -7 5 -28 32 -46 60 -18 27 -25 43 -16 36 9 -7 16 -9 16 -3
0 21 -31 21 -50 -1z"/>
<path d="M5832 748 c-115 -113 -122 -122 -117 -152 5 -26 -3 -46 -49 -118 -30
-48 -66 -107 -81 -132 l-27 -46 25 -44 c22 -40 23 -46 9 -59 -14 -14 -12 -16
11 -22 19 -5 35 -23 57 -67 30 -56 30 -61 15 -84 -15 -24 -15 -24 19 -24 31 0
39 7 89 77 55 76 61 93 30 93 -13 0 -15 10 -9 71 4 39 9 76 12 83 2 6 31 28
63 49 96 61 95 60 88 187 -3 60 -2 110 1 109 4 0 24 -23 45 -51 l39 -50 24 35
c28 41 29 47 11 47 -20 0 -116 145 -119 180 -1 17 -5 33 -8 35 -3 2 -61 -51
-128 -117z m193 -73 l30 -14 -30 6 c-16 3 -37 9 -45 14 -27 15 11 10 45 -6z"/>
<path d="M5290 823 c-14 -7 -18 -13 -10 -13 17 0 47 17 40 23 -3 2 -16 -2 -30
-10z"/>
<path d="M4037 716 c-20 -45 -37 -84 -37 -87 0 -6 77 -29 96 -29 7 0 -4 137
-14 173 -6 20 -13 11 -45 -57z"/>
<path d="M5120 750 c-13 -8 -12 -10 3 -10 9 0 17 5 17 10 0 12 -1 12 -20 0z"/>
<path d="M5090 720 c-9 -6 -10 -10 -3 -10 6 0 15 5 18 10 8 12 4 12 -15 0z"/>
<path d="M2670 688 c1 -25 41 -122 50 -120 29 7 60 35 51 46 -11 13 -101 79
-101 74z"/>
<path d="M7520 665 c-11 -13 -10 -14 4 -9 9 3 16 10 16 15 0 13 -6 11 -20 -6z"/>
<path d="M6113 256 l-92 -66 -71 0 -72 0 7 -27 c4 -16 8 -37 9 -48 1 -11 7
-26 14 -33 6 -7 12 -22 12 -33 0 -24 6 -24 38 2 26 20 53 21 113 3 11 -3 36
22 78 77 60 79 62 82 59 136 l-3 54 -92 -65z"/>
<path d="M7237 299 c4 -13 8 -18 11 -10 2 7 -1 18 -6 23 -8 8 -9 4 -5 -13z"/>
<path d="M4287 191 c-26 -34 -47 -63 -47 -64 0 -2 27 -5 59 -6 l60 -2 -6 38
c-3 21 -8 51 -12 66 l-6 29 -48 -61z"/>
<path d="M5530 30 c-12 -17 -17 -30 -11 -30 6 0 17 13 26 30 9 17 13 30 11 30
-3 0 -14 -13 -26 -30z"/>
</g>
</svg>
